<svg xmlns="http://www.w3.org/2000/svg" xmlns:xlink="http://www.w3.org/1999/xlink" width="500" zoomAndPan="magnify" viewBox="0 0 375 374.999991" height="500" preserveAspectRatio="xMidYMid meet" version="1.0"><path fill="#caddff" d="M 360.628906 145.585938 C 344.683594 64.460938 264.15625 15.425781 196.570312 9.171875 C 140.578125 3.992188 72.710938 18.125 41.34375 70.125 C 22.128906 101.988281 45.832031 116.019531 32.539062 186.535156 C 21.03125 247.570312 0.0585938 269.5625 12.824219 300.671875 C 23.261719 326.101562 47.011719 337.25 62.601562 344.9375 C 124.054688 375.242188 237.246094 372.835938 304.453125 317.550781 C 320.183594 304.613281 378.671875 237.359375 360.628906 145.585938 " fill-opacity="1" fill-rule="nonzero"/><path fill="#6567fd" d="M 103.441406 135.589844 C 112.066406 153.617188 104.558594 175.234375 86.664062 183.867188 C 68.773438 192.496094 47.277344 184.875 38.648438 166.84375 C 30.023438 148.8125 37.53125 127.199219 55.425781 118.566406 C 73.316406 109.9375 94.8125 117.558594 103.441406 135.589844 " fill-opacity="1" fill-rule="nonzero"/><path fill="#ffffff" d="M 97.238281 133.621094 C 107.441406 150.804688 101.898438 173.003906 84.851562 183.207031 C 67.804688 193.410156 45.710938 187.75 35.503906 170.566406 C 25.300781 153.378906 30.84375 131.179688 47.890625 120.976562 C 64.9375 110.773438 87.03125 116.433594 97.238281 133.621094 " fill-opacity="1" fill-rule="nonzero"/><path fill="#000000" d="M 66.179688 116.535156 C 59.910156 116.535156 53.738281 118.230469 48.222656 121.53125 C 31.507812 131.535156 26.050781 153.382812 36.058594 170.234375 C 40.925781 178.425781 48.671875 184.222656 57.867188 186.554688 C 66.988281 188.863281 76.457031 187.476562 84.519531 182.652344 C 101.234375 172.648438 106.691406 150.800781 96.683594 133.949219 C 91.816406 125.753906 84.074219 119.960938 74.878906 117.628906 C 71.992188 116.898438 69.074219 116.535156 66.179688 116.535156 Z M 66.566406 188.9375 C 63.5625 188.9375 60.539062 188.5625 57.550781 187.804688 C 48.019531 185.390625 39.992188 179.386719 34.953125 170.894531 C 24.578125 153.433594 30.234375 130.792969 47.5625 120.421875 C 55.921875 115.417969 65.734375 113.980469 75.195312 116.378906 C 84.722656 118.792969 92.75 124.796875 97.792969 133.289062 C 108.164062 150.75 102.503906 173.394531 85.183594 183.761719 C 79.464844 187.183594 73.066406 188.9375 66.566406 188.9375 " fill-opacity="1" fill-rule="nonzero"/><path fill="#000000" d="M 85.972656 163.375 C 85.871094 163.375 85.765625 163.351562 85.667969 163.296875 L 67 153.167969 C 66.253906 152.761719 65.691406 152.09375 65.421875 151.28125 L 60.375 136.082031 C 60.261719 135.742188 60.445312 135.378906 60.785156 135.265625 C 61.121094 135.152344 61.488281 135.335938 61.601562 135.671875 L 66.648438 150.875 C 66.8125 151.371094 67.15625 151.78125 67.617188 152.03125 L 86.28125 162.164062 C 86.59375 162.332031 86.710938 162.722656 86.539062 163.039062 C 86.425781 163.253906 86.203125 163.375 85.972656 163.375 " fill-opacity="1" fill-rule="nonzero"/><path fill="#caddff" d="M 53.484375 126.277344 C 54.136719 127.375 53.785156 128.792969 52.695312 129.445312 C 51.605469 130.097656 50.195312 129.738281 49.542969 128.640625 C 48.894531 127.542969 49.246094 126.121094 50.335938 125.472656 C 51.421875 124.820312 52.835938 125.179688 53.484375 126.277344 " fill-opacity="1" fill-rule="nonzero"/><path fill="#caddff" d="M 42.40625 136.171875 C 43.515625 136.792969 43.914062 138.203125 43.296875 139.316406 C 42.679688 140.429688 41.28125 140.824219 40.171875 140.199219 C 39.0625 139.574219 38.664062 138.167969 39.28125 137.054688 C 39.898438 135.941406 41.296875 135.542969 42.40625 136.171875 " fill-opacity="1" fill-rule="nonzero"/><path fill="#caddff" d="M 37.972656 150.058594 C 39.238281 150.042969 40.285156 151.0625 40.304688 152.339844 C 40.324219 153.617188 39.3125 154.660156 38.042969 154.675781 C 36.773438 154.691406 35.730469 153.671875 35.710938 152.394531 C 35.691406 151.121094 36.703125 150.074219 37.972656 150.058594 " fill-opacity="1" fill-rule="nonzero"/><path fill="#caddff" d="M 40.757812 164.957031 C 41.84375 164.304688 43.257812 164.667969 43.90625 165.765625 C 44.558594 166.863281 44.207031 168.28125 43.117188 168.929688 C 42.027344 169.582031 40.617188 169.21875 39.964844 168.121094 C 39.3125 167.027344 39.667969 165.609375 40.757812 164.957031 " fill-opacity="1" fill-rule="nonzero"/><path fill="#caddff" d="M 50.855469 175.871094 C 51.472656 174.757812 52.871094 174.359375 53.980469 174.984375 C 55.089844 175.609375 55.488281 177.015625 54.871094 178.128906 C 54.253906 179.242188 52.855469 179.640625 51.746094 179.015625 C 50.636719 178.390625 50.238281 176.984375 50.855469 175.871094 " fill-opacity="1" fill-rule="nonzero"/><path fill="#caddff" d="M 64.949219 180.609375 C 64.929688 179.332031 65.941406 178.285156 67.207031 178.269531 C 68.476562 178.253906 69.523438 179.277344 69.542969 180.550781 C 69.5625 181.828125 68.550781 182.875 67.28125 182.890625 C 66.011719 182.90625 64.96875 181.882812 64.949219 180.609375 " fill-opacity="1" fill-rule="nonzero"/><path fill="#caddff" d="M 79.480469 177.632812 C 78.828125 176.535156 79.183594 175.121094 80.273438 174.46875 C 81.359375 173.816406 82.773438 174.175781 83.421875 175.273438 C 84.074219 176.371094 83.722656 177.789062 82.632812 178.441406 C 81.542969 179.09375 80.132812 178.730469 79.480469 177.632812 " fill-opacity="1" fill-rule="nonzero"/><path fill="#caddff" d="M 90.5625 167.742188 C 89.453125 167.117188 89.054688 165.710938 89.671875 164.597656 C 90.289062 163.484375 91.6875 163.089844 92.796875 163.710938 C 93.90625 164.339844 94.304688 165.746094 93.6875 166.859375 C 93.070312 167.972656 91.671875 168.367188 90.5625 167.742188 " fill-opacity="1" fill-rule="nonzero"/><path fill="#caddff" d="M 94.996094 153.855469 C 93.726562 153.871094 92.683594 152.851562 92.664062 151.574219 C 92.644531 150.296875 93.65625 149.25 94.925781 149.234375 C 96.191406 149.21875 97.238281 150.242188 97.257812 151.515625 C 97.277344 152.792969 96.265625 153.839844 94.996094 153.855469 " fill-opacity="1" fill-rule="nonzero"/><path fill="#caddff" d="M 91.984375 139.226562 C 90.898438 139.875 89.488281 139.515625 88.835938 138.417969 C 88.183594 137.324219 88.539062 135.902344 89.625 135.25 C 90.714844 134.601562 92.125 134.960938 92.777344 136.058594 C 93.429688 137.15625 93.074219 138.574219 91.984375 139.226562 " fill-opacity="1" fill-rule="nonzero"/><path fill="#caddff" d="M 82.113281 128.042969 C 81.496094 129.15625 80.09375 129.550781 78.988281 128.929688 C 77.878906 128.304688 77.480469 126.894531 78.097656 125.78125 C 78.714844 124.671875 80.113281 124.273438 81.21875 124.898438 C 82.328125 125.523438 82.726562 126.929688 82.113281 128.042969 " fill-opacity="1" fill-rule="nonzero"/><path fill="#caddff" d="M 68.019531 123.304688 C 68.039062 124.582031 67.027344 125.628906 65.757812 125.644531 C 64.492188 125.660156 63.445312 124.636719 63.425781 123.359375 C 63.40625 122.085938 64.417969 121.039062 65.6875 121.023438 C 66.953125 121.007812 68 122.027344 68.019531 123.304688 " fill-opacity="1" fill-rule="nonzero"/><path fill="#ffffff" d="M 194.339844 63.460938 C 194.226562 60.96875 192.234375 58.925781 189.75 58.753906 C 188.183594 58.648438 186.761719 59.277344 185.785156 60.324219 C 185.539062 60.59375 185.191406 60.742188 184.824219 60.742188 C 184.097656 60.742188 183.507812 60.152344 183.507812 59.425781 L 183.507812 59.179688 L 183.5 59.179688 L 183.5 49.164062 L 173.503906 49.164062 L 173.503906 49.171875 L 173.257812 49.171875 C 172.53125 49.171875 171.941406 49.761719 171.941406 50.492188 C 171.941406 50.855469 172.089844 51.207031 172.359375 51.453125 C 173.40625 52.429688 174.03125 53.851562 173.925781 55.421875 C 173.757812 57.910156 171.71875 59.90625 169.230469 60.019531 C 166.394531 60.148438 164.058594 57.886719 164.058594 55.078125 C 164.058594 53.644531 164.664062 52.355469 165.632812 51.453125 C 165.902344 51.207031 166.050781 50.855469 166.050781 50.492188 C 166.050781 49.761719 165.460938 49.171875 164.734375 49.171875 L 164.488281 49.171875 L 164.488281 49.164062 L 154.492188 49.164062 L 154.492188 74.683594 C 154.492188 76.632812 156.074219 78.21875 158.023438 78.21875 L 183.5 78.21875 L 183.5 68.207031 L 183.507812 68.207031 L 183.507812 67.960938 C 183.507812 67.230469 184.097656 66.640625 184.824219 66.640625 C 185.191406 66.640625 185.539062 66.789062 185.785156 67.058594 C 186.6875 68.03125 187.976562 68.640625 189.40625 68.640625 C 192.210938 68.640625 194.46875 66.296875 194.339844 63.460938 " fill-opacity="1" fill-rule="nonzero"/><path fill="#000000" d="M 155.136719 49.8125 L 155.136719 74.683594 C 155.136719 76.277344 156.429688 77.570312 158.023438 77.570312 L 182.859375 77.570312 L 182.859375 68.207031 C 182.859375 68.171875 182.859375 68.136719 182.863281 68.101562 L 182.863281 67.960938 C 182.863281 66.878906 183.746094 65.996094 184.824219 65.996094 C 185.367188 65.996094 185.890625 66.222656 186.257812 66.617188 C 187.070312 67.492188 188.214844 67.992188 189.40625 67.992188 C 190.589844 67.992188 191.691406 67.519531 192.511719 66.664062 C 193.332031 65.804688 193.75 64.675781 193.699219 63.488281 C 193.59375 61.304688 191.882812 59.546875 189.707031 59.402344 C 188.402344 59.3125 187.144531 59.808594 186.257812 60.765625 C 185.890625 61.160156 185.367188 61.386719 184.824219 61.386719 C 183.746094 61.386719 182.863281 60.507812 182.863281 59.425781 L 182.863281 59.28125 C 182.859375 59.246094 182.859375 59.210938 182.859375 59.179688 L 182.859375 49.8125 L 173.59375 49.8125 C 173.5625 49.816406 173.53125 49.816406 173.503906 49.816406 L 173.257812 49.816406 C 172.890625 49.816406 172.585938 50.117188 172.585938 50.492188 C 172.585938 50.675781 172.664062 50.855469 172.796875 50.980469 C 174.035156 52.132812 174.683594 53.769531 174.570312 55.464844 C 174.375 58.296875 172.09375 60.53125 169.257812 60.664062 C 167.71875 60.738281 166.253906 60.1875 165.140625 59.121094 C 164.027344 58.054688 163.410156 56.621094 163.410156 55.078125 C 163.410156 53.527344 164.0625 52.035156 165.195312 50.980469 C 165.328125 50.855469 165.40625 50.675781 165.40625 50.492188 C 165.40625 50.117188 165.105469 49.816406 164.734375 49.816406 L 164.488281 49.816406 C 164.460938 49.816406 164.429688 49.816406 164.398438 49.8125 Z M 183.5 78.863281 L 158.023438 78.863281 C 155.71875 78.863281 153.847656 76.988281 153.847656 74.683594 L 153.847656 49.167969 C 153.847656 48.808594 154.136719 48.519531 154.492188 48.519531 L 164.488281 48.519531 C 164.519531 48.519531 164.550781 48.523438 164.582031 48.527344 L 164.734375 48.527344 C 165.816406 48.527344 166.695312 49.40625 166.695312 50.492188 C 166.695312 51.035156 166.46875 51.558594 166.074219 51.925781 C 165.1875 52.75 164.703125 53.867188 164.703125 55.078125 C 164.703125 56.261719 165.171875 57.367188 166.03125 58.1875 C 166.886719 59.007812 168 59.421875 169.199219 59.371094 C 171.378906 59.273438 173.132812 57.554688 173.28125 55.378906 C 173.371094 54.074219 172.875 52.8125 171.917969 51.925781 C 171.523438 51.558594 171.296875 51.035156 171.296875 50.492188 C 171.296875 49.40625 172.175781 48.527344 173.257812 48.527344 L 173.414062 48.527344 C 173.445312 48.523438 173.472656 48.519531 173.503906 48.519531 L 183.5 48.519531 C 183.859375 48.519531 184.148438 48.808594 184.148438 49.167969 L 184.148438 59.078125 C 184.152344 59.109375 184.152344 59.144531 184.152344 59.179688 L 184.152344 59.425781 C 184.152344 59.796875 184.453125 60.097656 184.824219 60.097656 C 185.011719 60.097656 185.191406 60.019531 185.316406 59.882812 C 186.46875 58.644531 188.097656 57.996094 189.792969 58.113281 C 192.621094 58.304688 194.855469 60.589844 194.984375 63.429688 C 195.054688 64.972656 194.507812 66.4375 193.445312 67.554688 C 192.382812 68.671875 190.945312 69.285156 189.40625 69.285156 C 187.859375 69.285156 186.367188 68.632812 185.316406 67.5 C 185.191406 67.363281 185.011719 67.285156 184.824219 67.285156 C 184.453125 67.285156 184.152344 67.589844 184.152344 67.960938 L 184.152344 68.207031 C 184.152344 68.238281 184.152344 68.273438 184.148438 68.304688 L 184.148438 78.21875 C 184.148438 78.574219 183.859375 78.863281 183.5 78.863281 " fill-opacity="1" fill-rule="nonzero"/><path fill="#ffffff" d="M 201.945312 49.167969 C 201.375 49.019531 200.949219 48.503906 200.949219 47.890625 C 200.949219 47.523438 201.101562 47.175781 201.367188 46.925781 C 202.414062 45.953125 203.039062 44.527344 202.933594 42.957031 C 202.761719 40.46875 200.726562 38.476562 198.238281 38.363281 C 195.40625 38.230469 193.066406 40.492188 193.066406 43.304688 C 193.066406 44.734375 193.671875 46.027344 194.644531 46.925781 C 194.910156 47.175781 195.0625 47.523438 195.0625 47.890625 C 195.0625 48.503906 194.636719 49.019531 194.070312 49.167969 L 183.5 49.167969 L 183.5 59.179688 L 183.507812 59.179688 L 183.507812 59.421875 C 183.507812 60.152344 184.097656 60.742188 184.824219 60.742188 C 185.1875 60.742188 185.539062 60.59375 185.785156 60.324219 C 186.761719 59.277344 188.183594 58.652344 189.75 58.757812 C 192.234375 58.925781 194.226562 60.96875 194.339844 63.460938 C 194.472656 66.296875 192.210938 68.640625 189.40625 68.640625 C 187.976562 68.640625 186.6875 68.03125 185.785156 67.058594 C 185.539062 66.792969 185.1875 66.640625 184.824219 66.640625 C 184.097656 66.640625 183.507812 67.230469 183.507812 67.960938 L 183.507812 68.207031 L 183.5 68.207031 L 183.5 78.21875 L 208.980469 78.21875 C 210.929688 78.21875 212.511719 76.636719 212.511719 74.683594 L 212.511719 49.167969 L 201.945312 49.167969 " fill-opacity="1" fill-rule="nonzero"/><path fill="#000000" d="M 184.148438 77.570312 L 208.976562 77.570312 C 210.570312 77.570312 211.867188 76.277344 211.867188 74.683594 L 211.867188 49.8125 L 201.945312 49.8125 C 201.890625 49.8125 201.835938 49.804688 201.785156 49.792969 C 200.914062 49.570312 200.308594 48.789062 200.308594 47.886719 C 200.308594 47.347656 200.535156 46.824219 200.929688 46.457031 C 201.882812 45.566406 202.382812 44.308594 202.292969 43 C 202.144531 40.824219 200.386719 39.109375 198.210938 39.007812 C 197.015625 38.953125 195.894531 39.371094 195.039062 40.191406 C 194.183594 41.011719 193.710938 42.117188 193.710938 43.304688 C 193.710938 44.496094 194.210938 45.644531 195.082031 46.457031 C 195.480469 46.824219 195.707031 47.347656 195.707031 47.886719 C 195.707031 48.789062 195.097656 49.570312 194.226562 49.792969 C 194.175781 49.804688 194.121094 49.8125 194.070312 49.8125 L 184.148438 49.8125 L 184.148438 59.078125 C 184.148438 59.113281 184.15625 59.144531 184.15625 59.179688 L 184.15625 59.425781 C 184.15625 59.796875 184.453125 60.097656 184.824219 60.097656 C 185.011719 60.097656 185.191406 60.019531 185.316406 59.886719 C 186.464844 58.644531 188.09375 58 189.792969 58.113281 C 192.621094 58.304688 194.851562 60.589844 194.984375 63.429688 C 195.054688 64.972656 194.507812 66.441406 193.441406 67.554688 C 192.378906 68.671875 190.945312 69.285156 189.402344 69.285156 C 187.859375 69.285156 186.367188 68.636719 185.316406 67.5 C 185.191406 67.363281 185.011719 67.289062 184.824219 67.289062 C 184.453125 67.289062 184.15625 67.589844 184.15625 67.960938 L 184.15625 68.203125 C 184.15625 68.242188 184.148438 68.273438 184.148438 68.308594 Z M 208.976562 78.863281 L 183.5 78.863281 C 183.144531 78.863281 182.855469 78.574219 182.855469 78.21875 L 182.855469 68.203125 C 182.855469 68.171875 182.859375 68.136719 182.863281 68.105469 L 182.863281 67.960938 C 182.863281 66.875 183.746094 65.996094 184.824219 65.996094 C 185.367188 65.996094 185.890625 66.222656 186.257812 66.621094 C 187.070312 67.492188 188.21875 67.992188 189.402344 67.992188 C 190.589844 67.992188 191.691406 67.519531 192.511719 66.664062 C 193.328125 65.804688 193.75 64.679688 193.699219 63.488281 C 193.59375 61.308594 191.878906 59.546875 189.707031 59.398438 C 188.402344 59.3125 187.144531 59.8125 186.257812 60.765625 C 185.890625 61.160156 185.367188 61.390625 184.824219 61.390625 C 183.746094 61.390625 182.863281 60.507812 182.863281 59.425781 L 182.863281 59.28125 C 182.859375 59.246094 182.855469 59.210938 182.855469 59.179688 L 182.855469 49.167969 C 182.855469 48.808594 183.144531 48.519531 183.5 48.519531 L 193.976562 48.519531 C 194.238281 48.425781 194.417969 48.175781 194.417969 47.886719 C 194.417969 47.703125 194.339844 47.527344 194.207031 47.402344 C 193.070312 46.347656 192.421875 44.851562 192.421875 43.304688 C 192.421875 41.761719 193.035156 40.324219 194.152344 39.257812 C 195.261719 38.191406 196.722656 37.644531 198.269531 37.71875 C 201.101562 37.847656 203.386719 40.082031 203.578125 42.914062 C 203.691406 44.609375 203.046875 46.246094 201.808594 47.402344 C 201.671875 47.527344 201.597656 47.703125 201.597656 47.886719 C 201.597656 48.175781 201.773438 48.425781 202.039062 48.519531 L 212.511719 48.519531 C 212.867188 48.519531 213.15625 48.808594 213.15625 49.167969 L 213.15625 74.683594 C 213.15625 76.988281 211.28125 78.863281 208.976562 78.863281 " fill-opacity="1" fill-rule="nonzero"/><path fill="#ffffff" d="M 208.980469 20.113281 L 183.5 20.113281 L 183.5 30.613281 C 183.390625 31.226562 182.851562 31.691406 182.207031 31.691406 C 181.84375 31.691406 181.496094 31.539062 181.246094 31.273438 C 180.273438 30.222656 178.847656 29.597656 177.285156 29.703125 C 174.796875 29.875 172.808594 31.914062 172.695312 34.40625 C 172.5625 37.246094 174.824219 39.585938 177.628906 39.585938 C 179.058594 39.585938 180.34375 38.976562 181.246094 38.007812 C 181.496094 37.738281 181.84375 37.589844 182.207031 37.589844 C 182.851562 37.589844 183.390625 38.054688 183.5 38.667969 L 183.5 49.164062 L 194.070312 49.164062 C 194.636719 49.019531 195.0625 48.503906 195.0625 47.886719 C 195.0625 47.523438 194.910156 47.175781 194.644531 46.925781 C 193.675781 46.023438 193.066406 44.734375 193.066406 43.304688 C 193.066406 40.492188 195.40625 38.230469 198.238281 38.359375 C 200.726562 38.476562 202.765625 40.46875 202.933594 42.957031 C 203.039062 44.527344 202.414062 45.953125 201.367188 46.925781 C 201.101562 47.175781 200.949219 47.523438 200.949219 47.886719 C 200.949219 48.503906 201.375 49.019531 201.945312 49.164062 L 212.511719 49.164062 L 212.511719 23.648438 C 212.511719 21.695312 210.929688 20.113281 208.980469 20.113281 " fill-opacity="1" fill-rule="nonzero"/><path fill="#000000" d="M 202.035156 48.519531 L 211.867188 48.519531 L 211.867188 23.648438 C 211.867188 22.054688 210.570312 20.761719 208.980469 20.761719 L 184.148438 20.761719 L 184.148438 30.609375 C 184.148438 30.652344 184.144531 30.691406 184.136719 30.730469 C 183.964844 31.660156 183.152344 32.335938 182.207031 32.335938 C 181.664062 32.335938 181.140625 32.109375 180.773438 31.710938 C 179.886719 30.757812 178.632812 30.257812 177.328125 30.347656 C 175.152344 30.496094 173.4375 32.253906 173.339844 34.4375 C 173.28125 35.625 173.703125 36.753906 174.523438 37.609375 C 175.339844 38.46875 176.445312 38.941406 177.628906 38.941406 C 178.816406 38.941406 179.964844 38.441406 180.773438 37.566406 C 181.140625 37.171875 181.664062 36.941406 182.207031 36.941406 C 183.152344 36.941406 183.964844 37.617188 184.136719 38.546875 C 184.144531 38.589844 184.148438 38.625 184.148438 38.664062 L 184.148438 48.519531 L 193.976562 48.519531 C 194.238281 48.425781 194.417969 48.175781 194.417969 47.890625 C 194.417969 47.703125 194.339844 47.523438 194.207031 47.398438 C 193.070312 46.347656 192.421875 44.851562 192.421875 43.304688 C 192.421875 41.757812 193.035156 40.324219 194.152344 39.257812 C 195.261719 38.195312 196.722656 37.644531 198.269531 37.714844 C 201.101562 37.847656 203.386719 40.082031 203.578125 42.914062 C 203.695312 44.609375 203.046875 46.246094 201.808594 47.398438 C 201.671875 47.523438 201.597656 47.703125 201.597656 47.890625 C 201.597656 48.175781 201.777344 48.425781 202.035156 48.519531 Z M 212.511719 49.8125 L 201.945312 49.8125 C 201.890625 49.8125 201.835938 49.804688 201.785156 49.792969 C 200.914062 49.570312 200.308594 48.785156 200.308594 47.890625 C 200.308594 47.34375 200.53125 46.824219 200.929688 46.453125 C 201.882812 45.566406 202.378906 44.308594 202.292969 43 C 202.144531 40.824219 200.386719 39.105469 198.207031 39.003906 C 197.015625 38.953125 195.894531 39.371094 195.039062 40.191406 C 194.183594 41.011719 193.710938 42.117188 193.710938 43.304688 C 193.710938 44.496094 194.210938 45.640625 195.082031 46.453125 C 195.480469 46.820312 195.707031 47.34375 195.707031 47.890625 C 195.707031 48.785156 195.101562 49.570312 194.226562 49.792969 C 194.175781 49.804688 194.125 49.8125 194.070312 49.8125 L 183.5 49.8125 C 183.144531 49.8125 182.855469 49.523438 182.855469 49.167969 L 182.855469 38.738281 C 182.78125 38.441406 182.511719 38.234375 182.207031 38.234375 C 182.019531 38.234375 181.84375 38.3125 181.71875 38.445312 C 180.667969 39.582031 179.175781 40.230469 177.628906 40.230469 C 176.089844 40.230469 174.652344 39.617188 173.589844 38.503906 C 172.527344 37.386719 171.980469 35.921875 172.050781 34.375 C 172.179688 31.539062 174.410156 29.25 177.238281 29.0625 C 178.929688 28.949219 180.566406 29.589844 181.71875 30.832031 C 181.84375 30.96875 182.019531 31.042969 182.207031 31.042969 C 182.511719 31.042969 182.78125 30.835938 182.855469 30.542969 L 182.855469 20.113281 C 182.855469 19.757812 183.144531 19.46875 183.5 19.46875 L 208.980469 19.46875 C 211.28125 19.46875 213.15625 21.34375 213.15625 23.648438 L 213.15625 49.167969 C 213.15625 49.523438 212.867188 49.8125 212.511719 49.8125 " fill-opacity="1" fill-rule="nonzero"/><path fill="#6567fd" d="M 177.285156 29.703125 C 178.847656 29.597656 180.273438 30.222656 181.246094 31.273438 C 181.496094 31.539062 181.84375 31.691406 182.207031 31.691406 C 182.851562 31.691406 183.390625 31.226562 183.5 30.613281 L 183.5 20.113281 L 158.023438 20.113281 C 156.074219 20.113281 154.492188 21.695312 154.492188 23.648438 L 154.492188 49.164062 L 164.488281 49.164062 L 164.488281 49.171875 L 164.734375 49.171875 C 165.460938 49.171875 166.050781 49.761719 166.050781 50.492188 C 166.050781 50.855469 165.902344 51.207031 165.632812 51.453125 C 164.664062 52.355469 164.058594 53.644531 164.058594 55.078125 C 164.058594 57.886719 166.394531 60.148438 169.230469 60.019531 C 171.71875 59.90625 173.757812 57.914062 173.925781 55.421875 C 174.03125 53.851562 173.40625 52.429688 172.359375 51.453125 C 172.089844 51.207031 171.941406 50.855469 171.941406 50.492188 C 171.941406 49.761719 172.53125 49.171875 173.257812 49.171875 L 173.503906 49.171875 L 173.503906 49.164062 L 183.5 49.164062 L 183.5 38.667969 C 183.390625 38.054688 182.851562 37.589844 182.207031 37.589844 C 181.84375 37.589844 181.496094 37.738281 181.246094 38.007812 C 180.34375 38.976562 179.058594 39.585938 177.628906 39.585938 C 174.824219 39.585938 172.5625 37.246094 172.695312 34.40625 C 172.808594 31.914062 174.796875 29.875 177.285156 29.703125 " fill-opacity="1" fill-rule="nonzero"/><path fill="#000000" d="M 177.285156 29.703125 L 177.289062 29.703125 Z M 164.582031 48.523438 L 164.734375 48.523438 C 165.816406 48.523438 166.695312 49.40625 166.695312 50.492188 C 166.695312 51.035156 166.46875 51.554688 166.074219 51.925781 C 165.1875 52.746094 164.703125 53.867188 164.703125 55.078125 C 164.703125 56.265625 165.171875 57.367188 166.03125 58.1875 C 166.886719 59.003906 168 59.421875 169.199219 59.375 C 171.378906 59.273438 173.132812 57.554688 173.28125 55.378906 C 173.371094 54.074219 172.875 52.8125 171.917969 51.925781 C 171.523438 51.554688 171.296875 51.035156 171.296875 50.492188 C 171.296875 49.40625 172.175781 48.523438 173.257812 48.523438 L 173.414062 48.523438 C 173.445312 48.523438 173.472656 48.519531 173.503906 48.519531 L 182.855469 48.519531 L 182.855469 38.738281 C 182.78125 38.441406 182.511719 38.234375 182.207031 38.234375 C 182.019531 38.234375 181.84375 38.3125 181.71875 38.445312 C 180.667969 39.582031 179.175781 40.230469 177.628906 40.230469 C 176.089844 40.230469 174.652344 39.617188 173.589844 38.503906 C 172.527344 37.386719 171.980469 35.921875 172.050781 34.375 C 172.179688 31.539062 174.410156 29.25 177.238281 29.0625 C 178.929688 28.949219 180.566406 29.589844 181.71875 30.832031 C 181.84375 30.96875 182.019531 31.042969 182.207031 31.042969 C 182.511719 31.042969 182.78125 30.835938 182.855469 30.542969 L 182.855469 20.761719 L 158.023438 20.761719 C 156.429688 20.761719 155.136719 22.054688 155.136719 23.648438 L 155.136719 48.519531 L 164.488281 48.519531 C 164.519531 48.519531 164.550781 48.523438 164.582031 48.523438 Z M 168.992188 60.667969 C 167.546875 60.667969 166.1875 60.125 165.140625 59.121094 C 164.027344 58.054688 163.410156 56.621094 163.410156 55.078125 C 163.410156 53.527344 164.0625 52.035156 165.195312 50.980469 C 165.328125 50.855469 165.40625 50.675781 165.40625 50.492188 C 165.40625 50.117188 165.105469 49.816406 164.734375 49.816406 L 164.488281 49.816406 C 164.460938 49.816406 164.429688 49.816406 164.398438 49.8125 L 154.492188 49.8125 C 154.136719 49.8125 153.847656 49.523438 153.847656 49.167969 L 153.847656 23.648438 C 153.847656 21.34375 155.71875 19.46875 158.023438 19.46875 L 183.5 19.46875 C 183.859375 19.46875 184.148438 19.757812 184.148438 20.113281 L 184.148438 30.609375 C 184.148438 30.652344 184.144531 30.691406 184.136719 30.730469 C 183.964844 31.660156 183.152344 32.335938 182.207031 32.335938 C 181.664062 32.335938 181.140625 32.109375 180.773438 31.710938 C 179.886719 30.757812 178.632812 30.257812 177.328125 30.347656 C 175.152344 30.496094 173.4375 32.253906 173.339844 34.4375 C 173.285156 35.625 173.703125 36.753906 174.523438 37.609375 C 175.339844 38.46875 176.445312 38.941406 177.628906 38.941406 C 178.816406 38.941406 179.964844 38.441406 180.773438 37.566406 C 181.140625 37.171875 181.664062 36.941406 182.207031 36.941406 C 183.152344 36.941406 183.964844 37.617188 184.136719 38.546875 C 184.144531 38.589844 184.148438 38.625 184.148438 38.664062 L 184.148438 49.167969 C 184.148438 49.523438 183.859375 49.8125 183.5 49.8125 L 173.59375 49.8125 C 173.5625 49.816406 173.53125 49.816406 173.503906 49.816406 L 173.257812 49.816406 C 172.886719 49.816406 172.585938 50.117188 172.585938 50.492188 C 172.585938 50.675781 172.664062 50.855469 172.796875 50.980469 C 174.035156 52.132812 174.683594 53.769531 174.570312 55.46875 C 174.375 58.300781 172.09375 60.535156 169.257812 60.664062 C 169.171875 60.667969 169.082031 60.667969 168.992188 60.667969 " fill-opacity="1" fill-rule="nonzero"/><path fill="#6567fd" d="M 258.289062 251.914062 C 258.289062 251.914062 250.46875 204.25 245.863281 191.003906 C 243.105469 183.074219 210.632812 169.28125 210.632812 169.28125 C 210.632812 169.28125 208.765625 164.667969 204.765625 163.582031 C 200.765625 162.496094 187.566406 161.738281 187.566406 161.738281 C 187.566406 161.738281 172.238281 162.496094 168.238281 163.582031 C 164.238281 164.667969 162.371094 169.28125 162.371094 169.28125 C 162.371094 169.28125 129.898438 183.074219 127.140625 191.003906 C 122.535156 204.25 114.714844 251.914062 114.714844 251.914062 L 138.011719 264.914062 C 138.011719 264.914062 136.109375 284.105469 139.253906 286.101562 C 141.777344 287.699219 147.015625 288.8125 158.761719 291.535156 C 158.890625 291.566406 210.21875 292.257812 210.382812 292.15625 C 214.90625 291.042969 230.792969 287.980469 233.75 286.101562 C 236.894531 284.105469 234.992188 264.914062 234.992188 264.914062 L 258.289062 251.914062 " fill-opacity="1" fill-rule="nonzero"/><path fill="#000000" d="M 158.84375 290.890625 C 160.535156 290.925781 208.210938 291.59375 210.28125 291.519531 C 211.390625 291.246094 213.160156 290.859375 215.203125 290.414062 C 221.210938 289.105469 231.261719 286.917969 233.40625 285.554688 C 235.34375 284.328125 235.125 272.78125 234.355469 264.976562 C 234.328125 264.71875 234.457031 264.472656 234.679688 264.347656 L 257.578125 251.570312 C 256.769531 246.6875 249.550781 203.578125 245.253906 191.21875 C 242.621094 183.644531 210.703125 170.011719 210.378906 169.875 C 210.226562 169.808594 210.097656 169.679688 210.035156 169.523438 C 210.019531 169.480469 208.234375 165.191406 204.597656 164.203125 C 200.804688 163.175781 188.3125 162.429688 187.5625 162.382812 C 186.75 162.425781 172.207031 163.175781 168.40625 164.203125 C 164.757812 165.191406 162.988281 169.480469 162.96875 169.523438 C 162.90625 169.679688 162.777344 169.808594 162.625 169.875 C 162.300781 170.011719 130.382812 183.644531 127.75 191.21875 C 123.453125 203.578125 116.234375 246.6875 115.425781 251.570312 L 138.324219 264.347656 C 138.546875 264.472656 138.675781 264.71875 138.648438 264.976562 C 137.878906 272.78125 137.664062 284.328125 139.597656 285.554688 C 141.808594 286.957031 146.542969 288.050781 155.972656 290.230469 Z M 208.605469 292.804688 C 205.902344 292.804688 199.582031 292.730469 184.550781 292.542969 C 172.816406 292.390625 158.789062 292.203125 158.617188 292.164062 L 155.679688 291.488281 C 145.808594 289.207031 141.300781 288.167969 138.910156 286.648438 C 135.71875 284.625 136.941406 269.332031 137.328125 265.269531 L 114.402344 252.476562 C 114.164062 252.34375 114.035156 252.078125 114.078125 251.808594 C 114.15625 251.332031 121.960938 203.941406 126.53125 190.792969 C 129.257812 182.957031 158.695312 170.152344 161.882812 168.785156 C 162.355469 167.761719 164.320312 163.976562 168.070312 162.957031 C 172.09375 161.867188 186.90625 161.125 187.535156 161.09375 C 187.558594 161.09375 187.582031 161.09375 187.601562 161.09375 C 188.144531 161.125 200.914062 161.867188 204.933594 162.957031 C 208.683594 163.976562 210.648438 167.761719 211.121094 168.785156 C 214.308594 170.152344 243.75 182.957031 246.472656 190.792969 C 251.042969 203.941406 258.847656 251.332031 258.925781 251.808594 C 258.96875 252.078125 258.839844 252.34375 258.601562 252.476562 L 235.675781 265.269531 C 236.0625 269.332031 237.285156 284.625 234.097656 286.648438 C 231.761719 288.128906 222.351562 290.179688 215.476562 291.675781 C 213.414062 292.128906 211.628906 292.515625 210.539062 292.785156 L 210.53125 292.761719 C 210.324219 292.789062 209.84375 292.804688 208.605469 292.804688 " fill-opacity="1" fill-rule="nonzero"/><path fill="#000000" d="M 141.199219 262.300781 C 141.15625 262.300781 141.109375 262.296875 141.066406 262.289062 C 140.71875 262.214844 140.492188 261.875 140.5625 261.527344 L 149.445312 217.945312 C 149.515625 217.597656 149.859375 217.371094 150.207031 217.441406 C 150.554688 217.511719 150.78125 217.855469 150.707031 218.203125 L 141.828125 261.785156 C 141.765625 262.089844 141.496094 262.300781 141.199219 262.300781 " fill-opacity="1" fill-rule="nonzero"/><path fill="#000000" d="M 231.808594 262.300781 C 231.507812 262.300781 231.242188 262.089844 231.175781 261.785156 L 222.296875 218.203125 C 222.226562 217.855469 222.449219 217.511719 222.800781 217.441406 C 223.144531 217.371094 223.488281 217.597656 223.558594 217.945312 L 232.441406 261.527344 C 232.511719 261.875 232.285156 262.214844 231.9375 262.289062 C 231.894531 262.296875 231.851562 262.300781 231.808594 262.300781 " fill-opacity="1" fill-rule="nonzero"/><path fill="#99b9ff" d="M 170.90625 167.855469 C 170.90625 167.855469 165.101562 169.375 165.242188 176.222656 C 165.382812 183.070312 168.984375 267.367188 158.761719 291.535156 C 158.761719 291.535156 178.539062 299.949219 210.382812 293.226562 C 210.382812 293.226562 202.570312 265.640625 200.835938 241.226562 C 199.101562 216.8125 207.207031 176.140625 202.847656 170.882812 C 198.488281 165.625 170.90625 167.855469 170.90625 167.855469 " fill-opacity="1" fill-rule="nonzero"/><path fill="#000000" d="M 159.609375 291.171875 C 163.097656 292.453125 181.710938 298.460938 209.578125 292.734375 C 208.382812 288.359375 201.765625 263.375 200.195312 241.269531 C 199.367188 229.617188 200.761719 214.355469 201.992188 200.890625 C 203.265625 186.984375 204.46875 173.847656 202.351562 171.292969 C 198.960938 167.207031 178.648438 167.882812 171.019531 168.492188 C 170.445312 168.664062 165.765625 170.234375 165.886719 176.210938 C 165.898438 176.742188 165.929688 177.738281 165.972656 179.136719 C 167.820312 237.355469 165.621094 276.046875 159.609375 291.171875 Z M 186.363281 296.457031 C 168.953125 296.457031 158.652344 292.191406 158.507812 292.128906 C 158.179688 291.988281 158.027344 291.609375 158.167969 291.285156 C 162.441406 281.175781 167.042969 253.519531 164.6875 179.179688 C 164.640625 177.773438 164.609375 176.769531 164.597656 176.238281 C 164.449219 168.96875 170.679688 167.246094 170.742188 167.230469 C 170.78125 167.222656 170.816406 167.214844 170.855469 167.210938 C 171.996094 167.121094 198.824219 165.015625 203.34375 170.472656 C 205.800781 173.433594 204.6875 185.605469 203.277344 201.011719 C 202.050781 214.425781 200.660156 229.628906 201.480469 241.179688 C 203.191406 265.25 210.925781 292.773438 211.003906 293.050781 C 211.050781 293.222656 211.027344 293.40625 210.933594 293.558594 C 210.84375 293.714844 210.691406 293.820312 210.515625 293.855469 C 201.457031 295.769531 193.339844 296.457031 186.363281 296.457031 " fill-opacity="1" fill-rule="nonzero"/><path fill="#ffffff" d="M 173.703125 148.71875 L 171.953125 169.28125 C 169.890625 170.25 168.5 171.992188 167.683594 174.402344 C 166.957031 176.550781 167.28125 178.917969 168.5 180.828125 L 181.347656 200.957031 C 182.84375 203.304688 186.261719 203.320312 187.777344 200.984375 L 200.914062 180.769531 C 202.832031 177.816406 202.511719 173.878906 200.019531 171.394531 C 199.3125 170.691406 198.457031 170.070312 197.425781 169.636719 L 196.511719 148.71875 L 173.703125 148.71875 " fill-opacity="1" fill-rule="nonzero"/><path fill="#000000" d="M 171.957031 169.28125 L 171.960938 169.28125 Z M 174.296875 149.363281 L 172.597656 169.335938 C 172.578125 169.5625 172.4375 169.769531 172.230469 169.863281 C 170.363281 170.742188 169.078125 172.292969 168.292969 174.609375 C 167.632812 176.5625 167.90625 178.699219 169.042969 180.480469 L 181.890625 200.609375 C 182.476562 201.527344 183.472656 202.074219 184.558594 202.082031 C 184.5625 202.082031 184.570312 202.082031 184.574219 202.082031 C 185.652344 202.082031 186.648438 201.539062 187.238281 200.632812 L 200.375 180.414062 C 202.144531 177.6875 201.804688 174.085938 199.5625 171.851562 C 198.855469 171.144531 198.050781 170.597656 197.175781 170.230469 C 196.945312 170.136719 196.792969 169.914062 196.78125 169.664062 L 195.894531 149.363281 Z M 184.574219 203.371094 C 184.566406 203.371094 184.558594 203.371094 184.550781 203.371094 C 183.027344 203.363281 181.625 202.59375 180.804688 201.304688 L 167.957031 181.175781 C 166.609375 179.0625 166.289062 176.519531 167.074219 174.195312 C 167.914062 171.703125 169.351562 169.910156 171.34375 168.863281 L 173.058594 148.664062 C 173.089844 148.328125 173.367188 148.074219 173.703125 148.074219 L 196.511719 148.074219 C 196.859375 148.074219 197.140625 148.34375 197.15625 148.691406 L 198.054688 169.210938 C 198.9375 169.632812 199.75 170.210938 200.472656 170.9375 C 203.144531 173.601562 203.558594 177.882812 201.453125 181.121094 L 188.320312 201.335938 C 187.492188 202.609375 186.089844 203.371094 184.574219 203.371094 " fill-opacity="1" fill-rule="nonzero"/><path fill="#ffffff" d="M 199.664062 138.710938 L 199.679688 127.535156 C 199.679688 127.535156 198.574219 119.667969 189.6875 119.667969 C 180.804688 119.667969 171.921875 125.523438 171.921875 125.523438 C 171.960938 127.085938 171.167969 138.710938 171.167969 138.710938 C 171.167969 138.710938 169.550781 137.941406 168.246094 138.855469 C 166.941406 139.773438 167.648438 146.746094 171.953125 147.734375 L 174.6875 156.019531 C 175.433594 158.289062 177.28125 160.027344 179.597656 160.625 L 180.863281 160.953125 C 183.28125 161.578125 185.816406 161.628906 188.257812 161.09375 L 191.46875 160.390625 C 194.015625 159.835938 196.046875 157.90625 196.742188 155.390625 L 198.925781 147.457031 C 198.925781 147.457031 202.015625 147.511719 202.382812 144.371094 C 202.746094 141.230469 203.46875 137.171875 199.664062 138.710938 " fill-opacity="1" fill-rule="nonzero"/><path fill="#000000" d="M 169.738281 139.058594 C 169.371094 139.058594 168.972656 139.136719 168.617188 139.386719 C 168.417969 139.53125 168.089844 140.691406 168.484375 142.550781 C 168.675781 143.46875 169.511719 146.511719 172.097656 147.101562 C 172.320312 147.152344 172.496094 147.316406 172.566406 147.53125 L 175.296875 155.816406 C 175.980469 157.890625 177.648438 159.453125 179.757812 160 L 181.023438 160.328125 C 183.335938 160.925781 185.789062 160.972656 188.121094 160.464844 L 191.332031 159.761719 C 193.652344 159.253906 195.488281 157.511719 196.121094 155.21875 L 198.300781 147.289062 C 198.378906 147.007812 198.636719 146.8125 198.925781 146.8125 C 198.929688 146.8125 198.9375 146.8125 198.945312 146.8125 C 199.246094 146.8125 201.457031 146.730469 201.742188 144.292969 L 201.8125 143.710938 C 202.015625 142.015625 202.292969 139.703125 201.582031 139.15625 C 201.214844 138.871094 200.46875 139.085938 199.90625 139.3125 C 199.707031 139.390625 199.484375 139.367188 199.304688 139.246094 C 199.125 139.128906 199.019531 138.925781 199.019531 138.710938 L 199.035156 127.585938 C 198.929688 126.9375 197.65625 120.3125 189.6875 120.3125 C 181.976562 120.3125 174.148438 124.898438 172.566406 125.878906 C 172.519531 128.363281 171.84375 138.308594 171.8125 138.757812 C 171.796875 138.96875 171.679688 139.160156 171.492188 139.269531 C 171.308594 139.378906 171.085938 139.386719 170.894531 139.296875 C 170.886719 139.292969 170.363281 139.058594 169.738281 139.058594 Z M 184.859375 162.105469 C 183.457031 162.105469 182.058594 161.929688 180.699219 161.578125 L 179.4375 161.25 C 176.898438 160.59375 174.890625 158.710938 174.074219 156.21875 L 171.453125 148.265625 C 169.332031 147.609375 167.753906 145.546875 167.191406 142.667969 C 166.859375 140.980469 166.945312 138.984375 167.875 138.328125 C 168.816406 137.667969 169.863281 137.703125 170.582031 137.855469 C 170.757812 135.1875 171.308594 126.816406 171.277344 125.539062 C 171.269531 125.316406 171.378906 125.109375 171.566406 124.984375 C 171.9375 124.742188 180.714844 119.019531 189.6875 119.019531 C 199.023438 119.019531 200.308594 127.359375 200.320312 127.445312 C 200.324219 127.472656 200.328125 127.503906 200.328125 127.535156 L 200.3125 137.824219 C 201.164062 137.628906 201.84375 137.726562 202.367188 138.128906 C 203.664062 139.125 203.371094 141.535156 203.089844 143.863281 L 203.019531 144.445312 C 202.722656 147.03125 200.757812 147.914062 199.421875 148.078125 L 197.363281 155.5625 C 196.605469 158.320312 194.398438 160.414062 191.605469 161.023438 L 188.394531 161.726562 C 187.234375 161.980469 186.046875 162.105469 184.859375 162.105469 " fill-opacity="1" fill-rule="nonzero"/><path fill="#000000" d="M 176.183594 124.5625 C 176.183594 124.5625 170.445312 132.214844 171.167969 138.710938 C 171.167969 138.710938 164.203125 129.382812 173.339844 121.535156 C 173.339844 121.535156 166.648438 114.574219 171.453125 111.976562 C 176.261719 109.375 178.300781 116.824219 182.503906 115.539062 C 186.707031 114.253906 190.585938 114.222656 194.179688 115.269531 C 197.773438 116.316406 197.71875 121.445312 199.167969 122.589844 C 200.621094 123.738281 206.335938 126.882812 199.664062 138.710938 C 199.664062 138.710938 197.316406 134.101562 197.046875 129.601562 C 196.78125 125.101562 198.40625 123.414062 193.667969 124.054688 C 188.929688 124.695312 177.457031 126.515625 176.183594 124.5625 " fill-opacity="1" fill-rule="nonzero"/><path fill="#000000" d="M 100.832031 310.730469 C 76.832031 288.574219 89.253906 274.285156 89.253906 274.285156 C 89.253906 274.285156 99.972656 256.894531 137.59375 279.632812 C 175.214844 302.371094 211.625 293.914062 219.859375 290.507812 C 228.09375 287.101562 256.863281 265.675781 273.082031 264.472656 C 282.101562 263.804688 292.902344 270.597656 283.429688 288.960938 C 263.835938 326.933594 210.632812 331.265625 210.632812 331.265625 C 210.632812 331.265625 184.839844 336.121094 158.347656 331.417969 C 158.347656 331.417969 124.828125 332.878906 100.832031 310.730469 " fill-opacity="1" fill-rule="nonzero"/><path fill="#ffffff" d="M 199.742188 315.203125 C 199.5625 315.203125 199.386719 315.128906 199.257812 314.984375 L 198.011719 313.570312 C 197.890625 313.433594 197.835938 313.257812 197.851562 313.078125 C 197.871094 312.902344 197.957031 312.738281 198.101562 312.628906 L 237.769531 281.972656 C 238.050781 281.757812 238.457031 281.808594 238.675781 282.089844 C 238.890625 282.371094 238.839844 282.777344 238.558594 282.996094 L 199.433594 313.230469 L 200.222656 314.128906 C 200.460938 314.398438 200.4375 314.804688 200.167969 315.039062 C 200.046875 315.148438 199.890625 315.203125 199.742188 315.203125 " fill-opacity="1" fill-rule="nonzero"/><path fill="#ffffff" d="M 163.640625 313.785156 C 163.597656 313.785156 163.554688 313.78125 163.511719 313.773438 C 163.160156 313.703125 162.9375 313.359375 163.007812 313.011719 L 163.527344 310.445312 C 161.761719 309.035156 152.46875 301.671875 137.738281 290.820312 C 121.402344 278.785156 117.820312 276.324219 117.789062 276.300781 C 117.496094 276.097656 117.417969 275.699219 117.621094 275.402344 C 117.820312 275.105469 118.222656 275.03125 118.515625 275.234375 C 118.550781 275.257812 122.128906 277.722656 138.503906 289.78125 C 154.875 301.839844 164.546875 309.605469 164.644531 309.683594 C 164.832031 309.835938 164.917969 310.078125 164.871094 310.316406 L 164.269531 313.269531 C 164.207031 313.574219 163.941406 313.785156 163.640625 313.785156 " fill-opacity="1" fill-rule="nonzero"/><path fill="#ffffff" d="M 199.527344 316.890625 C 199.527344 316.890625 177.886719 325.519531 169.140625 326.160156 C 160.398438 326.804688 145.03125 330.859375 143.273438 331.589844 C 141.515625 332.320312 142.042969 336.035156 144.503906 336.90625 C 144.503906 336.90625 143.800781 340.058594 146.082031 341.113281 C 146.082031 341.113281 145.910156 344.347656 149.070312 344.753906 C 149.070312 344.753906 148.085938 346.496094 152.179688 346.871094 C 156.269531 347.242188 164.410156 345.921875 168.191406 344.292969 C 171.972656 342.667969 186.050781 332.886719 186.050781 332.886719 L 205.839844 326.816406 L 199.527344 316.890625 " fill-opacity="1" fill-rule="nonzero"/><path fill="#000000" d="M 199.269531 317.6875 C 195.90625 319.011719 177.300781 326.210938 169.191406 326.804688 C 160.527344 327.441406 145.109375 331.527344 143.523438 332.1875 C 142.902344 332.441406 142.878906 333.316406 142.886719 333.578125 C 142.914062 334.585938 143.496094 335.863281 144.71875 336.292969 C 145.023438 336.402344 145.203125 336.726562 145.132812 337.046875 C 145.109375 337.152344 144.578125 339.707031 146.351562 340.527344 C 146.59375 340.640625 146.742188 340.886719 146.726562 341.148438 C 146.714844 341.417969 146.679688 343.796875 149.15625 344.113281 C 149.367188 344.140625 149.550781 344.273438 149.648438 344.464844 C 149.742188 344.65625 149.738281 344.886719 149.632812 345.070312 C 149.628906 345.082031 149.574219 345.21875 149.660156 345.367188 C 149.746094 345.519531 150.191406 346.042969 152.238281 346.226562 C 156.183594 346.585938 164.246094 345.289062 167.9375 343.699219 C 171.613281 342.117188 185.542969 332.453125 185.683594 332.355469 C 185.738281 332.320312 185.796875 332.289062 185.863281 332.269531 L 204.839844 326.445312 Z M 153.738281 347.578125 C 153.152344 347.578125 152.609375 347.558594 152.121094 347.511719 C 150.144531 347.332031 148.964844 346.824219 148.507812 345.953125 C 148.378906 345.707031 148.328125 345.472656 148.324219 345.265625 C 146.175781 344.675781 145.511719 342.769531 145.441406 341.503906 C 143.691406 340.429688 143.683594 338.292969 143.789062 337.296875 C 142.335938 336.527344 141.628906 334.910156 141.59375 333.613281 C 141.5625 332.355469 142.097656 331.378906 143.027344 330.992188 C 144.699219 330.296875 160.117188 326.179688 169.09375 325.519531 C 177.644531 324.886719 199.074219 316.378906 199.289062 316.292969 C 199.574219 316.175781 199.90625 316.28125 200.070312 316.542969 L 206.382812 326.46875 C 206.492188 326.636719 206.515625 326.851562 206.445312 327.039062 C 206.375 327.226562 206.222656 327.371094 206.027344 327.433594 L 186.335938 333.472656 C 185.0625 334.359375 172.132812 343.300781 168.445312 344.886719 C 164.996094 346.371094 158.167969 347.578125 153.738281 347.578125 " fill-opacity="1" fill-rule="nonzero"/><path fill="#000000" d="M 146.257812 336.625 C 145.957031 336.625 145.6875 336.414062 145.625 336.105469 C 145.558594 335.753906 145.785156 335.414062 146.132812 335.347656 L 149.035156 334.777344 C 149.378906 334.703125 149.71875 334.933594 149.789062 335.28125 C 149.859375 335.632812 149.632812 335.972656 149.28125 336.042969 L 146.382812 336.613281 C 146.339844 336.621094 146.296875 336.625 146.257812 336.625 " fill-opacity="1" fill-rule="nonzero"/><path fill="#ffffff" d="M 162.078125 316.890625 C 162.078125 316.890625 183.71875 325.519531 192.460938 326.160156 C 201.207031 326.804688 216.570312 330.859375 218.328125 331.589844 C 220.085938 332.320312 219.5625 336.035156 217.101562 336.90625 C 217.101562 336.90625 217.804688 340.058594 215.519531 341.113281 C 215.519531 341.113281 215.691406 344.347656 212.53125 344.753906 C 212.53125 344.753906 213.515625 346.496094 209.425781 346.871094 C 205.335938 347.242188 197.195312 345.921875 193.410156 344.292969 C 189.628906 342.667969 175.550781 332.886719 175.550781 332.886719 L 155.765625 326.816406 L 162.078125 316.890625 " fill-opacity="1" fill-rule="nonzero"/><path fill="#000000" d="M 156.765625 326.445312 L 175.742188 332.269531 C 175.804688 332.289062 175.863281 332.320312 175.917969 332.355469 C 176.0625 332.453125 189.988281 342.117188 193.667969 343.699219 C 197.355469 345.289062 205.425781 346.585938 209.367188 346.226562 C 211.441406 346.039062 211.871094 345.511719 211.953125 345.355469 C 212.03125 345.207031 211.972656 345.074219 211.972656 345.070312 C 211.867188 344.886719 211.859375 344.65625 211.957031 344.464844 C 212.050781 344.273438 212.238281 344.140625 212.449219 344.113281 C 214.988281 343.789062 214.882812 341.257812 214.878906 341.148438 C 214.863281 340.886719 215.011719 340.640625 215.25 340.527344 C 217.042969 339.699219 216.480469 337.070312 216.472656 337.046875 C 216.402344 336.726562 216.578125 336.402344 216.886719 336.292969 C 218.105469 335.863281 218.691406 334.585938 218.71875 333.578125 C 218.726562 333.316406 218.699219 332.441406 218.082031 332.1875 C 216.496094 331.527344 201.078125 327.441406 192.414062 326.804688 C 184.304688 326.210938 165.695312 319.011719 162.335938 317.6875 Z M 207.863281 347.578125 C 203.4375 347.578125 196.609375 346.371094 193.15625 344.886719 C 189.472656 343.300781 176.542969 334.359375 175.265625 333.472656 L 155.574219 327.433594 C 155.382812 327.371094 155.230469 327.226562 155.160156 327.039062 C 155.089844 326.851562 155.113281 326.636719 155.21875 326.46875 L 161.535156 316.542969 C 161.699219 316.285156 162.027344 316.175781 162.316406 316.292969 C 162.53125 316.378906 183.964844 324.886719 192.507812 325.519531 C 201.488281 326.179688 216.902344 330.296875 218.578125 330.992188 C 219.507812 331.378906 220.042969 332.355469 220.007812 333.613281 C 219.972656 334.910156 219.269531 336.527344 217.8125 337.296875 C 217.917969 338.292969 217.914062 340.429688 216.164062 341.503906 C 216.09375 342.769531 215.429688 344.675781 213.28125 345.265625 C 213.273438 345.472656 213.222656 345.707031 213.09375 345.953125 C 212.636719 346.824219 211.460938 347.332031 209.484375 347.511719 C 208.996094 347.558594 208.453125 347.578125 207.863281 347.578125 " fill-opacity="1" fill-rule="nonzero"/><path fill="#000000" d="M 215.347656 336.625 C 215.304688 336.625 215.261719 336.621094 215.21875 336.613281 L 212.320312 336.042969 C 211.972656 335.972656 211.742188 335.632812 211.8125 335.28125 C 211.882812 334.933594 212.222656 334.703125 212.570312 334.777344 L 215.46875 335.347656 C 215.820312 335.414062 216.046875 335.753906 215.976562 336.105469 C 215.917969 336.414062 215.648438 336.625 215.347656 336.625 " fill-opacity="1" fill-rule="nonzero"/><path fill="#ffffff" d="M 92.460938 246.117188 L 129.46875 254.929688 C 137.632812 256.875 142.761719 264.980469 141.039062 273.203125 C 139.550781 280.28125 131.695312 283.941406 125.335938 280.523438 L 91.203125 262.179688 C 87.679688 260.285156 83.464844 260.207031 79.871094 261.964844 L 62.851562 270.296875 C 62.851562 270.296875 62.65625 267.664062 65.351562 264.917969 C 68.050781 262.167969 73.53125 259.902344 73.53125 259.902344 C 73.53125 259.902344 57.941406 265.109375 52.15625 258.421875 C 52.15625 258.421875 53.421875 255.945312 57.828125 255.96875 L 52.15625 252.125 C 52.15625 252.125 53.445312 248.128906 57.75 249.558594 C 62.058594 250.988281 71.746094 249.144531 71.746094 249.144531 C 71.746094 249.144531 62.554688 246.367188 64.296875 237.457031 C 66.042969 228.546875 73.96875 229.851562 73.96875 229.851562 L 74.019531 230.59375 C 74.160156 232.625 73.410156 234.566406 72.152344 236.164062 C 71.714844 236.71875 71.464844 237.605469 71.746094 239.019531 C 72.535156 242.980469 74.027344 244.375 76.953125 243.6875 C 80.96875 242.742188 80.21875 239.941406 78.945312 237.820312 C 77.558594 235.511719 76.640625 232.953125 76.273438 230.289062 L 76.222656 229.90625 C 76.222656 229.90625 80.949219 226.527344 84.351562 235.230469 C 85.300781 237.667969 86.011719 239.511719 86.535156 240.902344 C 87.527344 243.515625 89.746094 245.46875 92.460938 246.117188 " fill-opacity="1" fill-rule="nonzero"/><path fill="#000000" d="M 85.328125 260.058594 C 87.457031 260.058594 89.585938 260.578125 91.507812 261.613281 L 125.640625 279.953125 C 128.492188 281.488281 131.808594 281.582031 134.742188 280.214844 C 137.675781 278.847656 139.742188 276.242188 140.40625 273.070312 C 142.074219 265.128906 137.203125 257.4375 129.316406 255.558594 L 92.3125 246.742188 C 89.386719 246.046875 87.003906 243.949219 85.933594 241.132812 C 85.339844 239.566406 84.605469 237.660156 83.75 235.464844 C 82.5625 232.433594 81.054688 230.558594 79.386719 230.050781 C 78.300781 229.722656 77.386719 230.027344 76.917969 230.25 C 77.277344 232.800781 78.144531 235.234375 79.496094 237.488281 C 80.585938 239.296875 80.875 240.832031 80.363281 242.050781 C 79.894531 243.152344 78.800781 243.914062 77.101562 244.3125 C 75.660156 244.652344 74.503906 244.527344 73.578125 243.929688 C 72.394531 243.167969 71.609375 241.648438 71.113281 239.148438 C 70.828125 237.710938 71.007812 236.574219 71.644531 235.765625 C 72.519531 234.652344 73.527344 232.863281 73.375 230.640625 L 73.363281 230.4375 C 71.675781 230.332031 66.304688 230.574219 64.929688 237.582031 C 63.320312 245.824219 71.578125 248.421875 71.933594 248.527344 C 72.214844 248.613281 72.40625 248.882812 72.390625 249.179688 C 72.375 249.476562 72.15625 249.726562 71.867188 249.78125 C 71.460938 249.855469 61.964844 251.636719 57.546875 250.171875 C 56.386719 249.785156 55.378906 249.804688 54.546875 250.226562 C 53.707031 250.652344 53.207031 251.410156 52.960938 251.890625 L 58.191406 255.433594 C 58.425781 255.59375 58.527344 255.886719 58.445312 256.160156 C 58.359375 256.429688 58.109375 256.617188 57.828125 256.617188 C 57.808594 256.613281 57.789062 256.617188 57.769531 256.617188 C 54.855469 256.617188 53.496094 257.765625 52.984375 258.367188 C 58.683594 264.089844 73.175781 259.339844 73.324219 259.289062 C 73.652344 259.179688 74.011719 259.347656 74.132812 259.675781 C 74.253906 260 74.097656 260.363281 73.777344 260.496094 C 73.722656 260.519531 68.386719 262.75 65.8125 265.367188 C 64.351562 266.855469 63.808594 268.285156 63.609375 269.207031 L 79.589844 261.382812 C 81.398438 260.5 83.363281 260.058594 85.328125 260.058594 Z M 130.445312 282.46875 C 128.585938 282.46875 126.734375 282.007812 125.03125 281.09375 L 90.898438 262.75 C 87.566406 260.960938 83.550781 260.882812 80.15625 262.542969 L 63.132812 270.875 C 62.941406 270.96875 62.714844 270.964844 62.53125 270.855469 C 62.34375 270.75 62.226562 270.558594 62.207031 270.34375 C 62.199219 270.226562 62.023438 267.386719 64.894531 264.464844 C 65.828125 263.511719 67.0625 262.625 68.300781 261.863281 C 63.085938 262.820312 55.476562 263.25 51.667969 258.847656 C 51.496094 258.648438 51.460938 258.363281 51.582031 258.132812 C 51.632812 258.03125 52.691406 256.042969 55.945312 255.472656 L 51.792969 252.660156 C 51.554688 252.496094 51.453125 252.199219 51.542969 251.921875 C 51.566406 251.847656 52.1875 249.976562 53.964844 249.078125 C 55.113281 248.492188 56.453125 248.449219 57.953125 248.945312 C 60.851562 249.910156 66.441406 249.300781 69.5 248.855469 C 66.753906 247.375 62.375 243.925781 63.664062 237.332031 C 65.507812 227.917969 73.988281 229.203125 74.074219 229.214844 C 74.367188 229.261719 74.589844 229.507812 74.609375 229.808594 L 74.660156 230.550781 C 74.804688 232.636719 74.113281 234.714844 72.660156 236.5625 C 72.265625 237.0625 72.167969 237.847656 72.378906 238.894531 C 72.796875 241 73.417969 242.289062 74.277344 242.84375 C 74.894531 243.242188 75.722656 243.308594 76.804688 243.054688 C 78.082031 242.757812 78.878906 242.25 79.171875 241.550781 C 79.601562 240.53125 78.984375 239.140625 78.390625 238.152344 C 76.941406 235.734375 76.011719 233.117188 75.636719 230.375 L 75.582031 229.996094 C 75.550781 229.757812 75.652344 229.519531 75.847656 229.378906 C 75.917969 229.332031 77.582031 228.167969 79.734375 228.808594 C 81.835938 229.433594 83.589844 231.515625 84.949219 234.996094 C 85.808594 237.195312 86.546875 239.105469 87.140625 240.675781 C 88.054688 243.089844 90.101562 244.890625 92.609375 245.488281 L 129.617188 254.300781 C 138.1875 256.34375 143.480469 264.703125 141.667969 273.335938 C 140.917969 276.910156 138.59375 279.84375 135.285156 281.386719 C 133.734375 282.109375 132.085938 282.46875 130.445312 282.46875 " fill-opacity="1" fill-rule="nonzero"/><path fill="#ffffff" d="M 280.542969 246.117188 L 243.535156 254.929688 C 235.371094 256.875 230.242188 264.980469 231.964844 273.207031 C 233.453125 280.28125 241.308594 283.941406 247.667969 280.523438 L 281.800781 262.179688 C 285.324219 260.289062 289.539062 260.207031 293.132812 261.964844 L 310.152344 270.296875 C 310.152344 270.296875 310.347656 267.664062 307.648438 264.917969 C 304.953125 262.171875 299.472656 259.902344 299.472656 259.902344 C 299.472656 259.902344 315.0625 265.113281 320.847656 258.425781 C 320.847656 258.425781 319.578125 255.949219 315.175781 255.96875 L 320.847656 252.125 C 320.847656 252.125 319.558594 248.128906 315.25 249.5625 C 310.945312 250.992188 301.257812 249.148438 301.257812 249.148438 C 301.257812 249.148438 310.449219 246.367188 308.707031 237.457031 C 306.960938 228.546875 299.035156 229.851562 299.035156 229.851562 L 298.984375 230.59375 C 298.84375 232.625 299.589844 234.566406 300.851562 236.164062 C 301.289062 236.71875 301.539062 237.609375 301.257812 239.023438 C 300.46875 242.980469 298.976562 244.375 296.050781 243.6875 C 292.035156 242.746094 292.78125 239.941406 294.058594 237.820312 C 295.445312 235.515625 296.363281 232.957031 296.730469 230.289062 L 296.78125 229.90625 C 296.78125 229.90625 292.050781 226.53125 288.65625 235.230469 C 287.703125 237.667969 286.996094 239.515625 286.46875 240.902344 C 285.472656 243.515625 283.257812 245.46875 280.542969 246.117188 " fill-opacity="1" fill-rule="nonzero"/><path fill="#000000" d="M 280.695312 246.742188 L 243.6875 255.558594 C 235.804688 257.4375 230.933594 265.128906 232.601562 273.070312 C 233.265625 276.242188 235.328125 278.847656 238.261719 280.214844 C 241.195312 281.578125 244.511719 281.484375 247.363281 279.953125 L 281.496094 261.609375 C 285.195312 259.625 289.648438 259.539062 293.417969 261.382812 L 309.398438 269.207031 C 309.199219 268.285156 308.660156 266.859375 307.191406 265.367188 C 304.617188 262.746094 299.285156 260.519531 299.230469 260.496094 C 298.910156 260.363281 298.75 260 298.871094 259.675781 C 298.992188 259.347656 299.351562 259.175781 299.679688 259.289062 C 299.828125 259.339844 314.328125 264.085938 320.023438 258.367188 C 319.511719 257.765625 318.152344 256.613281 315.238281 256.613281 C 315.21875 256.613281 315.203125 256.617188 315.175781 256.613281 C 314.894531 256.613281 314.644531 256.429688 314.5625 256.160156 C 314.476562 255.886719 314.582031 255.59375 314.816406 255.433594 L 320.054688 251.882812 C 319.613281 250.988281 318.339844 249.214844 315.460938 250.171875 C 311.042969 251.636719 301.542969 249.855469 301.140625 249.78125 C 300.847656 249.722656 300.632812 249.476562 300.617188 249.179688 C 300.601562 248.882812 300.789062 248.613281 301.074219 248.527344 C 301.425781 248.421875 309.683594 245.800781 308.074219 237.582031 C 306.707031 230.578125 301.339844 230.339844 299.644531 230.4375 L 299.628906 230.636719 C 299.476562 232.863281 300.484375 234.652344 301.359375 235.761719 C 302 236.574219 302.179688 237.710938 301.890625 239.144531 C 301.394531 241.644531 300.609375 243.167969 299.425781 243.929688 C 298.5 244.527344 297.347656 244.652344 295.90625 244.3125 C 294.210938 243.914062 293.109375 243.152344 292.644531 242.050781 C 292.128906 240.832031 292.421875 239.296875 293.507812 237.484375 C 294.863281 235.234375 295.730469 232.800781 296.085938 230.25 C 295.625 230.027344 294.707031 229.71875 293.617188 230.050781 C 291.949219 230.558594 290.441406 232.429688 289.253906 235.464844 C 288.40625 237.644531 287.671875 239.546875 287.074219 241.132812 C 286.003906 243.949219 283.617188 246.046875 280.695312 246.742188 Z M 242.558594 282.46875 C 240.917969 282.46875 239.273438 282.109375 237.71875 281.386719 C 234.414062 279.84375 232.085938 276.910156 231.335938 273.335938 C 229.527344 264.703125 234.816406 256.34375 243.390625 254.300781 L 280.398438 245.488281 C 282.902344 244.890625 284.949219 243.089844 285.863281 240.671875 C 286.464844 239.085938 287.203125 237.175781 288.054688 234.996094 C 289.414062 231.515625 291.171875 229.433594 293.269531 228.804688 C 295.421875 228.164062 297.089844 229.332031 297.160156 229.378906 C 297.355469 229.519531 297.457031 229.757812 297.421875 229.992188 L 297.371094 230.375 C 296.996094 233.117188 296.066406 235.734375 294.613281 238.152344 C 294.019531 239.140625 293.402344 240.53125 293.835938 241.546875 C 294.128906 242.25 294.925781 242.757812 296.199219 243.054688 C 297.285156 243.308594 298.113281 243.238281 298.730469 242.84375 C 299.589844 242.289062 300.210938 241 300.628906 238.894531 C 300.835938 237.847656 300.742188 237.0625 300.347656 236.5625 C 298.890625 234.714844 298.199219 232.636719 298.34375 230.550781 L 298.394531 229.808594 C 298.414062 229.507812 298.640625 229.261719 298.933594 229.214844 C 299.019531 229.199219 307.496094 227.917969 309.339844 237.332031 C 310.628906 243.921875 306.25 247.375 303.503906 248.855469 C 306.5625 249.300781 312.15625 249.910156 315.050781 248.945312 C 316.550781 248.445312 317.890625 248.492188 319.042969 249.074219 C 320.820312 249.976562 321.4375 251.84375 321.460938 251.921875 C 321.554688 252.195312 321.453125 252.496094 321.210938 252.65625 L 317.058594 255.472656 C 320.316406 256.039062 321.375 258.03125 321.425781 258.128906 C 321.546875 258.363281 321.511719 258.648438 321.335938 258.847656 C 317.527344 263.25 309.921875 262.820312 304.707031 261.863281 C 305.941406 262.625 307.179688 263.511719 308.113281 264.464844 C 310.984375 267.386719 310.804688 270.222656 310.796875 270.34375 C 310.78125 270.558594 310.660156 270.75 310.476562 270.855469 C 310.289062 270.960938 310.0625 270.96875 309.871094 270.875 L 292.851562 262.542969 C 289.453125 260.882812 285.4375 260.957031 282.105469 262.746094 L 247.976562 281.089844 C 246.273438 282.007812 244.417969 282.46875 242.558594 282.46875 " fill-opacity="1" fill-rule="nonzero"/><path fill="#6567fd" d="M 333.0625 178.964844 L 344.457031 178.964844 C 345.398438 178.964844 346.164062 178.199219 346.164062 177.253906 L 346.164062 115.5625 C 346.164062 114.511719 345.308594 113.660156 344.257812 113.660156 L 315.394531 113.660156 L 333.0625 178.964844 " fill-opacity="1" fill-rule="nonzero"/><path fill="#000000" d="M 346.164062 142.574219 C 345.808594 142.574219 345.519531 142.289062 345.519531 141.929688 L 345.519531 115.5625 C 345.519531 114.867188 344.957031 114.304688 344.261719 114.304688 L 315.394531 114.304688 C 315.039062 114.304688 314.75 114.015625 314.75 113.65625 C 314.75 113.300781 315.039062 113.011719 315.394531 113.011719 L 344.261719 113.011719 C 345.667969 113.011719 346.808594 114.15625 346.808594 115.5625 L 346.808594 141.929688 C 346.808594 142.289062 346.519531 142.574219 346.164062 142.574219 " fill-opacity="1" fill-rule="nonzero"/><path fill="#ffffff" d="M 333.066406 178.964844 L 344.453125 178.964844 C 345.007812 178.964844 345.5 178.703125 345.8125 178.292969 L 333.066406 178.964844 " fill-opacity="1" fill-rule="nonzero"/><path fill="#000000" d="M 344.457031 179.613281 L 333.0625 179.613281 C 332.707031 179.613281 332.417969 179.324219 332.417969 178.964844 C 332.417969 178.605469 332.707031 178.320312 333.0625 178.320312 L 344.457031 178.320312 C 344.789062 178.320312 345.097656 178.167969 345.300781 177.902344 C 345.515625 177.617188 345.921875 177.5625 346.207031 177.78125 C 346.488281 178 346.539062 178.402344 346.324219 178.6875 C 345.875 179.277344 345.191406 179.613281 344.457031 179.613281 " fill-opacity="1" fill-rule="nonzero"/><path fill="#ffffff" d="M 332.691406 181.761719 C 332.570312 182.382812 332.03125 182.828125 331.402344 182.828125 L 264.835938 182.828125 C 264.011719 182.828125 263.386719 182.066406 263.546875 181.253906 L 276.785156 114.703125 C 276.90625 114.085938 277.445312 113.640625 278.074219 113.640625 L 344.636719 113.640625 C 345.46875 113.640625 346.089844 114.398438 345.929688 115.214844 L 332.691406 181.761719 " fill-opacity="1" fill-rule="nonzero"/><path fill="#000000" d="M 269.074219 154.125 C 269.03125 154.125 268.988281 154.125 268.949219 154.113281 C 268.597656 154.042969 268.371094 153.703125 268.441406 153.355469 L 276.152344 114.574219 C 276.332031 113.65625 277.140625 112.992188 278.074219 112.992188 L 344.640625 112.992188 C 345.226562 112.992188 345.777344 113.253906 346.15625 113.710938 C 346.527344 114.164062 346.675781 114.757812 346.5625 115.335938 L 341.160156 142.511719 C 341.089844 142.863281 340.746094 143.09375 340.398438 143.019531 C 340.050781 142.949219 339.824219 142.609375 339.894531 142.261719 L 345.296875 115.085938 C 345.335938 114.886719 345.285156 114.683594 345.15625 114.527344 C 345.03125 114.375 344.839844 114.285156 344.640625 114.285156 L 278.074219 114.285156 C 277.753906 114.285156 277.480469 114.511719 277.417969 114.824219 L 269.707031 153.605469 C 269.644531 153.914062 269.375 154.125 269.074219 154.125 " fill-opacity="1" fill-rule="nonzero"/><path fill="#000000" d="M 325.183594 183.46875 L 296.449219 183.46875 C 296.089844 183.46875 295.800781 183.183594 295.800781 182.824219 C 295.800781 182.46875 296.089844 182.175781 296.449219 182.175781 L 325.183594 182.175781 C 325.542969 182.175781 325.832031 182.46875 325.832031 182.824219 C 325.832031 183.183594 325.542969 183.46875 325.183594 183.46875 " fill-opacity="1" fill-rule="nonzero"/><path fill="#caddff" d="M 273.929688 156.082031 L 275.328125 148.753906 L 283.042969 148.753906 L 281.648438 156.082031 L 273.929688 156.082031 " fill-opacity="1" fill-rule="nonzero"/><path fill="#ffffff" d="M 282.617188 156.082031 L 284.007812 148.753906 L 291.726562 148.753906 L 290.332031 156.082031 L 282.617188 156.082031 " fill-opacity="1" fill-rule="nonzero"/><path fill="#caddff" d="M 291.296875 156.082031 L 292.691406 148.75 L 300.40625 148.75 L 299.015625 156.082031 L 291.296875 156.082031 " fill-opacity="1" fill-rule="nonzero"/><path fill="#caddff" d="M 299.976562 156.082031 L 301.371094 148.753906 L 309.085938 148.753906 L 307.691406 156.082031 L 299.976562 156.082031 " fill-opacity="1" fill-rule="nonzero"/><path fill="#caddff" d="M 308.65625 156.082031 L 310.050781 148.753906 L 317.769531 148.753906 L 316.375 156.082031 L 308.65625 156.082031 " fill-opacity="1" fill-rule="nonzero"/><path fill="#caddff" d="M 317.339844 156.082031 L 318.734375 148.753906 L 326.449219 148.753906 L 325.054688 156.082031 L 317.339844 156.082031 " fill-opacity="1" fill-rule="nonzero"/><path fill="#caddff" d="M 326.023438 156.082031 L 327.417969 148.753906 L 335.132812 148.753906 L 333.742188 156.082031 L 326.023438 156.082031 " fill-opacity="1" fill-rule="nonzero"/><path fill="#caddff" d="M 272.390625 164.273438 L 273.785156 156.945312 L 281.5 156.945312 L 280.105469 164.273438 L 272.390625 164.273438 " fill-opacity="1" fill-rule="nonzero"/><path fill="#caddff" d="M 281.070312 164.273438 L 282.464844 156.945312 L 290.183594 156.945312 L 288.789062 164.273438 L 281.070312 164.273438 " fill-opacity="1" fill-rule="nonzero"/><path fill="#caddff" d="M 289.75 164.273438 L 291.144531 156.945312 L 298.859375 156.945312 L 297.46875 164.273438 L 289.75 164.273438 " fill-opacity="1" fill-rule="nonzero"/><path fill="#caddff" d="M 298.429688 164.273438 L 299.828125 156.945312 L 307.542969 156.945312 L 306.152344 164.273438 L 298.429688 164.273438 " fill-opacity="1" fill-rule="nonzero"/><path fill="#caddff" d="M 307.117188 164.273438 L 308.507812 156.945312 L 316.226562 156.945312 L 314.832031 164.273438 L 307.117188 164.273438 " fill-opacity="1" fill-rule="nonzero"/><path fill="#caddff" d="M 315.796875 164.273438 L 317.191406 156.945312 L 324.90625 156.945312 L 323.515625 164.273438 L 315.796875 164.273438 " fill-opacity="1" fill-rule="nonzero"/><path fill="#caddff" d="M 324.476562 164.273438 L 325.871094 156.945312 L 333.589844 156.945312 L 332.195312 164.273438 L 324.476562 164.273438 " fill-opacity="1" fill-rule="nonzero"/><path fill="#caddff" d="M 277.019531 139.699219 L 278.410156 132.371094 L 286.128906 132.371094 L 284.734375 139.699219 L 277.019531 139.699219 " fill-opacity="1" fill-rule="nonzero"/><path fill="#ffffff" d="M 285.707031 139.691406 L 287.097656 132.359375 L 294.816406 132.359375 L 293.421875 139.691406 L 285.707031 139.691406 " fill-opacity="1" fill-rule="nonzero"/><path fill="#6567fd" d="M 294.382812 139.699219 L 295.777344 132.367188 L 303.492188 132.367188 L 302.101562 139.699219 L 294.382812 139.699219 " fill-opacity="1" fill-rule="nonzero"/><path fill="#caddff" d="M 303.066406 139.699219 L 304.457031 132.367188 L 312.175781 132.367188 L 310.78125 139.699219 L 303.066406 139.699219 " fill-opacity="1" fill-rule="nonzero"/><path fill="#caddff" d="M 311.746094 139.699219 L 313.140625 132.371094 L 320.855469 132.371094 L 319.460938 139.699219 L 311.746094 139.699219 " fill-opacity="1" fill-rule="nonzero"/><path fill="#caddff" d="M 320.425781 139.699219 L 321.820312 132.371094 L 329.535156 132.371094 L 328.144531 139.699219 L 320.425781 139.699219 " fill-opacity="1" fill-rule="nonzero"/><path fill="#caddff" d="M 329.109375 139.699219 L 330.503906 132.371094 L 338.21875 132.371094 L 336.824219 139.699219 L 329.109375 139.699219 " fill-opacity="1" fill-rule="nonzero"/><path fill="#ffffff" d="M 275.476562 147.890625 L 276.871094 140.558594 L 284.589844 140.558594 L 283.195312 147.890625 L 275.476562 147.890625 " fill-opacity="1" fill-rule="nonzero"/><path fill="#ffffff" d="M 284.15625 147.890625 L 285.550781 140.558594 L 293.265625 140.558594 L 291.875 147.890625 L 284.15625 147.890625 " fill-opacity="1" fill-rule="nonzero"/><path fill="#caddff" d="M 292.839844 147.890625 L 294.234375 140.5625 L 301.949219 140.5625 L 300.554688 147.890625 L 292.839844 147.890625 " fill-opacity="1" fill-rule="nonzero"/><path fill="#caddff" d="M 301.523438 147.890625 L 302.917969 140.558594 L 310.632812 140.558594 L 309.238281 147.890625 L 301.523438 147.890625 " fill-opacity="1" fill-rule="nonzero"/><path fill="#caddff" d="M 310.203125 147.890625 L 311.59375 140.558594 L 319.316406 140.558594 L 317.921875 147.890625 L 310.203125 147.890625 " fill-opacity="1" fill-rule="nonzero"/><path fill="#caddff" d="M 327.460938 147.890625 L 328.851562 140.5625 L 336.570312 140.5625 L 335.175781 147.890625 L 327.460938 147.890625 " fill-opacity="1" fill-rule="nonzero"/><path fill="#caddff" d="M 318.886719 147.890625 L 320.277344 140.558594 L 327.992188 140.558594 L 326.601562 147.890625 L 318.886719 147.890625 " fill-opacity="1" fill-rule="nonzero"/><path fill="#000000" d="M 290.832031 114.15625 C 290.472656 114.15625 290.183594 113.867188 290.183594 113.507812 C 290.183594 112.382812 289.820312 111.320312 289.132812 110.433594 C 288.910156 110.15625 288.960938 109.746094 289.246094 109.527344 C 289.523438 109.308594 289.929688 109.359375 290.148438 109.644531 C 291.015625 110.753906 291.472656 112.09375 291.472656 113.507812 C 291.472656 113.867188 291.183594 114.15625 290.832031 114.15625 " fill-opacity="1" fill-rule="nonzero"/><path fill="#000000" d="M 285.1875 119.808594 C 281.71875 119.808594 278.898438 116.980469 278.898438 113.507812 C 278.898438 110.035156 281.71875 107.210938 285.1875 107.210938 C 286.5 107.210938 287.761719 107.613281 288.828125 108.375 C 289.117188 108.578125 289.183594 108.980469 288.980469 109.273438 C 288.773438 109.5625 288.371094 109.632812 288.078125 109.425781 C 287.234375 108.820312 286.230469 108.503906 285.1875 108.503906 C 282.429688 108.503906 280.1875 110.746094 280.1875 113.507812 C 280.1875 116.269531 282.429688 118.515625 285.1875 118.515625 C 285.542969 118.515625 285.832031 118.808594 285.832031 119.164062 C 285.832031 119.519531 285.542969 119.808594 285.1875 119.808594 " fill-opacity="1" fill-rule="nonzero"/><path fill="#000000" d="M 298.394531 114.15625 C 298.039062 114.15625 297.746094 113.867188 297.746094 113.511719 C 297.746094 112.355469 297.367188 111.273438 296.644531 110.375 C 296.421875 110.097656 296.46875 109.691406 296.746094 109.46875 C 297.023438 109.246094 297.429688 109.289062 297.648438 109.566406 C 298.546875 110.679688 299.039062 112.078125 299.039062 113.511719 C 299.039062 113.867188 298.746094 114.15625 298.394531 114.15625 " fill-opacity="1" fill-rule="nonzero"/><path fill="#000000" d="M 292.75 119.808594 C 289.28125 119.808594 286.460938 116.980469 286.460938 113.507812 C 286.460938 110.035156 289.28125 107.210938 292.75 107.210938 C 293.988281 107.210938 295.191406 107.570312 296.222656 108.257812 C 296.519531 108.453125 296.601562 108.855469 296.402344 109.152344 C 296.207031 109.449219 295.804688 109.527344 295.507812 109.332031 C 294.691406 108.789062 293.738281 108.5 292.75 108.5 C 289.992188 108.5 287.75 110.746094 287.75 113.507812 C 287.75 116.269531 289.992188 118.515625 292.75 118.515625 C 293.109375 118.515625 293.394531 118.804688 293.394531 119.160156 C 293.394531 119.519531 293.109375 119.808594 292.75 119.808594 " fill-opacity="1" fill-rule="nonzero"/><path fill="#000000" d="M 305.957031 114.15625 C 305.601562 114.15625 305.308594 113.867188 305.308594 113.507812 C 305.308594 112.351562 304.910156 111.226562 304.175781 110.332031 C 303.949219 110.058594 303.992188 109.652344 304.265625 109.425781 C 304.542969 109.195312 304.949219 109.238281 305.175781 109.511719 C 306.09375 110.632812 306.601562 112.054688 306.601562 113.507812 C 306.601562 113.867188 306.3125 114.15625 305.957031 114.15625 " fill-opacity="1" fill-rule="nonzero"/><path fill="#000000" d="M 300.308594 119.808594 C 296.84375 119.808594 294.019531 116.984375 294.019531 113.511719 C 294.019531 110.035156 296.84375 107.210938 300.308594 107.210938 C 301.601562 107.210938 302.84375 107.601562 303.902344 108.339844 C 304.195312 108.542969 304.269531 108.949219 304.0625 109.238281 C 303.859375 109.53125 303.457031 109.601562 303.167969 109.398438 C 302.328125 108.8125 301.335938 108.503906 300.308594 108.503906 C 297.554688 108.503906 295.3125 110.75 295.3125 113.511719 C 295.3125 116.273438 297.554688 118.515625 300.308594 118.515625 C 300.664062 118.515625 300.957031 118.808594 300.957031 119.164062 C 300.957031 119.519531 300.664062 119.808594 300.308594 119.808594 " fill-opacity="1" fill-rule="nonzero"/><path fill="#000000" d="M 313.519531 114.152344 C 313.160156 114.152344 312.875 113.863281 312.875 113.507812 C 312.875 112.335938 312.460938 111.195312 311.710938 110.296875 C 311.484375 110.023438 311.519531 109.617188 311.792969 109.386719 C 312.066406 109.160156 312.472656 109.195312 312.699219 109.46875 C 313.644531 110.601562 314.164062 112.035156 314.164062 113.507812 C 314.164062 113.863281 313.875 114.152344 313.519531 114.152344 " fill-opacity="1" fill-rule="nonzero"/><path fill="#000000" d="M 307.871094 119.808594 C 304.402344 119.808594 301.585938 116.980469 301.585938 113.507812 C 301.585938 110.035156 304.402344 107.210938 307.871094 107.210938 C 309.132812 107.210938 310.347656 107.582031 311.390625 108.285156 C 311.6875 108.484375 311.765625 108.886719 311.5625 109.183594 C 311.363281 109.476562 310.964844 109.554688 310.667969 109.359375 C 309.839844 108.796875 308.875 108.5 307.871094 108.5 C 305.117188 108.5 302.875 110.746094 302.875 113.507812 C 302.875 116.269531 305.117188 118.515625 307.871094 118.515625 C 308.230469 118.515625 308.519531 118.804688 308.519531 119.164062 C 308.519531 119.519531 308.230469 119.808594 307.871094 119.808594 " fill-opacity="1" fill-rule="nonzero"/><path fill="#000000" d="M 321.078125 114.152344 C 320.726562 114.152344 320.4375 113.867188 320.4375 113.507812 C 320.4375 112.367188 320.0625 111.292969 319.355469 110.398438 C 319.132812 110.121094 319.179688 109.710938 319.457031 109.492188 C 319.738281 109.269531 320.140625 109.316406 320.367188 109.59375 C 321.242188 110.703125 321.726562 112.09375 321.726562 113.507812 C 321.726562 113.867188 321.4375 114.152344 321.078125 114.152344 " fill-opacity="1" fill-rule="nonzero"/><path fill="#000000" d="M 315.4375 119.808594 C 311.96875 119.808594 309.144531 116.984375 309.144531 113.507812 C 309.144531 110.035156 311.96875 107.210938 315.4375 107.210938 C 316.691406 107.210938 317.902344 107.582031 318.9375 108.28125 C 319.238281 108.480469 319.316406 108.878906 319.117188 109.175781 C 318.914062 109.472656 318.515625 109.550781 318.21875 109.351562 C 317.394531 108.796875 316.433594 108.503906 315.4375 108.503906 C 312.679688 108.503906 310.433594 110.75 310.433594 113.507812 C 310.433594 116.269531 312.679688 118.519531 315.4375 118.519531 C 315.792969 118.519531 316.082031 118.808594 316.082031 119.164062 C 316.082031 119.519531 315.792969 119.808594 315.4375 119.808594 " fill-opacity="1" fill-rule="nonzero"/><path fill="#000000" d="M 328.644531 114.15625 C 328.285156 114.15625 327.996094 113.867188 327.996094 113.507812 C 327.996094 112.371094 327.625 111.300781 326.925781 110.414062 C 326.707031 110.132812 326.753906 109.726562 327.035156 109.503906 C 327.316406 109.285156 327.71875 109.332031 327.9375 109.613281 C 328.820312 110.734375 329.285156 112.082031 329.285156 113.507812 C 329.285156 113.867188 329 114.15625 328.644531 114.15625 " fill-opacity="1" fill-rule="nonzero"/><path fill="#000000" d="M 322.996094 119.808594 C 319.53125 119.808594 316.707031 116.984375 316.707031 113.511719 C 316.707031 110.039062 319.53125 107.210938 322.996094 107.210938 C 324.222656 107.210938 325.414062 107.566406 326.433594 108.234375 C 326.734375 108.429688 326.816406 108.832031 326.621094 109.128906 C 326.425781 109.429688 326.027344 109.511719 325.730469 109.316406 C 324.917969 108.785156 323.972656 108.503906 322.996094 108.503906 C 320.238281 108.503906 317.996094 110.75 317.996094 113.511719 C 317.996094 116.269531 320.238281 118.515625 322.996094 118.515625 C 323.351562 118.515625 323.640625 118.804688 323.640625 119.164062 C 323.640625 119.519531 323.351562 119.808594 322.996094 119.808594 " fill-opacity="1" fill-rule="nonzero"/><path fill="#000000" d="M 336.207031 114.15625 C 335.847656 114.15625 335.558594 113.867188 335.558594 113.507812 C 335.558594 112.359375 335.164062 111.238281 334.4375 110.347656 C 334.210938 110.070312 334.253906 109.664062 334.53125 109.4375 C 334.808594 109.214844 335.210938 109.253906 335.4375 109.53125 C 336.347656 110.652344 336.847656 112.0625 336.847656 113.507812 C 336.847656 113.867188 336.558594 114.15625 336.207031 114.15625 " fill-opacity="1" fill-rule="nonzero"/><path fill="#000000" d="M 330.5625 119.804688 C 327.09375 119.804688 324.273438 116.984375 324.273438 113.507812 C 324.273438 110.035156 327.09375 107.210938 330.5625 107.210938 C 331.785156 107.210938 332.96875 107.5625 333.988281 108.226562 C 334.285156 108.421875 334.371094 108.816406 334.175781 109.117188 C 333.980469 109.417969 333.578125 109.503906 333.285156 109.308594 C 332.472656 108.78125 331.53125 108.5 330.5625 108.5 C 327.804688 108.5 325.5625 110.746094 325.5625 113.507812 C 325.5625 116.269531 327.804688 118.515625 330.5625 118.515625 C 330.917969 118.515625 331.207031 118.804688 331.207031 119.160156 C 331.207031 119.519531 330.917969 119.804688 330.5625 119.804688 " fill-opacity="1" fill-rule="nonzero"/><path fill="#000000" d="M 338.121094 119.808594 C 334.65625 119.808594 331.832031 116.984375 331.832031 113.511719 C 331.832031 110.035156 334.65625 107.210938 338.121094 107.210938 C 341.589844 107.210938 344.414062 110.035156 344.414062 113.511719 C 344.414062 113.867188 344.121094 114.15625 343.765625 114.15625 C 343.414062 114.15625 343.121094 113.867188 343.121094 113.511719 C 343.121094 110.75 340.882812 108.503906 338.121094 108.503906 C 335.363281 108.503906 333.121094 110.75 333.121094 113.511719 C 333.121094 116.273438 335.363281 118.519531 338.121094 118.519531 C 338.480469 118.519531 338.769531 118.808594 338.769531 119.164062 C 338.769531 119.519531 338.480469 119.808594 338.121094 119.808594 " fill-opacity="1" fill-rule="nonzero"/><path fill="#000000" d="M 285.296875 120.839844 C 284.824219 120.839844 284.367188 120.640625 284.050781 120.292969 C 283.808594 120.027344 283.828125 119.621094 284.085938 119.378906 C 284.351562 119.140625 284.757812 119.15625 285 119.421875 C 285.074219 119.503906 285.183594 119.546875 285.296875 119.546875 C 285.519531 119.546875 285.699219 119.371094 285.699219 119.144531 C 285.699219 118.925781 285.519531 118.742188 285.296875 118.742188 C 285.167969 118.742188 285.050781 118.800781 284.972656 118.90625 C 284.761719 119.195312 284.355469 119.257812 284.070312 119.050781 C 283.78125 118.839844 283.71875 118.433594 283.929688 118.148438 C 284.246094 117.710938 284.757812 117.449219 285.296875 117.449219 C 286.230469 117.449219 286.988281 118.210938 286.988281 119.144531 C 286.988281 120.078125 286.230469 120.839844 285.296875 120.839844 " fill-opacity="1" fill-rule="nonzero"/><path fill="#000000" d="M 292.726562 120.839844 C 292.253906 120.839844 291.800781 120.640625 291.480469 120.292969 C 291.238281 120.03125 291.257812 119.621094 291.519531 119.382812 C 291.78125 119.140625 292.191406 119.15625 292.429688 119.421875 C 292.507812 119.503906 292.613281 119.550781 292.726562 119.550781 C 292.949219 119.550781 293.128906 119.367188 293.128906 119.144531 C 293.128906 118.925781 292.949219 118.742188 292.726562 118.742188 C 292.597656 118.742188 292.480469 118.804688 292.402344 118.910156 C 292.191406 119.199219 291.789062 119.261719 291.5 119.050781 C 291.214844 118.839844 291.148438 118.4375 291.363281 118.148438 C 291.679688 117.710938 292.191406 117.453125 292.726562 117.453125 C 293.660156 117.453125 294.417969 118.210938 294.417969 119.144531 C 294.417969 120.082031 293.660156 120.839844 292.726562 120.839844 " fill-opacity="1" fill-rule="nonzero"/><path fill="#000000" d="M 300.160156 120.839844 C 299.6875 120.839844 299.230469 120.640625 298.910156 120.292969 C 298.671875 120.03125 298.6875 119.621094 298.953125 119.378906 C 299.214844 119.140625 299.621094 119.15625 299.863281 119.421875 C 299.9375 119.503906 300.042969 119.550781 300.160156 119.550781 C 300.382812 119.550781 300.5625 119.371094 300.5625 119.148438 C 300.5625 118.925781 300.382812 118.742188 300.160156 118.742188 C 300.027344 118.742188 299.910156 118.804688 299.832031 118.910156 C 299.621094 119.199219 299.21875 119.261719 298.933594 119.050781 C 298.644531 118.839844 298.582031 118.433594 298.792969 118.148438 C 299.109375 117.710938 299.621094 117.453125 300.160156 117.453125 C 301.09375 117.453125 301.851562 118.214844 301.851562 119.148438 C 301.851562 120.082031 301.09375 120.839844 300.160156 120.839844 " fill-opacity="1" fill-rule="nonzero"/><path fill="#000000" d="M 307.804688 120.839844 C 307.332031 120.839844 306.878906 120.640625 306.558594 120.292969 C 306.320312 120.027344 306.335938 119.621094 306.597656 119.378906 C 306.859375 119.140625 307.269531 119.15625 307.511719 119.417969 C 307.582031 119.503906 307.691406 119.550781 307.804688 119.550781 C 308.027344 119.550781 308.207031 119.367188 308.207031 119.144531 C 308.207031 118.921875 308.027344 118.742188 307.804688 118.742188 C 307.675781 118.742188 307.554688 118.804688 307.480469 118.910156 C 307.269531 119.195312 306.867188 119.257812 306.578125 119.050781 C 306.292969 118.835938 306.230469 118.4375 306.4375 118.144531 C 306.757812 117.710938 307.269531 117.453125 307.804688 117.453125 C 308.738281 117.453125 309.496094 118.210938 309.496094 119.144531 C 309.496094 120.082031 308.738281 120.839844 307.804688 120.839844 " fill-opacity="1" fill-rule="nonzero"/><path fill="#000000" d="M 315.3125 120.84375 C 314.839844 120.84375 314.386719 120.644531 314.066406 120.292969 C 313.828125 120.03125 313.84375 119.621094 314.105469 119.382812 C 314.367188 119.140625 314.777344 119.15625 315.015625 119.421875 C 315.09375 119.503906 315.199219 119.550781 315.3125 119.550781 C 315.535156 119.550781 315.71875 119.371094 315.71875 119.148438 C 315.71875 118.925781 315.535156 118.742188 315.3125 118.742188 C 315.183594 118.742188 315.066406 118.804688 314.988281 118.910156 C 314.777344 119.199219 314.375 119.261719 314.085938 119.050781 C 313.800781 118.839844 313.734375 118.433594 313.949219 118.148438 C 314.265625 117.714844 314.777344 117.453125 315.3125 117.453125 C 316.246094 117.453125 317.007812 118.214844 317.007812 119.148438 C 317.007812 120.082031 316.246094 120.84375 315.3125 120.84375 " fill-opacity="1" fill-rule="nonzero"/><path fill="#000000" d="M 323.179688 120.84375 C 322.707031 120.84375 322.253906 120.640625 321.933594 120.292969 C 321.695312 120.03125 321.710938 119.625 321.976562 119.382812 C 322.234375 119.140625 322.644531 119.160156 322.882812 119.421875 C 322.964844 119.503906 323.066406 119.550781 323.179688 119.550781 C 323.40625 119.550781 323.585938 119.371094 323.585938 119.148438 C 323.585938 118.925781 323.40625 118.746094 323.179688 118.746094 C 323.050781 118.746094 322.933594 118.804688 322.855469 118.914062 C 322.644531 119.199219 322.242188 119.261719 321.957031 119.050781 C 321.667969 118.839844 321.605469 118.4375 321.816406 118.148438 C 322.132812 117.714844 322.644531 117.453125 323.179688 117.453125 C 324.117188 117.453125 324.875 118.214844 324.875 119.148438 C 324.875 120.082031 324.117188 120.84375 323.179688 120.84375 " fill-opacity="1" fill-rule="nonzero"/><path fill="#000000" d="M 330.613281 120.84375 C 330.140625 120.84375 329.683594 120.644531 329.367188 120.292969 C 329.128906 120.03125 329.144531 119.625 329.40625 119.382812 C 329.667969 119.140625 330.074219 119.160156 330.320312 119.421875 C 330.394531 119.503906 330.5 119.550781 330.613281 119.550781 C 330.835938 119.550781 331.015625 119.371094 331.015625 119.148438 C 331.015625 118.925781 330.835938 118.746094 330.613281 118.746094 C 330.484375 118.746094 330.363281 118.804688 330.289062 118.910156 C 330.082031 119.199219 329.675781 119.261719 329.390625 119.050781 C 329.097656 118.839844 329.035156 118.4375 329.246094 118.148438 C 329.566406 117.714844 330.074219 117.453125 330.613281 117.453125 C 331.546875 117.453125 332.304688 118.214844 332.304688 119.148438 C 332.304688 120.082031 331.546875 120.84375 330.613281 120.84375 " fill-opacity="1" fill-rule="nonzero"/><path fill="#000000" d="M 338.050781 120.839844 C 337.574219 120.839844 337.121094 120.640625 336.800781 120.292969 C 336.5625 120.03125 336.578125 119.621094 336.84375 119.378906 C 337.105469 119.140625 337.511719 119.15625 337.75 119.417969 C 337.828125 119.503906 337.933594 119.550781 338.050781 119.550781 C 338.269531 119.550781 338.449219 119.367188 338.449219 119.144531 C 338.449219 118.925781 338.269531 118.742188 338.050781 118.742188 C 337.917969 118.742188 337.800781 118.804688 337.722656 118.910156 C 337.511719 119.199219 337.109375 119.257812 336.824219 119.050781 C 336.535156 118.835938 336.472656 118.433594 336.679688 118.148438 C 337 117.710938 337.511719 117.449219 338.050781 117.449219 C 338.980469 117.449219 339.738281 118.210938 339.738281 119.144531 C 339.738281 120.082031 338.980469 120.839844 338.050781 120.839844 " fill-opacity="1" fill-rule="nonzero"/><path fill="#000000" d="M 51.378906 319.636719 L 51.382812 319.636719 Z M 53.898438 318.734375 C 53.667969 318.734375 53.441406 318.769531 53.21875 318.84375 C 52.664062 319.023438 52.214844 319.410156 51.953125 319.929688 C 51.691406 320.449219 51.644531 321.039062 51.824219 321.59375 C 52.007812 322.148438 52.390625 322.59375 52.910156 322.859375 C 53.429688 323.125 54.019531 323.167969 54.570312 322.988281 C 55.125 322.804688 55.574219 322.421875 55.835938 321.902344 C 56.097656 321.382812 56.144531 320.792969 55.964844 320.238281 C 55.78125 319.683594 55.398438 319.234375 54.878906 318.96875 C 54.570312 318.8125 54.234375 318.734375 53.898438 318.734375 Z M 53.890625 324.390625 C 53.355469 324.390625 52.820312 324.261719 52.328125 324.011719 C 50.621094 323.144531 49.9375 321.054688 50.804688 319.34375 C 51.222656 318.519531 51.9375 317.90625 52.816406 317.613281 C 53.699219 317.328125 54.636719 317.398438 55.460938 317.820312 C 57.167969 318.683594 57.851562 320.777344 56.988281 322.484375 C 56.570312 323.3125 55.851562 323.925781 54.972656 324.214844 C 54.617188 324.332031 54.253906 324.390625 53.890625 324.390625 " fill-opacity="1" fill-rule="nonzero"/><path fill="#000000" d="M 340.1875 211.953125 L 340.191406 211.953125 Z M 342.710938 211.050781 C 341.914062 211.050781 341.144531 211.488281 340.761719 212.242188 C 340.222656 213.316406 340.648438 214.632812 341.722656 215.175781 C 342.789062 215.71875 344.101562 215.289062 344.648438 214.214844 C 345.1875 213.144531 344.761719 211.828125 343.6875 211.285156 C 343.375 211.125 343.039062 211.050781 342.710938 211.050781 Z M 342.695312 216.703125 C 342.171875 216.703125 341.640625 216.582031 341.136719 216.328125 C 339.429688 215.460938 338.75 213.367188 339.613281 211.660156 C 340.476562 209.953125 342.566406 209.269531 344.269531 210.132812 C 345.976562 211 346.660156 213.09375 345.796875 214.800781 C 345.1875 216.003906 343.964844 216.703125 342.695312 216.703125 " fill-opacity="1" fill-rule="nonzero"/><path fill="#000000" d="M 302.847656 87.199219 C 302.71875 87.199219 302.59375 87.160156 302.480469 87.082031 L 301.132812 86.144531 C 300.839844 85.941406 300.769531 85.539062 300.972656 85.246094 C 301.175781 84.953125 301.578125 84.878906 301.871094 85.082031 L 303.21875 86.023438 C 303.507812 86.226562 303.582031 86.628906 303.378906 86.921875 C 303.253906 87.101562 303.050781 87.199219 302.847656 87.199219 " fill-opacity="1" fill-rule="nonzero"/><path fill="#000000" d="M 307.5625 90.484375 C 307.4375 90.484375 307.308594 90.449219 307.195312 90.367188 L 305.847656 89.429688 C 305.558594 89.226562 305.484375 88.820312 305.6875 88.53125 C 305.890625 88.238281 306.292969 88.164062 306.585938 88.371094 L 307.929688 89.308594 C 308.222656 89.511719 308.296875 89.914062 308.09375 90.207031 C 307.96875 90.386719 307.765625 90.484375 307.5625 90.484375 " fill-opacity="1" fill-rule="nonzero"/><path fill="#000000" d="M 302.441406 91.421875 C 302.316406 91.421875 302.1875 91.382812 302.078125 91.304688 C 301.78125 91.105469 301.707031 90.699219 301.910156 90.410156 L 302.839844 89.054688 C 303.039062 88.761719 303.441406 88.683594 303.734375 88.886719 C 304.03125 89.089844 304.101562 89.492188 303.902344 89.785156 L 302.972656 91.140625 C 302.84375 91.320312 302.644531 91.421875 302.441406 91.421875 " fill-opacity="1" fill-rule="nonzero"/><path fill="#000000" d="M 305.695312 86.675781 C 305.566406 86.675781 305.441406 86.640625 305.328125 86.5625 C 305.039062 86.363281 304.960938 85.960938 305.160156 85.667969 L 306.09375 84.3125 C 306.296875 84.019531 306.695312 83.945312 306.992188 84.144531 C 307.28125 84.347656 307.355469 84.75 307.15625 85.042969 L 306.226562 86.398438 C 306.101562 86.578125 305.902344 86.675781 305.695312 86.675781 " fill-opacity="1" fill-rule="nonzero"/><path fill="#000000" d="M 39.773438 303.332031 C 39.765625 303.332031 39.757812 303.332031 39.75 303.332031 C 39.394531 303.320312 39.113281 303.023438 39.128906 302.667969 L 39.203125 300.394531 C 39.214844 300.039062 39.515625 299.753906 39.871094 299.773438 C 40.226562 299.785156 40.503906 300.085938 40.492188 300.441406 L 40.417969 302.710938 C 40.402344 303.058594 40.117188 303.332031 39.773438 303.332031 " fill-opacity="1" fill-rule="nonzero"/><path fill="#000000" d="M 39.5 311.277344 C 39.492188 311.277344 39.488281 311.277344 39.480469 311.277344 C 39.121094 311.265625 38.84375 310.96875 38.855469 310.613281 L 38.933594 308.339844 C 38.945312 307.984375 39.242188 307.699219 39.601562 307.71875 C 39.957031 307.730469 40.234375 308.027344 40.222656 308.386719 L 40.144531 310.65625 C 40.132812 311.003906 39.847656 311.277344 39.5 311.277344 " fill-opacity="1" fill-rule="nonzero"/><path fill="#000000" d="M 36.839844 306.09375 C 36.835938 306.09375 36.828125 306.09375 36.824219 306.09375 L 34.554688 306.027344 C 34.199219 306.015625 33.917969 305.722656 33.929688 305.363281 C 33.9375 305.007812 34.246094 304.707031 34.589844 304.738281 L 36.859375 304.800781 C 37.214844 304.8125 37.496094 305.105469 37.484375 305.464844 C 37.476562 305.8125 37.1875 306.09375 36.839844 306.09375 " fill-opacity="1" fill-rule="nonzero"/><path fill="#000000" d="M 44.777344 306.316406 C 44.769531 306.316406 44.765625 306.316406 44.757812 306.316406 L 42.492188 306.25 C 42.132812 306.242188 41.855469 305.945312 41.863281 305.589844 C 41.875 305.230469 42.171875 304.945312 42.527344 304.960938 L 44.792969 305.023438 C 45.148438 305.035156 45.429688 305.332031 45.421875 305.6875 C 45.410156 306.039062 45.125 306.316406 44.777344 306.316406 " fill-opacity="1" fill-rule="nonzero"/><path fill="#000000" d="M 302.007812 76.140625 C 301.832031 76.140625 301.65625 76.070312 301.527344 75.929688 C 290.019531 63.148438 276.070312 52.3125 260.070312 43.726562 C 259.757812 43.558594 259.640625 43.167969 259.808594 42.855469 C 259.976562 42.539062 260.367188 42.421875 260.679688 42.589844 C 276.8125 51.246094 290.875 62.171875 302.488281 75.0625 C 302.722656 75.328125 302.703125 75.738281 302.4375 75.972656 C 302.316406 76.085938 302.160156 76.140625 302.007812 76.140625 " fill-opacity="1" fill-rule="nonzero"/><path fill="#000000" d="M 286.710938 72.539062 C 286.546875 72.539062 286.382812 72.476562 286.253906 72.351562 C 271.347656 57.4375 252.980469 45.949219 231.671875 38.210938 C 231.335938 38.089844 231.164062 37.71875 231.285156 37.382812 C 231.40625 37.046875 231.777344 36.875 232.109375 36.996094 C 253.597656 44.800781 272.121094 56.390625 287.167969 71.4375 C 287.421875 71.691406 287.421875 72.097656 287.167969 72.351562 C 287.042969 72.476562 286.878906 72.539062 286.710938 72.539062 " fill-opacity="1" fill-rule="nonzero"/><path fill="#000000" d="M 65.722656 98.570312 C 64.996094 98.570312 64.316406 99.03125 64.078125 99.765625 C 63.78125 100.671875 64.28125 101.652344 65.1875 101.949219 C 66.097656 102.242188 67.074219 101.742188 67.367188 100.835938 C 67.511719 100.394531 67.472656 99.925781 67.265625 99.511719 C 67.054688 99.101562 66.695312 98.792969 66.257812 98.652344 C 66.078125 98.59375 65.902344 98.570312 65.722656 98.570312 Z M 65.71875 103.324219 C 65.414062 103.324219 65.097656 103.277344 64.789062 103.175781 C 63.207031 102.660156 62.335938 100.949219 62.851562 99.363281 C 63.363281 97.777344 65.070312 96.910156 66.65625 97.421875 C 67.421875 97.671875 68.046875 98.207031 68.414062 98.925781 C 68.78125 99.644531 68.84375 100.464844 68.59375 101.234375 C 68.179688 102.511719 66.992188 103.324219 65.71875 103.324219 " fill-opacity="1" fill-rule="nonzero"/><path fill="#000000" d="M 73.246094 91.519531 C 73.113281 91.519531 72.976562 91.476562 72.863281 91.394531 C 72.578125 91.179688 72.515625 90.773438 72.730469 90.488281 C 86.398438 72.125 100.652344 61.582031 110.203125 55.980469 C 120.574219 49.890625 127.613281 48.175781 127.90625 48.105469 C 128.253906 48.027344 128.601562 48.242188 128.683594 48.585938 C 128.765625 48.933594 128.550781 49.28125 128.203125 49.367188 C 127.921875 49.433594 99.636719 56.496094 73.765625 91.261719 C 73.636719 91.429688 73.445312 91.519531 73.246094 91.519531 " fill-opacity="1" fill-rule="nonzero"/><path fill="#000000" d="M 81.371094 69.785156 C 81.207031 69.785156 81.042969 69.726562 80.917969 69.597656 C 80.664062 69.351562 80.660156 68.941406 80.910156 68.6875 C 108.054688 41.113281 133.402344 37.328125 133.65625 37.292969 C 134.007812 37.246094 134.335938 37.488281 134.382812 37.84375 C 134.433594 38.195312 134.1875 38.523438 133.835938 38.570312 C 133.585938 38.605469 108.640625 42.355469 81.828125 69.59375 C 81.703125 69.722656 81.535156 69.785156 81.371094 69.785156 " fill-opacity="1" fill-rule="nonzero"/><path fill="#000000" d="M 133.203125 44.703125 L 134.488281 48.4375 L 137.855469 45.128906 C 136.625 45.03125 134.792969 44.875 133.203125 44.703125 Z M 134.210938 50.261719 C 134.164062 50.261719 134.113281 50.253906 134.0625 50.242188 C 133.847656 50.191406 133.675781 50.035156 133.601562 49.824219 L 131.648438 44.152344 C 131.574219 43.941406 131.617188 43.707031 131.757812 43.53125 C 131.898438 43.359375 132.117188 43.269531 132.339844 43.296875 C 135.058594 43.644531 139.324219 43.945312 139.367188 43.949219 C 139.621094 43.96875 139.839844 44.132812 139.925781 44.371094 C 140.015625 44.609375 139.953125 44.875 139.773438 45.054688 L 134.664062 50.074219 C 134.542969 50.195312 134.378906 50.261719 134.210938 50.261719 " fill-opacity="1" fill-rule="nonzero"/></svg>