<svg xmlns="http://www.w3.org/2000/svg" xmlns:xlink="http://www.w3.org/1999/xlink" width="500" zoomAndPan="magnify" viewBox="0 0 375 374.999991" height="500" preserveAspectRatio="xMidYMid meet" version="1.0"><path fill="#caddff" d="M 193.324219 12.339844 C 171.316406 16 88.457031 29.78125 50.832031 104.691406 C 14.523438 176.984375 34.320312 278.398438 95.980469 318.316406 C 194.9375 382.378906 353.125 256.585938 345.796875 205.113281 C 343.054688 185.839844 317.898438 182.546875 313.667969 156.226562 C 306.976562 114.617188 364.917969 92.148438 359.566406 61.199219 C 353.390625 25.480469 266.667969 0.140625 193.324219 12.339844 " fill-opacity="1" fill-rule="nonzero"/><path fill="#ffffff" d="M 86.082031 13.910156 L 280.035156 13.910156 C 283.933594 13.910156 287.75 17.253906 288.285156 21.132812 L 309.074219 172.863281 C 309.542969 176.289062 307.265625 178.914062 303.824219 178.914062 L 64.875 178.914062 C 60.972656 178.914062 57.15625 175.570312 56.625 171.6875 L 35.832031 19.957031 C 35.363281 16.535156 37.640625 13.910156 41.082031 13.910156 L 86.082031 13.910156 " fill-opacity="1" fill-rule="nonzero"/><path fill="#99b9ff" d="M 89.839844 8.097656 L 283.789062 8.097656 C 287.691406 8.097656 291.511719 11.4375 292.042969 15.320312 L 312.832031 167.050781 C 313.300781 170.472656 311.023438 173.097656 307.582031 173.097656 L 68.632812 173.097656 C 64.730469 173.097656 60.914062 169.757812 60.382812 165.875 L 39.589844 14.144531 C 39.121094 10.71875 41.398438 8.097656 44.839844 8.097656 L 89.839844 8.097656 " fill-opacity="1" fill-rule="nonzero"/><path fill="#caddff" d="M 293.882812 163.160156 L 77.734375 163.160156 C 73.96875 163.160156 70.285156 159.933594 69.773438 156.1875 L 69.039062 150.382812 C 68.585938 147.078125 70.785156 144.546875 74.105469 144.546875 L 290.25 144.546875 C 294.015625 144.546875 297.703125 147.773438 298.210938 151.519531 L 298.945312 157.324219 C 299.398438 160.628906 297.203125 163.160156 293.882812 163.160156 " fill-opacity="1" fill-rule="nonzero"/><path fill="#caddff" d="M 124.4375 72.570312 L 67.726562 72.570312 C 63.960938 72.570312 60.277344 69.347656 59.765625 65.601562 L 54.636719 27.277344 C 54.183594 23.976562 56.382812 21.441406 59.703125 21.441406 L 116.414062 21.441406 C 120.179688 21.441406 123.863281 24.667969 124.375 28.414062 L 129.503906 66.734375 C 129.953125 70.039062 127.757812 72.570312 124.4375 72.570312 " fill-opacity="1" fill-rule="nonzero"/><path fill="#99b9ff" d="M 94.648438 36.113281 L 87.355469 36.113281 C 86.871094 36.113281 86.398438 35.699219 86.332031 35.21875 L 85.671875 30.289062 C 85.613281 29.863281 85.894531 29.539062 86.324219 29.539062 L 93.617188 29.539062 C 94.101562 29.539062 94.574219 29.953125 94.640625 30.433594 L 95.300781 35.363281 C 95.359375 35.789062 95.074219 36.113281 94.648438 36.113281 " fill-opacity="1" fill-rule="nonzero"/><path fill="#99b9ff" d="M 106.34375 36.113281 L 99.046875 36.113281 C 98.566406 36.113281 98.089844 35.699219 98.023438 35.21875 L 97.367188 30.289062 C 97.308594 29.863281 97.589844 29.539062 98.015625 29.539062 L 105.3125 29.539062 C 105.796875 29.539062 106.269531 29.953125 106.335938 30.433594 L 106.996094 35.363281 C 107.050781 35.789062 106.769531 36.113281 106.34375 36.113281 " fill-opacity="1" fill-rule="nonzero"/><path fill="#99b9ff" d="M 72.523438 45.53125 L 65.230469 45.53125 C 64.746094 45.53125 64.269531 45.117188 64.203125 44.636719 L 63.546875 39.707031 C 63.488281 39.28125 63.769531 38.957031 64.199219 38.957031 L 71.492188 38.957031 C 71.976562 38.957031 72.449219 39.371094 72.515625 39.851562 L 73.175781 44.78125 C 73.230469 45.207031 72.949219 45.53125 72.523438 45.53125 " fill-opacity="1" fill-rule="nonzero"/><path fill="#99b9ff" d="M 84.214844 45.53125 L 76.921875 45.53125 C 76.4375 45.53125 75.964844 45.117188 75.898438 44.636719 L 75.238281 39.707031 C 75.179688 39.28125 75.464844 38.957031 75.890625 38.957031 L 83.183594 38.957031 C 83.667969 38.957031 84.144531 39.371094 84.207031 39.851562 L 84.867188 44.78125 C 84.925781 45.207031 84.644531 45.53125 84.214844 45.53125 " fill-opacity="1" fill-rule="nonzero"/><path fill="#99b9ff" d="M 95.910156 45.53125 L 88.617188 45.53125 C 88.132812 45.53125 87.660156 45.117188 87.59375 44.636719 L 86.933594 39.707031 C 86.875 39.28125 87.15625 38.957031 87.585938 38.957031 L 94.878906 38.957031 C 95.363281 38.957031 95.835938 39.371094 95.902344 39.851562 L 96.5625 44.78125 C 96.621094 45.207031 96.335938 45.53125 95.910156 45.53125 " fill-opacity="1" fill-rule="nonzero"/><path fill="#99b9ff" d="M 107.605469 45.53125 L 100.3125 45.53125 C 99.828125 45.53125 99.351562 45.117188 99.285156 44.636719 L 98.628906 39.707031 C 98.570312 39.28125 98.851562 38.957031 99.277344 38.957031 L 106.574219 38.957031 C 107.058594 38.957031 107.53125 39.371094 107.597656 39.851562 L 108.257812 44.78125 C 108.3125 45.207031 108.03125 45.53125 107.605469 45.53125 " fill-opacity="1" fill-rule="nonzero"/><path fill="#99b9ff" d="M 73.785156 54.949219 L 66.492188 54.949219 C 66.007812 54.949219 65.53125 54.535156 65.464844 54.054688 L 64.808594 49.125 C 64.75 48.699219 65.03125 48.375 65.457031 48.375 L 72.753906 48.375 C 73.238281 48.375 73.710938 48.789062 73.777344 49.269531 L 74.4375 54.199219 C 74.496094 54.625 74.210938 54.949219 73.785156 54.949219 " fill-opacity="1" fill-rule="nonzero"/><path fill="#99b9ff" d="M 85.476562 54.949219 L 78.183594 54.949219 C 77.699219 54.949219 77.226562 54.535156 77.160156 54.054688 L 76.5 49.125 C 76.441406 48.699219 76.726562 48.375 77.152344 48.375 L 84.445312 48.375 C 84.929688 48.375 85.40625 48.789062 85.472656 49.269531 L 86.128906 54.199219 C 86.1875 54.625 85.90625 54.949219 85.476562 54.949219 " fill-opacity="1" fill-rule="nonzero"/><path fill="#99b9ff" d="M 97.171875 54.949219 L 89.878906 54.949219 C 89.394531 54.949219 88.921875 54.535156 88.855469 54.054688 L 88.195312 49.125 C 88.136719 48.699219 88.417969 48.375 88.847656 48.375 L 96.140625 48.375 C 96.625 48.375 97.097656 48.789062 97.164062 49.269531 L 97.824219 54.199219 C 97.882812 54.625 97.597656 54.949219 97.171875 54.949219 " fill-opacity="1" fill-rule="nonzero"/><path fill="#99b9ff" d="M 108.867188 54.949219 L 101.574219 54.949219 C 101.089844 54.949219 100.613281 54.535156 100.546875 54.054688 L 99.890625 49.125 C 99.832031 48.699219 100.113281 48.375 100.539062 48.375 L 107.835938 48.375 C 108.320312 48.375 108.792969 48.789062 108.859375 49.269531 L 109.515625 54.199219 C 109.578125 54.625 109.292969 54.949219 108.867188 54.949219 " fill-opacity="1" fill-rule="nonzero"/><path fill="#99b9ff" d="M 118.101562 36.113281 L 110.808594 36.113281 C 110.324219 36.113281 109.851562 35.699219 109.785156 35.21875 L 109.125 30.289062 C 109.066406 29.863281 109.351562 29.539062 109.777344 29.539062 L 117.070312 29.539062 C 117.554688 29.539062 118.027344 29.953125 118.09375 30.433594 L 118.753906 35.363281 C 118.8125 35.789062 118.53125 36.113281 118.101562 36.113281 " fill-opacity="1" fill-rule="nonzero"/><path fill="#99b9ff" d="M 119.363281 45.53125 L 112.070312 45.53125 C 111.585938 45.53125 111.113281 45.117188 111.046875 44.636719 L 110.386719 39.707031 C 110.328125 39.28125 110.613281 38.957031 111.039062 38.957031 L 118.332031 38.957031 C 118.816406 38.957031 119.289062 39.371094 119.355469 39.851562 L 120.015625 44.78125 C 120.074219 45.207031 119.792969 45.53125 119.363281 45.53125 " fill-opacity="1" fill-rule="nonzero"/><path fill="#99b9ff" d="M 120.625 54.949219 L 113.332031 54.949219 C 112.847656 54.949219 112.375 54.535156 112.308594 54.054688 L 111.648438 49.125 C 111.589844 48.699219 111.875 48.375 112.300781 48.375 L 119.59375 48.375 C 120.078125 48.375 120.550781 48.789062 120.617188 49.269531 L 121.277344 54.199219 C 121.335938 54.625 121.054688 54.949219 120.625 54.949219 " fill-opacity="1" fill-rule="nonzero"/><path fill="#99b9ff" d="M 74.929688 64.550781 L 67.636719 64.550781 C 67.152344 64.550781 66.675781 64.140625 66.613281 63.65625 L 65.953125 58.730469 C 65.894531 58.304688 66.175781 57.976562 66.605469 57.976562 L 73.898438 57.976562 C 74.382812 57.976562 74.855469 58.394531 74.921875 58.875 L 75.582031 63.804688 C 75.640625 64.230469 75.355469 64.550781 74.929688 64.550781 " fill-opacity="1" fill-rule="nonzero"/><path fill="#99b9ff" d="M 86.625 64.550781 L 79.332031 64.550781 C 78.847656 64.550781 78.371094 64.140625 78.304688 63.65625 L 77.648438 58.730469 C 77.589844 58.304688 77.871094 57.976562 78.296875 57.976562 L 85.589844 57.976562 C 86.078125 57.976562 86.550781 58.394531 86.617188 58.875 L 87.273438 63.804688 C 87.332031 64.230469 87.050781 64.550781 86.625 64.550781 " fill-opacity="1" fill-rule="nonzero"/><path fill="#99b9ff" d="M 98.316406 64.550781 L 91.023438 64.550781 C 90.539062 64.550781 90.066406 64.140625 90 63.65625 L 89.339844 58.730469 C 89.28125 58.304688 89.566406 57.976562 89.992188 57.976562 L 97.285156 57.976562 C 97.769531 57.976562 98.242188 58.394531 98.308594 58.875 L 98.96875 63.804688 C 99.027344 64.230469 98.746094 64.550781 98.316406 64.550781 " fill-opacity="1" fill-rule="nonzero"/><path fill="#99b9ff" d="M 110.011719 64.550781 L 102.71875 64.550781 C 102.234375 64.550781 101.757812 64.140625 101.695312 63.65625 L 101.035156 58.730469 C 100.976562 58.304688 101.257812 57.976562 101.6875 57.976562 L 108.980469 57.976562 C 109.464844 57.976562 109.9375 58.394531 110.003906 58.875 L 110.664062 63.804688 C 110.722656 64.230469 110.4375 64.550781 110.011719 64.550781 " fill-opacity="1" fill-rule="nonzero"/><path fill="#caddff" d="M 279.8125 72.570312 L 145.632812 72.570312 C 141.867188 72.570312 138.1875 69.347656 137.671875 65.601562 L 132.546875 27.277344 C 132.09375 23.976562 134.292969 21.441406 137.613281 21.441406 L 271.789062 21.441406 C 275.554688 21.441406 279.234375 24.667969 279.75 28.414062 L 284.875 66.734375 C 285.332031 70.039062 283.132812 72.570312 279.8125 72.570312 " fill-opacity="1" fill-rule="nonzero"/><path fill="#99b9ff" d="M 160.535156 36.113281 L 142.375 36.113281 C 141.890625 36.113281 141.417969 35.699219 141.351562 35.21875 L 140.691406 30.289062 C 140.632812 29.863281 140.917969 29.539062 141.34375 29.539062 L 159.5 29.539062 C 159.984375 29.539062 160.460938 29.953125 160.527344 30.433594 L 161.183594 35.363281 C 161.242188 35.789062 160.960938 36.113281 160.535156 36.113281 " fill-opacity="1" fill-rule="nonzero"/><path fill="#99b9ff" d="M 186.242188 45.53125 L 143.636719 45.53125 C 143.152344 45.53125 142.679688 45.117188 142.613281 44.636719 L 141.953125 39.707031 C 141.894531 39.28125 142.179688 38.957031 142.605469 38.957031 L 185.210938 38.957031 C 185.695312 38.957031 186.167969 39.371094 186.234375 39.851562 L 186.894531 44.78125 C 186.953125 45.207031 186.671875 45.53125 186.242188 45.53125 " fill-opacity="1" fill-rule="nonzero"/><path fill="#99b9ff" d="M 215.980469 54.949219 L 144.898438 54.949219 C 144.414062 54.949219 143.941406 54.535156 143.875 54.054688 L 143.214844 49.125 C 143.15625 48.699219 143.441406 48.375 143.867188 48.375 L 214.949219 48.375 C 215.433594 48.375 215.910156 48.789062 215.976562 49.269531 L 216.632812 54.199219 C 216.691406 54.625 216.410156 54.949219 215.980469 54.949219 " fill-opacity="1" fill-rule="nonzero"/><path fill="#caddff" d="M 208.914062 133.285156 L 74.738281 133.285156 C 70.972656 133.285156 67.289062 130.058594 66.773438 126.3125 L 61.648438 87.992188 C 61.195312 84.6875 63.394531 82.15625 66.714844 82.15625 L 200.890625 82.15625 C 204.660156 82.15625 208.339844 85.378906 208.851562 89.128906 L 213.980469 127.449219 C 214.433594 130.753906 212.234375 133.285156 208.914062 133.285156 " fill-opacity="1" fill-rule="nonzero"/><path fill="#6567fd" d="M 342.304688 57.023438 C 345.355469 73.277344 334.710938 88.9375 318.535156 92 C 302.355469 95.0625 286.765625 84.371094 283.714844 68.117188 C 280.667969 51.863281 291.3125 36.203125 307.492188 33.136719 C 323.671875 30.078125 339.257812 40.769531 342.304688 57.023438 " fill-opacity="1" fill-rule="nonzero"/><path fill="#ffffff" d="M 337.996094 57.835938 C 340.59375 71.699219 331.519531 85.050781 317.722656 87.664062 C 303.925781 90.277344 290.632812 81.15625 288.03125 67.296875 C 285.433594 53.4375 294.507812 40.082031 308.304688 37.46875 C 322.101562 34.859375 335.394531 43.976562 337.996094 57.835938 " fill-opacity="1" fill-rule="nonzero"/><path fill="#000000" d="M 323.445312 74.96875 C 323.28125 74.96875 323.117188 74.902344 323 74.765625 L 312.570312 62.957031 C 312.472656 62.84375 312.417969 62.699219 312.421875 62.550781 L 312.785156 50.503906 C 312.796875 50.175781 313.078125 49.921875 313.398438 49.929688 C 313.722656 49.941406 313.980469 50.214844 313.96875 50.539062 L 313.613281 62.351562 L 323.886719 73.984375 C 324.101562 74.230469 324.078125 74.605469 323.835938 74.820312 C 323.722656 74.917969 323.582031 74.96875 323.445312 74.96875 " fill-opacity="1" fill-rule="nonzero"/><path fill="#caddff" d="M 310.730469 42.339844 C 310.898438 43.226562 310.316406 44.082031 309.4375 44.246094 C 308.554688 44.414062 307.707031 43.832031 307.542969 42.945312 C 307.375 42.0625 307.953125 41.207031 308.835938 41.042969 C 309.714844 40.875 310.566406 41.457031 310.730469 42.339844 " fill-opacity="1" fill-rule="nonzero"/><path fill="#caddff" d="M 300.96875 46.199219 C 301.554688 46.882812 301.476562 47.914062 300.792969 48.5 C 300.113281 49.085938 299.089844 49.007812 298.507812 48.324219 C 297.921875 47.644531 298 46.613281 298.679688 46.027344 C 299.359375 45.4375 300.386719 45.515625 300.96875 46.199219 " fill-opacity="1" fill-rule="nonzero"/><path fill="#caddff" d="M 294.433594 54.445312 C 295.28125 54.738281 295.726562 55.671875 295.429688 56.519531 C 295.132812 57.371094 294.207031 57.820312 293.359375 57.523438 C 292.515625 57.222656 292.070312 56.292969 292.367188 55.441406 C 292.660156 54.59375 293.589844 54.144531 294.433594 54.445312 " fill-opacity="1" fill-rule="nonzero"/><path fill="#caddff" d="M 292.882812 64.859375 C 293.761719 64.695312 294.609375 65.277344 294.777344 66.160156 C 294.941406 67.046875 294.363281 67.898438 293.484375 68.066406 C 292.601562 68.230469 291.753906 67.648438 291.585938 66.765625 C 291.417969 65.878906 292 65.027344 292.882812 64.859375 " fill-opacity="1" fill-rule="nonzero"/><path fill="#caddff" d="M 296.71875 74.667969 C 297.398438 74.082031 298.421875 74.15625 299.007812 74.839844 C 299.59375 75.523438 299.515625 76.554688 298.835938 77.140625 C 298.15625 77.730469 297.128906 77.652344 296.542969 76.96875 C 295.960938 76.285156 296.039062 75.253906 296.71875 74.667969 " fill-opacity="1" fill-rule="nonzero"/><path fill="#caddff" d="M 304.925781 81.230469 C 305.21875 80.378906 306.148438 79.933594 306.992188 80.230469 C 307.839844 80.53125 308.285156 81.460938 307.988281 82.308594 C 307.691406 83.160156 306.765625 83.609375 305.917969 83.308594 C 305.074219 83.011719 304.625 82.078125 304.925781 81.230469 " fill-opacity="1" fill-rule="nonzero"/><path fill="#caddff" d="M 315.292969 82.796875 C 315.128906 81.910156 315.707031 81.058594 316.589844 80.890625 C 317.46875 80.722656 318.316406 81.304688 318.484375 82.191406 C 318.648438 83.074219 318.070312 83.929688 317.191406 84.097656 C 316.308594 84.261719 315.460938 83.679688 315.292969 82.796875 " fill-opacity="1" fill-rule="nonzero"/><path fill="#caddff" d="M 325.054688 78.9375 C 324.472656 78.253906 324.550781 77.222656 325.226562 76.636719 C 325.910156 76.050781 326.933594 76.128906 327.519531 76.8125 C 328.105469 77.496094 328.023438 78.523438 327.34375 79.109375 C 326.664062 79.695312 325.640625 79.621094 325.054688 78.9375 " fill-opacity="1" fill-rule="nonzero"/><path fill="#caddff" d="M 331.589844 70.695312 C 330.742188 70.398438 330.296875 69.46875 330.59375 68.617188 C 330.890625 67.765625 331.816406 67.320312 332.664062 67.617188 C 333.507812 67.914062 333.953125 68.84375 333.65625 69.695312 C 333.359375 70.546875 332.433594 70.996094 331.589844 70.695312 " fill-opacity="1" fill-rule="nonzero"/><path fill="#caddff" d="M 333.144531 60.273438 C 332.265625 60.441406 331.414062 59.859375 331.25 58.972656 C 331.085938 58.089844 331.664062 57.238281 332.542969 57.070312 C 333.425781 56.902344 334.273438 57.484375 334.441406 58.371094 C 334.605469 59.257812 334.027344 60.109375 333.144531 60.273438 " fill-opacity="1" fill-rule="nonzero"/><path fill="#caddff" d="M 329.304688 50.46875 C 328.625 51.058594 327.601562 50.980469 327.015625 50.296875 C 326.433594 49.613281 326.507812 48.585938 327.1875 47.996094 C 327.867188 47.410156 328.894531 47.488281 329.476562 48.171875 C 330.0625 48.855469 329.984375 49.882812 329.304688 50.46875 " fill-opacity="1" fill-rule="nonzero"/><path fill="#caddff" d="M 321.101562 43.90625 C 320.804688 44.757812 319.878906 45.203125 319.03125 44.90625 C 318.1875 44.605469 317.742188 43.679688 318.039062 42.828125 C 318.335938 41.980469 319.261719 41.53125 320.109375 41.828125 C 320.953125 42.125 321.398438 43.058594 321.101562 43.90625 " fill-opacity="1" fill-rule="nonzero"/><path fill="#ffffff" d="M 113.078125 45.984375 C 113.078125 45.984375 111.636719 46.621094 109.414062 46.386719 C 107.542969 46.1875 95.519531 42.558594 90.5625 26.632812 C 90.5625 26.632812 65.28125 30.871094 52.441406 29.863281 C 39.601562 28.851562 32.695312 27.824219 32.695312 27.824219 C 32.695312 27.824219 40.40625 67.707031 68.695312 65.6875 C 68.695312 65.6875 76.941406 65.179688 76.988281 65.171875 C 78.152344 65.070312 93.1875 63.75 98.585938 63.363281 C 104.203125 62.957031 119.25 65.179688 130.285156 61.546875 C 141.316406 57.914062 146.933594 52.464844 165.59375 43.785156 C 168.324219 42.515625 176.289062 40.164062 176.289062 40.164062 C 178.359375 44.128906 179.519531 49.191406 179.945312 56.082031 C 182.53125 98.019531 190.984375 107.941406 198.25 107.390625 C 198.25 107.390625 202.589844 106.875 202.785156 106.851562 C 204.792969 106.632812 216.753906 105.375 233.734375 104.742188 C 233.75 104.742188 235.714844 104.703125 235.726562 104.703125 L 235.71875 104.703125 C 234.859375 114.984375 231.324219 127.257812 223.25 139.648438 C 205.03125 167.601562 201.742188 210.941406 214.066406 209.367188 C 214.066406 209.367188 228.675781 208.242188 244.117188 208.277344 C 244.171875 208.277344 336.394531 207.394531 336.394531 207.394531 C 336.394531 207.394531 367.78125 138.34375 309.933594 146.914062 C 309.246094 147.015625 308.410156 147.0625 307.730469 147.101562 C 307.730469 147.101562 314.675781 131.46875 318.386719 111.710938 C 320.738281 99.179688 316.585938 80.484375 296.664062 80.28125 C 284.554688 80.15625 257.214844 82.734375 257.214844 82.734375 C 257.214844 82.734375 255.503906 80.5 255.464844 80.4375 C 254.46875 78.882812 244.226562 65.832031 235.820312 44.300781 C 227.132812 22.0625 188.792969 32.089844 168.324219 30.519531 C 168.140625 30.507812 160.386719 29.929688 160.386719 29.929688 C 147.390625 29.054688 129.753906 37.296875 113.097656 45.972656 L 113.078125 45.984375 " fill-opacity="1" fill-rule="nonzero"/><path fill="#000000" d="M 236.300781 104.828125 C 235.59375 113.175781 232.835938 126.023438 223.742188 139.972656 C 216.863281 150.527344 211.4375 164.566406 208.855469 178.488281 C 206.511719 191.128906 206.859375 201.859375 209.765625 206.480469 C 210.863281 208.226562 212.28125 209 213.988281 208.78125 C 214.164062 208.769531 228.828125 207.65625 244.117188 207.6875 C 244.367188 207.6875 329.53125 206.867188 336.007812 206.804688 C 337.621094 203.09375 351.273438 170.425781 339.609375 154.972656 C 334.269531 147.894531 324.3125 145.382812 310.015625 147.5 C 309.332031 147.597656 308.550781 147.644531 307.855469 147.683594 L 307.761719 147.691406 C 307.550781 147.703125 307.359375 147.605469 307.242188 147.4375 C 307.125 147.265625 307.105469 147.050781 307.1875 146.863281 C 307.257812 146.707031 314.152344 131.058594 317.800781 111.605469 C 319.113281 104.625 318.519531 94.742188 312.925781 87.941406 C 309.128906 83.320312 303.652344 80.941406 296.65625 80.871094 C 284.722656 80.746094 257.542969 83.296875 257.269531 83.320312 C 257.070312 83.339844 256.867188 83.253906 256.742188 83.089844 C 255.023438 80.84375 254.984375 80.785156 254.96875 80.761719 C 254.859375 80.589844 254.621094 80.257812 254.289062 79.792969 C 246.621094 69.074219 240.222656 57.203125 235.269531 44.515625 C 228.96875 28.394531 206.609375 29.652344 186.882812 30.769531 C 180.039062 31.152344 173.578125 31.515625 168.277344 31.113281 C 168.097656 31.097656 160.34375 30.519531 160.34375 30.519531 C 147.667969 29.664062 130.289062 37.6875 113.394531 46.484375 C 113.371094 46.5 113.34375 46.511719 113.316406 46.523438 C 113.253906 46.554688 111.703125 47.226562 109.351562 46.972656 C 106.523438 46.675781 95.082031 42.449219 90.152344 27.296875 C 86.507812 27.886719 64.160156 31.375 52.394531 30.449219 C 42.195312 29.648438 35.667969 28.824219 33.453125 28.527344 C 34.039062 31.09375 36.144531 39.304688 40.613281 47.25 C 47.742188 59.914062 57.167969 65.917969 68.652344 65.101562 C 71.46875 64.925781 76.820312 64.589844 76.945312 64.585938 C 77.59375 64.527344 93.023438 63.171875 98.542969 62.773438 C 100.160156 62.65625 102.554688 62.757812 105.324219 62.867188 C 112.480469 63.160156 122.28125 63.558594 130.097656 60.984375 C 135.992188 59.046875 140.414062 56.535156 146.007812 53.351562 C 150.78125 50.640625 156.722656 47.261719 165.34375 43.253906 C 168.082031 41.976562 175.792969 39.695312 176.117188 39.597656 C 176.390625 39.515625 176.679688 39.640625 176.8125 39.890625 C 178.921875 43.925781 180.101562 49.0625 180.535156 56.042969 C 182.589844 89.324219 188.335938 100.9375 192.792969 104.816406 C 194.472656 106.277344 196.292969 106.945312 198.207031 106.800781 C 198.207031 106.800781 202.523438 106.289062 202.71875 106.265625 C 204.929688 106.023438 216.800781 104.78125 233.714844 104.152344 C 233.714844 104.152344 234.21875 104.144531 234.71875 104.132812 C 235.136719 104.125 235.550781 104.117188 235.675781 104.113281 C 235.699219 104.113281 235.726562 104.113281 235.753906 104.113281 C 236.070312 104.132812 236.316406 104.394531 236.3125 104.710938 C 236.3125 104.75 236.308594 104.789062 236.300781 104.828125 Z M 213.414062 210.003906 C 211.5625 210.003906 209.960938 209.015625 208.765625 207.109375 C 202.292969 196.808594 207.914062 162.089844 222.75 139.332031 C 231.5 125.90625 234.296875 113.527344 235.070312 105.308594 C 234.964844 105.3125 234.855469 105.3125 234.746094 105.3125 C 234.261719 105.324219 233.78125 105.335938 233.753906 105.335938 C 216.882812 105.960938 205.050781 107.199219 202.851562 107.441406 C 202.652344 107.460938 198.320312 107.976562 198.320312 107.976562 C 196.054688 108.148438 193.941406 107.386719 192.015625 105.707031 C 185.28125 99.851562 181.023438 83.164062 179.355469 56.117188 C 178.949219 49.554688 177.875 44.691406 175.984375 40.871094 C 174.238281 41.394531 168.121094 43.261719 165.839844 44.324219 C 157.265625 48.3125 151.347656 51.675781 146.59375 54.378906 C 140.941406 57.59375 136.472656 60.132812 130.46875 62.109375 C 122.449219 64.746094 112.523438 64.34375 105.273438 64.050781 C 102.542969 63.9375 100.179688 63.84375 98.628906 63.953125 C 93.117188 64.347656 77.695312 65.703125 77.042969 65.761719 C 76.996094 65.765625 72.496094 66.042969 68.730469 66.28125 C 56.929688 67.121094 46.839844 60.734375 39.570312 47.800781 C 34.121094 38.113281 32.132812 28.039062 32.113281 27.9375 C 32.078125 27.75 32.132812 27.554688 32.265625 27.417969 C 32.398438 27.277344 32.589844 27.210938 32.78125 27.242188 C 32.851562 27.25 39.820312 28.277344 52.488281 29.273438 C 65.113281 30.265625 90.210938 26.09375 90.460938 26.050781 C 90.753906 26.003906 91.035156 26.175781 91.125 26.457031 C 96.398438 43.386719 109.351562 45.785156 109.476562 45.800781 C 111.320312 45.996094 112.59375 45.539062 112.808594 45.457031 C 112.8125 45.453125 112.816406 45.453125 112.824219 45.449219 C 129.878906 36.566406 147.449219 28.46875 160.425781 29.339844 C 160.433594 29.339844 168.1875 29.921875 168.367188 29.933594 C 173.589844 30.332031 180.015625 29.972656 186.816406 29.589844 C 206.941406 28.453125 229.761719 27.164062 236.367188 44.085938 C 241.289062 56.683594 247.640625 68.464844 255.25 79.105469 C 255.605469 79.601562 255.84375 79.929688 255.960938 80.121094 C 256.019531 80.195312 256.839844 81.273438 257.484375 82.113281 C 260.617188 81.824219 285.382812 79.574219 296.667969 79.691406 C 304.03125 79.765625 309.808594 82.289062 313.839844 87.191406 C 319.691406 94.304688 320.328125 104.578125 318.964844 111.820312 C 315.785156 128.773438 310.15625 142.855469 308.648438 146.453125 C 309.058594 146.421875 309.472656 146.386719 309.84375 146.328125 C 324.601562 144.144531 334.9375 146.8125 340.554688 154.261719 C 345.917969 161.371094 346.933594 172.53125 343.566406 187.429688 C 341.078125 198.457031 336.972656 207.546875 336.933594 207.636719 C 336.839844 207.847656 336.628906 207.980469 336.398438 207.984375 C 320.996094 208.132812 244.171875 208.871094 244.113281 208.871094 C 228.863281 208.84375 214.257812 209.945312 214.109375 209.957031 C 213.875 209.988281 213.644531 210.003906 213.414062 210.003906 " fill-opacity="1" fill-rule="nonzero"/><path fill="#000000" d="M 291.144531 149 C 272.253906 149 250.261719 145.230469 249.984375 145.183594 C 249.660156 145.128906 249.445312 144.820312 249.503906 144.5 C 249.558594 144.179688 249.863281 143.964844 250.1875 144.019531 C 250.535156 144.078125 285.039062 149.988281 304.515625 146.953125 C 304.835938 146.902344 305.140625 147.125 305.191406 147.445312 C 305.242188 147.769531 305.019531 148.070312 304.699219 148.121094 C 300.667969 148.75 296.007812 149 291.144531 149 " fill-opacity="1" fill-rule="nonzero"/><path fill="#000000" d="M 254.390625 83.402344 C 247.878906 83.402344 240.660156 81.996094 232.4375 79.128906 C 232.125 79.023438 231.964844 78.6875 232.070312 78.378906 C 232.179688 78.070312 232.515625 77.910156 232.824219 78.015625 C 242.207031 81.28125 250.234375 82.625 257.359375 82.121094 C 257.683594 82.09375 257.96875 82.339844 257.988281 82.664062 C 258.011719 82.992188 257.769531 83.273438 257.445312 83.296875 C 256.441406 83.367188 255.421875 83.402344 254.390625 83.402344 " fill-opacity="1" fill-rule="nonzero"/><path fill="#000000" d="M 257.121094 188.941406 C 257.066406 188.941406 257.007812 188.9375 256.953125 188.917969 C 256.636719 188.824219 256.460938 188.496094 256.554688 188.183594 C 260.128906 176.160156 262.425781 159.035156 257.132812 150.351562 C 255.386719 147.484375 252.898438 145.726562 249.746094 145.128906 C 241.613281 143.585938 238.242188 151.488281 235.179688 165.664062 C 235.113281 165.984375 234.796875 166.1875 234.480469 166.117188 C 234.160156 166.050781 233.957031 165.734375 234.027344 165.417969 C 236.59375 153.519531 239.9375 142.066406 249.96875 143.96875 C 253.464844 144.632812 256.214844 146.574219 258.144531 149.738281 C 263.632812 158.742188 261.507812 175.675781 257.6875 188.519531 C 257.613281 188.777344 257.375 188.941406 257.121094 188.941406 " fill-opacity="1" fill-rule="nonzero"/><path fill="#000000" d="M 213.410156 209.992188 C 212.296875 209.992188 211.414062 209.644531 210.738281 209.207031 C 207.78125 207.273438 206.148438 201.796875 206.132812 193.78125 C 206.125 185.945312 207.632812 176.425781 210.386719 166.976562 C 210.480469 166.664062 210.808594 166.480469 211.121094 166.574219 C 211.433594 166.664062 211.617188 166.992188 211.523438 167.304688 C 205.988281 186.300781 205.925781 204.652344 211.382812 208.214844 C 213.296875 209.460938 215.835938 208.78125 218.933594 206.191406 C 227.15625 199.316406 230.121094 184.621094 232.738281 171.65625 C 233.175781 169.488281 233.589844 167.441406 234.027344 165.417969 C 234.09375 165.097656 234.414062 164.894531 234.730469 164.964844 C 235.046875 165.03125 235.25 165.347656 235.179688 165.664062 C 234.746094 167.683594 234.335938 169.726562 233.898438 171.890625 C 231.242188 185.046875 228.234375 199.957031 219.691406 207.097656 C 217.085938 209.273438 215.011719 209.992188 213.410156 209.992188 " fill-opacity="1" fill-rule="nonzero"/><path fill="#000000" d="M 210.957031 167.734375 C 210.902344 167.734375 210.84375 167.726562 210.789062 167.707031 C 210.476562 167.617188 210.296875 167.289062 210.386719 166.976562 C 213.382812 156.703125 217.65625 147.144531 222.753906 139.328125 C 238.207031 115.617188 237.257812 91.527344 231.648438 81.996094 C 230.371094 79.820312 228.945312 78.671875 227.636719 78.765625 C 223.054688 79.082031 217.871094 86.71875 213.292969 93.449219 C 210.792969 97.132812 208.429688 100.609375 206.277344 102.769531 C 204.890625 104.167969 199.933594 108.5625 194.457031 106.460938 C 185.863281 103.15625 180.777344 86.214844 179.355469 56.105469 C 179.335938 55.78125 179.589844 55.503906 179.914062 55.488281 C 180.257812 55.476562 180.519531 55.726562 180.535156 56.050781 C 182.277344 92.914062 189.300781 103.210938 194.882812 105.355469 C 199.691406 107.203125 204.179688 103.207031 205.441406 101.9375 C 207.511719 99.855469 209.84375 96.421875 212.3125 92.789062 C 217.273438 85.488281 222.402344 77.945312 227.550781 77.585938 C 229.328125 77.46875 231.148438 78.816406 232.667969 81.394531 C 238.433594 91.191406 239.472656 115.839844 223.742188 139.972656 C 218.714844 147.691406 214.484375 157.144531 211.523438 167.308594 C 211.449219 167.566406 211.214844 167.734375 210.957031 167.734375 " fill-opacity="1" fill-rule="nonzero"/><path fill="#000000" d="M 176.121094 40.546875 C 175.933594 40.546875 175.75 40.457031 175.636719 40.289062 C 175.625 40.273438 175.5625 40.164062 175.476562 40.007812 C 175.304688 39.695312 174.945312 39.039062 174.792969 38.816406 C 172.175781 34.96875 168.15625 30.964844 158.203125 30.460938 C 157.875 30.445312 157.625 30.167969 157.640625 29.839844 C 157.660156 29.515625 157.921875 29.261719 158.261719 29.28125 C 168.730469 29.808594 172.988281 34.0625 175.769531 38.15625 C 175.941406 38.402344 176.242188 38.945312 176.515625 39.4375 C 176.574219 39.542969 176.613281 39.621094 176.628906 39.648438 C 176.792969 39.921875 176.710938 40.28125 176.4375 40.453125 C 176.339844 40.515625 176.230469 40.546875 176.121094 40.546875 " fill-opacity="1" fill-rule="nonzero"/><path fill="#000000" d="M 64.296875 66.222656 C 64.246094 66.222656 64.199219 66.222656 64.152344 66.222656 C 63.824219 66.21875 63.566406 65.949219 63.570312 65.625 C 63.574219 65.296875 63.847656 65.050781 64.167969 65.039062 C 65.890625 65.066406 72.175781 64.652344 78.117188 62.519531 C 84.222656 60.332031 92.808594 55.847656 101.898438 51.101562 C 105.613281 49.160156 109.453125 47.15625 113.082031 45.335938 C 113.375 45.1875 113.730469 45.304688 113.875 45.597656 C 114.023438 45.890625 113.90625 46.246094 113.613281 46.390625 C 109.992188 48.207031 106.15625 50.210938 102.445312 52.148438 C 93.320312 56.914062 84.699219 61.417969 78.519531 63.632812 C 72.570312 65.765625 66.269531 66.222656 64.296875 66.222656 " fill-opacity="1" fill-rule="nonzero"/><path fill="#000000" d="M 254.980469 80.761719 C 254.984375 80.769531 254.988281 80.78125 254.996094 80.796875 C 254.988281 80.785156 254.984375 80.773438 254.980469 80.761719 Z M 255.542969 81.167969 C 255.308594 81.167969 255.089844 81.027344 254.996094 80.804688 C 254.929688 80.6875 254.632812 80.273438 254.292969 79.792969 C 246.625 69.074219 240.222656 57.207031 235.265625 44.515625 C 228.972656 28.390625 206.613281 29.652344 186.882812 30.765625 C 179.800781 31.164062 173.113281 31.542969 167.703125 31.0625 C 167.378906 31.035156 167.136719 30.746094 167.167969 30.421875 C 167.199219 30.097656 167.488281 29.859375 167.808594 29.886719 C 173.128906 30.359375 179.777344 29.984375 186.816406 29.585938 C 206.945312 28.449219 229.761719 27.164062 236.367188 44.085938 C 241.289062 56.683594 247.644531 68.46875 255.253906 79.109375 C 255.917969 80.039062 256.046875 80.21875 256.105469 80.390625 C 256.207031 80.699219 256.039062 81.035156 255.726562 81.136719 C 255.667969 81.15625 255.601562 81.167969 255.542969 81.167969 " fill-opacity="1" fill-rule="nonzero"/><path fill="#000000" d="M 202.488281 107.476562 C 202.191406 107.476562 201.933594 107.253906 201.902344 106.953125 C 201.863281 106.628906 202.097656 106.335938 202.417969 106.300781 C 202.546875 106.285156 215.269531 104.835938 233.75 104.152344 C 234.078125 104.136719 234.351562 104.394531 234.363281 104.71875 C 234.375 105.046875 234.121094 105.320312 233.796875 105.332031 C 215.359375 106.015625 202.679688 107.460938 202.554688 107.472656 C 202.53125 107.476562 202.507812 107.476562 202.488281 107.476562 " fill-opacity="1" fill-rule="nonzero"/><path fill="#000000" d="M 294.097656 161.128906 C 285.515625 161.128906 277.566406 160.886719 273.035156 160.15625 C 272.710938 160.105469 272.492188 159.800781 272.542969 159.480469 C 272.597656 159.15625 272.902344 158.9375 273.21875 158.992188 C 286.601562 161.144531 330.308594 159.007812 330.75 158.984375 C 331.085938 158.96875 331.351562 159.21875 331.367188 159.546875 C 331.386719 159.871094 331.132812 160.148438 330.808594 160.164062 C 330.515625 160.179688 311.074219 161.128906 294.097656 161.128906 " fill-opacity="1" fill-rule="nonzero"/><path fill="#000000" d="M 283.800781 171.886719 C 283.800781 171.886719 283.796875 171.886719 283.792969 171.886719 C 280.546875 171.839844 277.863281 171.761719 275.816406 171.652344 C 275.492188 171.636719 275.242188 171.355469 275.257812 171.03125 C 275.277344 170.707031 275.558594 170.457031 275.882812 170.472656 C 277.914062 170.582031 280.582031 170.660156 283.8125 170.707031 C 284.136719 170.710938 284.398438 170.980469 284.394531 171.304688 C 284.390625 171.628906 284.125 171.886719 283.800781 171.886719 " fill-opacity="1" fill-rule="nonzero"/><path fill="#000000" d="M 292.707031 171.933594 C 292.378906 171.933594 292.117188 171.671875 292.117188 171.34375 C 292.117188 171.019531 292.378906 170.753906 292.707031 170.753906 C 311.054688 170.726562 334.605469 170.066406 334.84375 170.0625 C 334.847656 170.0625 334.851562 170.0625 334.859375 170.0625 C 335.175781 170.0625 335.441406 170.316406 335.449219 170.636719 C 335.460938 170.960938 335.203125 171.234375 334.875 171.242188 C 334.640625 171.25 311.074219 171.90625 292.710938 171.933594 C 292.710938 171.933594 292.710938 171.933594 292.707031 171.933594 " fill-opacity="1" fill-rule="nonzero"/><path fill="#000000" d="M 333.5 182.867188 L 274.488281 182.867188 C 274.164062 182.867188 273.898438 182.605469 273.898438 182.277344 C 273.898438 181.949219 274.164062 181.6875 274.488281 181.6875 L 333.5 181.6875 C 333.828125 181.6875 334.089844 181.949219 334.089844 182.277344 C 334.089844 182.605469 333.828125 182.867188 333.5 182.867188 " fill-opacity="1" fill-rule="nonzero"/><path fill="#99b9ff" d="M 291.675781 85.023438 L 267.015625 86.925781 C 262.910156 87.238281 258.785156 87.292969 254.667969 87.082031 L 246.71875 86.671875 C 244.933594 86.582031 243.53125 88.207031 243.882812 89.972656 C 244.761719 94.40625 245.882812 102.40625 244.5625 109.976562 C 244.261719 111.695312 245.585938 113.261719 247.320312 113.226562 L 307.925781 112.0625 C 309.273438 112.035156 310.402344 111.039062 310.59375 109.703125 C 310.953125 107.230469 311.265625 103.070312 310.308594 98.710938 C 308.425781 90.128906 300.386719 84.355469 291.675781 85.023438 " fill-opacity="1" fill-rule="nonzero"/><path fill="#000000" d="M 287.960938 120.945312 C 287.832031 120.945312 287.703125 120.945312 287.574219 120.941406 L 274.59375 120.859375 C 274.269531 120.855469 274.003906 120.589844 274.007812 120.265625 C 274.011719 119.9375 274.273438 119.6875 274.601562 119.675781 L 287.582031 119.761719 C 288.886719 119.769531 290.203125 119.734375 291.503906 119.65625 L 308.714844 118.585938 C 309.035156 118.566406 309.324219 118.816406 309.34375 119.140625 C 309.363281 119.46875 309.117188 119.746094 308.789062 119.765625 L 291.574219 120.832031 C 290.378906 120.90625 289.160156 120.945312 287.960938 120.945312 " fill-opacity="1" fill-rule="nonzero"/><path fill="#000000" d="M 292.757812 140.21875 C 292.46875 140.21875 292.175781 140.214844 291.882812 140.210938 L 289.328125 140.164062 C 289 140.160156 288.738281 139.890625 288.746094 139.5625 C 288.75 139.238281 289.015625 138.980469 289.335938 138.980469 C 289.339844 138.980469 289.34375 138.980469 289.347656 138.980469 L 291.902344 139.027344 C 293.90625 139.066406 295.925781 138.976562 297.917969 138.761719 L 302.34375 138.289062 C 302.667969 138.253906 302.960938 138.488281 302.996094 138.8125 C 303.03125 139.136719 302.792969 139.425781 302.46875 139.460938 L 298.042969 139.9375 C 296.292969 140.125 294.523438 140.21875 292.757812 140.21875 " fill-opacity="1" fill-rule="nonzero"/><path fill="#000000" d="M 276.449219 131.347656 C 272.46875 131.347656 268.492188 131.246094 264.53125 131.046875 L 239.832031 129.796875 C 239.507812 129.78125 239.253906 129.503906 239.273438 129.179688 C 239.289062 128.851562 239.558594 128.601562 239.890625 128.617188 L 264.589844 129.867188 C 276.214844 130.457031 287.984375 130.171875 299.574219 129.03125 L 305.613281 128.4375 C 305.9375 128.40625 306.226562 128.644531 306.257812 128.96875 C 306.292969 129.292969 306.054688 129.582031 305.730469 129.613281 L 299.691406 130.210938 C 291.992188 130.964844 284.214844 131.347656 276.449219 131.347656 " fill-opacity="1" fill-rule="nonzero"/><path fill="#000000" d="M 193.722656 92.460938 C 193.410156 92.460938 193.148438 92.214844 193.132812 91.902344 C 193.113281 91.578125 193.363281 91.296875 193.6875 91.28125 L 210.550781 90.324219 C 210.875 90.308594 211.15625 90.550781 211.171875 90.878906 C 211.191406 91.203125 210.941406 91.484375 210.617188 91.503906 L 193.757812 92.460938 C 193.746094 92.460938 193.734375 92.460938 193.722656 92.460938 " fill-opacity="1" fill-rule="nonzero"/><path fill="#000000" d="M 191.816406 82.199219 C 191.503906 82.199219 191.242188 81.953125 191.230469 81.636719 C 191.214844 81.308594 191.46875 81.035156 191.792969 81.019531 L 216.8125 79.925781 C 217.128906 79.914062 217.414062 80.164062 217.429688 80.492188 C 217.441406 80.816406 217.191406 81.09375 216.863281 81.105469 L 191.84375 82.199219 C 191.835938 82.199219 191.828125 82.199219 191.816406 82.199219 " fill-opacity="1" fill-rule="nonzero"/><path fill="#000000" d="M 190.367188 70.890625 C 190.050781 70.890625 189.789062 70.640625 189.777344 70.320312 C 189.765625 69.996094 190.023438 69.722656 190.351562 69.710938 L 240.933594 68.070312 C 241.246094 68.054688 241.53125 68.316406 241.539062 68.640625 C 241.554688 68.96875 241.296875 69.238281 240.96875 69.25 L 190.390625 70.890625 C 190.382812 70.890625 190.378906 70.890625 190.367188 70.890625 " fill-opacity="1" fill-rule="nonzero"/><path fill="#000000" d="M 188.558594 59.949219 C 188.25 59.949219 187.992188 59.714844 187.96875 59.40625 C 187.941406 59.082031 188.183594 58.796875 188.511719 58.773438 C 199.828125 57.867188 234.261719 58.21875 234.609375 58.222656 C 234.9375 58.226562 235.199219 58.492188 235.195312 58.820312 C 235.191406 59.144531 234.933594 59.402344 234.597656 59.402344 C 234.253906 59.398438 199.867188 59.046875 188.605469 59.949219 C 188.585938 59.949219 188.570312 59.949219 188.558594 59.949219 " fill-opacity="1" fill-rule="nonzero"/><path fill="#99b9ff" d="M 228.285156 49.328125 L 187.6875 49.328125 C 187.144531 49.328125 186.671875 48.957031 186.546875 48.425781 C 186.046875 46.34375 184.574219 41.128906 181.605469 37.648438 C 180.960938 36.894531 181.441406 35.734375 182.425781 35.6875 C 189.753906 35.324219 209.796875 34.546875 218.703125 36.332031 C 219.40625 36.472656 220.082031 36.730469 220.699219 37.101562 C 222.847656 38.398438 227.980469 42.03125 229.429688 47.851562 C 229.617188 48.601562 229.054688 49.328125 228.285156 49.328125 " fill-opacity="1" fill-rule="nonzero"/><path fill="#000000" d="M 56.859375 38.621094 C 52.246094 38.621094 47.707031 38.367188 43.785156 37.695312 C 43.464844 37.640625 43.246094 37.335938 43.300781 37.011719 C 43.359375 36.691406 43.667969 36.472656 43.984375 36.53125 C 59.660156 39.21875 85.410156 35.113281 85.667969 35.070312 C 85.992188 35.019531 86.296875 35.238281 86.347656 35.558594 C 86.398438 35.882812 86.179688 36.183594 85.859375 36.234375 C 85.664062 36.269531 70.910156 38.621094 56.859375 38.621094 " fill-opacity="1" fill-rule="nonzero"/><path fill="#000000" d="M 54.101562 48 C 52.539062 48 50.996094 47.972656 49.484375 47.914062 C 49.15625 47.902344 48.902344 47.628906 48.914062 47.300781 C 48.925781 46.976562 49.214844 46.726562 49.527344 46.734375 C 68.28125 47.453125 92.128906 43.316406 92.371094 43.277344 C 92.691406 43.222656 93 43.433594 93.054688 43.757812 C 93.109375 44.078125 92.894531 44.386719 92.574219 44.441406 C 92.351562 44.480469 72.050781 48 54.101562 48 " fill-opacity="1" fill-rule="nonzero"/><path fill="#000000" d="M 60.78125 57.523438 C 59.207031 57.523438 57.699219 57.457031 56.328125 57.304688 C 56.003906 57.265625 55.769531 56.976562 55.808594 56.648438 C 55.84375 56.328125 56.136719 56.09375 56.460938 56.132812 C 64.84375 57.066406 79.125 54.519531 79.269531 54.492188 C 79.589844 54.4375 79.898438 54.648438 79.957031 54.96875 C 80.011719 55.292969 79.800781 55.597656 79.476562 55.65625 C 78.980469 55.746094 69.023438 57.523438 60.78125 57.523438 " fill-opacity="1" fill-rule="nonzero"/><path fill="#000000" d="M 151.21875 267.363281 C 151.21875 267.363281 108.917969 278.078125 87.089844 264.761719 C 87.089844 264.761719 95.707031 255.617188 110.230469 254.621094 C 124.757812 253.628906 151.21875 267.363281 151.21875 267.363281 " fill-opacity="1" fill-rule="nonzero"/><path fill="#000000" d="M 85.582031 333.925781 C 85.582031 333.925781 83.863281 310.789062 92.335938 293.785156 C 100.808594 276.777344 119.183594 258.398438 119.183594 258.398438 L 172.710938 261.003906 C 172.710938 261.003906 167.480469 274.421875 177.910156 287.238281 C 193.257812 306.097656 203.792969 333.925781 203.792969 333.925781 L 85.582031 333.925781 " fill-opacity="1" fill-rule="nonzero"/><path fill="#6567fd" d="M 110.628906 182.277344 C 110.628906 182.277344 86.632812 259.992188 87.089844 264.761719 C 87.089844 264.761719 108.640625 257.046875 128.238281 267.363281 C 147.835938 277.679688 178.082031 276.328125 196.1875 265.773438 L 205.9375 183.46875 C 205.9375 183.46875 187.832031 172.339844 162.761719 170.945312 C 137.691406 169.554688 110.628906 182.277344 110.628906 182.277344 " fill-opacity="1" fill-rule="nonzero"/><path fill="#6567fd" d="M 53.601562 222.636719 L 108.886719 217.652344 L 110.628906 182.277344 Z M 53.601562 222.636719 " fill-opacity="1" fill-rule="nonzero"/><path fill="#6567fd" d="M 199.796875 186.847656 C 200.167969 187.445312 198.160156 214.890625 198.160156 214.890625 L 255.144531 223.882812 L 199.796875 186.847656 " fill-opacity="1" fill-rule="nonzero"/><path fill="#ffffff" d="M 144.613281 264.789062 C 144.535156 264.789062 144.453125 264.773438 144.375 264.734375 C 144.078125 264.605469 143.941406 264.253906 144.074219 263.957031 C 144.160156 263.765625 152.84375 244.714844 175.363281 238.367188 C 184.480469 235.792969 190.378906 231.089844 192.898438 224.378906 C 194.78125 219.371094 193.96875 215.046875 193.960938 215.003906 C 193.898438 214.683594 194.109375 214.375 194.429688 214.3125 C 194.75 214.25 195.058594 214.457031 195.121094 214.777344 C 195.160156 214.964844 196.003906 219.425781 194.027344 224.738281 C 192.210938 229.628906 187.550781 236.15625 175.683594 239.503906 C 153.695312 245.703125 145.238281 264.25 145.15625 264.433594 C 145.058594 264.65625 144.839844 264.789062 144.613281 264.789062 " fill-opacity="1" fill-rule="nonzero"/><path fill="#ffffff" d="M 143.152344 157.003906 L 140.578125 172.21875 L 131.652344 175.058594 C 131.652344 175.058594 137.292969 185.457031 157.386719 185.058594 C 177.484375 184.660156 180.96875 173.703125 180.96875 173.703125 L 167.734375 169.953125 L 165.746094 159.765625 L 143.152344 157.003906 " fill-opacity="1" fill-rule="nonzero"/><path fill="#000000" d="M 132.578125 175.386719 C 134.171875 177.558594 140.746094 184.796875 157.375 184.46875 C 174.121094 184.136719 179.097656 176.285156 180.160156 174.089844 L 167.222656 170.421875 L 165.246094 160.300781 L 143.640625 157.660156 L 141.101562 172.671875 Z M 156.257812 185.660156 C 136.953125 185.664062 131.363281 175.769531 131.132812 175.34375 L 130.792969 174.714844 L 140.058594 171.765625 L 142.664062 156.351562 L 166.242188 159.230469 L 168.246094 169.484375 L 181.71875 173.300781 L 181.53125 173.882812 C 181.382812 174.347656 177.6875 185.25 157.398438 185.648438 C 157.015625 185.65625 156.632812 185.660156 156.257812 185.660156 " fill-opacity="1" fill-rule="nonzero"/><path fill="#000000" d="M 138.9375 106.625 C 133.074219 103.710938 127.820312 111.167969 120.519531 108.761719 C 112.738281 106.195312 114.933594 96.488281 106.722656 90.183594 C 97.625 83.195312 89.882812 91.234375 72.144531 86.894531 C 54.976562 82.695312 51.25 72.484375 43.863281 75.28125 C 34.839844 78.695312 30.082031 97.832031 36.640625 108.65625 C 41.40625 116.523438 48.710938 114.339844 53.660156 122.785156 C 59.441406 132.648438 52 139.929688 57.585938 148.234375 C 62.863281 156.078125 76.226562 159.550781 85.070312 155.695312 C 94.257812 151.695312 94.464844 141.574219 101.371094 141.066406 C 108.058594 140.574219 109.695312 149.925781 117.800781 151.316406 C 128.390625 153.132812 142.894531 140.132812 144.824219 125.675781 C 145.65625 119.457031 144.625 109.457031 138.9375 106.625 " fill-opacity="1" fill-rule="nonzero"/><path fill="#000000" d="M 187.238281 128.929688 C 189.625 146.730469 174.390625 159.855469 156.414062 159.855469 C 138.433594 159.855469 124.523438 147.738281 123.5625 129.808594 C 122.367188 107.566406 136.714844 98.40625 154.601562 96.613281 C 172.441406 94.824219 184.019531 104.960938 187.238281 128.929688 " fill-opacity="1" fill-rule="nonzero"/><path fill="#ffffff" d="M 184.019531 143.347656 C 183.054688 142.613281 182.144531 142.640625 181.320312 143.066406 C 181.566406 129.074219 172.019531 122.28125 165.347656 129.804688 C 155.199219 141.25 140.578125 121.855469 137.570312 140.175781 C 137.429688 141.042969 137.382812 141.921875 137.339844 142.800781 C 135.898438 141.585938 134.046875 140.527344 132.515625 141.332031 C 129.679688 142.824219 134.265625 157.898438 139.792969 158.414062 C 143.046875 167.214844 149.101562 174.039062 155.683594 174.882812 C 164.492188 176.011719 172.339844 171.96875 178.9375 155.292969 C 182.496094 152.101562 186.839844 145.496094 184.019531 143.347656 " fill-opacity="1" fill-rule="nonzero"/><path fill="#000000" d="M 133.679688 141.644531 C 133.371094 141.644531 133.070312 141.707031 132.792969 141.855469 C 132.285156 142.121094 131.988281 143.65625 132.535156 146.398438 C 133.582031 151.683594 136.773438 157.539062 139.847656 157.828125 L 140.21875 157.863281 L 140.347656 158.210938 C 143.675781 167.210938 149.726562 173.527344 155.757812 174.296875 C 165.652344 175.5625 172.625 169.636719 178.386719 155.078125 L 178.4375 154.945312 L 178.539062 154.855469 C 181.421875 152.273438 184.433594 147.796875 184.332031 145.253906 C 184.304688 144.613281 184.085938 144.144531 183.660156 143.816406 C 182.96875 143.289062 182.3125 143.21875 181.59375 143.59375 L 180.710938 144.050781 L 180.726562 143.058594 C 180.878906 134.425781 177.273438 129.128906 173.628906 127.714844 C 170.925781 126.660156 168.140625 127.542969 165.789062 130.199219 C 160.898438 135.714844 155.089844 134.417969 149.960938 133.277344 C 146.535156 132.511719 143.578125 131.851562 141.4375 133.296875 C 139.820312 134.386719 138.746094 136.667969 138.152344 140.273438 C 138.015625 141.101562 137.972656 141.980469 137.929688 142.828125 L 137.867188 144.015625 L 136.957031 143.25 C 136.023438 142.464844 134.789062 141.644531 133.679688 141.644531 Z M 158.34375 175.648438 C 157.457031 175.648438 156.542969 175.589844 155.609375 175.46875 C 149.21875 174.652344 142.867188 168.179688 139.363281 158.949219 C 135.429688 158.175781 132.289062 151.246094 131.375 146.628906 C 131.015625 144.816406 130.648438 141.648438 132.242188 140.808594 C 133.148438 140.332031 134.640625 140.144531 136.8125 141.648438 C 136.847656 141.125 136.902344 140.601562 136.988281 140.078125 C 137.632812 136.140625 138.875 133.601562 140.773438 132.316406 C 143.335938 130.589844 146.679688 131.335938 150.21875 132.125 C 155.261719 133.246094 160.476562 134.410156 164.90625 129.414062 C 167.570312 126.40625 170.90625 125.386719 174.058594 126.613281 C 178.726562 128.425781 181.824219 134.644531 181.914062 142.234375 C 182.753906 142.0625 183.59375 142.28125 184.378906 142.878906 C 185.089844 143.421875 185.472656 144.207031 185.511719 145.207031 C 185.644531 148.480469 182.074219 153.230469 179.4375 155.640625 C 173.984375 169.351562 167.398438 175.648438 158.34375 175.648438 " fill-opacity="1" fill-rule="nonzero"/><path fill="#ffffff" d="M 136.765625 158.390625 C 135.246094 154.289062 127.246094 143.425781 130.128906 140.425781 C 133.492188 136.925781 131.820312 134.929688 131.664062 134.757812 C 131.65625 134.757812 131.652344 134.757812 131.640625 134.757812 L 125.335938 140.425781 C 125.335938 140.425781 128.46875 132.917969 129.617188 130.535156 C 130.453125 128.792969 130.066406 126.203125 129.796875 124.929688 C 129.730469 124.605469 129.324219 124.5 129.101562 124.746094 L 122.367188 132.210938 C 122.367188 132.210938 126.082031 126.292969 126.613281 123.90625 C 126.949219 122.402344 126.351562 121.246094 125.867188 120.601562 C 125.632812 120.289062 125.15625 120.304688 124.945312 120.636719 L 114.796875 136.675781 C 113.011719 139.496094 113.097656 143.109375 115.011719 145.839844 L 121.246094 154.734375 C 122.804688 156.957031 123.597656 159.574219 123.582031 162.207031 C 123.574219 163.722656 122.597656 165.0625 121.160156 165.535156 C 104.160156 171.148438 41.179688 193.328125 43.398438 213.128906 C 45.011719 227.507812 65.558594 223.007812 80.269531 216.863281 C 105.480469 206.324219 131.652344 172.667969 131.652344 172.667969 C 131.652344 172.667969 138.285156 162.496094 136.765625 158.390625 " fill-opacity="1" fill-rule="nonzero"/><path fill="#000000" d="M 125.421875 120.992188 L 115.296875 136.992188 C 113.632812 139.617188 113.710938 142.957031 115.496094 145.503906 L 121.730469 154.394531 C 123.34375 156.699219 124.191406 159.398438 124.175781 162.210938 C 124.164062 163.980469 123.027344 165.542969 121.34375 166.097656 C 113.417969 168.714844 93.066406 175.753906 75.335938 184.539062 C 53.925781 195.15625 43.085938 205.015625 43.988281 213.0625 C 44.359375 216.382812 45.828125 218.820312 48.347656 220.300781 C 56.894531 225.320312 74.769531 218.519531 80.042969 216.316406 C 104.582031 206.0625 130.417969 173.289062 131.171875 172.324219 C 132.980469 169.546875 137.371094 161.722656 136.210938 158.59375 C 135.78125 157.4375 134.761719 155.621094 133.679688 153.695312 C 130.71875 148.425781 127.359375 142.453125 129.703125 140.015625 C 131.789062 137.84375 131.75 136.390625 131.507812 135.671875 L 123.78125 142.621094 L 124.792969 140.199219 C 124.917969 139.890625 127.945312 132.652344 129.082031 130.277344 C 129.78125 128.824219 129.511719 126.601562 129.292969 125.414062 L 122.808594 132.605469 L 121.867188 131.894531 C 121.902344 131.835938 125.535156 126.039062 126.039062 123.78125 C 126.308594 122.554688 125.859375 121.59375 125.421875 120.992188 Z M 56.550781 223.304688 C 53.242188 223.304688 50.179688 222.75 47.75 221.320312 C 44.886719 219.640625 43.226562 216.90625 42.8125 213.191406 C 40.566406 193.144531 102.070312 171.21875 120.972656 164.976562 C 122.175781 164.578125 122.984375 163.464844 122.992188 162.203125 C 123.003906 159.640625 122.234375 157.171875 120.761719 155.074219 L 114.527344 146.179688 C 112.46875 143.246094 112.378906 139.390625 114.296875 136.363281 L 124.445312 120.320312 C 124.648438 120.003906 124.996094 119.800781 125.371094 119.785156 C 125.75 119.769531 126.113281 119.945312 126.339844 120.246094 C 126.828125 120.898438 127.585938 122.253906 127.191406 124.035156 C 126.988281 124.945312 126.363281 126.316406 125.648438 127.691406 L 128.660156 124.351562 C 128.914062 124.070312 129.296875 123.957031 129.664062 124.054688 C 130.023438 124.152344 130.300781 124.441406 130.378906 124.808594 C 130.679688 126.238281 131.050781 128.914062 130.148438 130.789062 C 129.4375 132.273438 127.925781 135.8125 126.90625 138.21875 L 131.425781 134.15625 L 131.914062 134.175781 L 132.101562 134.359375 C 132.335938 134.617188 134.273438 136.964844 130.554688 140.835938 C 128.820312 142.640625 132.363281 148.945312 134.710938 153.121094 C 135.863281 155.167969 136.855469 156.9375 137.320312 158.183594 C 138.925781 162.519531 132.425781 172.566406 132.148438 172.992188 L 132.121094 173.03125 C 131.859375 173.371094 105.5625 206.933594 80.5 217.40625 C 75.492188 219.5 65.191406 223.304688 56.550781 223.304688 " fill-opacity="1" fill-rule="nonzero"/><path fill="#ffffff" d="M 179.300781 159.867188 C 180.824219 155.765625 188.820312 144.902344 185.9375 141.902344 C 182.574219 138.402344 184.246094 136.40625 184.402344 136.234375 C 184.410156 136.234375 184.414062 136.234375 184.425781 136.234375 L 190.730469 141.902344 C 190.730469 141.902344 187.597656 134.398438 186.449219 132.011719 C 185.613281 130.269531 186 127.679688 186.269531 126.410156 C 186.335938 126.085938 186.746094 125.976562 186.964844 126.226562 L 193.699219 133.6875 C 193.699219 133.6875 189.980469 127.773438 189.453125 125.386719 C 189.117188 123.882812 189.714844 122.726562 190.199219 122.078125 C 190.4375 121.765625 190.910156 121.785156 191.121094 122.117188 L 201.273438 138.15625 C 203.058594 140.972656 202.972656 144.589844 201.054688 147.320312 L 194.820312 156.214844 C 193.261719 158.4375 192.46875 161.054688 192.484375 163.683594 C 192.492188 165.199219 193.46875 166.539062 194.910156 167.011719 C 211.90625 172.625 274.886719 194.808594 272.667969 214.605469 C 271.058594 228.984375 250.511719 224.488281 235.796875 218.339844 C 210.582031 207.804688 184.414062 174.148438 184.414062 174.148438 C 184.414062 174.148438 177.78125 163.972656 179.300781 159.867188 " fill-opacity="1" fill-rule="nonzero"/><path fill="#000000" d="M 184.894531 173.804688 C 185.644531 174.765625 211.488281 207.539062 236.023438 217.796875 C 241.300781 220 259.171875 226.800781 267.71875 221.78125 C 270.238281 220.300781 271.707031 217.863281 272.078125 214.539062 C 272.980469 206.496094 262.140625 196.632812 240.730469 186.019531 C 223.003906 177.230469 202.652344 170.191406 194.722656 167.574219 C 193.039062 167.019531 191.902344 165.457031 191.894531 163.6875 C 191.875 160.875 192.722656 158.175781 194.335938 155.875 L 200.570312 146.980469 C 202.355469 144.4375 202.433594 141.097656 200.773438 138.472656 L 190.648438 122.46875 C 190.207031 123.070312 189.757812 124.03125 190.03125 125.257812 C 190.53125 127.515625 194.164062 133.316406 194.199219 133.371094 L 193.257812 134.082031 L 186.773438 126.894531 C 186.554688 128.082031 186.285156 130.300781 186.984375 131.757812 C 188.121094 134.128906 191.144531 141.367188 191.277344 141.675781 L 192.289062 144.097656 L 184.558594 137.152344 C 184.316406 137.867188 184.28125 139.324219 186.367188 141.496094 C 188.707031 143.929688 185.351562 149.90625 182.386719 155.175781 C 181.308594 157.097656 180.285156 158.914062 179.859375 160.074219 L 179.855469 160.074219 C 178.699219 163.199219 183.085938 171.023438 184.894531 173.804688 Z M 259.515625 224.785156 C 250.878906 224.785156 240.574219 220.976562 235.570312 218.886719 C 210.503906 208.410156 184.210938 174.847656 183.945312 174.511719 L 183.917969 174.46875 C 183.640625 174.042969 177.140625 163.996094 178.746094 159.664062 C 179.210938 158.417969 180.203125 156.644531 181.355469 154.597656 C 183.699219 150.425781 187.246094 144.117188 185.511719 142.3125 C 181.796875 138.445312 183.734375 136.09375 183.964844 135.839844 L 184.132812 135.65625 L 184.617188 135.636719 L 184.820312 135.796875 L 189.160156 139.699219 C 188.144531 137.289062 186.632812 133.753906 185.917969 132.269531 C 185.015625 130.390625 185.386719 127.714844 185.691406 126.289062 C 185.765625 125.921875 186.039062 125.628906 186.40625 125.535156 C 186.769531 125.4375 187.152344 125.550781 187.40625 125.828125 L 190.417969 129.167969 C 189.703125 127.796875 189.078125 126.425781 188.878906 125.515625 C 188.480469 123.734375 189.238281 122.375 189.726562 121.726562 C 189.953125 121.421875 190.320312 121.253906 190.695312 121.265625 C 191.074219 121.28125 191.417969 121.480469 191.621094 121.800781 L 201.773438 137.839844 C 203.6875 140.867188 203.597656 144.726562 201.539062 147.660156 L 195.304688 156.550781 C 193.832031 158.652344 193.0625 161.117188 193.074219 163.683594 C 193.082031 164.945312 193.894531 166.058594 195.09375 166.453125 C 213.996094 172.695312 275.503906 194.621094 273.253906 214.671875 C 272.839844 218.382812 271.179688 221.117188 268.316406 222.796875 C 265.890625 224.226562 262.824219 224.785156 259.515625 224.785156 " fill-opacity="1" fill-rule="nonzero"/><path fill="#6567fd" d="M 313.105469 333.925781 L 133.933594 333.925781 C 132.351562 333.925781 131.066406 332.644531 131.066406 331.0625 L 131.066406 324.726562 L 315.972656 324.726562 L 315.972656 331.0625 C 315.972656 332.644531 314.691406 333.925781 313.105469 333.925781 " fill-opacity="1" fill-rule="nonzero"/><path fill="#000000" d="M 131.65625 325.316406 L 131.65625 326.632812 C 131.65625 330.328125 134.667969 333.335938 138.367188 333.335938 L 308.671875 333.335938 C 312.371094 333.335938 315.378906 330.328125 315.378906 326.632812 L 315.378906 325.316406 Z M 308.671875 334.515625 L 138.367188 334.515625 C 134.015625 334.515625 130.476562 330.980469 130.476562 326.632812 L 130.476562 324.726562 C 130.476562 324.402344 130.738281 324.136719 131.066406 324.136719 L 315.972656 324.136719 C 316.296875 324.136719 316.5625 324.402344 316.5625 324.726562 L 316.5625 326.632812 C 316.5625 330.980469 313.023438 334.515625 308.671875 334.515625 " fill-opacity="1" fill-rule="nonzero"/><path fill="#6567fd" d="M 315.976562 324.910156 L 208.179688 324.910156 L 242.429688 223.574219 C 244.480469 220.402344 248.050781 218.480469 251.886719 218.480469 L 343.011719 218.480469 C 347.144531 218.480469 349.808594 222.515625 348.460938 226.074219 C 347.921875 227.492188 347.34375 228.890625 346.871094 230.328125 L 315.976562 324.910156 " fill-opacity="1" fill-rule="nonzero"/><path fill="#000000" d="M 209.003906 324.320312 L 315.546875 324.320312 L 346.3125 230.144531 C 346.652344 229.09375 347.058594 228.058594 347.445312 227.050781 C 347.601562 226.65625 347.753906 226.261719 347.90625 225.863281 C 348.476562 224.363281 348.253906 222.65625 347.316406 221.296875 C 346.339844 219.882812 344.769531 219.074219 343.011719 219.074219 L 251.886719 219.074219 C 248.253906 219.074219 244.925781 220.851562 242.964844 223.835938 Z M 315.976562 325.5 L 208.179688 325.5 C 207.992188 325.5 207.808594 325.410156 207.699219 325.253906 C 207.585938 325.101562 207.558594 324.902344 207.621094 324.722656 L 241.871094 223.386719 C 241.882812 223.339844 241.90625 223.296875 241.933594 223.253906 C 244.105469 219.894531 247.828125 217.890625 251.886719 217.890625 L 343.011719 217.890625 C 345.167969 217.890625 347.089844 218.886719 348.292969 220.628906 C 349.449219 222.300781 349.71875 224.417969 349.011719 226.28125 C 348.859375 226.683594 348.703125 227.082031 348.550781 227.480469 C 348.164062 228.46875 347.769531 229.492188 347.4375 230.511719 L 316.539062 325.09375 C 316.460938 325.335938 316.230469 325.5 315.976562 325.5 " fill-opacity="1" fill-rule="nonzero"/><path fill="#ffffff" d="M 275.691406 270.242188 C 274.355469 274.707031 276.398438 279.269531 280.261719 280.441406 C 284.121094 281.613281 288.332031 278.945312 289.671875 274.484375 C 291.007812 270.019531 288.964844 265.453125 285.105469 264.28125 C 281.246094 263.113281 277.03125 265.78125 275.691406 270.242188 " fill-opacity="1" fill-rule="nonzero"/><path fill="#caddff" d="M 299.964844 324.605469 L 224.5625 324.605469 C 224.234375 324.605469 223.96875 324.339844 223.96875 324.015625 C 223.96875 323.6875 224.234375 323.421875 224.5625 323.421875 L 299.964844 323.421875 C 300.292969 323.421875 300.558594 323.6875 300.558594 324.015625 C 300.558594 324.339844 300.292969 324.605469 299.964844 324.605469 " fill-opacity="1" fill-rule="nonzero"/><path fill="#caddff" d="M 316.96875 324.605469 L 308.203125 324.605469 C 307.875 324.605469 307.609375 324.339844 307.609375 324.015625 C 307.609375 323.6875 307.875 323.421875 308.203125 323.421875 L 316.96875 323.421875 C 317.296875 323.421875 317.5625 323.6875 317.5625 324.015625 C 317.5625 324.339844 317.296875 324.605469 316.96875 324.605469 " fill-opacity="1" fill-rule="nonzero"/><path fill="#ffffff" d="M 293.476562 212.125 C 293.476562 201.582031 302.03125 193.039062 312.585938 193.039062 C 323.140625 193.039062 331.699219 201.582031 331.699219 212.125 C 331.699219 222.667969 323.140625 231.214844 312.585938 231.214844 C 302.03125 231.214844 293.476562 222.667969 293.476562 212.125 " fill-opacity="1" fill-rule="nonzero"/><path fill="#000000" d="M 312.585938 193.628906 C 302.375 193.628906 294.066406 201.925781 294.066406 212.125 C 294.066406 222.328125 302.375 230.625 312.585938 230.625 C 322.796875 230.625 331.105469 222.328125 331.105469 212.125 C 331.105469 201.925781 322.796875 193.628906 312.585938 193.628906 Z M 312.585938 231.808594 C 301.722656 231.808594 292.882812 222.980469 292.882812 212.125 C 292.882812 201.273438 301.722656 192.445312 312.585938 192.445312 C 323.449219 192.445312 332.289062 201.273438 332.289062 212.125 C 332.289062 222.980469 323.449219 231.808594 312.585938 231.808594 " fill-opacity="1" fill-rule="nonzero"/><path fill="#6567fd" d="M 312.671875 221.800781 C 311.484375 221.78125 310.53125 220.8125 310.519531 219.632812 L 314.890625 219.699219 C 314.84375 220.878906 313.859375 221.816406 312.671875 221.800781 Z M 311.609375 202.140625 C 311.621094 201.453125 312.183594 200.902344 312.875 200.914062 L 313.09375 200.917969 C 313.777344 200.925781 314.328125 201.492188 314.320312 202.183594 L 314.304688 203.332031 C 313.863281 203.238281 313.414062 203.179688 312.949219 203.175781 C 312.484375 203.167969 312.03125 203.207031 311.589844 203.289062 Z M 321.707031 218.496094 C 321.640625 218.449219 321.121094 218.074219 320.613281 216.957031 C 319.679688 214.90625 319.519531 212.03125 319.546875 209.984375 C 319.550781 209.976562 319.550781 209.964844 319.546875 209.957031 C 319.578125 207.25 317.992188 204.890625 315.683594 203.804688 L 315.707031 202.203125 C 315.730469 200.75 314.5625 199.550781 313.113281 199.527344 L 312.894531 199.523438 C 311.441406 199.5 310.242188 200.664062 310.222656 202.117188 L 310.195312 203.71875 C 307.851562 204.734375 306.1875 207.054688 306.148438 209.773438 C 306.117188 211.824219 305.875 214.691406 304.878906 216.710938 C 304.339844 217.8125 303.808594 218.171875 303.738281 218.214844 C 303.445312 218.347656 303.292969 218.660156 303.355469 218.976562 C 303.421875 219.300781 303.714844 219.527344 304.042969 219.53125 L 309.132812 219.609375 C 309.128906 221.558594 310.699219 223.160156 312.652344 223.1875 C 314.605469 223.21875 316.21875 221.667969 316.277344 219.71875 L 321.363281 219.800781 C 321.691406 219.804688 321.992188 219.589844 322.066406 219.269531 C 322.140625 218.953125 322 218.636719 321.707031 218.496094 " fill-opacity="1" fill-rule="nonzero"/><path fill="#ffffff" d="M 339.753906 113.507812 C 335.9375 113.507812 332.847656 110.417969 332.847656 106.609375 C 332.847656 102.800781 335.9375 99.714844 339.753906 99.714844 C 343.566406 99.714844 346.65625 102.800781 346.65625 106.609375 C 346.65625 110.417969 343.566406 113.507812 339.753906 113.507812 Z M 353.03125 103.691406 C 353.011719 103.527344 352.878906 103.40625 352.714844 103.390625 L 350.367188 103.199219 C 350.230469 103.191406 350.113281 103.097656 350.070312 102.96875 C 349.914062 102.53125 349.734375 102.105469 349.535156 101.703125 C 349.46875 101.578125 349.484375 101.433594 349.570312 101.324219 L 351.0625 99.503906 C 351.164062 99.375 351.167969 99.199219 351.066406 99.070312 L 349.792969 97.445312 C 349.695312 97.316406 349.515625 97.273438 349.371094 97.34375 L 347.238281 98.351562 C 347.113281 98.410156 346.96875 98.390625 346.863281 98.300781 C 346.515625 98.003906 346.148438 97.726562 345.765625 97.476562 C 345.652344 97.402344 345.589844 97.265625 345.613281 97.132812 L 345.992188 94.804688 C 346.019531 94.640625 345.929688 94.484375 345.78125 94.425781 L 343.867188 93.65625 C 343.710938 93.59375 343.539062 93.644531 343.449219 93.777344 L 342.109375 95.714844 C 342.03125 95.828125 341.894531 95.882812 341.757812 95.859375 C 341.308594 95.773438 340.855469 95.71875 340.394531 95.695312 C 340.257812 95.683594 340.136719 95.601562 340.085938 95.472656 L 339.253906 93.269531 C 339.195312 93.117188 339.039062 93.027344 338.875 93.046875 L 336.835938 93.335938 C 336.671875 93.359375 336.550781 93.488281 336.535156 93.652344 L 336.34375 96.003906 C 336.332031 96.136719 336.242188 96.253906 336.109375 96.300781 C 335.671875 96.453125 335.25 96.632812 334.84375 96.835938 C 334.71875 96.898438 334.574219 96.882812 334.46875 96.796875 L 332.644531 95.308594 C 332.519531 95.203125 332.335938 95.203125 332.207031 95.300781 L 330.582031 96.574219 C 330.457031 96.675781 330.414062 96.851562 330.484375 96.996094 L 331.492188 99.128906 C 331.550781 99.253906 331.53125 99.398438 331.441406 99.503906 C 331.144531 99.851562 330.867188 100.21875 330.617188 100.601562 C 330.539062 100.714844 330.40625 100.773438 330.269531 100.753906 L 327.941406 100.375 C 327.78125 100.351562 327.625 100.4375 327.566406 100.589844 L 326.792969 102.503906 C 326.730469 102.652344 326.785156 102.824219 326.917969 102.917969 L 328.855469 104.257812 C 328.96875 104.335938 329.023438 104.472656 328.996094 104.605469 C 328.910156 105.054688 328.859375 105.507812 328.832031 105.972656 C 328.824219 106.109375 328.738281 106.226562 328.609375 106.277344 L 326.40625 107.113281 C 326.253906 107.171875 326.160156 107.328125 326.183594 107.488281 L 326.472656 109.53125 C 326.496094 109.691406 326.628906 109.816406 326.789062 109.828125 L 329.136719 110.019531 C 329.277344 110.03125 329.390625 110.125 329.4375 110.253906 C 329.589844 110.691406 329.769531 111.113281 329.972656 111.519531 C 330.035156 111.640625 330.019531 111.789062 329.933594 111.894531 L 328.445312 113.71875 C 328.339844 113.84375 328.339844 114.023438 328.4375 114.152344 L 329.710938 115.777344 C 329.8125 115.902344 329.988281 115.945312 330.132812 115.875 L 332.265625 114.867188 C 332.390625 114.808594 332.539062 114.828125 332.640625 114.917969 C 332.988281 115.21875 333.355469 115.492188 333.738281 115.746094 C 333.851562 115.820312 333.914062 115.953125 333.894531 116.085938 L 333.511719 118.417969 C 333.488281 118.578125 333.574219 118.734375 333.726562 118.792969 L 335.640625 119.566406 C 335.792969 119.628906 335.964844 119.574219 336.058594 119.441406 L 337.398438 117.503906 C 337.476562 117.390625 337.613281 117.339844 337.746094 117.363281 C 338.195312 117.445312 338.648438 117.5 339.113281 117.527344 C 339.25 117.535156 339.367188 117.617188 339.417969 117.75 L 340.253906 119.953125 C 340.308594 120.101562 340.46875 120.195312 340.628906 120.175781 L 342.671875 119.882812 C 342.832031 119.859375 342.957031 119.730469 342.96875 119.566406 L 343.160156 117.21875 C 343.175781 117.082031 343.265625 116.964844 343.394531 116.921875 C 343.832031 116.765625 344.257812 116.589844 344.664062 116.382812 C 344.785156 116.324219 344.929688 116.335938 345.035156 116.421875 L 346.859375 117.914062 C 346.988281 118.015625 347.167969 118.019531 347.296875 117.917969 L 348.921875 116.644531 C 349.050781 116.546875 349.089844 116.371094 349.019531 116.222656 L 348.011719 114.089844 C 347.953125 113.964844 347.972656 113.820312 348.0625 113.71875 C 348.359375 113.371094 348.636719 113.003906 348.886719 112.621094 C 348.964844 112.507812 349.097656 112.445312 349.234375 112.464844 L 351.5625 112.84375 C 351.722656 112.871094 351.882812 112.78125 351.941406 112.632812 L 352.710938 110.71875 C 352.773438 110.566406 352.722656 110.394531 352.589844 110.300781 L 350.652344 108.964844 C 350.539062 108.882812 350.484375 108.75 350.511719 108.613281 C 350.589844 108.164062 350.644531 107.710938 350.671875 107.25 C 350.683594 107.109375 350.765625 106.992188 350.894531 106.941406 L 353.101562 106.105469 C 353.253906 106.050781 353.34375 105.890625 353.324219 105.730469 L 353.03125 103.691406 " fill-opacity="1" fill-rule="nonzero"/><path fill="#000000" d="M 339.753906 100.304688 C 336.269531 100.304688 333.4375 103.132812 333.4375 106.609375 C 333.4375 110.085938 336.269531 112.914062 339.753906 112.914062 C 343.234375 112.914062 346.0625 110.085938 346.0625 106.609375 C 346.0625 103.132812 343.234375 100.304688 339.753906 100.304688 Z M 339.753906 114.097656 C 335.617188 114.097656 332.257812 110.738281 332.257812 106.609375 C 332.257812 102.480469 335.617188 99.125 339.753906 99.125 C 343.886719 99.125 347.246094 102.480469 347.246094 106.609375 C 347.246094 110.738281 343.886719 114.097656 339.753906 114.097656 Z M 330.992188 99.121094 Z M 352.445312 103.773438 Z M 328.242188 105.9375 C 328.238281 105.9375 328.238281 105.9375 328.238281 105.941406 C 328.238281 105.9375 328.238281 105.9375 328.242188 105.9375 Z M 329.441406 111.785156 C 329.445312 111.785156 329.445312 111.785156 329.445312 111.785156 C 329.445312 111.785156 329.445312 111.785156 329.441406 111.785156 Z M 348.546875 113.839844 Z M 333.308594 115.992188 C 333.308594 115.996094 333.308594 115.996094 333.308594 115.996094 Z M 338.863281 117.957031 C 338.863281 117.957031 338.863281 117.957031 338.863281 117.960938 Z M 337.683594 116.765625 C 337.738281 116.765625 337.796875 116.773438 337.851562 116.78125 C 338.273438 116.859375 338.707031 116.910156 339.148438 116.9375 C 339.515625 116.957031 339.839844 117.195312 339.96875 117.539062 L 340.738281 119.5625 L 342.398438 119.328125 L 342.574219 117.167969 C 342.605469 116.800781 342.847656 116.488281 343.199219 116.363281 C 343.613281 116.21875 344.011719 116.046875 344.394531 115.859375 C 344.726562 115.691406 345.125 115.734375 345.410156 115.96875 L 347.085938 117.332031 L 348.402344 116.300781 L 347.476562 114.34375 C 347.320312 114.015625 347.375 113.617188 347.613281 113.335938 C 347.894531 113.007812 348.160156 112.65625 348.394531 112.296875 C 348.597656 111.988281 348.964844 111.824219 349.328125 111.882812 L 351.464844 112.230469 L 352.089844 110.679688 L 350.316406 109.449219 C 350.011719 109.242188 349.859375 108.871094 349.925781 108.507812 C 350.003906 108.089844 350.054688 107.652344 350.082031 107.214844 C 350.101562 106.84375 350.339844 106.519531 350.683594 106.390625 L 352.707031 105.621094 L 352.472656 103.964844 L 350.316406 103.789062 C 349.949219 103.761719 349.632812 103.515625 349.507812 103.164062 C 349.363281 102.753906 349.195312 102.347656 349.003906 101.96875 C 348.835938 101.636719 348.882812 101.238281 349.109375 100.953125 L 350.480469 99.277344 L 349.445312 97.960938 L 347.492188 98.886719 C 347.160156 99.046875 346.761719 98.992188 346.480469 98.75 C 346.148438 98.46875 345.800781 98.207031 345.441406 97.96875 C 345.132812 97.765625 344.972656 97.398438 345.027344 97.039062 L 345.378906 94.902344 L 343.824219 94.273438 L 342.59375 96.050781 C 342.386719 96.355469 342.011719 96.503906 341.652344 96.4375 C 341.230469 96.363281 340.796875 96.308594 340.359375 96.285156 C 339.988281 96.265625 339.664062 96.027344 339.535156 95.683594 L 338.765625 93.660156 L 337.109375 93.894531 L 336.929688 96.050781 C 336.902344 96.417969 336.65625 96.734375 336.304688 96.859375 C 335.894531 97.003906 335.488281 97.171875 335.109375 97.363281 C 334.777344 97.53125 334.378906 97.484375 334.09375 97.253906 L 332.417969 95.886719 L 331.101562 96.921875 L 332.027344 98.875 C 332.183594 99.210938 332.132812 99.605469 331.890625 99.886719 C 331.613281 100.214844 331.347656 100.5625 331.109375 100.925781 C 330.90625 101.234375 330.539062 101.398438 330.175781 101.339844 L 328.039062 100.988281 L 327.414062 102.542969 L 329.191406 103.769531 C 329.496094 103.980469 329.644531 104.351562 329.578125 104.714844 C 329.5 105.132812 329.449219 105.566406 329.421875 106.003906 C 329.402344 106.375 329.164062 106.699219 328.820312 106.832031 L 326.796875 107.597656 L 327.03125 109.257812 L 329.1875 109.433594 C 329.554688 109.464844 329.871094 109.707031 329.996094 110.058594 C 330.140625 110.46875 330.308594 110.871094 330.5 111.253906 C 330.667969 111.585938 330.625 111.984375 330.394531 112.269531 L 329.023438 113.941406 L 330.058594 115.257812 L 332.015625 114.332031 C 332.347656 114.175781 332.746094 114.230469 333.023438 114.46875 C 333.355469 114.75 333.703125 115.015625 334.0625 115.25 C 334.375 115.457031 334.535156 115.824219 334.476562 116.1875 L 334.128906 118.320312 L 335.679688 118.945312 L 336.910156 117.167969 C 337.085938 116.914062 337.378906 116.765625 337.683594 116.765625 Z M 340.578125 120.769531 C 340.191406 120.769531 339.839844 120.53125 339.703125 120.160156 L 338.921875 118.105469 C 338.539062 118.082031 338.164062 118.035156 337.792969 117.972656 L 336.542969 119.777344 C 336.292969 120.140625 335.828125 120.28125 335.417969 120.113281 L 333.503906 119.34375 C 333.097656 119.175781 332.855469 118.757812 332.929688 118.320312 L 333.28125 116.148438 C 332.96875 115.941406 332.667969 115.710938 332.375 115.46875 L 330.386719 116.410156 C 329.988281 116.597656 329.519531 116.488281 329.246094 116.140625 L 327.972656 114.515625 C 327.703125 114.167969 327.707031 113.6875 327.984375 113.34375 L 329.375 111.644531 C 329.210938 111.304688 329.0625 110.953125 328.929688 110.597656 L 326.738281 110.417969 C 326.300781 110.382812 325.949219 110.050781 325.886719 109.613281 L 325.597656 107.570312 C 325.539062 107.132812 325.78125 106.71875 326.195312 106.5625 L 328.253906 105.78125 C 328.277344 105.402344 328.324219 105.023438 328.386719 104.652344 L 326.582031 103.40625 C 326.21875 103.15625 326.078125 102.691406 326.242188 102.28125 L 327.015625 100.367188 C 327.179688 99.960938 327.601562 99.71875 328.039062 99.792969 L 330.210938 100.144531 C 330.421875 99.832031 330.652344 99.527344 330.890625 99.238281 L 329.949219 97.25 C 329.761719 96.851562 329.871094 96.382812 330.21875 96.109375 L 331.84375 94.839844 C 332.191406 94.5625 332.675781 94.570312 333.019531 94.851562 L 334.71875 96.238281 C 335.054688 96.078125 335.40625 95.925781 335.765625 95.796875 L 335.945312 93.605469 C 335.980469 93.164062 336.3125 92.8125 336.75 92.753906 L 338.792969 92.464844 C 339.226562 92.398438 339.648438 92.644531 339.804688 93.058594 L 340.582031 95.113281 C 340.960938 95.140625 341.339844 95.1875 341.710938 95.25 L 342.960938 93.445312 C 343.210938 93.082031 343.675781 92.941406 344.085938 93.105469 L 346 93.878906 C 346.410156 94.042969 346.644531 94.464844 346.574219 94.898438 L 346.222656 97.070312 C 346.535156 97.28125 346.839844 97.511719 347.128906 97.753906 L 349.117188 96.8125 C 349.515625 96.621094 349.984375 96.730469 350.257812 97.078125 L 351.53125 98.703125 C 351.804688 99.050781 351.796875 99.535156 351.519531 99.878906 L 350.128906 101.578125 C 350.292969 101.914062 350.441406 102.265625 350.574219 102.625 L 352.761719 102.804688 C 353.203125 102.839844 353.554688 103.167969 353.617188 103.605469 L 353.617188 103.609375 L 353.90625 105.652344 C 353.96875 106.089844 353.722656 106.5 353.308594 106.65625 L 351.25 107.4375 C 351.226562 107.820312 351.179688 108.199219 351.117188 108.566406 L 352.925781 109.816406 C 353.289062 110.066406 353.425781 110.527344 353.261719 110.9375 L 352.488281 112.851562 C 352.324219 113.265625 351.90625 113.5 351.464844 113.425781 L 349.296875 113.078125 C 349.085938 113.386719 348.855469 113.691406 348.613281 113.980469 L 349.554688 115.96875 C 349.746094 116.371094 349.632812 116.835938 349.285156 117.109375 L 347.660156 118.382812 C 347.3125 118.65625 346.828125 118.648438 346.484375 118.371094 L 344.785156 116.984375 C 344.449219 117.144531 344.097656 117.292969 343.738281 117.425781 L 343.558594 119.617188 C 343.523438 120.054688 343.191406 120.40625 342.753906 120.46875 L 340.710938 120.757812 C 340.664062 120.765625 340.621094 120.769531 340.578125 120.769531 " fill-opacity="1" fill-rule="nonzero"/><path fill="#000000" d="M 81.28125 303.140625 C 81.148438 303.140625 81.015625 303.09375 80.90625 303.003906 C 65.359375 290.175781 53.570312 273.472656 46.808594 254.683594 C 44.992188 249.640625 43.53125 244.4375 42.46875 239.222656 C 42.402344 238.898438 42.609375 238.585938 42.929688 238.523438 C 43.246094 238.457031 43.5625 238.664062 43.625 238.984375 C 44.679688 244.148438 46.125 249.296875 47.917969 254.285156 C 54.609375 272.871094 66.277344 289.402344 81.65625 302.09375 C 81.910156 302.300781 81.945312 302.671875 81.738281 302.925781 C 81.621094 303.066406 81.449219 303.140625 81.28125 303.140625 " fill-opacity="1" fill-rule="nonzero"/><path fill="#000000" d="M 81.652344 313.019531 C 81.519531 313.019531 81.386719 312.980469 81.277344 312.886719 C 61.964844 296.953125 47.320312 276.199219 38.921875 252.863281 C 36.664062 246.597656 34.851562 240.132812 33.527344 233.652344 C 33.464844 233.332031 33.671875 233.019531 33.992188 232.953125 C 34.3125 232.890625 34.621094 233.097656 34.6875 233.414062 C 36 239.84375 37.796875 246.253906 40.03125 252.464844 C 48.363281 275.597656 62.882812 296.179688 82.03125 311.976562 C 82.28125 312.183594 82.316406 312.554688 82.109375 312.808594 C 81.992188 312.949219 81.824219 313.019531 81.652344 313.019531 " fill-opacity="1" fill-rule="nonzero"/><path fill="#000000" d="M 70.027344 307.917969 C 69.789062 307.917969 69.546875 307.960938 69.3125 308.042969 C 68.78125 308.234375 68.355469 308.621094 68.117188 309.128906 C 67.875 309.640625 67.847656 310.214844 68.039062 310.742188 C 68.230469 311.273438 68.617188 311.699219 69.128906 311.9375 C 69.636719 312.179688 70.210938 312.207031 70.742188 312.015625 C 71.839844 311.621094 72.410156 310.410156 72.015625 309.316406 C 71.707031 308.457031 70.890625 307.917969 70.027344 307.917969 Z M 70.027344 313.324219 C 69.546875 313.324219 69.070312 313.21875 68.625 313.007812 C 67.828125 312.632812 67.222656 311.972656 66.925781 311.144531 C 66.628906 310.316406 66.671875 309.421875 67.046875 308.625 C 67.421875 307.832031 68.082031 307.230469 68.914062 306.933594 C 70.625 306.316406 72.515625 307.207031 73.128906 308.914062 C 73.742188 310.625 72.851562 312.511719 71.144531 313.128906 C 70.777344 313.257812 70.402344 313.324219 70.027344 313.324219 " fill-opacity="1" fill-rule="nonzero"/><path fill="#000000" d="M 61.585938 298.414062 L 60.582031 301.597656 C 61.339844 301.488281 62.484375 301.308594 63.695312 301.074219 Z M 59.738281 302.902344 C 59.566406 302.902344 59.398438 302.824219 59.285156 302.6875 C 59.15625 302.535156 59.113281 302.328125 59.175781 302.132812 L 60.792969 296.996094 C 60.855469 296.789062 61.03125 296.632812 61.25 296.59375 C 61.464844 296.554688 61.683594 296.632812 61.820312 296.804688 L 65.21875 301.09375 C 65.347656 301.253906 65.382812 301.46875 65.3125 301.660156 C 65.242188 301.851562 65.078125 301.996094 64.878906 302.039062 C 62.390625 302.570312 59.839844 302.894531 59.8125 302.898438 C 59.789062 302.898438 59.761719 302.902344 59.738281 302.902344 " fill-opacity="1" fill-rule="nonzero"/><path fill="#000000" d="M 57.878906 294.730469 C 57.234375 294.730469 55.179688 294.597656 53.996094 292.953125 C 53.542969 292.324219 53.492188 291.425781 53.441406 290.476562 C 53.386719 289.554688 53.332031 288.601562 52.914062 287.96875 C 52.59375 287.488281 51.746094 287.15625 50.929688 286.839844 C 49.828125 286.414062 48.691406 285.96875 48.113281 285.003906 C 47.65625 284.234375 47.878906 283.175781 48.089844 282.148438 C 48.246094 281.398438 48.421875 280.550781 48.222656 280.167969 C 47.957031 279.664062 47.117188 279.363281 46.382812 279.097656 C 45.777344 278.882812 45.253906 278.695312 44.921875 278.371094 C 44.6875 278.144531 44.679688 277.769531 44.90625 277.535156 C 45.136719 277.300781 45.507812 277.296875 45.746094 277.523438 C 45.894531 277.667969 46.367188 277.835938 46.78125 277.984375 C 47.675781 278.304688 48.789062 278.707031 49.269531 279.617188 C 49.667969 280.375 49.453125 281.398438 49.25 282.386719 C 49.089844 283.152344 48.910156 284.023438 49.128906 284.398438 C 49.5 285.015625 50.445312 285.382812 51.359375 285.738281 C 52.347656 286.125 53.371094 286.519531 53.898438 287.316406 C 54.496094 288.214844 54.5625 289.382812 54.621094 290.410156 C 54.664062 291.152344 54.707031 291.914062 54.957031 292.265625 C 55.960938 293.660156 57.976562 293.546875 57.996094 293.546875 C 58.320312 293.53125 58.601562 293.773438 58.625 294.097656 C 58.644531 294.425781 58.398438 294.707031 58.074219 294.726562 C 58.054688 294.726562 57.988281 294.730469 57.878906 294.730469 " fill-opacity="1" fill-rule="nonzero"/><path fill="#000000" d="M 273.496094 307.804688 C 273.285156 307.804688 273.082031 307.6875 272.972656 307.492188 C 272.816406 307.203125 272.929688 306.84375 273.214844 306.691406 C 277.867188 304.203125 282.390625 301.347656 286.664062 298.199219 C 302.574219 286.472656 315.089844 270.574219 322.855469 252.21875 C 322.980469 251.917969 323.328125 251.777344 323.632812 251.902344 C 323.929688 252.03125 324.070312 252.378906 323.945312 252.679688 C 316.09375 271.230469 303.445312 287.300781 287.363281 299.152344 C 283.046875 302.332031 278.476562 305.21875 273.773438 307.730469 C 273.683594 307.78125 273.589844 307.804688 273.496094 307.804688 " fill-opacity="1" fill-rule="nonzero"/><path fill="#000000" d="M 270.710938 317.953125 C 270.503906 317.953125 270.296875 317.839844 270.191406 317.640625 C 270.039062 317.351562 270.144531 316.996094 270.433594 316.839844 C 276.222656 313.746094 281.855469 310.191406 287.171875 306.269531 C 306.980469 291.671875 322.558594 271.878906 332.226562 249.03125 C 332.355469 248.730469 332.699219 248.589844 333 248.714844 C 333.300781 248.84375 333.445312 249.191406 333.316406 249.492188 C 323.5625 272.535156 307.851562 292.5 287.875 307.222656 C 282.511719 311.171875 276.832031 314.761719 270.992188 317.882812 C 270.902344 317.929688 270.804688 317.953125 270.710938 317.953125 " fill-opacity="1" fill-rule="nonzero"/><path fill="#000000" d="M 333.792969 258.964844 C 333.347656 258.964844 332.910156 259.105469 332.542969 259.375 C 331.605469 260.066406 331.40625 261.390625 332.097656 262.328125 C 332.433594 262.78125 332.925781 263.078125 333.484375 263.160156 C 334.042969 263.246094 334.597656 263.105469 335.054688 262.773438 C 335.507812 262.4375 335.804688 261.945312 335.886719 261.386719 C 335.972656 260.832031 335.835938 260.273438 335.5 259.820312 C 335.164062 259.367188 334.671875 259.070312 334.113281 258.988281 C 334.007812 258.96875 333.898438 258.964844 333.792969 258.964844 Z M 335.40625 263.246094 L 335.410156 263.246094 Z M 333.808594 264.367188 C 333.640625 264.367188 333.472656 264.355469 333.304688 264.328125 C 332.4375 264.199219 331.667969 263.734375 331.144531 263.027344 C 330.070312 261.570312 330.378906 259.503906 331.84375 258.425781 C 332.550781 257.902344 333.417969 257.6875 334.289062 257.820312 C 335.160156 257.949219 335.929688 258.414062 336.453125 259.117188 C 336.972656 259.828125 337.191406 260.695312 337.058594 261.566406 C 336.925781 262.433594 336.464844 263.203125 335.757812 263.722656 C 335.183594 264.144531 334.503906 264.367188 333.808594 264.367188 " fill-opacity="1" fill-rule="nonzero"/><path fill="#000000" d="M 325.074219 272.480469 L 328.417969 272.527344 C 328.09375 271.835938 327.59375 270.792969 327.023438 269.703125 Z M 329.34375 273.722656 C 329.339844 273.722656 329.335938 273.722656 329.335938 273.722656 L 323.945312 273.648438 C 323.726562 273.644531 323.523438 273.519531 323.425781 273.324219 C 323.324219 273.132812 323.339844 272.898438 323.464844 272.71875 L 326.605469 268.234375 C 326.722656 268.070312 326.917969 267.96875 327.125 267.984375 C 327.328125 267.996094 327.507812 268.113281 327.609375 268.289062 C 328.832031 270.519531 329.871094 272.871094 329.882812 272.894531 C 329.964844 273.078125 329.949219 273.289062 329.835938 273.457031 C 329.726562 273.625 329.542969 273.722656 329.34375 273.722656 " fill-opacity="1" fill-rule="nonzero"/><path fill="#000000" d="M 310.097656 294.488281 C 310.003906 294.488281 309.914062 294.46875 309.824219 294.421875 C 309.535156 294.273438 309.421875 293.917969 309.574219 293.628906 C 309.667969 293.441406 309.699219 292.941406 309.722656 292.5 C 309.773438 291.554688 309.835938 290.375 310.574219 289.652344 C 311.1875 289.054688 312.226562 288.964844 313.234375 288.878906 C 314.015625 288.8125 314.902344 288.734375 315.195312 288.417969 C 315.683594 287.886719 315.765625 286.878906 315.84375 285.898438 C 315.933594 284.84375 316.019531 283.75 316.628906 283.019531 C 317.320312 282.1875 318.421875 281.789062 319.394531 281.441406 C 320.089844 281.1875 320.808594 280.925781 321.074219 280.585938 C 322.117188 279.238281 321.441406 277.328125 321.433594 277.308594 C 321.324219 277.003906 321.480469 276.664062 321.785156 276.550781 C 322.09375 276.441406 322.429688 276.59375 322.542969 276.898438 C 322.582031 277.003906 323.457031 279.433594 322.011719 281.308594 C 321.535156 281.921875 320.6875 282.226562 319.796875 282.550781 C 318.925781 282.863281 318.027344 283.191406 317.539062 283.773438 C 317.167969 284.21875 317.097656 285.121094 317.023438 285.996094 C 316.929688 287.171875 316.828125 288.386719 316.066406 289.214844 C 315.464844 289.875 314.382812 289.964844 313.335938 290.054688 C 312.574219 290.121094 311.710938 290.195312 311.402344 290.5 C 310.992188 290.898438 310.945312 291.785156 310.902344 292.566406 C 310.867188 293.203125 310.839844 293.757812 310.625 294.171875 C 310.519531 294.371094 310.3125 294.488281 310.097656 294.488281 " fill-opacity="1" fill-rule="nonzero"/><path fill="#000000" d="M 326.285156 30.128906 C 326.234375 30.128906 326.175781 30.125 326.125 30.109375 C 325.808594 30.015625 325.628906 29.691406 325.71875 29.378906 L 329.933594 14.796875 C 330.023438 14.488281 330.355469 14.304688 330.667969 14.394531 C 330.980469 14.488281 331.160156 14.8125 331.070312 15.128906 L 326.855469 29.703125 C 326.777344 29.964844 326.542969 30.128906 326.285156 30.128906 " fill-opacity="1" fill-rule="nonzero"/><path fill="#000000" d="M 334.609375 33.316406 C 334.523438 33.316406 334.429688 33.296875 334.347656 33.257812 C 334.054688 33.109375 333.933594 32.757812 334.082031 32.464844 L 344.367188 11.746094 C 344.511719 11.453125 344.867188 11.335938 345.160156 11.480469 C 345.453125 11.625 345.570312 11.976562 345.425781 12.273438 L 335.140625 32.988281 C 335.035156 33.199219 334.828125 33.316406 334.609375 33.316406 " fill-opacity="1" fill-rule="nonzero"/><path fill="#000000" d="M 339.753906 38.609375 C 339.601562 38.609375 339.449219 38.554688 339.332031 38.4375 C 339.101562 38.203125 339.105469 37.832031 339.335938 37.601562 L 351.078125 25.960938 C 351.3125 25.730469 351.683594 25.730469 351.917969 25.960938 C 352.144531 26.195312 352.140625 26.570312 351.910156 26.796875 L 340.167969 38.4375 C 340.054688 38.554688 339.902344 38.609375 339.753906 38.609375 " fill-opacity="1" fill-rule="nonzero"/><path fill="#000000" d="M 53.496094 174.328125 C 53.347656 174.328125 53.203125 174.273438 53.089844 174.164062 C 52.851562 173.9375 52.84375 173.5625 53.070312 173.328125 L 54.519531 171.816406 C 54.746094 171.578125 55.121094 171.570312 55.355469 171.796875 C 55.59375 172.023438 55.601562 172.398438 55.375 172.632812 L 53.921875 174.144531 C 53.808594 174.265625 53.652344 174.328125 53.496094 174.328125 " fill-opacity="1" fill-rule="nonzero"/><path fill="#000000" d="M 48.417969 179.621094 C 48.273438 179.621094 48.125 179.566406 48.011719 179.457031 C 47.773438 179.230469 47.765625 178.859375 47.992188 178.621094 L 49.441406 177.109375 C 49.667969 176.875 50.042969 176.867188 50.277344 177.089844 C 50.515625 177.316406 50.523438 177.691406 50.296875 177.925781 L 48.847656 179.4375 C 48.730469 179.5625 48.574219 179.621094 48.417969 179.621094 " fill-opacity="1" fill-rule="nonzero"/><path fill="#000000" d="M 49.84375 174.40625 C 49.691406 174.40625 49.542969 174.351562 49.429688 174.238281 L 47.957031 172.792969 C 47.722656 172.5625 47.71875 172.1875 47.949219 171.957031 C 48.179688 171.722656 48.550781 171.71875 48.785156 171.949219 L 50.257812 173.398438 C 50.488281 173.625 50.492188 174 50.265625 174.230469 C 50.148438 174.347656 49.996094 174.40625 49.84375 174.40625 " fill-opacity="1" fill-rule="nonzero"/><path fill="#000000" d="M 54.996094 179.476562 C 54.847656 179.476562 54.695312 179.417969 54.582031 179.304688 L 53.109375 177.859375 C 52.875 177.628906 52.875 177.253906 53.101562 177.023438 C 53.332031 176.789062 53.707031 176.789062 53.9375 177.015625 L 55.410156 178.464844 C 55.644531 178.691406 55.648438 179.066406 55.417969 179.300781 C 55.300781 179.417969 55.148438 179.476562 54.996094 179.476562 " fill-opacity="1" fill-rule="nonzero"/><path fill="#000000" d="M 275.308594 36.609375 C 275.160156 36.609375 275.015625 36.554688 274.898438 36.445312 C 274.664062 36.21875 274.65625 35.847656 274.882812 35.609375 L 276.328125 34.097656 C 276.554688 33.863281 276.929688 33.851562 277.167969 34.078125 C 277.402344 34.304688 277.410156 34.679688 277.183594 34.914062 L 275.734375 36.425781 C 275.621094 36.546875 275.460938 36.609375 275.308594 36.609375 " fill-opacity="1" fill-rule="nonzero"/><path fill="#000000" d="M 270.230469 41.902344 C 270.085938 41.902344 269.9375 41.847656 269.820312 41.738281 C 269.585938 41.511719 269.578125 41.136719 269.804688 40.902344 L 271.257812 39.390625 C 271.480469 39.15625 271.855469 39.144531 272.089844 39.375 C 272.328125 39.597656 272.332031 39.972656 272.109375 40.207031 L 270.65625 41.722656 C 270.542969 41.839844 270.386719 41.902344 270.230469 41.902344 " fill-opacity="1" fill-rule="nonzero"/><path fill="#000000" d="M 271.652344 36.691406 C 271.503906 36.691406 271.355469 36.632812 271.238281 36.519531 L 269.765625 35.070312 C 269.535156 34.84375 269.53125 34.46875 269.761719 34.238281 C 269.988281 34.003906 270.363281 34 270.59375 34.230469 L 272.070312 35.679688 C 272.300781 35.90625 272.304688 36.28125 272.078125 36.515625 C 271.957031 36.632812 271.804688 36.691406 271.652344 36.691406 " fill-opacity="1" fill-rule="nonzero"/><path fill="#000000" d="M 276.808594 41.753906 C 276.660156 41.753906 276.511719 41.699219 276.390625 41.585938 L 274.921875 40.136719 C 274.691406 39.910156 274.683594 39.535156 274.914062 39.304688 C 275.144531 39.070312 275.515625 39.066406 275.75 39.296875 L 277.222656 40.746094 C 277.457031 40.972656 277.460938 41.347656 277.230469 41.578125 C 277.113281 41.695312 276.960938 41.753906 276.808594 41.753906 " fill-opacity="1" fill-rule="nonzero"/></svg>