<svg xmlns="http://www.w3.org/2000/svg" xmlns:xlink="http://www.w3.org/1999/xlink" width="500" zoomAndPan="magnify" viewBox="0 0 375 374.999991" height="500" preserveAspectRatio="xMidYMid meet" version="1.0"><path fill="#fff6ea" d="M 42.640625 204.757812 C 68.445312 177.71875 19.824219 127.367188 31.914062 90.984375 C 48.1875 42.003906 180.582031 0.0078125 269.691406 53.332031 C 344.320312 97.988281 370.234375 198.503906 337.628906 239.132812 C 324.566406 255.414062 307.230469 255.695312 282.207031 284.152344 C 255.363281 314.683594 261.347656 330.242188 244.664062 345.542969 C 200.25 386.261719 63.128906 362.789062 26.550781 294.792969 C 17.730469 278.398438 5.132812 241.527344 22.972656 219.492188 C 30.058594 210.738281 35.761719 211.964844 42.640625 204.757812 " fill-opacity="1" fill-rule="nonzero"/><path fill="#000000" d="M 177.320312 201.261719 L 272.066406 145.140625 C 280.628906 140.066406 291.65625 142.324219 297.511719 150.359375 C 312.847656 171.398438 339.007812 212.808594 338.410156 249.761719 L 205.835938 300.757812 L 177.320312 201.261719 " fill-opacity="1" fill-rule="nonzero"/><path fill="#000000" d="M 178.035156 201.546875 L 206.238281 299.949219 L 337.808594 249.34375 C 338.199219 212.773438 312.449219 171.882812 297.019531 150.71875 C 291.316406 142.894531 280.722656 140.722656 272.378906 145.664062 Z M 205.835938 301.367188 C 205.742188 301.367188 205.648438 301.347656 205.5625 301.304688 C 205.410156 301.226562 205.296875 301.089844 205.25 300.925781 L 176.734375 201.429688 C 176.65625 201.160156 176.769531 200.878906 177.007812 200.738281 L 271.757812 144.617188 C 280.648438 139.351562 291.929688 141.667969 298.007812 150.003906 C 313.582031 171.371094 339.617188 212.746094 339.023438 249.769531 C 339.015625 250.019531 338.863281 250.242188 338.628906 250.332031 L 206.054688 301.328125 C 205.984375 301.355469 205.910156 301.367188 205.835938 301.367188 " fill-opacity="1" fill-rule="nonzero"/><path fill="#ffffff" d="M 324.117188 239.351562 C 323.863281 239.351562 323.621094 239.191406 323.539062 238.933594 C 310.125 198.226562 292.222656 168.363281 285.144531 157.417969 C 283.351562 154.640625 279.699219 153.753906 276.828125 155.402344 L 199.800781 199.925781 C 199.507812 200.089844 199.132812 199.992188 198.964844 199.703125 C 198.796875 199.410156 198.894531 199.039062 199.1875 198.871094 L 276.21875 154.347656 C 279.652344 152.375 284.023438 153.433594 286.171875 156.753906 C 293.273438 167.746094 311.238281 197.710938 324.695312 238.550781 C 324.800781 238.875 324.628906 239.21875 324.308594 239.324219 C 324.242188 239.34375 324.179688 239.351562 324.117188 239.351562 " fill-opacity="1" fill-rule="nonzero"/><path fill="#ffffff" d="M 215.726562 268.019531 C 214.246094 264.921875 219.488281 262.191406 218.464844 256.8125 C 217.136719 249.828125 207.492188 250.097656 203.40625 240.675781 C 202.789062 239.25 200.628906 234.277344 202.582031 229.738281 C 204.746094 224.714844 209.976562 224.785156 210.800781 221.261719 C 211.796875 216.988281 204.917969 213.433594 199.023438 207.042969 C 197.582031 205.476562 184.253906 190.652344 187.253906 176.144531 C 189.6875 164.351562 202.542969 154.550781 215.726562 153.992188 C 232.121094 153.296875 246.378906 166.996094 248.859375 179.699219 C 251.394531 192.679688 241.566406 204.386719 247.910156 211.320312 C 250.363281 214 252.410156 212.886719 255.328125 215.257812 C 265.265625 223.339844 263.15625 253.867188 245.847656 265.835938 C 234.667969 273.5625 218.0625 272.914062 215.726562 268.019531 " fill-opacity="1" fill-rule="nonzero"/><path fill="#000000" d="M 224.042969 267.148438 C 223.894531 267.148438 223.746094 267.09375 223.628906 266.988281 C 223.382812 266.757812 223.363281 266.375 223.59375 266.125 C 238.761719 249.597656 237.960938 230.566406 234.617188 217.519531 C 230.972656 203.308594 223.621094 192.890625 223.546875 192.785156 C 223.351562 192.511719 223.414062 192.132812 223.6875 191.933594 C 223.960938 191.742188 224.34375 191.804688 224.539062 192.078125 C 224.613281 192.183594 232.082031 202.761719 235.789062 217.179688 C 239.21875 230.53125 240.042969 250.007812 224.492188 266.953125 C 224.371094 267.082031 224.207031 267.148438 224.042969 267.148438 " fill-opacity="1" fill-rule="nonzero"/><path fill="#488286" d="M 241.46875 263.644531 C 240.136719 260.5625 251.34375 256.484375 252.144531 247.785156 C 252.832031 240.34375 245.183594 237.367188 246.667969 231.378906 C 248.371094 224.535156 259.191406 225.09375 260.636719 218.523438 C 261.789062 213.28125 255.25 211.273438 253.515625 202.117188 C 252.410156 196.292969 253.128906 186.929688 259.265625 183.523438 C 262.664062 181.640625 268.015625 181.421875 271.039062 184.070312 C 275.246094 187.757812 271.941406 194.359375 276.789062 198.566406 C 279.46875 200.886719 281.128906 199.433594 283.359375 201.570312 C 287.792969 205.8125 286.355469 216.398438 282.542969 223.722656 C 279.300781 229.933594 275.457031 231.664062 275.695312 236.574219 C 275.882812 240.445312 278.347656 240.886719 278.707031 244.230469 C 279.570312 252.324219 266.351562 261.464844 254.335938 264.191406 C 249.84375 265.210938 242.492188 266.019531 241.46875 263.644531 " fill-opacity="1" fill-rule="nonzero"/><path fill="#000000" d="M 247.539062 262.433594 C 247.328125 262.433594 247.121094 262.320312 247.007812 262.121094 C 246.84375 261.828125 246.949219 261.457031 247.242188 261.292969 C 261.394531 253.367188 268.378906 240.089844 268.011719 221.828125 C 267.734375 208.160156 263.207031 196.703125 263.164062 196.585938 C 263.035156 196.273438 263.191406 195.921875 263.503906 195.796875 C 263.816406 195.671875 264.171875 195.820312 264.296875 196.136719 C 264.34375 196.25 268.949219 207.914062 269.230469 221.804688 C 269.605469 240.285156 262.207031 254.308594 247.839844 262.355469 C 247.746094 262.410156 247.640625 262.433594 247.539062 262.433594 " fill-opacity="1" fill-rule="nonzero"/><path fill="#ffffff" d="M 128.96875 285.097656 C 135.714844 266.859375 152.625 226.210938 177.320312 201.261719 L 204.917969 254.207031 C 207.066406 258.332031 211.488281 260.757812 216.128906 260.359375 L 338.410156 249.761719 L 287.785156 352.773438 C 284.585938 359.285156 277.125 362.507812 270.183594 360.378906 C 240.738281 351.355469 165.414062 326.71875 133.71875 301.835938 C 128.667969 297.871094 126.742188 291.117188 128.96875 285.097656 " fill-opacity="1" fill-rule="nonzero"/><path fill="#000000" d="M 128.96875 285.09375 L 128.972656 285.09375 Z M 177.167969 202.285156 C 152.578125 227.507812 135.691406 268.679688 129.539062 285.308594 C 127.402344 291.089844 129.230469 297.539062 134.097656 301.355469 C 165.542969 326.042969 239.867188 350.449219 270.363281 359.796875 C 277.058594 361.847656 284.15625 358.785156 287.238281 352.507812 L 337.390625 250.460938 L 216.183594 260.964844 C 211.285156 261.386719 206.648438 258.847656 204.375 254.488281 Z M 274.566406 361.648438 C 273.058594 361.648438 271.523438 361.425781 270.003906 360.964844 C 239.445312 351.59375 164.953125 327.128906 133.34375 302.316406 C 128.0625 298.167969 126.070312 291.164062 128.394531 284.886719 C 134.621094 268.050781 151.8125 226.164062 176.886719 200.832031 C 177.023438 200.695312 177.21875 200.628906 177.410156 200.660156 C 177.601562 200.6875 177.769531 200.804688 177.859375 200.980469 L 205.457031 253.925781 C 207.5 257.847656 211.675781 260.132812 216.078125 259.75 L 338.359375 249.152344 C 338.582031 249.136719 338.792969 249.238281 338.914062 249.417969 C 339.039062 249.597656 339.058594 249.832031 338.960938 250.03125 L 288.335938 353.042969 C 285.683594 358.4375 280.300781 361.648438 274.566406 361.648438 " fill-opacity="1" fill-rule="nonzero"/><path fill="#000000" d="M 263.21875 347.335938 C 263.003906 347.335938 262.792969 347.222656 262.683594 347.023438 L 221.152344 272.761719 C 220.988281 272.46875 221.09375 272.097656 221.390625 271.933594 C 221.683594 271.769531 222.054688 271.875 222.21875 272.167969 L 263.75 346.429688 C 263.914062 346.722656 263.808594 347.09375 263.511719 347.257812 C 263.417969 347.308594 263.316406 347.335938 263.21875 347.335938 " fill-opacity="1" fill-rule="nonzero"/><path fill="#000000" d="M 141.082031 285.992188 C 140.832031 285.992188 140.597656 285.835938 140.507812 285.585938 C 140.394531 285.269531 140.558594 284.921875 140.878906 284.808594 L 193.863281 265.808594 C 194.179688 265.695312 194.53125 265.859375 194.644531 266.175781 C 194.757812 266.492188 194.59375 266.839844 194.277344 266.953125 L 141.289062 285.953125 C 141.222656 285.980469 141.152344 285.992188 141.082031 285.992188 " fill-opacity="1" fill-rule="nonzero"/><path fill="#000000" d="M 183.417969 92.871094 C 183.320312 92.773438 183.222656 92.679688 183.125 92.585938 C 183.09375 92.558594 183.046875 92.605469 183.074219 92.636719 C 183.167969 92.734375 183.265625 92.832031 183.359375 92.929688 C 183.394531 92.96875 183.457031 92.90625 183.417969 92.871094 " fill-opacity="1" fill-rule="nonzero"/><path fill="#000000" d="M 30.898438 195.957031 C 30.890625 195.957031 30.886719 195.957031 30.878906 195.957031 C 30.542969 195.945312 30.277344 195.667969 30.289062 195.332031 C 30.753906 179.886719 34.097656 164.832031 40.234375 150.589844 C 40.367188 150.28125 40.722656 150.136719 41.035156 150.269531 C 41.34375 150.402344 41.488281 150.761719 41.355469 151.070312 C 35.28125 165.171875 31.96875 180.074219 31.507812 195.367188 C 31.5 195.695312 31.226562 195.957031 30.898438 195.957031 " fill-opacity="1" fill-rule="nonzero"/><path fill="#000000" d="M 110.449219 82.503906 C 110.21875 82.503906 110.003906 82.378906 109.898438 82.160156 C 109.753906 81.855469 109.882812 81.492188 110.183594 81.347656 C 124.332031 74.609375 139.519531 70.15625 155.324219 68.113281 C 161.019531 67.378906 166.800781 66.960938 172.496094 66.875 C 172.5 66.875 172.503906 66.875 172.507812 66.875 C 172.839844 66.875 173.109375 67.144531 173.117188 67.476562 C 173.121094 67.8125 172.851562 68.089844 172.515625 68.09375 C 166.863281 68.179688 161.132812 68.59375 155.480469 69.324219 C 139.804688 71.351562 124.742188 75.765625 110.710938 82.445312 C 110.625 82.484375 110.535156 82.503906 110.449219 82.503906 " fill-opacity="1" fill-rule="nonzero"/><path fill="#000000" d="M 43.597656 218.882812 C 43.316406 218.882812 43.058594 218.683594 43 218.394531 C 41.699219 211.96875 41.039062 205.378906 41.039062 198.789062 C 41.039062 180.929688 45.964844 163.226562 55.292969 147.59375 C 55.464844 147.304688 55.839844 147.210938 56.128906 147.382812 C 56.417969 147.554688 56.511719 147.929688 56.339844 148.21875 C 47.128906 163.660156 42.257812 181.148438 42.257812 198.789062 C 42.257812 205.296875 42.910156 211.808594 44.195312 218.148438 C 44.265625 218.480469 44.050781 218.800781 43.71875 218.867188 C 43.679688 218.878906 43.640625 218.882812 43.597656 218.882812 " fill-opacity="1" fill-rule="nonzero"/><path fill="#000000" d="M 50.007812 192.050781 C 49.867188 192.050781 49.726562 192.003906 49.613281 191.902344 C 49.523438 191.828125 47.445312 190.015625 47.824219 187.523438 C 47.949219 186.707031 48.582031 185.988281 49.25 185.222656 C 49.902344 184.472656 50.578125 183.699219 50.730469 182.894531 C 50.847656 182.28125 50.445312 181.390625 50.054688 180.535156 C 49.535156 179.386719 48.996094 178.203125 49.277344 177.039062 C 49.5 176.117188 50.460938 175.472656 51.390625 174.847656 C 52.070312 174.390625 52.84375 173.867188 52.980469 173.417969 C 53.15625 172.824219 52.738281 171.964844 52.371094 171.207031 C 52.070312 170.59375 51.8125 170.0625 51.800781 169.570312 C 51.789062 169.230469 52.054688 168.953125 52.394531 168.941406 C 52.734375 168.933594 53.011719 169.199219 53.019531 169.535156 C 53.027344 169.765625 53.261719 170.25 53.46875 170.675781 C 53.910156 171.585938 54.460938 172.71875 54.148438 173.765625 C 53.890625 174.636719 52.964844 175.257812 52.070312 175.859375 C 51.367188 176.328125 50.574219 176.863281 50.464844 177.324219 C 50.28125 178.082031 50.730469 179.074219 51.167969 180.03125 C 51.632812 181.0625 52.117188 182.125 51.929688 183.121094 C 51.714844 184.253906 50.890625 185.191406 50.167969 186.019531 C 49.644531 186.621094 49.101562 187.242188 49.03125 187.707031 C 48.753906 189.523438 50.390625 190.964844 50.40625 190.980469 C 50.660156 191.199219 50.691406 191.582031 50.46875 191.839844 C 50.347656 191.976562 50.179688 192.050781 50.007812 192.050781 " fill-opacity="1" fill-rule="nonzero"/><path fill="#000000" d="M 55.550781 159.371094 C 54.378906 159.371094 53.375 160.273438 53.273438 161.460938 C 53.222656 162.070312 53.410156 162.664062 53.804688 163.128906 C 54.199219 163.59375 54.75 163.878906 55.359375 163.929688 C 56.609375 164.035156 57.722656 163.105469 57.832031 161.851562 C 57.9375 160.59375 57 159.488281 55.746094 159.382812 C 55.679688 159.375 55.617188 159.371094 55.550781 159.371094 Z M 55.554688 165.15625 C 55.457031 165.15625 55.355469 165.152344 55.253906 165.144531 C 54.320312 165.066406 53.476562 164.628906 52.871094 163.914062 C 52.269531 163.199219 51.980469 162.289062 52.058594 161.359375 C 52.222656 159.433594 53.925781 158.007812 55.847656 158.167969 C 57.777344 158.332031 59.210938 160.03125 59.046875 161.953125 C 58.890625 163.777344 57.355469 165.15625 55.554688 165.15625 " fill-opacity="1" fill-rule="nonzero"/><path fill="#000000" d="M 124.792969 65.929688 C 124.257812 65.929688 123.746094 66.113281 123.332031 66.457031 C 122.863281 66.847656 122.574219 67.398438 122.519531 68.003906 C 122.464844 68.613281 122.648438 69.203125 123.039062 69.671875 C 123.429688 70.140625 123.980469 70.429688 124.589844 70.484375 C 125.851562 70.597656 126.957031 69.671875 127.070312 68.417969 C 127.183594 67.164062 126.257812 66.050781 125.003906 65.9375 C 124.933594 65.929688 124.859375 65.929688 124.792969 65.929688 Z M 124.796875 71.710938 C 124.691406 71.710938 124.585938 71.707031 124.476562 71.699219 C 123.546875 71.613281 122.703125 71.171875 122.101562 70.453125 C 121.503906 69.734375 121.21875 68.828125 121.304688 67.894531 C 121.386719 66.964844 121.832031 66.121094 122.550781 65.523438 C 123.269531 64.921875 124.179688 64.640625 125.113281 64.726562 C 127.039062 64.898438 128.460938 66.605469 128.285156 68.527344 C 128.121094 70.34375 126.589844 71.710938 124.796875 71.710938 " fill-opacity="1" fill-rule="nonzero"/><path fill="#000000" d="M 133.492188 64.109375 C 133.253906 64.902344 132.902344 66.125 132.574219 67.4375 L 136.191406 66.574219 Z M 131.75 68.867188 C 131.59375 68.867188 131.4375 68.808594 131.320312 68.695312 C 131.171875 68.546875 131.109375 68.332031 131.15625 68.125 C 131.761719 65.46875 132.601562 62.851562 132.609375 62.824219 C 132.675781 62.625 132.835938 62.476562 133.035156 62.421875 C 133.234375 62.371094 133.449219 62.421875 133.601562 62.5625 L 137.863281 66.449219 C 138.03125 66.601562 138.101562 66.835938 138.042969 67.050781 C 137.988281 67.269531 137.816406 67.4375 137.597656 67.492188 L 131.894531 68.851562 C 131.847656 68.863281 131.796875 68.867188 131.75 68.867188 " fill-opacity="1" fill-rule="nonzero"/><path fill="#000000" d="M 167.273438 76.164062 C 167.199219 76.164062 167.125 76.15625 167.050781 76.152344 C 166.148438 76.058594 165.367188 75.261719 164.609375 74.496094 C 164.015625 73.898438 163.34375 73.214844 162.871094 73.191406 C 162.082031 73.15625 161.199219 73.777344 160.335938 74.382812 C 159.410156 75.03125 158.449219 75.703125 157.4375 75.703125 C 157.4375 75.703125 157.4375 75.703125 157.433594 75.703125 C 156.28125 75.703125 155.207031 75.070312 154.253906 74.511719 C 153.570312 74.109375 152.859375 73.691406 152.390625 73.710938 C 150.550781 73.773438 149.433594 75.648438 149.421875 75.667969 C 149.253906 75.953125 148.878906 76.054688 148.589844 75.886719 C 148.296875 75.71875 148.199219 75.347656 148.367188 75.054688 C 148.425781 74.957031 149.824219 72.582031 152.34375 72.492188 C 153.15625 72.46875 153.996094 72.949219 154.875 73.460938 C 155.730469 73.964844 156.617188 74.484375 157.4375 74.484375 C 158.066406 74.484375 158.863281 73.925781 159.636719 73.386719 C 160.667969 72.660156 161.738281 71.914062 162.929688 71.976562 C 163.878906 72.023438 164.691406 72.84375 165.476562 73.640625 C 166.054688 74.226562 166.710938 74.890625 167.175781 74.9375 C 167.800781 75.003906 168.5625 74.433594 169.242188 73.929688 C 169.792969 73.523438 170.265625 73.171875 170.75 73.066406 C 171.082031 72.996094 171.402344 73.203125 171.476562 73.535156 C 171.546875 73.859375 171.335938 74.1875 171.007812 74.257812 C 170.78125 74.304688 170.351562 74.628906 169.96875 74.910156 C 169.210938 75.46875 168.28125 76.164062 167.273438 76.164062 " fill-opacity="1" fill-rule="nonzero"/><path fill="#488286" d="M 192.421875 52.050781 L 192.421875 66.046875 C 192.421875 67.335938 193.480469 68.378906 194.769531 68.351562 C 199.242188 68.257812 209.347656 68.542969 218.5 72.285156 C 219.820312 72.824219 221.3125 72.0625 221.628906 70.671875 L 225.308594 54.671875 C 225.585938 53.46875 224.867188 52.265625 223.683594 51.933594 C 219.886719 50.886719 210.75 49.066406 194.628906 49.746094 C 193.394531 49.800781 192.421875 50.816406 192.421875 52.050781 " fill-opacity="1" fill-rule="nonzero"/><path fill="#ffffff" d="M 178.59375 56.015625 L 178.59375 70.011719 C 178.59375 71.296875 179.648438 72.339844 180.941406 72.316406 C 185.414062 72.222656 195.515625 72.507812 204.671875 76.246094 C 205.992188 76.789062 207.480469 76.023438 207.800781 74.636719 L 211.480469 58.632812 C 211.753906 57.433594 211.039062 56.226562 209.851562 55.898438 C 206.058594 54.851562 196.917969 53.027344 180.800781 53.710938 C 179.566406 53.761719 178.59375 54.78125 178.59375 56.015625 " fill-opacity="1" fill-rule="nonzero"/><path fill="#000000" d="M 182.339844 71.691406 C 187.683594 71.691406 196.625 72.300781 204.902344 75.683594 C 205.367188 75.875 205.890625 75.851562 206.332031 75.621094 C 206.777344 75.394531 207.09375 74.984375 207.207031 74.5 L 210.886719 58.496094 C 211.089844 57.613281 210.5625 56.726562 209.691406 56.484375 C 205.71875 55.386719 196.6875 53.648438 180.828125 54.316406 C 179.914062 54.359375 179.203125 55.101562 179.203125 56.015625 L 179.203125 70.007812 C 179.203125 70.46875 179.382812 70.902344 179.710938 71.222656 C 180.039062 71.542969 180.472656 71.710938 180.929688 71.707031 C 181.367188 71.695312 181.835938 71.691406 182.339844 71.691406 Z M 205.550781 77.03125 C 205.175781 77.03125 204.796875 76.957031 204.441406 76.8125 C 195.253906 73.058594 184.953125 72.839844 180.953125 72.921875 C 180.164062 72.9375 179.421875 72.644531 178.859375 72.09375 C 178.292969 71.539062 177.980469 70.800781 177.980469 70.007812 L 177.980469 56.015625 C 177.980469 54.445312 179.207031 53.167969 180.777344 53.101562 C 196.800781 52.421875 205.972656 54.195312 210.015625 55.308594 C 211.519531 55.726562 212.421875 57.246094 212.074219 58.773438 L 208.394531 74.773438 C 208.203125 75.605469 207.65625 76.308594 206.894531 76.707031 C 206.476562 76.921875 206.011719 77.03125 205.550781 77.03125 " fill-opacity="1" fill-rule="nonzero"/><path fill="#000000" d="M 194.53125 66.246094 C 193.085938 66.246094 191.65625 65.773438 190.453125 64.855469 L 180.496094 57.257812 C 180.230469 57.050781 180.179688 56.667969 180.382812 56.402344 C 180.589844 56.132812 180.96875 56.082031 181.238281 56.289062 L 191.195312 63.886719 C 192.847656 65.148438 195.023438 65.378906 196.882812 64.488281 L 208.628906 58.871094 C 208.933594 58.726562 209.296875 58.855469 209.445312 59.160156 C 209.589844 59.460938 209.460938 59.824219 209.15625 59.972656 L 197.410156 65.589844 C 196.492188 66.027344 195.507812 66.246094 194.53125 66.246094 " fill-opacity="1" fill-rule="nonzero"/><path fill="#fb735d" d="M 206.253906 146.996094 L 244.921875 178.714844 C 247.757812 181.039062 251.554688 181.097656 253.40625 178.84375 L 256.460938 175.132812 C 258.3125 172.878906 257.519531 169.167969 254.6875 166.84375 L 216.015625 135.125 L 206.253906 146.996094 " fill-opacity="1" fill-rule="nonzero"/><path fill="#000000" d="M 306.304688 70.980469 C 311.863281 80.644531 311.570312 91.222656 305.65625 94.617188 C 299.746094 98.007812 290.449219 92.925781 284.894531 83.261719 C 279.339844 73.601562 279.628906 63.019531 285.542969 59.628906 C 291.453125 56.238281 300.75 61.320312 306.304688 70.980469 " fill-opacity="1" fill-rule="nonzero"/><path fill="#000000" d="M 187.296875 128.875 L 197.082031 145.886719 C 198.585938 148.507812 203.15625 148.710938 207.289062 146.339844 L 192.050781 119.835938 C 187.917969 122.207031 185.789062 126.253906 187.296875 128.875 " fill-opacity="1" fill-rule="nonzero"/><path fill="#ffffff" d="M 266.484375 40.28125 L 259.859375 44.078125 L 189.320312 121.40625 L 204.558594 147.90625 L 306.984375 126.046875 L 313.613281 122.246094 L 266.484375 40.28125 " fill-opacity="1" fill-rule="nonzero"/><path fill="#000000" d="M 190.070312 121.484375 L 204.867188 147.214844 L 306.769531 125.46875 L 312.78125 122.019531 L 266.257812 41.109375 L 260.246094 44.554688 Z M 204.558594 148.515625 C 204.34375 148.515625 204.140625 148.402344 204.03125 148.207031 L 188.792969 121.707031 C 188.660156 121.476562 188.691406 121.1875 188.871094 120.992188 L 259.410156 43.667969 C 259.453125 43.621094 259.5 43.578125 259.554688 43.546875 L 266.179688 39.75 C 266.320312 39.667969 266.488281 39.648438 266.644531 39.691406 C 266.800781 39.734375 266.933594 39.835938 267.015625 39.976562 L 314.144531 121.941406 C 314.308594 122.234375 314.210938 122.605469 313.917969 122.773438 L 307.289062 126.574219 C 307.234375 126.605469 307.175781 126.628906 307.117188 126.640625 L 204.6875 148.5 C 204.644531 148.507812 204.601562 148.515625 204.558594 148.515625 " fill-opacity="1" fill-rule="nonzero"/><path fill="#fb735d" d="M 317.476562 84.121094 L 331.035156 88.984375 C 333.742188 89.957031 336.765625 89.042969 338.484375 86.738281 L 346.328125 76.199219 L 317.476562 84.121094 " fill-opacity="1" fill-rule="nonzero"/><path fill="#fb735d" d="M 345.226562 57.183594 L 332.539062 56.480469 L 332.660156 59.441406 C 332.8125 63.113281 330.335938 66.378906 326.75 67.222656 L 314.113281 70.199219 L 318.847656 65.789062 C 321.613281 63.21875 322.410156 59.160156 320.820312 55.734375 L 319.472656 52.816406 C 318.015625 49.675781 319.617188 45.96875 322.90625 44.871094 L 341.394531 38.699219 L 345.226562 57.183594 " fill-opacity="1" fill-rule="nonzero"/><path fill="#fb735d" d="M 309.347656 37.285156 L 307.855469 59.839844 L 306.882812 58.929688 C 305.515625 57.648438 304.5625 55.980469 304.152344 54.148438 L 300.558594 38.140625 C 300.304688 36.992188 301.097656 35.878906 302.265625 35.746094 L 307.152344 35.195312 C 308.378906 35.054688 309.429688 36.058594 309.347656 37.285156 " fill-opacity="1" fill-rule="nonzero"/><path fill="#000000" d="M 190.320312 121.515625 L 204.964844 146.992188 L 306.691406 125.277344 L 312.5 121.949219 L 266.179688 41.390625 L 260.371094 44.722656 Z M 204.558594 148.71875 C 204.269531 148.71875 204 148.566406 203.851562 148.3125 L 188.613281 121.808594 C 188.4375 121.503906 188.480469 121.121094 188.71875 120.859375 L 259.257812 43.53125 C 259.3125 43.46875 259.378906 43.417969 259.453125 43.375 L 266.074219 39.574219 C 266.265625 39.46875 266.488281 39.441406 266.695312 39.496094 C 266.902344 39.550781 267.078125 39.691406 267.1875 39.875 L 314.316406 121.84375 C 314.542969 122.230469 314.40625 122.730469 314.015625 122.953125 L 307.390625 126.75 C 307.316406 126.792969 307.238281 126.824219 307.15625 126.839844 L 204.726562 148.699219 C 204.671875 148.714844 204.613281 148.71875 204.558594 148.71875 " fill-opacity="1" fill-rule="nonzero"/><path fill="#fb735d" d="M 317.097656 125.207031 L 311.566406 128.375 C 309.179688 129.746094 306.136719 128.707031 305.074219 126.167969 C 293.1875 97.753906 277.785156 70.90625 258.773438 45.664062 C 257.121094 43.46875 257.757812 40.324219 260.140625 38.957031 L 265.671875 35.789062 C 267.648438 34.652344 270.164062 35.148438 271.558594 36.957031 C 291.429688 62.652344 307.269531 90.175781 319.066406 119.550781 C 319.914062 121.660156 319.074219 124.074219 317.097656 125.207031 " fill-opacity="1" fill-rule="nonzero"/><path fill="#000000" d="M 190.425781 322.703125 C 190.113281 322.703125 189.84375 322.464844 189.816406 322.148438 C 189.789062 321.8125 190.039062 321.515625 190.375 321.488281 C 198.960938 320.75 207.433594 318.871094 215.554688 315.902344 C 221.667969 313.667969 227.570312 310.816406 233.089844 307.425781 C 233.378906 307.253906 233.753906 307.339844 233.929688 307.628906 C 234.109375 307.914062 234.015625 308.289062 233.730469 308.464844 C 228.140625 311.894531 222.164062 314.785156 215.972656 317.046875 C 207.753906 320.050781 199.175781 321.957031 190.480469 322.699219 C 190.460938 322.703125 190.441406 322.703125 190.425781 322.703125 " fill-opacity="1" fill-rule="nonzero"/><path fill="#000000" d="M 189.035156 318.109375 C 188.808594 318.109375 188.59375 317.984375 188.488281 317.769531 C 188.339844 317.46875 188.460938 317.101562 188.765625 316.953125 C 188.96875 316.851562 189.3125 316.4375 189.613281 316.070312 C 190.257812 315.289062 191.058594 314.316406 192.140625 314.160156 C 193.046875 314.035156 193.996094 314.613281 194.914062 315.175781 C 195.636719 315.617188 196.457031 316.109375 196.917969 316.019531 C 197.679688 315.871094 198.398438 315.050781 199.085938 314.253906 C 199.832031 313.398438 200.597656 312.515625 201.582031 312.273438 C 202.703125 311.996094 203.898438 312.347656 204.957031 312.660156 C 205.71875 312.882812 206.511719 313.117188 206.960938 312.988281 C 208.730469 312.480469 209.363281 310.394531 209.367188 310.371094 C 209.460938 310.050781 209.796875 309.863281 210.125 309.957031 C 210.445312 310.050781 210.632812 310.386719 210.539062 310.710938 C 210.507812 310.824219 209.726562 313.464844 207.300781 314.160156 C 206.507812 314.386719 205.585938 314.117188 204.613281 313.828125 C 203.660156 313.546875 202.675781 313.257812 201.878906 313.453125 C 201.265625 313.605469 200.628906 314.34375 200.007812 315.050781 C 199.183594 316.003906 198.328125 316.988281 197.15625 317.21875 C 196.222656 317.402344 195.234375 316.796875 194.277344 316.214844 C 193.578125 315.785156 192.78125 315.304688 192.3125 315.367188 C 191.699219 315.457031 191.09375 316.195312 190.554688 316.84375 C 190.121094 317.371094 189.746094 317.828125 189.304688 318.046875 C 189.21875 318.085938 189.125 318.109375 189.035156 318.109375 " fill-opacity="1" fill-rule="nonzero"/><path fill="#000000" d="M 180.539062 315.660156 C 180.277344 315.660156 180.015625 315.703125 179.761719 315.796875 C 179.1875 316.003906 178.730469 316.421875 178.46875 316.972656 C 178.210938 317.523438 178.179688 318.144531 178.386719 318.71875 C 178.8125 319.902344 180.125 320.519531 181.3125 320.089844 C 181.886719 319.882812 182.347656 319.464844 182.605469 318.914062 C 182.867188 318.363281 182.894531 317.742188 182.6875 317.167969 C 182.480469 316.59375 182.0625 316.136719 181.511719 315.878906 C 181.203125 315.730469 180.871094 315.660156 180.539062 315.660156 Z M 180.542969 321.445312 C 179.105469 321.445312 177.753906 320.554688 177.238281 319.128906 C 176.921875 318.25 176.964844 317.300781 177.367188 316.453125 C 177.765625 315.605469 178.46875 314.964844 179.347656 314.648438 C 180.230469 314.332031 181.179688 314.375 182.027344 314.773438 C 182.875 315.175781 183.519531 315.878906 183.835938 316.757812 C 184.152344 317.636719 184.109375 318.585938 183.710938 319.433594 C 183.3125 320.28125 182.605469 320.921875 181.726562 321.238281 C 181.332031 321.378906 180.933594 321.445312 180.542969 321.445312 " fill-opacity="1" fill-rule="nonzero"/><path fill="#000000" d="M 54.667969 344.445312 L 53.03125 346.605469 C 51.089844 349.164062 51.496094 352.796875 53.953125 354.867188 L 59.65625 359.667969 C 63.84375 363.195312 69.144531 365.128906 74.617188 365.128906 L 89.234375 365.34375 C 91.09375 365.367188 91.878906 362.988281 90.367188 361.90625 C 85.625 358.511719 81.148438 355.179688 79.992188 352.285156 L 54.667969 344.445312 " fill-opacity="1" fill-rule="nonzero"/><path fill="#000000" d="M 116.507812 350.203125 C 116.507812 350.203125 119.589844 362.515625 122.851562 363.054688 C 126.117188 363.59375 162.578125 356.460938 161.28125 353.957031 C 160.179688 351.839844 143.53125 349.621094 141.699219 344.835938 C 140.609375 341.992188 116.507812 350.203125 116.507812 350.203125 " fill-opacity="1" fill-rule="nonzero"/><path fill="#ffffff" d="M 105.6875 183.859375 C 105.6875 183.859375 85.574219 194.148438 72.25 216.960938 C 58.925781 239.773438 34.179688 340.875 34.179688 340.875 C 34.179688 340.875 54.644531 353.953125 85.945312 354.894531 C 85.945312 354.894531 93.320312 293.238281 103.710938 261.386719 C 103.710938 261.386719 104.28125 320.199219 111.90625 351.171875 C 111.90625 351.171875 142.917969 348.738281 153.734375 344.835938 C 153.734375 344.835938 129.398438 216.398438 126.339844 188.601562 L 105.6875 183.859375 " fill-opacity="1" fill-rule="nonzero"/><path fill="#000000" d="M 34.878906 340.585938 C 37.761719 342.308594 57.214844 353.28125 85.410156 354.265625 C 86.179688 348.023438 93.367188 291.136719 103.128906 261.199219 C 103.222656 260.914062 103.507812 260.738281 103.800781 260.785156 C 104.097656 260.832031 104.316406 261.082031 104.320312 261.382812 C 104.324219 261.964844 104.972656 319.839844 112.375 350.523438 C 116.40625 350.1875 142.800781 347.894531 153.035156 344.433594 C 151.359375 335.554688 128.902344 216.550781 125.78125 189.097656 L 105.773438 184.503906 C 103.679688 185.636719 85.160156 196.066406 72.777344 217.265625 C 60.089844 238.984375 36.664062 333.351562 34.878906 340.585938 Z M 85.949219 355.503906 C 85.941406 355.503906 85.933594 355.503906 85.929688 355.503906 C 54.816406 354.566406 34.058594 341.519531 33.851562 341.390625 C 33.632812 341.25 33.523438 340.984375 33.585938 340.730469 C 33.835938 339.71875 58.507812 239.277344 71.722656 216.652344 C 84.984375 193.949219 105.207031 183.421875 105.410156 183.316406 C 105.539062 183.25 105.6875 183.234375 105.824219 183.265625 L 126.476562 188.007812 C 126.730469 188.066406 126.917969 188.277344 126.945312 188.535156 C 129.96875 215.992188 154.089844 343.4375 154.332031 344.722656 C 154.386719 345.015625 154.222656 345.308594 153.941406 345.410156 C 143.171875 349.296875 113.222656 351.679688 111.953125 351.78125 C 111.664062 351.804688 111.382812 351.609375 111.3125 351.316406 C 104.875 325.164062 103.449219 278.703125 103.164062 265.179688 C 93.5 297.457031 86.625 354.375 86.550781 354.964844 C 86.515625 355.273438 86.253906 355.503906 85.949219 355.503906 " fill-opacity="1" fill-rule="nonzero"/><path fill="#ffffff" d="M 121.390625 226.886719 L 116.339844 226.886719 C 116.339844 226.886719 107.308594 244.871094 103.457031 262.175781 L 121.390625 226.886719 " fill-opacity="1" fill-rule="nonzero"/><path fill="#000000" d="M 103.457031 262.789062 C 103.410156 262.789062 103.367188 262.785156 103.324219 262.773438 C 102.996094 262.699219 102.785156 262.375 102.859375 262.046875 C 106.683594 244.867188 115.703125 226.792969 115.796875 226.613281 C 115.898438 226.410156 116.109375 226.277344 116.339844 226.277344 L 121.390625 226.277344 C 121.726562 226.277344 122 226.550781 122 226.886719 C 122 227.222656 121.726562 227.496094 121.390625 227.496094 L 116.71875 227.496094 C 115.472656 230.042969 107.554688 246.566406 104.050781 262.3125 C 103.988281 262.59375 103.734375 262.789062 103.457031 262.789062 " fill-opacity="1" fill-rule="nonzero"/><path fill="#000000" d="M 54.667969 345.054688 C 54.628906 345.054688 54.585938 345.050781 54.542969 345.039062 C 54.214844 344.972656 54.003906 344.648438 54.070312 344.320312 C 54.09375 344.21875 56.242188 333.953125 59.289062 319.847656 C 59.359375 319.519531 59.6875 319.308594 60.011719 319.378906 C 60.34375 319.449219 60.550781 319.773438 60.480469 320.105469 C 57.4375 334.207031 55.285156 344.46875 55.265625 344.570312 C 55.207031 344.855469 54.949219 345.054688 54.667969 345.054688 " fill-opacity="1" fill-rule="nonzero"/><path fill="#000000" d="M 61.945312 311.082031 C 61.902344 311.082031 61.859375 311.078125 61.8125 311.070312 C 61.484375 310.996094 61.277344 310.671875 61.347656 310.34375 L 61.878906 307.914062 C 61.949219 307.585938 62.273438 307.375 62.605469 307.449219 C 62.933594 307.523438 63.140625 307.847656 63.070312 308.175781 L 62.539062 310.601562 C 62.476562 310.886719 62.226562 311.082031 61.945312 311.082031 " fill-opacity="1" fill-rule="nonzero"/><path fill="#000000" d="M 63.28125 304.976562 C 63.238281 304.976562 63.191406 304.96875 63.148438 304.960938 C 62.820312 304.890625 62.609375 304.5625 62.683594 304.234375 C 67.003906 284.535156 72.988281 257.933594 76.96875 243.09375 C 84.644531 214.460938 101.105469 196.480469 101.269531 196.300781 C 101.5 196.054688 101.882812 196.039062 102.132812 196.269531 C 102.378906 196.496094 102.394531 196.882812 102.164062 197.128906 C 102 197.304688 85.742188 215.078125 78.148438 243.40625 C 74.175781 258.226562 68.195312 284.808594 63.875 304.496094 C 63.8125 304.78125 63.558594 304.976562 63.28125 304.976562 " fill-opacity="1" fill-rule="nonzero"/><path fill="#000000" d="M 94.574219 213.027344 C 94.363281 213.027344 94.152344 213.023438 93.941406 213.019531 C 93.601562 213.007812 93.335938 212.730469 93.347656 212.390625 C 93.355469 212.054688 93.628906 211.78125 93.972656 211.800781 C 108.980469 212.210938 110.574219 197.292969 110.636719 196.65625 C 110.671875 196.324219 110.972656 196.078125 111.304688 196.109375 C 111.640625 196.140625 111.882812 196.4375 111.851562 196.773438 C 111.835938 196.9375 110.125 213.027344 94.574219 213.027344 " fill-opacity="1" fill-rule="nonzero"/><path fill="#000000" d="M 121.984375 132.269531 C 120.589844 133.320312 116.402344 136.488281 112.660156 135.230469 C 109.578125 134.195312 109.058594 130.914062 107.007812 131.09375 C 105.007812 131.265625 105.152344 134.410156 102.695312 135.859375 C 98.910156 138.085938 94.855469 132.8125 88.089844 133.183594 C 83.097656 133.457031 82.765625 136.46875 77.011719 138.304688 C 71.324219 140.113281 61.300781 140.460938 55.96875 134.214844 C 50.304688 127.578125 52.269531 116.238281 57.914062 110.003906 C 64.945312 102.242188 76.644531 103.546875 77.171875 103.613281 C 83.410156 104.402344 85.121094 107.507812 89.519531 106.382812 C 94.824219 105.03125 94.132812 100.050781 100.339844 96.820312 C 105.625 94.066406 113.253906 93.96875 118.304688 97.25 C 121.742188 99.484375 121.644531 101.765625 124.527344 102.347656 C 129.085938 103.269531 131.214844 97.945312 136.269531 98.332031 C 140.066406 98.621094 143.996094 102.28125 144.710938 106.761719 C 145.183594 109.75 144.285156 113.546875 141.691406 115.496094 C 138.40625 117.96875 135.121094 115.425781 131.589844 118.164062 C 130.433594 119.0625 130.703125 119.402344 128.042969 123.839844 C 125.292969 128.421875 123.964844 130.769531 121.984375 132.269531 " fill-opacity="1" fill-rule="nonzero"/><path fill="#ffffff" d="M 130.949219 169.105469 C 130.996094 169.03125 149.546875 143.535156 151.347656 142.222656 C 153.148438 140.914062 156.554688 143.65625 157.832031 145.003906 C 159.113281 146.351562 162.726562 150.703125 162.726562 150.703125 C 162.726562 150.703125 161.308594 151.769531 160.53125 150.722656 C 159.75 149.671875 155.71875 146.878906 155.71875 146.878906 L 158.089844 150.453125 C 158.089844 150.453125 155.949219 151.296875 154.386719 150.484375 C 154.386719 150.484375 153.867188 154.535156 149.34375 154.425781 C 149.34375 154.425781 146.335938 173.339844 142.328125 175.824219 C 138.324219 178.308594 125.304688 177.949219 130.949219 169.105469 " fill-opacity="1" fill-rule="nonzero"/><path fill="#000000" d="M 130.949219 169.105469 L 130.953125 169.105469 Z M 131.453125 169.445312 C 129.917969 171.859375 129.746094 173.703125 130.953125 174.917969 C 133.199219 177.191406 139.578125 176.8125 142.007812 175.308594 C 145.101562 173.390625 147.917969 159.515625 148.742188 154.332031 C 148.789062 154.027344 149.0625 153.800781 149.355469 153.816406 C 149.410156 153.820312 149.464844 153.820312 149.515625 153.820312 C 153.273438 153.820312 153.765625 150.542969 153.785156 150.402344 C 153.8125 150.207031 153.929688 150.035156 154.109375 149.941406 C 154.28125 149.851562 154.492188 149.851562 154.667969 149.941406 C 155.445312 150.34375 156.449219 150.242188 157.121094 150.09375 L 155.210938 147.214844 C 155.046875 146.96875 155.082031 146.644531 155.289062 146.441406 C 155.5 146.238281 155.828125 146.210938 156.066406 146.375 C 156.488281 146.667969 160.203125 149.261719 161.019531 150.359375 C 161.140625 150.519531 161.257812 150.554688 161.34375 150.570312 C 161.480469 150.585938 161.628906 150.558594 161.773438 150.511719 C 160.746094 149.285156 158.363281 146.449219 157.390625 145.425781 C 155.839844 143.792969 152.964844 141.804688 151.707031 142.71875 C 150.074219 143.902344 132.320312 168.226562 131.453125 169.445312 Z M 136.433594 177.746094 C 133.953125 177.746094 131.46875 177.171875 130.085938 175.777344 C 128.941406 174.625 128.074219 172.472656 130.433594 168.777344 C 130.613281 168.5 149.054688 143.136719 150.988281 141.734375 C 153.664062 139.789062 158.230469 144.539062 158.273438 144.585938 C 159.554688 145.933594 163.046875 150.136719 163.191406 150.3125 C 163.300781 150.441406 163.347656 150.605469 163.328125 150.773438 C 163.3125 150.9375 163.222656 151.085938 163.089844 151.1875 C 162.992188 151.261719 162.109375 151.90625 161.171875 151.773438 C 160.71875 151.710938 160.328125 151.472656 160.039062 151.085938 C 159.777344 150.730469 159.011719 150.082031 158.113281 149.386719 L 158.597656 150.117188 C 158.699219 150.269531 158.726562 150.460938 158.671875 150.632812 C 158.617188 150.808594 158.484375 150.949219 158.3125 151.015625 C 158.226562 151.050781 156.449219 151.738281 154.8125 151.296875 C 154.414062 152.523438 153.214844 154.878906 149.863281 155.03125 C 149.289062 158.496094 146.53125 173.9375 142.652344 176.34375 C 141.269531 177.199219 138.851562 177.746094 136.433594 177.746094 " fill-opacity="1" fill-rule="nonzero"/><path fill="#000000" d="M 150.710938 147.957031 C 150.535156 147.957031 150.355469 147.878906 150.238281 147.730469 C 150.023438 147.46875 150.066406 147.085938 150.328125 146.875 L 152.996094 144.710938 C 153.210938 144.539062 153.515625 144.53125 153.738281 144.691406 L 156.078125 146.382812 C 156.347656 146.582031 156.410156 146.960938 156.210938 147.234375 C 156.015625 147.507812 155.632812 147.566406 155.359375 147.371094 L 153.398438 145.953125 L 151.09375 147.820312 C 150.980469 147.910156 150.84375 147.957031 150.710938 147.957031 " fill-opacity="1" fill-rule="nonzero"/><path fill="#fb735d" d="M 115.203125 132.9375 C 109.136719 132.484375 104.433594 137.382812 100.699219 141.269531 C 99.78125 142.222656 99.089844 143.039062 98.480469 143.902344 C 90.890625 154.675781 87.648438 166.300781 87.648438 166.300781 C 85.167969 176.691406 83.390625 184.125 87.664062 189.003906 C 92.390625 194.410156 102.347656 194.183594 105.25 194.121094 C 109.535156 194.023438 109.449219 193.15625 113.023438 193.164062 C 123.90625 193.195312 130.417969 201.242188 132.359375 199.507812 C 133.972656 198.058594 128.304688 193.496094 128.894531 185.671875 C 129.335938 179.800781 133.042969 175.585938 133.355469 169.457031 C 133.410156 168.425781 133.410156 167.054688 133.859375 165.089844 C 134.566406 162.011719 135.703125 160.910156 135.332031 156.816406 C 134.585938 148.574219 129.054688 142.867188 126.449219 140.183594 C 122.851562 136.472656 119.757812 133.277344 115.203125 132.9375 " fill-opacity="1" fill-rule="nonzero"/><path fill="#fb735d" d="M 153.734375 167.351562 C 153.925781 166.992188 167.511719 148.820312 170.332031 145.054688 C 170.640625 144.640625 171.167969 144.453125 171.667969 144.582031 L 179.914062 146.632812 C 180.808594 146.855469 181.183594 147.921875 180.621094 148.652344 L 165.796875 168.007812 L 153.734375 167.351562 " fill-opacity="1" fill-rule="nonzero"/><path fill="#ffffff" d="M 102.617188 148.960938 C 103.074219 146.886719 105.667969 135.972656 110.921875 135.398438 C 114.605469 135.003906 117.945312 139.871094 119.382812 141.960938 C 126.230469 151.941406 121.550781 159.394531 128.003906 167.265625 C 128.816406 168.253906 133.105469 173.480469 139.386719 173.542969 C 144.640625 173.59375 150.574219 170.019531 152.394531 165.234375 C 153.625 161.992188 152.601562 159.15625 154.992188 157.253906 C 156.074219 156.390625 156.660156 156.675781 159.382812 155.109375 C 161.75 153.746094 162.816406 152.667969 163.167969 152.949219 C 163.835938 153.488281 160.335938 157.648438 161.351562 158.921875 C 162.625 160.527344 169.675781 155.882812 170.660156 157.1875 C 171.367188 158.128906 168.792969 161.925781 165.164062 163.9375 C 162.59375 165.359375 160.070312 165.566406 158.5625 165.558594 C 156.988281 169.640625 152.34375 180.03125 141.148438 186.882812 C 136.707031 189.597656 129.167969 194.210938 121.117188 192.359375 C 106.015625 188.898438 99.097656 165.015625 102.617188 148.960938 " fill-opacity="1" fill-rule="nonzero"/><path fill="#000000" d="M 102.617188 148.960938 L 102.621094 148.960938 Z M 111.351562 135.988281 C 111.230469 135.988281 111.109375 135.992188 110.988281 136.007812 C 106.203125 136.523438 103.671875 147 103.214844 149.09375 C 101.464844 157.074219 102.300781 166.820312 105.457031 175.167969 C 108.917969 184.332031 114.527344 190.222656 121.253906 191.765625 C 129.066406 193.558594 136.429688 189.054688 140.828125 186.363281 C 151.152344 180.046875 156.015625 170.480469 157.992188 165.339844 C 158.082031 165.101562 158.308594 164.949219 158.5625 164.949219 C 158.59375 164.949219 158.621094 164.949219 158.652344 164.949219 C 160.925781 164.949219 163.015625 164.429688 164.867188 163.402344 C 168.332031 161.484375 170.285156 158.242188 170.167969 157.570312 C 169.691406 157.421875 167.808594 158.160156 166.667969 158.605469 C 164.175781 159.578125 161.824219 160.5 160.875 159.300781 C 160.042969 158.261719 160.976562 156.519531 161.875 154.839844 C 162.023438 154.5625 162.199219 154.230469 162.34375 153.9375 C 162.234375 154.011719 162.121094 154.085938 162.007812 154.164062 C 161.445312 154.546875 160.671875 155.074219 159.6875 155.636719 C 158.21875 156.480469 157.339844 156.808594 156.703125 157.046875 C 156.144531 157.253906 155.8125 157.378906 155.371094 157.730469 C 154.097656 158.742188 153.941406 160.078125 153.742188 161.769531 C 153.613281 162.875 153.464844 164.132812 152.964844 165.449219 C 151.121094 170.304688 145.03125 174.199219 139.378906 174.152344 C 133.664062 174.097656 129.503906 170.054688 127.535156 167.648438 C 124.214844 163.605469 123.742188 159.695312 123.246094 155.554688 C 122.75 151.449219 122.238281 147.203125 118.878906 142.304688 C 117.558594 140.386719 114.539062 135.988281 111.351562 135.988281 Z M 124.9375 193.398438 C 123.644531 193.398438 122.320312 193.261719 120.980469 192.957031 C 113.84375 191.316406 107.921875 185.152344 104.3125 175.597656 C 101.082031 167.039062 100.222656 157.035156 102.023438 148.832031 C 102.710938 145.691406 105.382812 135.390625 110.855469 134.792969 C 114.894531 134.351562 118.390625 139.445312 119.882812 141.617188 C 123.414062 146.761719 123.96875 151.355469 124.457031 155.410156 C 124.933594 159.367188 125.382812 163.105469 128.476562 166.878906 C 130.3125 169.121094 134.171875 172.882812 139.390625 172.933594 C 144.570312 173.003906 150.144531 169.433594 151.820312 165.015625 C 152.269531 163.839844 152.402344 162.714844 152.53125 161.628906 C 152.742188 159.8125 152.945312 158.101562 154.609375 156.777344 C 155.203125 156.304688 155.675781 156.128906 156.273438 155.90625 C 156.90625 155.671875 157.699219 155.375 159.078125 154.582031 C 160.023438 154.039062 160.742188 153.546875 161.324219 153.15625 C 162.398438 152.425781 162.988281 152.027344 163.546875 152.476562 C 164.230469 153.023438 163.71875 153.972656 162.949219 155.414062 C 162.480469 156.296875 161.5 158.128906 161.828125 158.542969 C 162.222656 159.039062 164.824219 158.019531 166.222656 157.472656 C 168.558594 156.554688 170.402344 155.835938 171.148438 156.824219 C 171.378906 157.132812 171.441406 157.546875 171.335938 158.058594 C 170.964844 159.785156 168.515625 162.777344 165.457031 164.46875 C 163.511719 165.546875 161.335938 166.113281 158.980469 166.164062 C 156.855469 171.53125 151.84375 181.054688 141.464844 187.402344 C 137.640625 189.738281 131.660156 193.398438 124.9375 193.398438 " fill-opacity="1" fill-rule="nonzero"/><path fill="#ffffff" d="M 138.1875 110.753906 C 138.441406 111.988281 138.734375 112.515625 138.871094 113.601562 C 139.148438 115.8125 137.363281 120.253906 138.871094 122.679688 C 138.15625 124.023438 137.117188 123.410156 136.238281 123.773438 C 136.039062 124.558594 134.320312 127.570312 133.460938 129.570312 C 133.160156 130.273438 132.378906 130.644531 131.648438 130.425781 C 130.421875 130.054688 129.175781 129.460938 127.9375 128.601562 C 127.9375 128.601562 124.699219 134.496094 127.019531 144.085938 C 127.019531 144.085938 117.355469 136.484375 114.792969 133.976562 C 113.277344 132.492188 113.851562 133.066406 116.078125 130.667969 C 118.300781 128.269531 121.921875 119.75 121.921875 119.75 C 121.796875 119.542969 120.179688 116.765625 121.492188 114.632812 C 121.972656 113.851562 123.039062 112.847656 123.871094 113.121094 C 124.6875 113.390625 125.226562 114.855469 124.808594 116.726562 C 125.210938 116.523438 125.667969 116.214844 126.175781 115.851562 C 126.871094 115.347656 127.597656 114.714844 127.710938 114.195312 C 134.820312 117.308594 134.136719 107.429688 138.1875 110.753906 " fill-opacity="1" fill-rule="nonzero"/><path fill="#000000" d="M 114.609375 132.921875 C 114.730469 133.066406 114.972656 133.300781 115.210938 133.53125 C 117.160156 135.441406 123.332031 140.382812 126.070312 142.554688 C 124.441406 133.84375 127.273438 128.546875 127.402344 128.3125 C 127.484375 128.160156 127.628906 128.050781 127.796875 128.011719 C 127.964844 127.972656 128.140625 128.007812 128.285156 128.101562 C 129.429688 128.894531 130.621094 129.480469 131.824219 129.839844 C 132.257812 129.972656 132.71875 129.753906 132.898438 129.332031 C 133.316406 128.363281 133.925781 127.167969 134.464844 126.109375 C 135.003906 125.058594 135.558594 123.972656 135.648438 123.625 C 135.695312 123.441406 135.828125 123.285156 136.003906 123.214844 C 136.398438 123.050781 136.785156 123.035156 137.128906 123.019531 C 137.597656 123 137.898438 122.988281 138.164062 122.660156 C 137.324219 120.953125 137.6875 118.65625 138.007812 116.613281 C 138.1875 115.476562 138.355469 114.402344 138.265625 113.679688 C 138.195312 113.113281 138.078125 112.707031 137.9375 112.238281 C 137.84375 111.914062 137.738281 111.554688 137.636719 111.097656 C 137.210938 110.78125 136.855469 110.640625 136.566406 110.679688 C 136.027344 110.75 135.492188 111.496094 134.925781 112.289062 C 133.734375 113.953125 131.964844 116.433594 128.007812 114.976562 C 127.71875 115.390625 127.234375 115.839844 126.53125 116.34375 C 126.082031 116.667969 125.5625 117.03125 125.082031 117.269531 C 124.871094 117.375 124.621094 117.351562 124.433594 117.207031 C 124.25 117.0625 124.164062 116.820312 124.214844 116.59375 C 124.589844 114.90625 124.074219 113.832031 123.679688 113.703125 C 123.308594 113.578125 122.476562 114.195312 122.011719 114.953125 C 120.878906 116.792969 122.382812 119.328125 122.445312 119.4375 C 122.546875 119.605469 122.5625 119.808594 122.484375 119.988281 C 122.335938 120.339844 118.796875 128.636719 116.523438 131.085938 C 115.886719 131.769531 115.386719 132.214844 115.023438 132.539062 C 114.871094 132.671875 114.707031 132.820312 114.609375 132.921875 Z M 127.019531 144.695312 C 126.886719 144.695312 126.753906 144.652344 126.644531 144.5625 C 126.246094 144.253906 116.921875 136.914062 114.367188 134.414062 C 113.667969 133.730469 113.324219 133.390625 113.335938 132.882812 C 113.347656 132.398438 113.691406 132.09375 114.210938 131.628906 C 114.558594 131.320312 115.03125 130.898438 115.628906 130.253906 C 117.539062 128.195312 120.609375 121.25 121.242188 119.785156 C 120.789062 118.921875 119.6875 116.40625 120.96875 114.316406 C 121.542969 113.382812 122.839844 112.140625 124.0625 112.542969 C 125.015625 112.855469 125.578125 114.050781 125.5625 115.539062 C 125.648438 115.480469 125.734375 115.417969 125.816406 115.359375 C 126.988281 114.511719 127.105469 114.109375 127.117188 114.066406 C 127.15625 113.890625 127.273438 113.738281 127.433594 113.65625 C 127.597656 113.574219 127.789062 113.566406 127.957031 113.640625 C 131.386719 115.140625 132.679688 113.332031 133.933594 111.582031 C 134.65625 110.570312 135.339844 109.609375 136.40625 109.46875 C 137.089844 109.378906 137.796875 109.648438 138.574219 110.285156 C 138.679688 110.375 138.753906 110.5 138.785156 110.636719 C 138.890625 111.144531 139 111.527344 139.109375 111.898438 C 139.257812 112.394531 139.390625 112.867188 139.476562 113.53125 C 139.589844 114.421875 139.40625 115.578125 139.210938 116.804688 C 138.902344 118.777344 138.550781 121.011719 139.390625 122.359375 C 139.503906 122.542969 139.511719 122.777344 139.410156 122.96875 C 138.769531 124.171875 137.851562 124.210938 137.175781 124.238281 C 137.007812 124.246094 136.851562 124.25 136.710938 124.273438 C 136.511719 124.777344 136.117188 125.558594 135.550781 126.664062 C 135.023438 127.707031 134.421875 128.882812 134.019531 129.8125 C 133.59375 130.804688 132.5 131.316406 131.472656 131.007812 C 130.359375 130.671875 129.261719 130.167969 128.195312 129.503906 C 127.488281 131.214844 125.796875 136.433594 127.613281 143.941406 C 127.675781 144.195312 127.566406 144.457031 127.351562 144.597656 C 127.25 144.660156 127.136719 144.695312 127.019531 144.695312 " fill-opacity="1" fill-rule="nonzero"/><path fill="#ffffff" d="M 123.703125 124.027344 C 123.703125 124.027344 124.703125 126.867188 127.730469 128.472656 L 123.703125 124.027344 " fill-opacity="1" fill-rule="nonzero"/><path fill="#000000" d="M 127.730469 129.082031 C 127.632812 129.082031 127.535156 129.058594 127.445312 129.011719 C 124.242188 127.316406 123.167969 124.359375 123.125 124.230469 C 123.011719 123.914062 123.179688 123.570312 123.5 123.457031 C 123.816406 123.34375 124.164062 123.511719 124.277344 123.828125 C 124.289062 123.859375 125.25 126.472656 128.015625 127.933594 C 128.3125 128.089844 128.425781 128.460938 128.269531 128.757812 C 128.160156 128.964844 127.949219 129.082031 127.730469 129.082031 " fill-opacity="1" fill-rule="nonzero"/></svg>