<svg xmlns="http://www.w3.org/2000/svg" xmlns:xlink="http://www.w3.org/1999/xlink" width="500" zoomAndPan="magnify" viewBox="0 0 375 374.999991" height="500" preserveAspectRatio="xMidYMid meet" version="1.0"><defs><clipPath id="6008c6c3b5"><path d="M 23.488281 110 L 32 110 L 32 133 L 23.488281 133 Z M 23.488281 110 " clip-rule="nonzero"/></clipPath><clipPath id="7aaaea2d22"><path d="M 294 23.488281 L 351 23.488281 L 351 42 L 294 42 Z M 294 23.488281 " clip-rule="nonzero"/></clipPath><clipPath id="550bbd019b"><path d="M 63 275 L 114 275 L 114 351.238281 L 63 351.238281 Z M 63 275 " clip-rule="nonzero"/></clipPath><clipPath id="cc3b50da83"><path d="M 290 197 L 351.238281 197 L 351.238281 278 L 290 278 Z M 290 197 " clip-rule="nonzero"/></clipPath></defs><rect x="-37.5" width="450" fill="#ffffff" y="-37.499999" height="449.999989" fill-opacity="1"/><rect x="-37.5" width="450" fill="#ffffff" y="-37.499999" height="449.999989" fill-opacity="1"/><rect x="-37.5" width="450" fill="#ffffff" y="-37.499999" height="449.999989" fill-opacity="1"/><path fill="#000000" d="M 142.152344 81.46875 L 43.234375 81.488281 C 33.945312 81.488281 26.417969 89.011719 26.417969 98.285156 L 26.460938 321.578125 C 26.464844 330.851562 33.996094 338.367188 43.285156 338.367188 L 142.203125 338.347656 C 151.492188 338.34375 159.019531 330.824219 159.019531 321.550781 L 158.972656 98.257812 C 158.972656 88.984375 151.441406 81.46875 142.152344 81.46875 " fill-opacity="1" fill-rule="nonzero"/><g clip-path="url(#6008c6c3b5)"><path fill="#000000" d="M 31.808594 110.316406 L 23.527344 110.316406 L 23.53125 132.214844 L 31.8125 132.210938 L 31.808594 110.316406 " fill-opacity="1" fill-rule="nonzero"/></g><path fill="#ffffff" d="M 31.808594 110.722656 L 27.832031 110.722656 L 27.835938 131.820312 L 31.8125 131.816406 L 31.808594 110.722656 " fill-opacity="1" fill-rule="nonzero"/><path fill="#000000" d="M 28.230469 111.117188 L 28.234375 131.421875 L 31.414062 131.421875 L 31.410156 111.117188 Z M 27.839844 132.214844 C 27.734375 132.214844 27.632812 132.171875 27.558594 132.097656 C 27.484375 132.023438 27.441406 131.925781 27.441406 131.816406 L 27.4375 110.722656 C 27.4375 110.503906 27.613281 110.324219 27.832031 110.324219 L 31.808594 110.324219 C 31.914062 110.324219 32.011719 110.367188 32.085938 110.441406 C 32.160156 110.515625 32.203125 110.613281 32.203125 110.71875 L 32.207031 131.816406 C 32.207031 132.035156 32.03125 132.214844 31.8125 132.214844 L 27.839844 132.214844 " fill-opacity="1" fill-rule="nonzero"/><path fill="#8c7bff" d="M 150.984375 81.46875 L 52.066406 81.488281 C 42.777344 81.488281 35.25 89.011719 35.25 98.285156 L 35.296875 321.574219 C 35.296875 330.851562 42.828125 338.367188 52.117188 338.367188 L 151.035156 338.347656 C 160.324219 338.34375 167.851562 330.824219 167.851562 321.546875 L 167.804688 98.257812 C 167.804688 88.984375 160.273438 81.46875 150.984375 81.46875 " fill-opacity="1" fill-rule="nonzero"/><path fill="#ffffff" d="M 35.25 300.433594 L 167.652344 300.410156 L 167.617188 115.71875 L 35.214844 115.742188 L 35.25 300.433594 " fill-opacity="1" fill-rule="nonzero"/><path fill="#000000" d="M 35.609375 116.140625 L 35.644531 300.039062 L 167.253906 300.011719 L 167.21875 116.113281 Z M 35.25 300.832031 C 35.144531 300.832031 35.042969 300.789062 34.96875 300.714844 C 34.894531 300.640625 34.851562 300.539062 34.851562 300.433594 L 34.816406 115.746094 C 34.816406 115.527344 34.992188 115.347656 35.214844 115.347656 L 167.613281 115.324219 C 167.722656 115.324219 167.820312 115.363281 167.894531 115.4375 C 167.96875 115.511719 168.011719 115.613281 168.011719 115.71875 L 168.046875 300.410156 C 168.046875 300.628906 167.871094 300.804688 167.652344 300.804688 L 35.25 300.832031 " fill-opacity="1" fill-rule="nonzero"/><path fill="#000000" d="M 151.097656 81.464844 L 151.097656 81.863281 L 51.902344 81.882812 C 47.609375 81.882812 43.519531 83.523438 40.378906 86.503906 C 37.355469 89.378906 35.621094 93.1875 35.621094 96.957031 L 35.664062 320.527344 C 35.667969 325.386719 37.363281 329.839844 40.445312 333.066406 C 43.460938 336.226562 47.546875 337.96875 51.949219 337.96875 C 51.949219 337.96875 51.949219 337.96875 51.953125 337.96875 L 151.152344 337.949219 C 160.433594 337.945312 167.429688 330.445312 167.429688 320.5 L 167.382812 96.929688 C 167.382812 88.902344 159.773438 81.863281 151.101562 81.863281 C 151.101562 81.863281 151.101562 81.863281 151.097656 81.863281 Z M 51.949219 338.761719 C 47.328125 338.761719 43.039062 336.933594 39.871094 333.613281 C 36.648438 330.242188 34.875 325.59375 34.875 320.527344 L 34.828125 96.957031 C 34.828125 92.972656 36.652344 88.953125 39.835938 85.933594 C 43.121094 82.808594 47.40625 81.089844 51.902344 81.089844 L 151.097656 81.070312 L 151.101562 81.070312 C 160.199219 81.070312 168.171875 88.480469 168.175781 96.929688 L 168.21875 320.5 C 168.222656 330.898438 160.886719 338.738281 151.152344 338.742188 L 51.953125 338.761719 C 51.949219 338.761719 51.949219 338.761719 51.949219 338.761719 " fill-opacity="1" fill-rule="nonzero"/><path fill="#000000" d="M 97.050781 89.832031 C 96.832031 89.832031 96.652344 89.65625 96.652344 89.4375 C 96.652344 89.222656 96.832031 89.042969 97.050781 89.042969 L 125.433594 89.035156 C 125.648438 89.035156 125.828125 89.214844 125.828125 89.433594 C 125.828125 89.652344 125.648438 89.828125 125.433594 89.828125 L 97.050781 89.832031 " fill-opacity="1" fill-rule="nonzero"/><path fill="#000000" d="M 92.03125 87.75 C 91.578125 87.75 91.152344 87.925781 90.832031 88.246094 C 90.511719 88.5625 90.335938 88.988281 90.335938 89.4375 C 90.335938 90.371094 91.097656 91.128906 92.03125 91.128906 C 92.480469 91.128906 92.90625 90.953125 93.226562 90.632812 C 93.546875 90.316406 93.722656 89.890625 93.722656 89.4375 C 93.722656 88.507812 92.960938 87.75 92.03125 87.75 Z M 92.03125 91.917969 C 90.660156 91.917969 89.546875 90.808594 89.546875 89.4375 C 89.546875 88.777344 89.804688 88.152344 90.273438 87.683594 C 90.742188 87.21875 91.367188 86.957031 92.03125 86.957031 C 93.398438 86.957031 94.515625 88.070312 94.515625 89.4375 C 94.515625 90.101562 94.253906 90.722656 93.785156 91.195312 C 93.316406 91.660156 92.695312 91.917969 92.03125 91.917969 " fill-opacity="1" fill-rule="nonzero"/><path fill="#4ada85" d="M 327.480469 42.496094 L 350.78125 24.242188 L 326.519531 76.148438 L 327.480469 42.496094 " fill-opacity="1" fill-rule="nonzero"/><g clip-path="url(#7aaaea2d22)"><path fill="#1ec15f" d="M 326.859375 41.628906 L 350.246094 23.488281 L 294.070312 34.285156 L 326.859375 41.628906 " fill-opacity="1" fill-rule="nonzero"/></g><path fill="#1ec15f" d="M 277.386719 70.976562 C 277.183594 72.992188 277.253906 76.164062 279.328125 77.882812 C 279.699219 78.191406 280.28125 78.558594 280.9375 78.546875 C 281.914062 78.535156 282.820312 77.621094 282.960938 76.507812 C 283.089844 75.519531 282.683594 74.402344 281.851562 73.441406 C 280.929688 72.382812 279.609375 71.589844 278.03125 71.140625 C 277.816406 71.082031 277.601562 71.027344 277.386719 70.976562 Z M 275.902344 122.660156 C 275.878906 122.660156 275.855469 122.65625 275.832031 122.652344 C 267.558594 121.183594 260.503906 116.957031 256.476562 111.046875 C 253.796875 107.113281 252.292969 102.082031 252.242188 96.882812 C 252.167969 88.757812 256.113281 79.78125 262.0625 74.546875 C 266.273438 70.847656 271.179688 69.261719 276.257812 69.964844 C 276.40625 69.984375 276.558594 70.007812 276.707031 70.035156 C 277.785156 62.726562 282.34375 56.117188 288.960938 52.289062 C 295.792969 48.34375 302.527344 48.921875 309.65625 49.53125 C 310.632812 49.617188 311.613281 49.699219 312.613281 49.773438 C 315.101562 49.957031 319.902344 49.367188 322.054688 45.980469 C 322.171875 45.796875 322.414062 45.742188 322.601562 45.855469 C 322.789062 45.972656 322.839844 46.21875 322.726562 46.40625 C 320.371094 50.109375 315.222656 50.761719 312.554688 50.5625 C 311.554688 50.488281 310.566406 50.40625 309.589844 50.320312 C 302.589844 49.71875 295.972656 49.152344 289.355469 52.976562 C 282.9375 56.6875 278.519531 63.101562 277.484375 70.1875 C 277.742188 70.246094 277.996094 70.308594 278.25 70.382812 C 279.972656 70.871094 281.425781 71.75 282.445312 72.921875 C 283.429688 74.050781 283.902344 75.398438 283.75 76.609375 C 283.554688 78.097656 282.300781 79.320312 280.949219 79.335938 C 280.066406 79.339844 279.292969 78.882812 278.820312 78.492188 C 276.542969 76.601562 276.332031 73.355469 276.605469 70.820312 C 276.453125 70.792969 276.300781 70.769531 276.148438 70.75 C 271.304688 70.078125 266.617188 71.597656 262.589844 75.144531 C 256.800781 80.234375 252.960938 88.96875 253.035156 96.875 C 253.082031 101.917969 254.535156 106.792969 257.132812 110.601562 C 261.039062 116.335938 267.90625 120.441406 275.96875 121.871094 C 276.1875 121.910156 276.328125 122.117188 276.289062 122.332031 C 276.257812 122.523438 276.089844 122.660156 275.902344 122.660156 " fill-opacity="1" fill-rule="nonzero"/><path fill="#020202" d="M 196.78125 292.453125 L 175.054688 287.199219 L 169.296875 311 L 191.023438 316.257812 L 196.78125 292.453125 " fill-opacity="1" fill-rule="nonzero"/><path fill="#ffffff" d="M 196.1875 305.996094 L 196.523438 306.480469 C 200.398438 312.027344 199.960938 316.589844 201.699219 324.273438 L 173.050781 332.746094 L 131.09375 330.710938 L 124.183594 326.066406 L 126.96875 320.269531 L 150.625 314.023438 L 167.183594 304.90625 L 170.773438 300.195312 L 175.191406 300.464844 L 178.691406 304.15625 L 178.429688 308.480469 C 182.46875 311.246094 183.160156 312.492188 185.242188 312.617188 C 185.289062 312.605469 188.753906 313.167969 190.070312 309.902344 L 191.421875 306.539062 C 192.230469 304.53125 194.945312 304.21875 196.1875 305.996094 " fill-opacity="1" fill-rule="nonzero"/><path fill="#000000" d="M 131.21875 330.320312 L 173 332.347656 L 201.234375 323.996094 C 200.777344 321.929688 200.46875 320.066406 200.199219 318.40625 C 199.480469 314.039062 198.910156 310.59375 196.199219 306.707031 L 195.863281 306.222656 C 195.363281 305.507812 194.554688 305.140625 193.6875 305.242188 C 192.824219 305.339844 192.117188 305.878906 191.789062 306.6875 L 190.4375 310.046875 C 189.191406 313.144531 186.152344 313.101562 185.253906 313.015625 C 185.25 313.011719 185.25 313.011719 185.25 313.011719 L 185.21875 313.011719 C 183.691406 312.917969 182.871094 312.285156 181.234375 311.027344 C 180.46875 310.4375 179.511719 309.699219 178.203125 308.804688 L 178.019531 308.679688 L 178.285156 304.300781 L 175.011719 300.851562 L 170.957031 300.605469 L 167.445312 305.214844 L 150.722656 314.40625 L 127.246094 320.609375 L 124.691406 325.929688 Z M 173.097656 333.144531 L 173.03125 333.140625 L 130.960938 331.101562 L 123.679688 326.203125 L 126.691406 319.933594 L 150.476562 313.652344 L 166.917969 304.601562 L 170.582031 299.789062 L 175.375 300.078125 L 179.097656 304.007812 L 178.835938 308.28125 C 180.070312 309.128906 180.980469 309.832031 181.71875 310.398438 C 183.269531 311.59375 183.980469 312.140625 185.257812 312.222656 C 185.28125 312.222656 185.300781 312.222656 185.328125 312.226562 C 186.308594 312.320312 188.6875 312.269531 189.703125 309.753906 L 191.058594 306.390625 C 191.492188 305.3125 192.441406 304.585938 193.597656 304.453125 C 194.753906 304.320312 195.84375 304.816406 196.511719 305.769531 L 196.847656 306.253906 C 199.664062 310.285156 200.242188 313.8125 200.980469 318.277344 C 201.265625 320.023438 201.589844 321.996094 202.085938 324.183594 L 202.167969 324.546875 L 173.097656 333.144531 " fill-opacity="1" fill-rule="nonzero"/><path fill="#020202" d="M 124.183594 326.066406 L 126.734375 326.71875 C 133.632812 328.480469 140.707031 329.457031 147.820312 329.625 L 150.667969 329.691406 C 164.890625 330.035156 179.109375 328.792969 193.0625 326.003906 L 201.699219 324.273438 L 205.691406 328.363281 L 206.871094 338.097656 L 195.273438 342.320312 C 195.273438 342.320312 187.140625 341.863281 176.824219 341.269531 L 174.480469 338.625 L 170.613281 338.386719 L 167.9375 340.757812 C 151.808594 339.816406 134.503906 338.769531 134.355469 338.601562 C 134.082031 338.292969 125.265625 333.265625 125.265625 333.265625 L 123.929688 330.25 L 124.183594 326.066406 " fill-opacity="1" fill-rule="nonzero"/><path fill="#000000" d="M 167.628906 310.859375 C 167.542969 310.859375 167.457031 310.832031 167.386719 310.773438 L 162.957031 307.300781 C 162.785156 307.164062 162.753906 306.914062 162.890625 306.742188 C 163.027344 306.570312 163.273438 306.539062 163.445312 306.675781 L 167.875 310.152344 C 168.046875 310.289062 168.078125 310.535156 167.941406 310.707031 C 167.863281 310.808594 167.746094 310.859375 167.628906 310.859375 " fill-opacity="1" fill-rule="nonzero"/><path fill="#000000" d="M 163.472656 313.296875 C 163.386719 313.296875 163.300781 313.269531 163.226562 313.214844 L 158.800781 309.738281 C 158.628906 309.601562 158.597656 309.351562 158.734375 309.179688 C 158.867188 309.007812 159.117188 308.980469 159.289062 309.113281 L 163.714844 312.589844 C 163.886719 312.726562 163.917969 312.976562 163.785156 313.148438 C 163.703125 313.246094 163.589844 313.296875 163.472656 313.296875 " fill-opacity="1" fill-rule="nonzero"/><path fill="#000000" d="M 159.3125 315.738281 C 159.226562 315.738281 159.140625 315.707031 159.066406 315.652344 L 154.640625 312.175781 C 154.46875 312.039062 154.441406 311.789062 154.574219 311.617188 C 154.707031 311.445312 154.957031 311.417969 155.128906 311.550781 L 159.554688 315.03125 C 159.730469 315.164062 159.757812 315.414062 159.625 315.585938 C 159.546875 315.6875 159.429688 315.738281 159.3125 315.738281 " fill-opacity="1" fill-rule="nonzero"/><path fill="#955b50" d="M 168.667969 313.058594 L 149.722656 285.175781 L 105.335938 305.097656 L 116.453125 324.703125 L 168.667969 313.058594 " fill-opacity="1" fill-rule="nonzero"/><path fill="#000000" d="M 106.535156 305.082031 L 117.335938 324.285156 L 168.128906 313.113281 L 149.671875 285.640625 Z M 117.132812 325.128906 C 116.992188 325.128906 116.859375 325.054688 116.789062 324.925781 L 105.632812 305.09375 C 105.578125 304.996094 105.566406 304.882812 105.601562 304.773438 C 105.636719 304.667969 105.714844 304.582031 105.816406 304.535156 L 149.648438 284.78125 C 149.824219 284.703125 150.03125 284.761719 150.140625 284.921875 L 169.113281 313.152344 C 169.183594 313.261719 169.199219 313.398438 169.152344 313.523438 C 169.101562 313.644531 168.996094 313.734375 168.867188 313.761719 L 117.21875 325.121094 C 117.191406 325.125 117.160156 325.128906 117.132812 325.128906 " fill-opacity="1" fill-rule="nonzero"/><path fill="#ffffff" d="M 125.667969 324.5 L 125.453125 325.050781 C 123 331.355469 118.960938 333.527344 113.546875 339.246094 L 90.566406 320.152344 L 68.921875 284.152344 L 68.941406 275.828125 L 75.304688 274.917969 L 93.65625 291.101562 L 110.441406 299.792969 L 116.351562 300.15625 L 118.585938 303.976562 L 117.46875 308.9375 L 113.726562 311.125 C 113.675781 316.023438 113.023438 317.289062 114.078125 319.089844 C 114.113281 319.121094 115.574219 322.316406 119.023438 321.589844 L 122.570312 320.84375 C 124.6875 320.398438 126.453125 322.484375 125.667969 324.5 " fill-opacity="1" fill-rule="nonzero"/><path fill="#000000" d="M 113.796875 319.367188 C 113.796875 319.367188 113.800781 319.371094 113.800781 319.371094 C 113.800781 319.371094 113.796875 319.367188 113.796875 319.367188 Z M 113.800781 319.371094 Z M 113.800781 319.371094 Z M 113.800781 319.375 C 113.800781 319.375 113.800781 319.375 113.804688 319.375 C 113.800781 319.375 113.800781 319.375 113.800781 319.375 Z M 113.804688 319.375 Z M 113.804688 319.375 Z M 113.804688 319.375 C 113.804688 319.375 113.808594 319.375 113.808594 319.375 C 113.808594 319.375 113.804688 319.375 113.804688 319.375 Z M 113.808594 319.375 C 113.808594 319.375 113.808594 319.378906 113.808594 319.378906 C 113.808594 319.378906 113.808594 319.375 113.808594 319.375 Z M 90.871094 319.890625 L 113.515625 338.707031 C 114.980469 337.179688 116.359375 335.886719 117.585938 334.738281 C 120.816406 331.710938 123.367188 329.324219 125.085938 324.90625 L 125.300781 324.359375 C 125.617188 323.546875 125.46875 322.667969 124.90625 322.003906 C 124.34375 321.339844 123.5 321.054688 122.648438 321.230469 L 119.101562 321.976562 C 115.835938 322.664062 114.183594 320.113281 113.753906 319.316406 C 113.746094 319.304688 113.765625 319.335938 113.796875 319.367188 C 113.773438 319.34375 113.753906 319.316406 113.738281 319.289062 C 112.964844 317.96875 113.035156 316.9375 113.171875 314.875 C 113.234375 313.910156 113.316406 312.707031 113.332031 311.121094 C 113.332031 310.980469 113.40625 310.851562 113.527344 310.78125 L 117.117188 308.683594 L 118.167969 304.042969 L 116.117188 300.535156 L 110.414062 300.1875 C 110.359375 300.183594 110.304688 300.167969 110.257812 300.144531 L 93.472656 291.453125 C 93.445312 291.4375 93.417969 291.421875 93.394531 291.398438 L 75.179688 275.335938 L 69.335938 276.171875 L 69.316406 284.042969 Z M 113.546875 339.644531 C 113.457031 339.644531 113.367188 339.613281 113.292969 339.554688 L 90.316406 320.457031 C 90.28125 320.429688 90.25 320.394531 90.230469 320.355469 L 68.582031 284.355469 C 68.542969 284.296875 68.523438 284.222656 68.523438 284.152344 L 68.542969 275.828125 C 68.542969 275.632812 68.6875 275.464844 68.882812 275.4375 L 75.25 274.523438 C 75.363281 274.507812 75.480469 274.546875 75.566406 274.621094 L 93.878906 290.773438 L 110.546875 299.402344 L 116.375 299.757812 C 116.507812 299.769531 116.625 299.839844 116.695312 299.953125 L 118.929688 303.777344 C 118.980469 303.867188 118.996094 303.96875 118.972656 304.066406 L 117.855469 309.023438 C 117.828125 309.132812 117.761719 309.226562 117.667969 309.28125 L 114.121094 311.351562 C 114.101562 312.851562 114.023438 313.996094 113.960938 314.925781 C 113.832031 316.878906 113.773438 317.773438 114.417969 318.882812 C 114.429688 318.902344 114.4375 318.921875 114.449219 318.945312 C 114.917969 319.808594 116.285156 321.757812 118.941406 321.203125 L 122.488281 320.457031 C 123.625 320.21875 124.757812 320.605469 125.511719 321.492188 C 126.261719 322.378906 126.460938 323.558594 126.039062 324.644531 L 125.824219 325.195312 C 124.039062 329.777344 121.429688 332.222656 118.125 335.316406 C 116.839844 336.523438 115.378906 337.890625 113.835938 339.519531 C 113.757812 339.601562 113.652344 339.644531 113.546875 339.644531 " fill-opacity="1" fill-rule="nonzero"/><g clip-path="url(#550bbd019b)"><path fill="#020202" d="M 68.941406 275.828125 L 69.816406 278.308594 C 72.1875 285.023438 75.3125 291.441406 79.128906 297.453125 L 80.65625 299.855469 C 88.285156 311.863281 97.222656 322.992188 107.304688 333.03125 L 113.546875 339.246094 L 112.367188 344.839844 L 104.933594 351.238281 L 94.972656 343.949219 C 94.972656 343.949219 90.828125 336.933594 85.582031 328.03125 L 86.480469 324.613281 L 84.523438 321.265625 L 81.066406 320.359375 C 72.878906 306.433594 64.121094 291.472656 64.179688 291.257812 C 64.285156 290.851562 63.558594 280.730469 63.558594 280.730469 L 65.320312 277.945312 L 68.941406 275.828125 " fill-opacity="1" fill-rule="nonzero"/></g><path fill="#000000" d="M 106.070312 303.652344 C 106.0625 303.652344 106.050781 303.652344 106.042969 303.652344 C 105.824219 303.632812 105.660156 303.441406 105.675781 303.222656 L 106.105469 297.609375 C 106.121094 297.394531 106.308594 297.230469 106.527344 297.246094 C 106.746094 297.261719 106.910156 297.453125 106.894531 297.671875 L 106.464844 303.285156 C 106.449219 303.492188 106.277344 303.652344 106.070312 303.652344 " fill-opacity="1" fill-rule="nonzero"/><path fill="#000000" d="M 101.730469 301.550781 C 101.722656 301.550781 101.710938 301.550781 101.703125 301.550781 C 101.484375 301.535156 101.320312 301.34375 101.335938 301.125 L 101.765625 295.511719 C 101.78125 295.292969 101.96875 295.128906 102.191406 295.148438 C 102.40625 295.164062 102.570312 295.351562 102.554688 295.570312 L 102.125 301.1875 C 102.109375 301.394531 101.9375 301.550781 101.730469 301.550781 " fill-opacity="1" fill-rule="nonzero"/><path fill="#000000" d="M 97.394531 299.453125 C 97.382812 299.453125 97.371094 299.449219 97.363281 299.449219 C 97.144531 299.433594 96.980469 299.246094 97 299.027344 L 97.425781 293.410156 C 97.441406 293.195312 97.628906 293.03125 97.851562 293.046875 C 98.066406 293.0625 98.230469 293.253906 98.214844 293.472656 L 97.789062 299.085938 C 97.773438 299.292969 97.597656 299.453125 97.394531 299.453125 " fill-opacity="1" fill-rule="nonzero"/><path fill="#fed101" d="M 159.570312 307.335938 L 168 225.410156 C 170.105469 204.933594 194.246094 195.144531 210.019531 208.363281 L 226.644531 222.296875 L 317.839844 296.09375 L 306.238281 310.425781 C 293.15625 326.59375 269.449219 329.09375 253.285156 316.011719 L 213.238281 283.605469 L 199.382812 311.429688 L 159.570312 307.335938 " fill-opacity="1" fill-rule="nonzero"/><path fill="#fed101" d="M 146.59375 284.597656 L 193.242188 264.410156 C 207.085938 258.417969 221.503906 257.179688 235.992188 261.765625 L 346.585938 296.027344 L 341.886719 309.40625 C 334.460938 328.464844 311.292969 338.492188 290.144531 331.796875 L 217.277344 304.972656 L 168.660156 323.570312 L 146.59375 284.597656 " fill-opacity="1" fill-rule="nonzero"/><path fill="#000000" d="M 217.277344 304.574219 C 217.324219 304.574219 217.371094 304.585938 217.414062 304.601562 L 290.28125 331.425781 C 311.183594 338.042969 334.175781 328.101562 341.519531 309.261719 L 345.46875 297.371094 L 237.367188 262.59375 C 222.867188 258.003906 207.253906 258.777344 193.398438 264.773438 L 147.152344 284.785156 L 168.839844 323.078125 L 217.136719 304.601562 C 217.179688 304.585938 217.226562 304.574219 217.277344 304.574219 Z M 303.550781 334.261719 C 299.058594 334.261719 294.496094 333.589844 290.023438 332.175781 L 217.28125 305.398438 L 168.800781 323.941406 C 168.621094 324.011719 168.414062 323.9375 168.316406 323.765625 L 146.246094 284.792969 C 146.191406 284.695312 146.179688 284.578125 146.214844 284.46875 C 146.25 284.363281 146.332031 284.277344 146.433594 284.234375 L 193.085938 264.046875 C 207.113281 257.976562 222.925781 257.191406 237.605469 261.839844 L 346.089844 296.738281 C 346.191406 296.769531 346.277344 296.84375 346.324219 296.9375 C 346.371094 297.03125 346.378906 297.140625 346.347656 297.238281 L 342.265625 309.53125 C 336.339844 324.734375 320.464844 334.261719 303.550781 334.261719 " fill-opacity="1" fill-rule="nonzero"/><path fill="#000000" d="M 346.445312 294.238281 L 341.90625 309.882812 L 280.578125 276.320312 L 285.976562 272.292969 L 346.445312 294.238281 " fill-opacity="1" fill-rule="nonzero"/><path fill="#000000" d="M 260.753906 269.980469 C 260.710938 269.980469 260.671875 269.972656 260.632812 269.960938 L 237.367188 262.597656 C 222.867188 258.003906 207.25 258.78125 193.398438 264.773438 C 193.199219 264.859375 192.964844 264.769531 192.878906 264.566406 C 192.789062 264.367188 192.882812 264.132812 193.085938 264.046875 C 207.113281 257.976562 222.925781 257.191406 237.605469 261.839844 L 260.871094 269.207031 C 261.082031 269.269531 261.195312 269.496094 261.128906 269.703125 C 261.074219 269.871094 260.921875 269.976562 260.753906 269.980469 " fill-opacity="1" fill-rule="nonzero"/><path fill="#000000" d="M 322.664062 159.183594 C 323.488281 177.820312 308.597656 193.613281 289.398438 194.46875 C 270.203125 195.316406 253.96875 180.902344 253.140625 162.261719 C 252.316406 143.625 267.207031 127.828125 286.40625 126.976562 C 305.605469 126.125 321.835938 140.542969 322.664062 159.183594 " fill-opacity="1" fill-rule="nonzero"/><path fill="#955b50" d="M 295.335938 207.6875 L 307.34375 202.492188 L 295.332031 174.730469 L 283.324219 179.925781 L 295.335938 207.6875 " fill-opacity="1" fill-rule="nonzero"/><path fill="#955b50" d="M 295.167969 174.871094 C 297.898438 181.179688 295.441406 188.3125 289.683594 190.808594 C 283.921875 193.300781 277.039062 190.207031 274.308594 183.898438 C 271.578125 177.585938 274.035156 170.457031 279.796875 167.960938 C 285.554688 165.46875 292.4375 168.5625 295.167969 174.871094 " fill-opacity="1" fill-rule="nonzero"/><path fill="#ffffff" d="M 289.910156 184.800781 C 289.453125 185.820312 288.683594 186.707031 287.636719 187.296875 C 285.296875 188.601562 282.40625 187.964844 280.804688 185.925781 L 289.910156 184.800781 " fill-opacity="1" fill-rule="nonzero"/><path fill="#000000" d="M 285.382812 192.140625 C 283.800781 192.140625 282.199219 191.792969 280.667969 191.101562 C 277.726562 189.78125 275.375 187.355469 274.039062 184.269531 C 272.707031 181.183594 272.546875 177.808594 273.597656 174.761719 C 274.652344 171.703125 276.792969 169.34375 279.628906 168.117188 C 285.085938 165.753906 291.554688 168.261719 294.664062 173.945312 C 294.769531 174.136719 294.699219 174.378906 294.507812 174.480469 C 294.316406 174.585938 294.074219 174.515625 293.972656 174.324219 C 291.054688 169.003906 285.023438 166.640625 279.941406 168.839844 C 277.3125 169.980469 275.324219 172.175781 274.34375 175.019531 C 273.359375 177.882812 273.507812 181.054688 274.765625 183.957031 C 276.019531 186.859375 278.234375 189.140625 280.988281 190.382812 C 283.738281 191.617188 286.699219 191.664062 289.328125 190.53125 C 290.320312 190.097656 291.238281 189.507812 292.042969 188.777344 C 292.203125 188.632812 292.453125 188.644531 292.601562 188.804688 C 292.746094 188.964844 292.734375 189.21875 292.574219 189.363281 C 291.707031 190.152344 290.71875 190.789062 289.640625 191.253906 C 288.28125 191.84375 286.839844 192.140625 285.382812 192.140625 " fill-opacity="1" fill-rule="nonzero"/><path fill="#000000" d="M 282.441406 175.304688 L 274.617188 184.496094 C 274.472656 184.214844 274.324219 183.929688 274.195312 183.636719 C 271.480469 177.355469 273.921875 170.257812 279.65625 167.777344 C 285.390625 165.296875 292.714844 168.46875 295.429688 174.746094 C 295.613281 175.167969 295.769531 175.601562 295.910156 176.03125 L 282.441406 175.304688 " fill-opacity="1" fill-rule="nonzero"/><path fill="#000000" d="M 143.710938 188.765625 L 115.796875 188.765625 L 115.796875 104.910156 L 178.320312 100.570312 L 242.636719 100.65625 L 243.972656 188.765625 L 143.710938 188.765625 " fill-opacity="1" fill-rule="nonzero"/><path fill="#955b50" d="M 207.949219 200.585938 L 199.84375 194.011719 C 199.84375 194.011719 202.941406 188.890625 198.601562 183.976562 C 197.59375 182.835938 195.316406 180.679688 193.375 178.878906 C 191.164062 176.828125 189.242188 174.496094 187.640625 171.945312 L 185.808594 169.019531 C 184.886719 167.546875 182.972656 167.066406 181.464844 167.925781 L 181.144531 168.105469 C 179.617188 168.976562 179.0625 170.90625 179.894531 172.457031 L 185.273438 182.429688 L 179.859375 183.386719 C 177.085938 183.875 174.230469 183.582031 171.609375 182.539062 L 160.957031 178.535156 C 159.183594 177.871094 157.195312 178.613281 156.292969 180.277344 L 156.136719 180.5625 L 150.640625 177.851562 C 148.996094 177.101562 147.054688 177.78125 146.234375 179.390625 C 145.429688 180.972656 145.980469 182.90625 147.5 183.820312 L 184.910156 206.3125 L 196.242188 214.921875 L 207.949219 200.585938 " fill-opacity="1" fill-rule="nonzero"/><path fill="#8c7bff" d="M 112.234375 100.65625 L 176.320312 59.105469 L 240.410156 100.65625 L 176.324219 145.980469 L 112.234375 100.65625 " fill-opacity="1" fill-rule="nonzero"/><path fill="#020202" d="M 227.660156 176.902344 L 122.824219 176.902344 L 122.824219 47.863281 L 227.660156 47.863281 L 227.660156 176.902344 " fill-opacity="1" fill-rule="nonzero"/><path fill="#ffffff" d="M 229.820312 174.234375 L 124.984375 174.234375 L 124.984375 45.199219 L 229.820312 45.199219 L 229.820312 174.234375 " fill-opacity="1" fill-rule="nonzero"/><path fill="#000000" d="M 125.382812 173.839844 L 229.421875 173.839844 L 229.421875 45.59375 L 125.382812 45.59375 Z M 229.820312 174.632812 L 124.984375 174.632812 C 124.765625 174.632812 124.589844 174.453125 124.589844 174.234375 L 124.589844 45.195312 C 124.589844 44.980469 124.765625 44.800781 124.984375 44.800781 L 229.820312 44.800781 C 230.039062 44.800781 230.21875 44.980469 230.21875 45.195312 L 230.21875 174.234375 C 230.21875 174.453125 230.039062 174.632812 229.820312 174.632812 " fill-opacity="1" fill-rule="nonzero"/><path fill="#8c7bff" d="M 185.390625 92.839844 C 186.921875 91.269531 187.6875 89.132812 187.6875 86.4375 C 187.6875 83.777344 186.921875 81.667969 185.390625 80.117188 C 183.851562 78.566406 181.886719 77.789062 179.484375 77.789062 C 177.042969 77.789062 175.066406 78.574219 173.550781 80.144531 C 172.035156 81.714844 171.277344 83.8125 171.277344 86.4375 C 171.277344 89.097656 172.035156 91.222656 173.550781 92.8125 C 175.066406 94.402344 177.042969 95.195312 179.484375 95.195312 C 181.886719 95.195312 183.851562 94.410156 185.390625 92.839844 Z M 193.453125 64.042969 C 197.40625 66.109375 200.484375 68.992188 202.683594 72.6875 C 204.882812 76.382812 205.984375 80.558594 205.984375 85.214844 C 205.984375 90.019531 205.039062 93.78125 203.15625 96.496094 C 201.269531 99.214844 198.664062 100.570312 195.339844 100.570312 C 193.5625 100.570312 192.066406 100.15625 190.847656 99.324219 C 189.628906 98.492188 188.777344 97.300781 188.296875 95.75 C 186.082031 98.964844 182.757812 100.570312 178.320312 100.570312 C 175.804688 100.570312 173.535156 99.972656 171.5 98.769531 C 169.46875 97.570312 167.878906 95.898438 166.734375 93.753906 C 165.585938 91.609375 165.015625 89.171875 165.015625 86.4375 C 165.015625 83.738281 165.585938 81.328125 166.734375 79.199219 C 167.878906 77.078125 169.46875 75.414062 171.5 74.214844 C 173.535156 73.011719 175.804688 72.414062 178.320312 72.414062 C 180.277344 72.414062 182.042969 72.742188 183.613281 73.410156 C 185.183594 74.074219 186.507812 75.054688 187.578125 76.347656 L 187.578125 72.742188 L 193.730469 72.742188 L 193.730469 91.59375 C 193.730469 92.921875 193.996094 93.882812 194.535156 94.472656 C 195.070312 95.066406 195.761719 95.363281 196.613281 95.363281 C 198.128906 95.363281 199.28125 94.503906 200.078125 92.785156 C 200.871094 91.066406 201.269531 88.578125 201.269531 85.328125 C 201.269531 81.410156 200.371094 77.953125 198.582031 74.960938 C 196.789062 71.96875 194.285156 69.640625 191.070312 67.976562 C 187.851562 66.3125 184.15625 65.480469 179.980469 65.480469 C 175.769531 65.480469 172.035156 66.359375 168.785156 68.113281 C 165.53125 69.871094 163.019531 72.320312 161.246094 75.460938 C 159.46875 78.601562 158.585938 82.167969 158.585938 86.160156 C 158.585938 90.226562 159.460938 93.828125 161.214844 96.96875 C 162.972656 100.113281 165.457031 102.558594 168.671875 104.316406 C 171.890625 106.070312 175.582031 106.949219 179.761719 106.949219 C 181.570312 106.949219 183.410156 106.742188 185.277344 106.335938 C 187.140625 105.929688 188.890625 105.320312 190.515625 104.507812 L 192.011719 108.945312 C 190.386719 109.792969 188.476562 110.441406 186.273438 110.882812 C 184.074219 111.328125 181.90625 111.546875 179.761719 111.546875 C 174.585938 111.546875 170.011719 110.457031 166.039062 108.277344 C 162.066406 106.097656 158.980469 103.085938 156.78125 99.242188 C 154.582031 95.398438 153.484375 91.039062 153.484375 86.160156 C 153.484375 81.355469 154.59375 77.039062 156.8125 73.214844 C 159.027344 69.390625 162.140625 66.386719 166.152344 64.207031 C 170.160156 62.023438 174.769531 60.9375 179.980469 60.9375 C 185.007812 60.9375 189.496094 61.972656 193.453125 64.042969 " fill-opacity="1" fill-rule="nonzero"/><path fill="#fed101" d="M 140.148438 184.804688 L 112.234375 184.804688 L 112.234375 100.949219 L 176.324219 139.890625 L 240.410156 100.949219 L 240.410156 184.804688 L 140.148438 184.804688 " fill-opacity="1" fill-rule="nonzero"/><path fill="#000000" d="M 112.628906 184.40625 L 240.011719 184.40625 L 240.011719 101.363281 L 176.527344 140.226562 C 176.402344 140.304688 176.242188 140.304688 176.113281 140.226562 L 112.628906 101.363281 Z M 240.410156 185.199219 L 112.234375 185.199219 C 112.015625 185.199219 111.839844 185.023438 111.839844 184.804688 L 111.839844 100.65625 C 111.839844 100.511719 111.914062 100.382812 112.039062 100.308594 C 112.164062 100.242188 112.320312 100.242188 112.441406 100.320312 L 176.320312 139.425781 L 240.203125 100.320312 C 240.324219 100.242188 240.476562 100.242188 240.601562 100.308594 C 240.726562 100.382812 240.804688 100.511719 240.804688 100.65625 L 240.804688 184.804688 C 240.804688 185.023438 240.625 185.199219 240.410156 185.199219 " fill-opacity="1" fill-rule="nonzero"/><path fill="#000000" d="M 149.242188 177.941406 C 148.15625 177.941406 147.113281 178.539062 146.585938 179.570312 C 145.878906 180.960938 146.371094 182.675781 147.707031 183.480469 L 185.117188 205.972656 C 185.128906 205.980469 185.140625 205.984375 185.152344 205.996094 L 196.179688 214.375 L 207.386719 200.640625 L 199.59375 194.316406 C 199.441406 194.195312 199.402344 193.976562 199.503906 193.804688 C 199.625 193.605469 202.394531 188.867188 198.300781 184.238281 C 197.496094 183.328125 195.699219 181.570312 193.105469 179.167969 C 190.875 177.097656 188.925781 174.742188 187.304688 172.15625 L 185.472656 169.226562 C 184.664062 167.933594 182.988281 167.511719 181.660156 168.269531 L 181.339844 168.449219 C 180.011719 169.207031 179.519531 170.921875 180.246094 172.265625 L 185.625 182.242188 C 185.683594 182.355469 185.683594 182.488281 185.628906 182.601562 C 185.574219 182.714844 185.46875 182.796875 185.34375 182.820312 L 179.929688 183.773438 C 177.078125 184.277344 174.152344 183.976562 171.464844 182.90625 L 160.816406 178.90625 C 159.238281 178.3125 157.445312 178.984375 156.640625 180.464844 L 156.488281 180.75 C 156.386719 180.9375 156.152344 181.011719 155.964844 180.917969 L 150.464844 178.203125 C 150.070312 178.027344 149.652344 177.941406 149.242188 177.941406 Z M 196.242188 215.316406 C 196.160156 215.316406 196.074219 215.289062 196.003906 215.238281 L 184.691406 206.640625 L 147.296875 184.15625 C 145.605469 183.140625 144.984375 180.96875 145.878906 179.210938 C 146.800781 177.410156 148.960938 176.652344 150.800781 177.488281 L 155.972656 180.039062 C 156.976562 178.246094 159.167969 177.441406 161.09375 178.164062 L 171.75 182.167969 C 174.308594 183.1875 177.085938 183.472656 179.792969 182.996094 L 184.664062 182.136719 L 179.546875 172.644531 C 178.617188 170.921875 179.246094 168.730469 180.945312 167.761719 L 181.269531 167.582031 C 182.964844 166.613281 185.109375 167.152344 186.144531 168.808594 L 187.976562 171.734375 C 189.558594 174.261719 191.46875 176.566406 193.644531 178.589844 C 195.464844 180.277344 197.855469 182.535156 198.898438 183.714844 C 202.765625 188.089844 200.941406 192.691406 200.34375 193.90625 L 208.195312 200.277344 C 208.277344 200.34375 208.332031 200.441406 208.339844 200.546875 C 208.351562 200.648438 208.320312 200.753906 208.253906 200.835938 L 196.550781 215.171875 C 196.472656 215.265625 196.359375 215.316406 196.242188 215.316406 " fill-opacity="1" fill-rule="nonzero"/><path fill="#955b50" d="M 180.121094 194.132812 L 177.414062 192.273438 C 175.691406 191.089844 174.347656 189.433594 173.550781 187.5 L 169.175781 176.925781 C 168.546875 175.40625 166.8125 174.671875 165.28125 175.28125 C 163.828125 175.859375 163.058594 177.457031 163.511719 178.953125 L 167.242188 191.214844 C 167.542969 192.203125 168.042969 193.125 168.707031 193.921875 L 172.277344 198.203125 L 180.121094 194.132812 " fill-opacity="1" fill-rule="nonzero"/><path fill="#955b50" d="M 173.117188 188.964844 L 170.136719 187.578125 C 168.242188 186.695312 166.644531 185.28125 165.535156 183.511719 L 159.476562 173.804688 C 158.605469 172.410156 156.773438 171.972656 155.363281 172.824219 C 154.023438 173.636719 153.527344 175.339844 154.226562 176.742188 L 159.933594 188.214844 C 160.394531 189.140625 161.035156 189.96875 161.820312 190.644531 L 166.054688 194.277344 L 173.117188 188.964844 " fill-opacity="1" fill-rule="nonzero"/><path fill="#000000" d="M 161.820312 191.039062 C 161.730469 191.039062 161.636719 191.007812 161.5625 190.945312 C 160.734375 190.230469 160.066406 189.371094 159.578125 188.390625 L 153.871094 176.917969 C 153.089844 175.34375 153.652344 173.394531 155.15625 172.484375 C 156.742188 171.527344 158.828125 172.027344 159.8125 173.597656 L 164.4375 181.070312 C 164.550781 181.257812 164.496094 181.503906 164.308594 181.617188 C 164.121094 181.730469 163.878906 181.671875 163.765625 181.488281 L 159.136719 174.015625 C 158.386719 172.8125 156.785156 172.429688 155.566406 173.164062 C 154.414062 173.863281 153.980469 175.355469 154.578125 176.566406 L 160.285156 188.039062 C 160.726562 188.921875 161.328125 189.699219 162.078125 190.34375 C 162.246094 190.484375 162.265625 190.734375 162.121094 190.902344 C 162.042969 190.992188 161.933594 191.039062 161.820312 191.039062 " fill-opacity="1" fill-rule="nonzero"/><path fill="#000000" d="M 170.640625 196.070312 C 170.550781 196.070312 170.457031 196.042969 170.382812 195.976562 C 167.992188 193.898438 166.707031 192.0625 166.085938 189.835938 L 163.128906 179.058594 C 162.621094 177.386719 163.5 175.5625 165.136719 174.914062 C 166.855469 174.230469 168.832031 175.066406 169.539062 176.777344 L 173.914062 187.347656 C 174.6875 189.214844 175.972656 190.804688 177.636719 191.945312 L 183.441406 195.320312 C 183.628906 195.429688 183.695312 195.671875 183.582031 195.859375 C 183.472656 196.046875 183.230469 196.113281 183.042969 196.003906 L 177.214844 192.613281 C 175.398438 191.371094 174.015625 189.660156 173.183594 187.652344 L 168.808594 177.078125 C 168.265625 175.765625 166.75 175.125 165.425781 175.648438 C 164.171875 176.148438 163.496094 177.546875 163.890625 178.839844 L 166.851562 189.625 C 167.433594 191.71875 168.605469 193.382812 170.902344 195.375 C 171.066406 195.519531 171.082031 195.769531 170.941406 195.933594 C 170.863281 196.027344 170.753906 196.070312 170.640625 196.070312 " fill-opacity="1" fill-rule="nonzero"/><path fill="#000000" d="M 187.777344 187.332031 C 187.636719 187.332031 187.5 187.257812 187.429688 187.128906 L 184.867188 182.496094 C 184.761719 182.308594 184.832031 182.066406 185.023438 181.960938 C 185.214844 181.855469 185.457031 181.925781 185.5625 182.117188 L 188.121094 186.746094 C 188.226562 186.9375 188.160156 187.179688 187.96875 187.285156 C 187.90625 187.316406 187.839844 187.332031 187.777344 187.332031 " fill-opacity="1" fill-rule="nonzero"/><path fill="#8c7bff" d="M 278.554688 200.359375 L 233.976562 217.109375 L 206.503906 195.726562 L 191.300781 215.882812 L 221.351562 239.273438 C 226.652344 243.398438 233.667969 244.464844 239.921875 242.09375 L 286.375 224.511719 L 278.554688 200.359375 " fill-opacity="1" fill-rule="nonzero"/><path fill="#8c7bff" d="M 272.582031 209.445312 C 272.742188 212.199219 271.082031 215.933594 267.8125 218.300781 C 264.734375 220.523438 262.949219 224.363281 263.503906 228.429688 C 263.910156 231.421875 265.5 233.945312 267.734375 235.589844 C 269.671875 237.019531 270.886719 239.253906 270.855469 241.6875 L 270.621094 262.523438 C 270.613281 263.109375 271.089844 263.578125 271.664062 263.554688 L 349.113281 303.015625 L 337.101562 215.523438 C 332.78125 204.726562 317.996094 198.210938 306.535156 198.730469 L 281.082031 199.875 C 276.121094 200.097656 272.292969 204.40625 272.582031 209.445312 " fill-opacity="1" fill-rule="nonzero"/><path fill="#000000" d="M 270.660156 263.996094 C 270.660156 263.996094 270.660156 263.996094 270.65625 263.996094 C 270.4375 263.992188 270.265625 263.8125 270.265625 263.59375 L 270.519531 241.261719 C 270.546875 239.199219 269.554688 237.28125 267.882812 236.140625 C 265.304688 234.382812 263.589844 231.59375 263.167969 228.480469 C 262.613281 224.398438 264.324219 220.375 267.636719 217.976562 C 270.378906 215.992188 272.066406 213.023438 272.265625 209.832031 C 272.277344 209.613281 272.472656 209.445312 272.683594 209.460938 C 272.902344 209.476562 273.070312 209.664062 273.054688 209.882812 C 272.84375 213.308594 271.035156 216.492188 268.097656 218.617188 C 265.027344 220.84375 263.4375 224.582031 263.953125 228.375 C 264.34375 231.265625 265.9375 233.855469 268.328125 235.484375 C 270.222656 236.777344 271.339844 238.941406 271.3125 241.273438 L 271.058594 263.601562 C 271.054688 263.820312 270.878906 263.996094 270.660156 263.996094 " fill-opacity="1" fill-rule="nonzero"/><path fill="#000000" d="M 292.5 233.957031 C 292.4375 233.957031 292.378906 233.945312 292.320312 233.914062 C 289.03125 232.203125 286.835938 228.964844 286.445312 225.246094 C 285.820312 219.246094 289.945312 213.925781 295.84375 213.132812 C 296.0625 213.101562 296.257812 213.253906 296.289062 213.46875 C 296.316406 213.6875 296.164062 213.886719 295.949219 213.914062 C 290.480469 214.652344 286.652344 219.589844 287.234375 225.164062 C 287.59375 228.617188 289.632812 231.625 292.683594 233.210938 C 292.878906 233.3125 292.953125 233.550781 292.851562 233.746094 C 292.78125 233.882812 292.644531 233.957031 292.5 233.957031 " fill-opacity="1" fill-rule="nonzero"/><path fill="#955b50" d="M 281.960938 255.65625 C 281.339844 255.292969 278.320312 252 272.929688 252.03125 L 270.789062 252.042969 C 268.398438 252.058594 267.914062 252.972656 265.535156 252.988281 L 255.695312 253.046875 C 254.261719 253.054688 253.101562 254.242188 253.109375 255.703125 L 253.113281 255.902344 C 253.121094 257.363281 254.292969 258.539062 255.730469 258.53125 L 281.972656 258.375 L 281.960938 255.65625 " fill-opacity="1" fill-rule="nonzero"/><path fill="#955b50" d="M 277.84375 257.917969 L 268.179688 265.65625 C 265.722656 267.621094 262.6875 268.691406 259.554688 268.695312 C 253.496094 268.699219 250.746094 268.503906 246.554688 269.554688 L 245.964844 269.703125 C 244.363281 270.105469 242.820312 268.882812 242.808594 267.210938 L 242.808594 266.992188 C 242.804688 265.800781 243.605469 264.757812 244.746094 264.46875 C 247.222656 263.847656 249.542969 263.195312 253.246094 263.171875 L 256.625 263.152344 C 259.738281 263.132812 262.757812 262.058594 265.199219 260.097656 L 267.835938 257.976562 L 277.84375 257.917969 " fill-opacity="1" fill-rule="nonzero"/><path fill="#955b50" d="M 275.597656 273.949219 L 258.476562 274.160156 C 256.65625 274.183594 254.855469 273.808594 253.1875 273.066406 L 252.0625 272.5625 C 250.082031 271.675781 249.183594 269.328125 250.054688 267.3125 C 250.378906 266.5625 251.242188 266.222656 251.980469 266.550781 L 253.6875 267.316406 C 255.742188 268.234375 257.964844 268.695312 260.210938 268.675781 L 275.5625 268.519531 L 275.597656 273.949219 " fill-opacity="1" fill-rule="nonzero"/><path fill="#955b50" d="M 279.5625 277.273438 C 277.351562 278.621094 274.832031 279.355469 272.253906 279.398438 L 266.746094 279.496094 C 264.929688 279.519531 263.125 279.144531 261.460938 278.402344 L 260.335938 277.898438 C 258.351562 277.011719 257.453125 274.660156 258.328125 272.648438 C 258.652344 271.898438 259.515625 271.554688 260.25 271.886719 L 265.078125 274.042969 L 285.195312 273.71875 L 279.5625 277.273438 " fill-opacity="1" fill-rule="nonzero"/><path fill="#955b50" d="M 269.621094 255.75 L 260.109375 267.808594 L 258.105469 274.085938 L 296.105469 273.839844 L 296 255.59375 L 269.621094 255.75 " fill-opacity="1" fill-rule="nonzero"/><path fill="#020202" d="M 288.539062 255.609375 L 296 255.59375 L 296.105469 273.839844 L 290.730469 273.875 L 288.539062 255.609375 " fill-opacity="1" fill-rule="nonzero"/><path fill="#000000" d="M 245.347656 270.175781 C 244.710938 270.175781 244.085938 269.964844 243.566406 269.5625 C 242.839844 269 242.417969 268.144531 242.414062 267.214844 L 242.414062 266.996094 C 242.40625 265.613281 243.324219 264.421875 244.644531 264.085938 L 245.152344 263.960938 C 247.410156 263.390625 249.742188 262.796875 253.242188 262.777344 L 256.625 262.757812 C 259.632812 262.738281 262.589844 261.683594 264.949219 259.785156 L 266.957031 258.171875 C 267.132812 258.035156 267.378906 258.0625 267.515625 258.230469 C 267.652344 258.402344 267.625 258.652344 267.453125 258.789062 L 265.445312 260.40625 C 262.945312 262.414062 259.816406 263.53125 256.628906 263.546875 L 253.25 263.570312 C 249.84375 263.589844 247.660156 264.140625 245.347656 264.726562 L 244.839844 264.855469 C 243.871094 265.097656 243.199219 265.976562 243.207031 266.992188 L 243.207031 267.210938 C 243.210938 267.894531 243.519531 268.523438 244.050781 268.9375 C 244.574219 269.339844 245.230469 269.476562 245.863281 269.320312 L 246.457031 269.171875 C 250.074219 268.265625 252.707031 268.277344 257.0625 268.292969 C 258.394531 268.296875 259.910156 268.304688 261.675781 268.285156 C 262.023438 268.285156 264.46875 268.269531 266.375 268.257812 C 267.960938 268.253906 269.515625 268.425781 271.042969 268.78125 L 271.503906 268.886719 C 271.71875 268.9375 271.851562 269.152344 271.800781 269.363281 C 271.75 269.578125 271.539062 269.710938 271.328125 269.660156 L 270.863281 269.554688 C 269.394531 269.210938 267.882812 269.046875 266.378906 269.050781 C 264.472656 269.0625 262.03125 269.074219 261.683594 269.078125 C 259.914062 269.097656 258.394531 269.089844 257.058594 269.085938 C 252.617188 269.066406 250.167969 269.054688 246.648438 269.941406 L 246.058594 270.089844 C 245.824219 270.148438 245.585938 270.175781 245.347656 270.175781 " fill-opacity="1" fill-rule="nonzero"/><path fill="#000000" d="M 271.445312 275.019531 C 271.417969 275.019531 271.390625 275.015625 271.363281 275.007812 L 270.796875 274.886719 C 269.347656 274.566406 267.867188 274.414062 266.378906 274.4375 L 258.480469 274.558594 C 256.59375 274.578125 254.757812 274.199219 253.027344 273.429688 L 251.902344 272.925781 C 250.355469 272.234375 249.34375 270.679688 249.324219 268.964844 C 249.324219 268.746094 249.5 268.566406 249.71875 268.5625 C 249.71875 268.5625 249.71875 268.5625 249.722656 268.5625 C 249.9375 268.5625 250.117188 268.738281 250.117188 268.957031 C 250.132812 270.363281 250.960938 271.636719 252.226562 272.203125 L 253.351562 272.703125 C 254.976562 273.429688 256.699219 273.785156 258.46875 273.765625 L 266.363281 273.648438 C 267.910156 273.628906 269.457031 273.78125 270.96875 274.109375 L 271.53125 274.238281 C 271.746094 274.285156 271.878906 274.496094 271.832031 274.707031 C 271.792969 274.890625 271.628906 275.019531 271.445312 275.019531 " fill-opacity="1" fill-rule="nonzero"/><path fill="#000000" d="M 266.585938 279.894531 C 264.753906 279.894531 262.976562 279.511719 261.300781 278.761719 L 260.171875 278.261719 C 258.558594 277.539062 257.546875 275.914062 257.597656 274.121094 C 257.605469 273.902344 257.789062 273.730469 258.003906 273.738281 C 258.222656 273.746094 258.394531 273.925781 258.390625 274.144531 C 258.347656 275.613281 259.171875 276.949219 260.496094 277.539062 L 261.621094 278.039062 C 263.246094 278.765625 264.96875 279.125 266.742188 279.101562 L 272.246094 279.003906 C 274.75 278.957031 277.207031 278.242188 279.355469 276.9375 L 284.945312 273.511719 L 295.710938 273.445312 L 295.609375 255.992188 L 281.851562 256.054688 L 281.757812 256 C 281.636719 255.925781 281.484375 255.800781 281.253906 255.613281 C 280.09375 254.65625 277.386719 252.425781 273.007812 252.425781 C 272.984375 252.425781 272.957031 252.425781 272.929688 252.425781 L 270.792969 252.441406 C 269.65625 252.445312 268.984375 252.664062 268.277344 252.894531 C 267.542969 253.128906 266.785156 253.375 265.539062 253.382812 L 255.699219 253.441406 C 254.480469 253.449219 253.5 254.460938 253.503906 255.703125 L 253.507812 255.902344 C 253.511719 256.503906 253.742188 257.066406 254.164062 257.488281 C 254.582031 257.90625 255.128906 258.136719 255.710938 258.136719 C 255.71875 258.136719 255.722656 258.136719 255.726562 258.136719 L 270.679688 258.046875 C 270.679688 258.046875 270.679688 258.046875 270.683594 258.046875 C 270.898438 258.046875 271.074219 258.222656 271.078125 258.441406 C 271.078125 258.660156 270.902344 258.839844 270.683594 258.839844 L 255.730469 258.925781 C 255.722656 258.925781 255.71875 258.925781 255.710938 258.925781 C 254.917969 258.925781 254.167969 258.617188 253.601562 258.046875 C 253.035156 257.476562 252.71875 256.71875 252.714844 255.90625 L 252.714844 255.707031 C 252.703125 254.03125 254.042969 252.660156 255.695312 252.652344 L 265.53125 252.589844 C 266.660156 252.585938 267.324219 252.371094 268.03125 252.140625 C 268.769531 251.902344 269.53125 251.65625 270.785156 251.648438 L 272.929688 251.636719 C 277.644531 251.605469 280.628906 254.074219 281.757812 255.003906 C 281.878906 255.101562 281.996094 255.199219 282.078125 255.261719 L 296.394531 255.195312 L 296.503906 274.234375 L 285.171875 274.300781 L 279.769531 277.609375 C 277.5 278.992188 274.902344 279.746094 272.261719 279.792969 L 266.753906 279.894531 C 266.699219 279.894531 266.644531 279.894531 266.585938 279.894531 " fill-opacity="1" fill-rule="nonzero"/><path fill="#8c7bff" d="M 350.65625 258.128906 L 349.496094 227.660156 C 348.855469 210.675781 334.71875 197.46875 318.003906 198.234375 L 304.539062 198.851562 L 324.898438 223.675781 L 326.023438 250.691406 L 290.644531 252.324219 L 291.757812 277.195312 L 334.851562 275.203125 C 343.796875 274.785156 350.800781 267.222656 350.65625 258.128906 " fill-opacity="1" fill-rule="nonzero"/><g clip-path="url(#cc3b50da83)"><path fill="#000000" d="M 291.382812 277.609375 L 290.234375 251.945312 L 325.609375 250.316406 L 324.503906 223.691406 C 324.496094 223.472656 324.664062 223.289062 324.882812 223.28125 C 325.101562 223.277344 325.285156 223.4375 325.292969 223.660156 L 326.4375 251.070312 L 291.058594 252.699219 L 292.136719 276.78125 L 334.835938 274.804688 C 343.625 274.398438 350.402344 267.074219 350.261719 258.132812 L 349.097656 227.675781 C 348.789062 219.476562 345.320312 211.925781 339.335938 206.417969 C 333.480469 201.035156 325.914062 198.265625 318.023438 198.628906 L 305.898438 199.183594 C 305.675781 199.191406 305.492188 199.027344 305.484375 198.808594 C 305.476562 198.589844 305.644531 198.40625 305.863281 198.394531 L 317.988281 197.839844 C 326.085938 197.46875 333.859375 200.304688 339.871094 205.835938 C 346.015625 211.488281 349.574219 219.234375 349.890625 227.644531 L 351.050781 258.109375 C 351.199219 267.492188 344.09375 275.167969 334.871094 275.597656 L 291.382812 277.609375 " fill-opacity="1" fill-rule="nonzero"/></g><path fill="#000000" d="M 325.828125 251.097656 C 325.617188 251.097656 325.441406 250.933594 325.429688 250.71875 C 325.421875 250.503906 325.589844 250.316406 325.808594 250.308594 L 333 249.976562 C 333.21875 249.96875 333.402344 250.132812 333.410156 250.351562 C 333.421875 250.570312 333.253906 250.757812 333.035156 250.765625 L 325.847656 251.097656 C 325.835938 251.097656 325.832031 251.097656 325.828125 251.097656 " fill-opacity="1" fill-rule="nonzero"/><path fill="#4ada85" d="M 89.664062 68.25 L 57.863281 67.777344 L 45.695312 38.292969 L 89.664062 68.25 " fill-opacity="1" fill-rule="nonzero"/><path fill="#ffffff" d="M 73.414062 92.667969 C 73.332031 92.667969 73.253906 92.644531 73.1875 92.601562 L 57.359375 81.8125 C 57.179688 81.691406 57.132812 81.445312 57.253906 81.265625 C 57.378906 81.082031 57.625 81.035156 57.804688 81.160156 L 73.308594 91.71875 L 80.394531 81.246094 C 80.515625 81.0625 80.761719 81.019531 80.945312 81.140625 C 81.125 81.261719 81.171875 81.511719 81.050781 81.691406 L 73.742188 92.496094 C 73.679688 92.582031 73.589844 92.644531 73.488281 92.660156 C 73.460938 92.667969 73.4375 92.667969 73.414062 92.667969 " fill-opacity="1" fill-rule="nonzero"/><path fill="#000000" d="M 57.582031 81.878906 C 57.503906 81.878906 57.429688 81.859375 57.359375 81.8125 L 29.21875 62.640625 C 29.039062 62.515625 28.992188 62.273438 29.117188 62.089844 L 45.367188 38.070312 C 45.425781 37.984375 45.519531 37.925781 45.621094 37.902344 C 45.726562 37.886719 45.832031 37.90625 45.917969 37.964844 L 89.890625 67.921875 C 90.070312 68.046875 90.117188 68.292969 89.992188 68.472656 L 81.050781 81.6875 C 80.929688 81.871094 80.683594 81.917969 80.5 81.792969 C 80.320312 81.671875 80.273438 81.425781 80.394531 81.242188 L 89.117188 68.355469 L 45.800781 38.84375 L 29.992188 62.207031 L 57.804688 81.15625 C 57.984375 81.28125 58.03125 81.527344 57.910156 81.710938 C 57.832031 81.820312 57.707031 81.878906 57.582031 81.878906 " fill-opacity="1" fill-rule="nonzero"/><path fill="#000000" d="M 89.664062 68.648438 C 89.507812 68.648438 89.363281 68.558594 89.300781 68.402344 L 77.230469 39.160156 L 45.691406 38.691406 C 45.472656 38.6875 45.296875 38.507812 45.300781 38.289062 C 45.304688 38.074219 45.480469 37.898438 45.695312 37.898438 C 45.699219 37.898438 45.699219 37.898438 45.699219 37.898438 L 77.5 38.371094 C 77.660156 38.375 77.800781 38.46875 77.863281 38.617188 L 90.03125 68.101562 C 90.113281 68.300781 90.019531 68.535156 89.816406 68.617188 C 89.765625 68.640625 89.714844 68.648438 89.664062 68.648438 " fill-opacity="1" fill-rule="nonzero"/><path fill="#000000" d="M 103.570312 250.839844 C 95.695312 250.839844 87.972656 248.628906 81.160156 244.328125 C 71.613281 238.304688 64.996094 228.902344 62.53125 217.859375 C 57.4375 195.046875 71.839844 172.238281 94.640625 167.007812 C 100.515625 165.664062 106.460938 165.570312 112.3125 166.730469 C 112.527344 166.773438 112.664062 166.980469 112.621094 167.195312 C 112.578125 167.410156 112.371094 167.550781 112.15625 167.507812 C 106.417969 166.367188 100.582031 166.460938 94.816406 167.78125 C 72.441406 172.910156 58.304688 195.296875 63.304688 217.6875 C 65.722656 228.523438 72.214844 237.75 81.585938 243.660156 C 90.964844 249.578125 102.101562 251.46875 112.945312 248.980469 C 135.320312 243.851562 149.460938 221.464844 144.460938 199.078125 C 143.289062 193.84375 141.171875 188.976562 138.164062 184.609375 C 138.042969 184.429688 138.085938 184.179688 138.265625 184.058594 C 138.445312 183.933594 138.695312 183.980469 138.816406 184.15625 C 141.882812 188.609375 144.042969 193.570312 145.234375 198.902344 C 150.324219 221.714844 135.921875 244.527344 113.121094 249.753906 C 109.945312 250.480469 106.746094 250.839844 103.570312 250.839844 " fill-opacity="1" fill-rule="nonzero"/><path fill="#ffffff" d="M 138.492188 184.777344 C 138.367188 184.777344 138.242188 184.71875 138.164062 184.609375 C 132.113281 175.820312 122.632812 169.585938 112.15625 167.507812 C 111.941406 167.464844 111.804688 167.257812 111.847656 167.042969 C 111.886719 166.828125 112.097656 166.6875 112.3125 166.730469 C 122.988281 168.851562 132.648438 175.203125 138.816406 184.15625 C 138.941406 184.339844 138.894531 184.585938 138.714844 184.710938 C 138.648438 184.753906 138.570312 184.777344 138.492188 184.777344 " fill-opacity="1" fill-rule="nonzero"/><path fill="#fda4ff" d="M 123.238281 222.59375 L 116.851562 216.480469 C 115.988281 215.695312 114.101562 215.285156 111.820312 216.414062 C 109.671875 217.472656 106.226562 219.128906 100.09375 211.074219 C 93.964844 203.027344 96.207031 199.871094 98.042969 198.328125 C 98.316406 198.09375 100.398438 195.769531 99.300781 193.4375 L 96.03125 187.382812 C 93.28125 182.699219 89.265625 186.210938 89.03125 186.40625 C 82.476562 191.925781 84.167969 204.714844 93.101562 216.441406 C 102.035156 228.164062 113.890625 233.164062 120.921875 228.265625 C 121.171875 228.089844 125.410156 224.855469 123.238281 222.59375 " fill-opacity="1" fill-rule="nonzero"/></svg>