<svg xmlns="http://www.w3.org/2000/svg" xmlns:xlink="http://www.w3.org/1999/xlink" width="342" zoomAndPan="magnify" viewBox="0 0 256.5 60" height="80" preserveAspectRatio="xMidYMid meet" version="1.0"><defs><g/><clipPath id="ff6c16f9f4"><path d="M 47 3.464844 L 62 3.464844 L 62 11 L 47 11 Z M 47 3.464844 " clip-rule="nonzero"/></clipPath><clipPath id="2e2099e3d9"><path d="M 31.367188 11 L 40 11 L 40 21 L 31.367188 21 Z M 31.367188 11 " clip-rule="nonzero"/></clipPath><clipPath id="f7c59c7a23"><path d="M 68 11 L 76.78125 11 L 76.78125 21 L 68 21 Z M 68 11 " clip-rule="nonzero"/></clipPath><clipPath id="65f2c49026"><path d="M 32 12 L 76 12 L 76 57.960938 L 32 57.960938 Z M 32 12 " clip-rule="nonzero"/></clipPath><clipPath id="b0eb394f19"><path d="M 31.367188 11 L 76.78125 11 L 76.78125 57.960938 L 31.367188 57.960938 Z M 31.367188 11 " clip-rule="nonzero"/></clipPath></defs><path fill="#fbfcf5" d="M 56.824219 13.191406 L 51.324219 13.191406 L 51.324219 8.347656 L 56.824219 8.347656 L 56.824219 13.191406 " fill-opacity="1" fill-rule="nonzero"/><path fill="#51304c" d="M 52.117188 12.378906 L 56.03125 12.378906 L 56.03125 10.597656 L 52.117188 10.597656 Z M 56.824219 14 L 51.324219 14 C 50.886719 14 50.53125 13.636719 50.53125 13.191406 L 50.53125 9.785156 C 50.53125 9.339844 50.886719 8.972656 51.324219 8.972656 L 56.824219 8.972656 C 57.261719 8.972656 57.617188 9.339844 57.617188 9.785156 L 57.617188 13.191406 C 57.617188 13.636719 57.261719 14 56.824219 14 " fill-opacity="1" fill-rule="nonzero"/><path fill="#6567fd" d="M 57.527344 9.785156 L 50.621094 9.785156 C 49.128906 9.785156 47.921875 8.550781 47.921875 7.027344 C 47.921875 5.503906 49.128906 4.265625 50.621094 4.265625 L 57.527344 4.265625 C 59.019531 4.265625 60.226562 5.503906 60.226562 7.027344 C 60.226562 8.550781 59.019531 9.785156 57.527344 9.785156 " fill-opacity="1" fill-rule="nonzero"/><g clip-path="url(#ff6c16f9f4)"><path fill="#51304c" d="M 50.621094 5.078125 C 49.570312 5.078125 48.71875 5.953125 48.71875 7.027344 C 48.71875 8.101562 49.570312 8.972656 50.621094 8.972656 L 57.527344 8.972656 C 58.578125 8.972656 59.433594 8.101562 59.433594 7.027344 C 59.433594 5.953125 58.578125 5.078125 57.527344 5.078125 Z M 57.527344 10.597656 L 50.621094 10.597656 C 48.695312 10.597656 47.128906 8.996094 47.128906 7.027344 C 47.128906 5.058594 48.695312 3.453125 50.621094 3.453125 L 57.527344 3.453125 C 59.453125 3.453125 61.019531 5.058594 61.019531 7.027344 C 61.019531 8.996094 59.453125 10.597656 57.527344 10.597656 " fill-opacity="1" fill-rule="nonzero"/></g><path fill="#fbfcf5" d="M 67.605469 18.773438 L 69.808594 21.023438 L 72.90625 17.859375 L 70.703125 15.605469 L 67.605469 18.773438 " fill-opacity="1" fill-rule="nonzero"/><path fill="#51304c" d="M 68.730469 18.773438 L 69.808594 19.875 L 71.785156 17.859375 L 70.703125 16.753906 Z M 69.808594 21.835938 C 69.597656 21.835938 69.394531 21.75 69.246094 21.597656 L 67.046875 19.347656 C 66.734375 19.03125 66.734375 18.515625 67.046875 18.199219 L 70.140625 15.03125 C 70.453125 14.714844 70.957031 14.714844 71.265625 15.03125 L 73.464844 17.28125 C 73.777344 17.597656 73.777344 18.113281 73.464844 18.429688 L 70.371094 21.597656 C 70.222656 21.75 70.019531 21.835938 69.808594 21.835938 " fill-opacity="1" fill-rule="nonzero"/><path fill="#fbfcf5" d="M 40.542969 18.773438 L 38.339844 21.023438 L 35.242188 17.859375 L 37.445312 15.605469 L 40.542969 18.773438 " fill-opacity="1" fill-rule="nonzero"/><path fill="#51304c" d="M 36.363281 17.859375 L 38.339844 19.875 L 39.421875 18.773438 L 37.445312 16.753906 Z M 38.339844 21.835938 C 38.128906 21.835938 37.925781 21.75 37.777344 21.597656 L 34.683594 18.429688 C 34.371094 18.113281 34.371094 17.597656 34.683594 17.28125 L 36.882812 15.03125 C 37.191406 14.714844 37.695312 14.714844 38.007812 15.03125 L 41.101562 18.199219 C 41.414062 18.515625 41.414062 19.03125 41.101562 19.347656 L 38.902344 21.597656 C 38.753906 21.75 38.550781 21.835938 38.339844 21.835938 " fill-opacity="1" fill-rule="nonzero"/><path fill="#6567fd" d="M 38.347656 16.425781 L 36.042969 18.78125 C 35.195312 19.648438 33.820312 19.648438 32.972656 18.78125 C 32.121094 17.914062 32.121094 16.507812 32.972656 15.640625 L 35.277344 13.28125 C 36.125 12.414062 37.5 12.414062 38.347656 13.28125 C 39.195312 14.148438 39.195312 15.554688 38.347656 16.425781 " fill-opacity="1" fill-rule="nonzero"/><g clip-path="url(#2e2099e3d9)"><path fill="#51304c" d="M 38.347656 16.425781 L 38.351562 16.425781 Z M 36.8125 13.445312 C 36.460938 13.445312 36.105469 13.582031 35.839844 13.855469 L 33.53125 16.210938 C 33.269531 16.480469 33.128906 16.835938 33.128906 17.210938 C 33.128906 17.585938 33.269531 17.941406 33.53125 18.207031 C 34.050781 18.742188 34.960938 18.742188 35.484375 18.207031 L 37.789062 15.847656 C 38.324219 15.300781 38.324219 14.40625 37.789062 13.855469 C 37.519531 13.582031 37.164062 13.445312 36.8125 13.445312 Z M 34.507812 20.242188 C 33.714844 20.242188 32.96875 19.929688 32.410156 19.355469 C 31.847656 18.785156 31.539062 18.019531 31.539062 17.210938 C 31.539062 16.402344 31.847656 15.636719 32.410156 15.066406 L 34.714844 12.707031 C 35.871094 11.523438 37.753906 11.523438 38.910156 12.707031 C 40.066406 13.890625 40.066406 15.816406 38.910156 16.996094 L 36.605469 19.355469 C 36.042969 19.929688 35.296875 20.242188 34.507812 20.242188 " fill-opacity="1" fill-rule="nonzero"/></g><path fill="#6567fd" d="M 69.800781 16.425781 L 72.105469 18.78125 C 72.953125 19.648438 74.328125 19.648438 75.175781 18.78125 C 76.027344 17.914062 76.027344 16.507812 75.175781 15.640625 L 72.871094 13.28125 C 72.023438 12.414062 70.648438 12.414062 69.800781 13.28125 C 68.953125 14.148438 68.953125 15.554688 69.800781 16.425781 " fill-opacity="1" fill-rule="nonzero"/><g clip-path="url(#f7c59c7a23)"><path fill="#51304c" d="M 70.363281 15.847656 L 72.664062 18.207031 C 73.1875 18.742188 74.097656 18.742188 74.617188 18.207031 C 74.878906 17.941406 75.019531 17.585938 75.019531 17.210938 C 75.019531 16.835938 74.878906 16.480469 74.617188 16.210938 L 72.308594 13.855469 C 71.773438 13.304688 70.898438 13.304688 70.363281 13.855469 C 69.824219 14.40625 69.824219 15.300781 70.363281 15.847656 Z M 73.640625 20.242188 C 72.851562 20.242188 72.105469 19.929688 71.542969 19.355469 L 69.238281 16.996094 C 68.082031 15.816406 68.082031 13.890625 69.238281 12.707031 C 70.394531 11.523438 72.277344 11.523438 73.433594 12.707031 L 75.738281 15.066406 C 76.300781 15.636719 76.609375 16.402344 76.609375 17.210938 C 76.609375 18.019531 76.300781 18.785156 75.738281 19.355469 C 75.179688 19.929688 74.433594 20.242188 73.640625 20.242188 " fill-opacity="1" fill-rule="nonzero"/></g><g clip-path="url(#65f2c49026)"><path fill="#6567fd" d="M 75.921875 34.796875 C 75.921875 47.140625 66.140625 57.144531 54.074219 57.144531 C 42.007812 57.144531 32.226562 47.140625 32.226562 34.796875 C 32.226562 22.457031 42.007812 12.453125 54.074219 12.453125 C 66.140625 12.453125 75.921875 22.457031 75.921875 34.796875 " fill-opacity="1" fill-rule="nonzero"/></g><path fill="#ffffff" d="M 71.089844 34.796875 C 71.089844 44.410156 63.472656 52.199219 54.074219 52.199219 C 44.675781 52.199219 37.058594 44.410156 37.058594 34.796875 C 37.058594 25.1875 44.675781 17.398438 54.074219 17.398438 C 63.472656 17.398438 71.089844 25.1875 71.089844 34.796875 " fill-opacity="1" fill-rule="nonzero"/><path fill="#51304c" d="M 45.53125 26.0625 C 45.222656 26.378906 44.71875 26.378906 44.410156 26.0625 L 41.480469 23.066406 C 41.171875 22.75 41.171875 22.234375 41.480469 21.917969 C 41.789062 21.601562 42.292969 21.601562 42.601562 21.917969 L 45.53125 24.914062 C 45.84375 25.230469 45.84375 25.746094 45.53125 26.0625 " fill-opacity="1" fill-rule="nonzero"/><path fill="#51304c" d="M 45.53125 44.683594 L 42.601562 47.679688 C 42.292969 47.996094 41.789062 47.996094 41.480469 47.679688 C 41.171875 47.363281 41.171875 46.847656 41.480469 46.53125 L 44.410156 43.535156 C 44.71875 43.21875 45.222656 43.21875 45.53125 43.535156 C 45.84375 43.851562 45.84375 44.367188 45.53125 44.683594 " fill-opacity="1" fill-rule="nonzero"/><path fill="#51304c" d="M 62.617188 26.0625 C 62.925781 26.378906 63.429688 26.378906 63.738281 26.0625 L 66.667969 23.066406 C 66.976562 22.75 66.976562 22.234375 66.667969 21.917969 C 66.359375 21.601562 65.855469 21.601562 65.546875 21.917969 L 62.617188 24.914062 C 62.308594 25.230469 62.308594 25.746094 62.617188 26.0625 " fill-opacity="1" fill-rule="nonzero"/><path fill="#51304c" d="M 62.617188 44.683594 L 65.546875 47.679688 C 65.855469 47.996094 66.359375 47.996094 66.667969 47.679688 C 66.976562 47.363281 66.976562 46.847656 66.667969 46.53125 L 63.738281 43.535156 C 63.429688 43.21875 62.925781 43.21875 62.617188 43.535156 C 62.308594 43.851562 62.308594 44.367188 62.617188 44.683594 " fill-opacity="1" fill-rule="nonzero"/><path fill="#6567fd" d="M 55.40625 33.277344 L 52.742188 33.277344 L 52.742188 26.90625 C 52.742188 26.15625 53.339844 25.546875 54.074219 25.546875 C 54.808594 25.546875 55.40625 26.15625 55.40625 26.90625 L 55.40625 33.277344 " fill-opacity="1" fill-rule="nonzero"/><path fill="#6567fd" d="M 52.285156 34.707031 L 54.171875 36.632812 L 48.375 42.5625 C 47.855469 43.097656 47.007812 43.097656 46.488281 42.5625 C 45.96875 42.03125 45.96875 41.167969 46.488281 40.636719 L 52.285156 34.707031 " fill-opacity="1" fill-rule="nonzero"/><path fill="#51304c" d="M 54.074219 18.207031 C 45.128906 18.207031 37.851562 25.648438 37.851562 34.796875 C 37.851562 43.949219 45.128906 51.390625 54.074219 51.390625 C 63.019531 51.390625 70.296875 43.949219 70.296875 34.796875 C 70.296875 25.648438 63.019531 18.207031 54.074219 18.207031 Z M 54.074219 53.011719 C 44.253906 53.011719 36.265625 44.84375 36.265625 34.796875 C 36.265625 24.753906 44.253906 16.585938 54.074219 16.585938 C 63.894531 16.585938 71.882812 24.753906 71.882812 34.796875 C 71.882812 44.84375 63.894531 53.011719 54.074219 53.011719 " fill-opacity="1" fill-rule="nonzero"/><path fill="#51304c" d="M 55.015625 21.691406 C 54.5 22.21875 53.664062 22.21875 53.144531 21.691406 C 52.628906 21.160156 52.628906 20.304688 53.144531 19.777344 C 53.664062 19.25 54.5 19.25 55.015625 19.777344 C 55.535156 20.304688 55.535156 21.160156 55.015625 21.691406 " fill-opacity="1" fill-rule="nonzero"/><path fill="#51304c" d="M 55.015625 47.894531 C 54.5 47.363281 53.664062 47.363281 53.144531 47.894531 C 52.628906 48.417969 52.628906 49.277344 53.144531 49.804688 C 53.664062 50.335938 54.5 50.335938 55.015625 49.804688 C 55.535156 49.277344 55.535156 48.417969 55.015625 47.894531 " fill-opacity="1" fill-rule="nonzero"/><path fill="#51304c" d="M 41.273438 33.835938 C 41.789062 34.363281 41.789062 35.21875 41.273438 35.746094 C 40.757812 36.277344 39.917969 36.277344 39.402344 35.746094 C 38.882812 35.21875 38.882812 34.363281 39.402344 33.835938 C 39.917969 33.304688 40.757812 33.304688 41.273438 33.835938 " fill-opacity="1" fill-rule="nonzero"/><path fill="#51304c" d="M 66.890625 33.835938 C 66.375 34.363281 66.375 35.21875 66.890625 35.746094 C 67.40625 36.277344 68.246094 36.277344 68.761719 35.746094 C 69.277344 35.21875 69.277344 34.363281 68.761719 33.835938 C 68.246094 33.304688 67.40625 33.304688 66.890625 33.835938 " fill-opacity="1" fill-rule="nonzero"/><g clip-path="url(#b0eb394f19)"><path fill="#51304c" d="M 54.074219 13.265625 C 42.464844 13.265625 33.019531 22.925781 33.019531 34.796875 C 33.019531 46.671875 42.464844 56.332031 54.074219 56.332031 C 65.683594 56.332031 75.128906 46.671875 75.128906 34.796875 C 75.128906 22.925781 65.683594 13.265625 54.074219 13.265625 Z M 54.074219 57.957031 C 41.589844 57.957031 31.429688 47.566406 31.429688 34.796875 C 31.429688 22.03125 41.589844 11.640625 54.074219 11.640625 C 66.558594 11.640625 76.71875 22.03125 76.71875 34.796875 C 76.71875 47.566406 66.558594 57.957031 54.074219 57.957031 " fill-opacity="1" fill-rule="nonzero"/></g><path fill="#51304c" d="M 53.535156 32.464844 L 54.613281 32.464844 L 54.613281 26.90625 C 54.613281 26.601562 54.371094 26.359375 54.074219 26.359375 C 53.777344 26.359375 53.535156 26.601562 53.535156 26.90625 Z M 55.40625 34.089844 L 52.742188 34.089844 C 52.304688 34.089844 51.949219 33.726562 51.949219 33.277344 L 51.949219 26.90625 C 51.949219 25.707031 52.902344 24.734375 54.074219 24.734375 C 55.246094 24.734375 56.199219 25.707031 56.199219 26.90625 L 56.199219 33.277344 C 56.199219 33.726562 55.84375 34.089844 55.40625 34.089844 " fill-opacity="1" fill-rule="nonzero"/><path fill="#51304c" d="M 52.285156 35.855469 L 47.050781 41.207031 C 46.949219 41.3125 46.890625 41.453125 46.890625 41.597656 C 46.890625 41.746094 46.949219 41.886719 47.050781 41.988281 C 47.253906 42.199219 47.609375 42.199219 47.8125 41.988281 L 53.050781 36.632812 Z M 47.433594 43.773438 C 46.863281 43.773438 46.328125 43.546875 45.929688 43.136719 C 45.527344 42.726562 45.304688 42.179688 45.304688 41.597656 C 45.304688 41.019531 45.527344 40.472656 45.929688 40.058594 L 51.726562 34.132812 C 52.035156 33.816406 52.539062 33.816406 52.847656 34.132812 L 54.734375 36.0625 C 54.882812 36.214844 54.964844 36.417969 54.964844 36.632812 C 54.964844 36.847656 54.882812 37.054688 54.734375 37.207031 L 48.9375 43.136719 C 48.535156 43.546875 48 43.773438 47.433594 43.773438 " fill-opacity="1" fill-rule="nonzero"/><path fill="#fbfcf5" d="M 56.089844 34.796875 C 56.089844 35.9375 55.1875 36.863281 54.074219 36.863281 C 52.960938 36.863281 52.058594 35.9375 52.058594 34.796875 C 52.058594 33.660156 52.960938 32.734375 54.074219 32.734375 C 55.1875 32.734375 56.089844 33.660156 56.089844 34.796875 " fill-opacity="1" fill-rule="nonzero"/><path fill="#51304c" d="M 54.074219 33.546875 C 53.402344 33.546875 52.851562 34.109375 52.851562 34.796875 C 52.851562 35.488281 53.402344 36.050781 54.074219 36.050781 C 54.75 36.050781 55.296875 35.488281 55.296875 34.796875 C 55.296875 34.109375 54.75 33.546875 54.074219 33.546875 Z M 54.074219 37.671875 C 52.523438 37.671875 51.261719 36.382812 51.261719 34.796875 C 51.261719 33.214844 52.523438 31.921875 54.074219 31.921875 C 55.625 31.921875 56.886719 33.214844 56.886719 34.796875 C 56.886719 36.382812 55.625 37.671875 54.074219 37.671875 " fill-opacity="1" fill-rule="nonzero"/><g fill="#1b1f23" fill-opacity="1"><g transform="translate(79.490802, 41.516507)"><g><path d="M 2.40625 -13.6875 L 2.40625 -16.59375 C 2.414062 -18.644531 2.890625 -20.28125 3.828125 -21.5 C 4.773438 -22.726562 6.085938 -23.34375 7.765625 -23.34375 C 8.472656 -23.34375 9.148438 -23.238281 9.796875 -23.03125 C 10.453125 -22.832031 10.921875 -22.628906 11.203125 -22.421875 L 11.65625 -22.125 L 10 -18.78125 C 9.582031 -19.03125 9.113281 -19.15625 8.59375 -19.15625 C 8.007812 -19.15625 7.617188 -18.953125 7.421875 -18.546875 C 7.222656 -18.148438 7.125 -17.457031 7.125 -16.46875 L 7.125 -13.6875 L 10.28125 -13.6875 L 10.28125 -10.09375 L 7.125 -10.09375 L 7.125 0 L 2.40625 0 L 2.40625 -10.09375 L 0.421875 -10.09375 L 0.421875 -13.6875 Z M 2.40625 -13.6875 "/></g></g></g><g fill="#1b1f23" fill-opacity="1"><g transform="translate(89.495995, 41.516507)"><g><path d="M 2.890625 -1.625 C 1.367188 -2.976562 0.609375 -4.710938 0.609375 -6.828125 C 0.609375 -8.941406 1.398438 -10.679688 2.984375 -12.046875 C 4.566406 -13.410156 6.523438 -14.09375 8.859375 -14.09375 C 11.148438 -14.09375 13.082031 -13.40625 14.65625 -12.03125 C 16.238281 -10.664062 17.03125 -8.929688 17.03125 -6.828125 C 17.03125 -4.734375 16.257812 -3.003906 14.71875 -1.640625 C 13.175781 -0.273438 11.222656 0.40625 8.859375 0.40625 C 6.398438 0.40625 4.410156 -0.269531 2.890625 -1.625 Z M 6.546875 -9.15625 C 5.929688 -8.550781 5.625 -7.773438 5.625 -6.828125 C 5.625 -5.890625 5.914062 -5.117188 6.5 -4.515625 C 7.09375 -3.921875 7.867188 -3.625 8.828125 -3.625 C 9.753906 -3.625 10.515625 -3.925781 11.109375 -4.53125 C 11.710938 -5.132812 12.015625 -5.898438 12.015625 -6.828125 C 12.015625 -7.773438 11.707031 -8.550781 11.09375 -9.15625 C 10.476562 -9.757812 9.722656 -10.0625 8.828125 -10.0625 C 7.921875 -10.0625 7.160156 -9.757812 6.546875 -9.15625 Z M 6.546875 -9.15625 "/></g></g></g><g fill="#1b1f23" fill-opacity="1"><g transform="translate(107.131806, 41.516507)"><g><path d="M 8.890625 -10.21875 C 7.992188 -10.21875 7.222656 -9.890625 6.578125 -9.234375 C 5.941406 -8.578125 5.625 -7.785156 5.625 -6.859375 C 5.625 -5.910156 5.941406 -5.109375 6.578125 -4.453125 C 7.222656 -3.796875 7.992188 -3.46875 8.890625 -3.46875 C 9.316406 -3.46875 9.71875 -3.519531 10.09375 -3.625 C 10.476562 -3.738281 10.757812 -3.847656 10.9375 -3.953125 L 11.1875 -4.109375 L 12.78125 -0.828125 C 12.65625 -0.734375 12.476562 -0.617188 12.25 -0.484375 C 12.03125 -0.359375 11.523438 -0.179688 10.734375 0.046875 C 9.941406 0.285156 9.09375 0.40625 8.1875 0.40625 C 6.175781 0.40625 4.410156 -0.300781 2.890625 -1.71875 C 1.367188 -3.132812 0.609375 -4.832031 0.609375 -6.8125 C 0.609375 -8.800781 1.367188 -10.507812 2.890625 -11.9375 C 4.410156 -13.375 6.175781 -14.09375 8.1875 -14.09375 C 9.09375 -14.09375 9.925781 -13.984375 10.6875 -13.765625 C 11.457031 -13.554688 12.003906 -13.34375 12.328125 -13.125 L 12.78125 -12.8125 L 11.1875 -9.578125 C 10.59375 -10.003906 9.828125 -10.21875 8.890625 -10.21875 Z M 8.890625 -10.21875 "/></g></g></g><g fill="#1b1f23" fill-opacity="1"><g transform="translate(120.231938, 41.516507)"><g><path d="M 6.0625 -13.6875 L 6.0625 -7.171875 C 6.0625 -5.828125 6.265625 -4.867188 6.671875 -4.296875 C 7.078125 -3.722656 7.769531 -3.4375 8.75 -3.4375 C 9.726562 -3.4375 10.421875 -3.722656 10.828125 -4.296875 C 11.242188 -4.867188 11.453125 -5.828125 11.453125 -7.171875 L 11.453125 -13.6875 L 16.171875 -13.6875 L 16.171875 -6.03125 C 16.171875 -3.75 15.578125 -2.101562 14.390625 -1.09375 C 13.210938 -0.09375 11.332031 0.40625 8.75 0.40625 C 6.175781 0.40625 4.296875 -0.09375 3.109375 -1.09375 C 1.921875 -2.101562 1.328125 -3.75 1.328125 -6.03125 L 1.328125 -13.6875 Z M 6.0625 -13.6875 "/></g></g></g><g fill="#1b1f23" fill-opacity="1"><g transform="translate(137.734353, 41.516507)"><g><path d="M 7.546875 -14.09375 C 8.335938 -14.09375 9.113281 -14.003906 9.875 -13.828125 C 10.632812 -13.648438 11.203125 -13.472656 11.578125 -13.296875 L 12.140625 -13.03125 L 10.59375 -9.921875 C 9.53125 -10.492188 8.515625 -10.78125 7.546875 -10.78125 C 7.015625 -10.78125 6.632812 -10.722656 6.40625 -10.609375 C 6.1875 -10.492188 6.078125 -10.273438 6.078125 -9.953125 C 6.078125 -9.878906 6.085938 -9.804688 6.109375 -9.734375 C 6.128906 -9.671875 6.164062 -9.609375 6.21875 -9.546875 C 6.269531 -9.484375 6.316406 -9.425781 6.359375 -9.375 C 6.410156 -9.332031 6.488281 -9.285156 6.59375 -9.234375 C 6.695312 -9.179688 6.78125 -9.140625 6.84375 -9.109375 C 6.90625 -9.085938 7.003906 -9.046875 7.140625 -8.984375 C 7.285156 -8.929688 7.394531 -8.890625 7.46875 -8.859375 C 7.539062 -8.835938 7.660156 -8.800781 7.828125 -8.75 C 8.003906 -8.695312 8.132812 -8.660156 8.21875 -8.640625 C 8.769531 -8.484375 9.25 -8.304688 9.65625 -8.109375 C 10.070312 -7.910156 10.503906 -7.644531 10.953125 -7.3125 C 11.410156 -6.976562 11.765625 -6.550781 12.015625 -6.03125 C 12.265625 -5.507812 12.390625 -4.921875 12.390625 -4.265625 C 12.390625 -1.148438 10.222656 0.40625 5.890625 0.40625 C 4.921875 0.40625 3.992188 0.253906 3.109375 -0.046875 C 2.222656 -0.347656 1.585938 -0.648438 1.203125 -0.953125 L 0.609375 -1.4375 L 2.53125 -4.671875 C 2.675781 -4.546875 2.863281 -4.394531 3.09375 -4.21875 C 3.320312 -4.050781 3.738281 -3.820312 4.34375 -3.53125 C 4.945312 -3.238281 5.472656 -3.09375 5.921875 -3.09375 C 6.898438 -3.09375 7.390625 -3.421875 7.390625 -4.078125 C 7.390625 -4.378906 7.265625 -4.613281 7.015625 -4.78125 C 6.765625 -4.957031 6.34375 -5.148438 5.75 -5.359375 C 5.15625 -5.578125 4.6875 -5.773438 4.34375 -5.953125 C 3.488281 -6.398438 2.8125 -6.898438 2.3125 -7.453125 C 1.820312 -8.015625 1.578125 -8.757812 1.578125 -9.6875 C 1.578125 -11.070312 2.113281 -12.148438 3.1875 -12.921875 C 4.257812 -13.703125 5.710938 -14.09375 7.546875 -14.09375 Z M 7.546875 -14.09375 "/></g></g></g><g fill="#949da5" fill-opacity="1"><g transform="translate(150.858442, 41.516507)"><g><path d="M 2.40625 -13.6875 L 2.40625 -18.78125 L 7.125 -18.78125 L 7.125 -13.6875 L 10 -13.6875 L 10 -10.09375 L 7.125 -10.09375 L 7.125 -5.734375 C 7.125 -4.472656 7.476562 -3.84375 8.1875 -3.84375 C 8.363281 -3.84375 8.550781 -3.878906 8.75 -3.953125 C 8.945312 -4.023438 9.097656 -4.09375 9.203125 -4.15625 L 9.375 -4.265625 L 10.546875 -0.453125 C 9.523438 0.117188 8.367188 0.40625 7.078125 0.40625 C 6.179688 0.40625 5.410156 0.25 4.765625 -0.0625 C 4.128906 -0.375 3.644531 -0.789062 3.3125 -1.3125 C 2.988281 -1.84375 2.753906 -2.394531 2.609375 -2.96875 C 2.472656 -3.550781 2.40625 -4.171875 2.40625 -4.828125 L 2.40625 -10.09375 L 0.421875 -10.09375 L 0.421875 -13.6875 Z M 2.40625 -13.6875 "/></g></g></g><g fill="#949da5" fill-opacity="1"><g transform="translate(161.397245, 41.516507)"><g><path d="M 2.046875 -21.328125 C 2.597656 -21.878906 3.253906 -22.15625 4.015625 -22.15625 C 4.785156 -22.15625 5.445312 -21.878906 6 -21.328125 C 6.550781 -20.773438 6.828125 -20.113281 6.828125 -19.34375 C 6.828125 -18.582031 6.550781 -17.925781 6 -17.375 C 5.445312 -16.820312 4.785156 -16.546875 4.015625 -16.546875 C 3.253906 -16.546875 2.597656 -16.820312 2.046875 -17.375 C 1.503906 -17.925781 1.234375 -18.582031 1.234375 -19.34375 C 1.234375 -20.113281 1.503906 -20.773438 2.046875 -21.328125 Z M 1.59375 -13.6875 L 1.59375 0 L 6.328125 0 L 6.328125 -13.6875 Z M 1.59375 -13.6875 "/></g></g></g><g fill="#949da5" fill-opacity="1"><g transform="translate(169.454756, 41.516507)"><g><path d="M 1.59375 0 L 1.59375 -13.6875 L 6.328125 -13.6875 L 6.328125 -12.25 L 6.375 -12.25 C 7.601562 -13.476562 8.910156 -14.09375 10.296875 -14.09375 C 11.296875 -14.09375 12.226562 -13.882812 13.09375 -13.46875 C 13.96875 -13.0625 14.628906 -12.429688 15.078125 -11.578125 C 16.460938 -13.253906 17.972656 -14.09375 19.609375 -14.09375 C 21.066406 -14.09375 22.320312 -13.679688 23.375 -12.859375 C 24.425781 -12.046875 24.953125 -10.765625 24.953125 -9.015625 L 24.953125 0 L 20.234375 0 L 20.234375 -7.734375 C 20.234375 -8.460938 20.03125 -9.070312 19.625 -9.5625 C 19.226562 -10.050781 18.628906 -10.296875 17.828125 -10.296875 C 17.128906 -10.296875 16.597656 -10.085938 16.234375 -9.671875 C 15.867188 -9.253906 15.671875 -8.753906 15.640625 -8.171875 L 15.640625 0 L 10.921875 0 L 10.921875 -7.734375 C 10.921875 -8.460938 10.71875 -9.070312 10.3125 -9.5625 C 9.914062 -10.050781 9.316406 -10.296875 8.515625 -10.296875 C 7.785156 -10.296875 7.238281 -10.066406 6.875 -9.609375 C 6.507812 -9.160156 6.328125 -8.625 6.328125 -8 L 6.328125 0 Z M 1.59375 0 "/></g></g></g><g fill="#949da5" fill-opacity="1"><g transform="translate(195.735056, 41.516507)"><g><path d="M 15.453125 -6.1875 L 5.53125 -6.1875 C 5.53125 -5.226562 5.835938 -4.515625 6.453125 -4.046875 C 7.078125 -3.585938 7.753906 -3.359375 8.484375 -3.359375 C 9.253906 -3.359375 9.859375 -3.457031 10.296875 -3.65625 C 10.742188 -3.863281 11.253906 -4.273438 11.828125 -4.890625 L 15.234375 -3.171875 C 13.816406 -0.785156 11.453125 0.40625 8.140625 0.40625 C 6.078125 0.40625 4.304688 -0.300781 2.828125 -1.71875 C 1.347656 -3.132812 0.609375 -4.835938 0.609375 -6.828125 C 0.609375 -8.828125 1.347656 -10.535156 2.828125 -11.953125 C 4.304688 -13.378906 6.078125 -14.09375 8.140625 -14.09375 C 10.304688 -14.09375 12.070312 -13.460938 13.4375 -12.203125 C 14.800781 -10.953125 15.484375 -9.160156 15.484375 -6.828125 C 15.484375 -6.515625 15.472656 -6.300781 15.453125 -6.1875 Z M 5.65625 -8.8125 L 10.859375 -8.8125 C 10.753906 -9.519531 10.472656 -10.0625 10.015625 -10.4375 C 9.566406 -10.820312 8.984375 -11.015625 8.265625 -11.015625 C 7.484375 -11.015625 6.863281 -10.8125 6.40625 -10.40625 C 5.945312 -10 5.695312 -9.46875 5.65625 -8.8125 Z M 5.65625 -8.8125 "/></g></g></g><g fill="#949da5" fill-opacity="1"><g transform="translate(211.8234, 41.516507)"><g><path d="M 1.59375 0 L 1.59375 -13.6875 L 6.328125 -13.6875 L 6.328125 -11.71875 L 6.375 -11.71875 C 6.414062 -11.789062 6.472656 -11.878906 6.546875 -11.984375 C 6.628906 -12.085938 6.800781 -12.269531 7.0625 -12.53125 C 7.332031 -12.800781 7.617188 -13.039062 7.921875 -13.25 C 8.222656 -13.46875 8.613281 -13.660156 9.09375 -13.828125 C 9.582031 -14.003906 10.070312 -14.09375 10.5625 -14.09375 C 11.082031 -14.09375 11.59375 -14.019531 12.09375 -13.875 C 12.59375 -13.726562 12.957031 -13.585938 13.1875 -13.453125 L 13.5625 -13.234375 L 11.578125 -9.234375 C 10.992188 -9.734375 10.175781 -9.984375 9.125 -9.984375 C 8.550781 -9.984375 8.0625 -9.859375 7.65625 -9.609375 C 7.25 -9.359375 6.957031 -9.054688 6.78125 -8.703125 C 6.613281 -8.347656 6.492188 -8.046875 6.421875 -7.796875 C 6.359375 -7.546875 6.328125 -7.347656 6.328125 -7.203125 L 6.328125 0 Z M 1.59375 0 "/></g></g></g></svg>