<svg xmlns="http://www.w3.org/2000/svg" xmlns:xlink="http://www.w3.org/1999/xlink" width="342" zoomAndPan="magnify" viewBox="0 0 256.5 60" height="80" preserveAspectRatio="xMidYMid meet" version="1.0"><defs><g/><clipPath id="ee75128b57"><path d="M 0 0.0585938 L 256 0.0585938 L 256 59.941406 L 0 59.941406 Z M 0 0.0585938 " clip-rule="nonzero"/></clipPath><clipPath id="f413bdd2ae"><path d="M 46 3.464844 L 61 3.464844 L 61 11 L 46 11 Z M 46 3.464844 " clip-rule="nonzero"/></clipPath><clipPath id="7e7f7d62b1"><path d="M 31.367188 11 L 40 11 L 40 20 L 31.367188 20 Z M 31.367188 11 " clip-rule="nonzero"/></clipPath><clipPath id="babbc86aa0"><path d="M 68 11 L 76.367188 11 L 76.367188 20 L 68 20 Z M 68 11 " clip-rule="nonzero"/></clipPath><clipPath id="56e4c3adf2"><path d="M 31.367188 11 L 76.367188 11 L 76.367188 56.714844 L 31.367188 56.714844 Z M 31.367188 11 " clip-rule="nonzero"/></clipPath></defs><g clip-path="url(#ee75128b57)"><path fill="#ffffff" d="M 0 0.0585938 L 256.5 0.0585938 L 256.5 67.558594 L 0 67.558594 Z M 0 0.0585938 " fill-opacity="1" fill-rule="nonzero"/><path fill="#ffffff" d="M 0 0.0585938 L 256.5 0.0585938 L 256.5 60.058594 L 0 60.058594 Z M 0 0.0585938 " fill-opacity="1" fill-rule="nonzero"/><path fill="#ffffff" d="M 0 0.0585938 L 256.5 0.0585938 L 256.5 60.058594 L 0 60.058594 Z M 0 0.0585938 " fill-opacity="1" fill-rule="nonzero"/></g><path fill="#fbfcf5" d="M 56.59375 12.96875 L 51.140625 12.96875 L 51.140625 8.238281 L 56.59375 8.238281 L 56.59375 12.96875 " fill-opacity="1" fill-rule="nonzero"/><path fill="#51304c" d="M 51.929688 12.175781 L 55.804688 12.175781 L 55.804688 10.433594 L 51.929688 10.433594 Z M 56.59375 13.761719 L 51.140625 13.761719 C 50.707031 13.761719 50.355469 13.40625 50.355469 12.96875 L 50.355469 9.640625 C 50.355469 9.203125 50.707031 8.847656 51.140625 8.847656 L 56.59375 8.847656 C 57.027344 8.847656 57.378906 9.203125 57.378906 9.640625 L 57.378906 12.96875 C 57.378906 13.40625 57.027344 13.761719 56.59375 13.761719 " fill-opacity="1" fill-rule="nonzero"/><path fill="#5271ff" d="M 57.289062 9.640625 L 50.445312 9.640625 C 48.96875 9.640625 47.773438 8.433594 47.773438 6.945312 C 47.773438 5.457031 48.96875 4.25 50.445312 4.25 L 57.289062 4.25 C 58.765625 4.25 59.960938 5.457031 59.960938 6.945312 C 59.960938 8.433594 58.765625 9.640625 57.289062 9.640625 " fill-opacity="1" fill-rule="nonzero"/><g clip-path="url(#f413bdd2ae)"><path fill="#51304c" d="M 50.445312 5.042969 C 49.40625 5.042969 48.558594 5.898438 48.558594 6.945312 C 48.558594 7.996094 49.40625 8.847656 50.445312 8.847656 L 57.289062 8.847656 C 58.328125 8.847656 59.175781 7.996094 59.175781 6.945312 C 59.175781 5.898438 58.328125 5.042969 57.289062 5.042969 Z M 57.289062 10.433594 L 50.445312 10.433594 C 48.539062 10.433594 46.988281 8.871094 46.988281 6.945312 C 46.988281 5.019531 48.539062 3.457031 50.445312 3.457031 L 57.289062 3.457031 C 59.195312 3.457031 60.746094 5.019531 60.746094 6.945312 C 60.746094 8.871094 59.195312 10.433594 57.289062 10.433594 " fill-opacity="1" fill-rule="nonzero"/></g><path fill="#fbfcf5" d="M 67.273438 18.421875 L 69.453125 20.621094 L 72.523438 17.527344 L 70.339844 15.328125 L 67.273438 18.421875 " fill-opacity="1" fill-rule="nonzero"/><path fill="#51304c" d="M 68.382812 18.421875 L 69.453125 19.5 L 71.410156 17.527344 L 70.339844 16.449219 Z M 69.453125 21.414062 C 69.242188 21.414062 69.046875 21.332031 68.898438 21.183594 L 66.71875 18.984375 C 66.410156 18.675781 66.410156 18.171875 66.71875 17.863281 L 69.785156 14.765625 C 70.09375 14.457031 70.589844 14.457031 70.894531 14.765625 L 73.078125 16.964844 C 73.382812 17.277344 73.382812 17.777344 73.078125 18.089844 L 70.007812 21.183594 C 69.863281 21.332031 69.660156 21.414062 69.453125 21.414062 " fill-opacity="1" fill-rule="nonzero"/><path fill="#fbfcf5" d="M 40.464844 18.421875 L 38.28125 20.621094 L 35.214844 17.527344 L 37.394531 15.328125 L 40.464844 18.421875 " fill-opacity="1" fill-rule="nonzero"/><path fill="#51304c" d="M 36.324219 17.527344 L 38.28125 19.5 L 39.351562 18.421875 L 37.394531 16.449219 Z M 38.28125 21.414062 C 38.074219 21.414062 37.871094 21.332031 37.726562 21.183594 L 34.660156 18.089844 C 34.351562 17.777344 34.351562 17.277344 34.660156 16.964844 L 36.839844 14.765625 C 37.144531 14.457031 37.640625 14.457031 37.949219 14.765625 L 41.019531 17.863281 C 41.324219 18.171875 41.324219 18.675781 41.019531 18.984375 L 38.835938 21.183594 C 38.691406 21.332031 38.492188 21.414062 38.28125 21.414062 " fill-opacity="1" fill-rule="nonzero"/><path fill="#5271ff" d="M 38.289062 16.128906 L 36.003906 18.429688 C 35.167969 19.28125 33.800781 19.28125 32.964844 18.429688 C 32.121094 17.585938 32.121094 16.210938 32.964844 15.363281 L 35.246094 13.054688 C 36.085938 12.210938 37.449219 12.210938 38.289062 13.054688 C 39.128906 13.90625 39.128906 15.277344 38.289062 16.128906 " fill-opacity="1" fill-rule="nonzero"/><g clip-path="url(#7e7f7d62b1)"><path fill="#51304c" d="M 38.289062 16.128906 L 38.292969 16.128906 Z M 36.769531 13.214844 C 36.417969 13.214844 36.070312 13.347656 35.804688 13.617188 L 33.519531 15.921875 C 33.261719 16.183594 33.117188 16.527344 33.117188 16.894531 C 33.117188 17.265625 33.261719 17.609375 33.519531 17.871094 C 34.035156 18.390625 34.933594 18.390625 35.449219 17.871094 L 37.734375 15.566406 C 38.265625 15.027344 38.265625 14.15625 37.734375 13.617188 C 37.46875 13.347656 37.117188 13.214844 36.769531 13.214844 Z M 34.484375 19.859375 C 33.699219 19.859375 32.960938 19.550781 32.40625 18.992188 C 31.851562 18.433594 31.546875 17.6875 31.546875 16.894531 C 31.546875 16.105469 31.851562 15.359375 32.40625 14.800781 L 34.691406 12.496094 C 35.835938 11.339844 37.699219 11.339844 38.84375 12.496094 C 39.992188 13.652344 39.992188 15.53125 38.84375 16.6875 L 36.5625 18.992188 C 36.007812 19.550781 35.269531 19.859375 34.484375 19.859375 " fill-opacity="1" fill-rule="nonzero"/></g><path fill="#5271ff" d="M 69.445312 16.128906 L 71.730469 18.429688 C 72.570312 19.28125 73.933594 19.28125 74.773438 18.429688 C 75.613281 17.585938 75.613281 16.210938 74.773438 15.363281 L 72.488281 13.054688 C 71.648438 12.210938 70.285156 12.210938 69.445312 13.054688 C 68.605469 13.90625 68.605469 15.277344 69.445312 16.128906 " fill-opacity="1" fill-rule="nonzero"/><g clip-path="url(#babbc86aa0)"><path fill="#51304c" d="M 70 15.566406 L 72.285156 17.871094 C 72.800781 18.390625 73.699219 18.390625 74.21875 17.871094 C 74.476562 17.609375 74.617188 17.265625 74.617188 16.894531 C 74.617188 16.527344 74.476562 16.183594 74.21875 15.921875 L 71.933594 13.617188 C 71.398438 13.082031 70.535156 13.082031 70 13.617188 C 69.46875 14.15625 69.46875 15.027344 70 15.566406 Z M 73.25 19.859375 C 72.464844 19.859375 71.726562 19.550781 71.171875 18.992188 L 68.890625 16.6875 C 67.742188 15.53125 67.742188 13.652344 68.890625 12.496094 C 70.035156 11.339844 71.898438 11.339844 73.042969 12.496094 L 75.328125 14.800781 C 75.882812 15.359375 76.1875 16.105469 76.1875 16.894531 C 76.1875 17.6875 75.882812 18.433594 75.328125 18.992188 C 74.773438 19.550781 74.035156 19.859375 73.25 19.859375 " fill-opacity="1" fill-rule="nonzero"/></g><path fill="#5271ff" d="M 75.511719 34.082031 C 75.511719 46.140625 65.820312 55.917969 53.867188 55.917969 C 41.914062 55.917969 32.222656 46.140625 32.222656 34.082031 C 32.222656 22.023438 41.914062 12.246094 53.867188 12.246094 C 65.820312 12.246094 75.511719 22.023438 75.511719 34.082031 " fill-opacity="1" fill-rule="nonzero"/><path fill="#ffffff" d="M 70.722656 34.082031 C 70.722656 43.472656 63.175781 51.085938 53.867188 51.085938 C 44.558594 51.085938 37.011719 43.472656 37.011719 34.082031 C 37.011719 24.691406 44.558594 17.078125 53.867188 17.078125 C 63.175781 17.078125 70.722656 24.691406 70.722656 34.082031 " fill-opacity="1" fill-rule="nonzero"/><path fill="#51304c" d="M 45.40625 25.542969 C 45.097656 25.855469 44.601562 25.855469 44.292969 25.542969 L 41.390625 22.617188 C 41.085938 22.308594 41.085938 21.804688 41.390625 21.496094 C 41.699219 21.1875 42.195312 21.1875 42.503906 21.496094 L 45.40625 24.421875 C 45.710938 24.734375 45.710938 25.234375 45.40625 25.542969 " fill-opacity="1" fill-rule="nonzero"/><path fill="#51304c" d="M 45.40625 43.742188 L 42.503906 46.667969 C 42.195312 46.976562 41.699219 46.976562 41.390625 46.667969 C 41.085938 46.359375 41.085938 45.855469 41.390625 45.546875 L 44.292969 42.621094 C 44.601562 42.308594 45.097656 42.308594 45.40625 42.621094 C 45.710938 42.929688 45.710938 43.429688 45.40625 43.742188 " fill-opacity="1" fill-rule="nonzero"/><path fill="#51304c" d="M 62.328125 25.542969 C 62.636719 25.855469 63.132812 25.855469 63.441406 25.542969 L 66.34375 22.617188 C 66.648438 22.308594 66.648438 21.804688 66.34375 21.496094 C 66.035156 21.1875 65.539062 21.1875 65.230469 21.496094 L 62.328125 24.421875 C 62.023438 24.734375 62.023438 25.234375 62.328125 25.542969 " fill-opacity="1" fill-rule="nonzero"/><path fill="#51304c" d="M 62.328125 43.742188 L 65.230469 46.667969 C 65.539062 46.976562 66.035156 46.976562 66.34375 46.667969 C 66.648438 46.359375 66.648438 45.855469 66.34375 45.546875 L 63.441406 42.621094 C 63.132812 42.308594 62.636719 42.308594 62.328125 42.621094 C 62.023438 42.929688 62.023438 43.429688 62.328125 43.742188 " fill-opacity="1" fill-rule="nonzero"/><path fill="#5271ff" d="M 55.1875 32.59375 L 52.546875 32.59375 L 52.546875 26.371094 C 52.546875 25.636719 53.136719 25.039062 53.867188 25.039062 C 54.597656 25.039062 55.1875 25.636719 55.1875 26.371094 L 55.1875 32.59375 " fill-opacity="1" fill-rule="nonzero"/><path fill="#5271ff" d="M 52.097656 33.992188 L 53.964844 35.875 L 48.21875 41.667969 C 47.707031 42.191406 46.871094 42.191406 46.351562 41.667969 C 45.835938 41.148438 45.835938 40.304688 46.351562 39.785156 L 52.097656 33.992188 " fill-opacity="1" fill-rule="nonzero"/><path fill="#51304c" d="M 53.867188 17.871094 C 45.007812 17.871094 37.800781 25.140625 37.800781 34.082031 C 37.800781 43.023438 45.007812 50.292969 53.867188 50.292969 C 62.730469 50.292969 69.9375 43.023438 69.9375 34.082031 C 69.9375 25.140625 62.730469 17.871094 53.867188 17.871094 Z M 53.867188 51.878906 C 44.140625 51.878906 36.226562 43.894531 36.226562 34.082031 C 36.226562 24.269531 44.140625 16.285156 53.867188 16.285156 C 63.59375 16.285156 71.507812 24.269531 71.507812 34.082031 C 71.507812 43.894531 63.59375 51.878906 53.867188 51.878906 " fill-opacity="1" fill-rule="nonzero"/><path fill="#51304c" d="M 54.800781 21.273438 C 54.289062 21.789062 53.460938 21.789062 52.949219 21.273438 C 52.4375 20.757812 52.4375 19.921875 52.949219 19.402344 C 53.460938 18.886719 54.289062 18.886719 54.800781 19.402344 C 55.3125 19.921875 55.3125 20.757812 54.800781 21.273438 " fill-opacity="1" fill-rule="nonzero"/><path fill="#51304c" d="M 54.800781 46.875 C 54.289062 46.359375 53.460938 46.359375 52.949219 46.875 C 52.4375 47.390625 52.4375 48.230469 52.949219 48.746094 C 53.460938 49.261719 54.289062 49.261719 54.800781 48.746094 C 55.3125 48.230469 55.3125 47.390625 54.800781 46.875 " fill-opacity="1" fill-rule="nonzero"/><path fill="#51304c" d="M 41.1875 33.140625 C 41.699219 33.65625 41.699219 34.492188 41.1875 35.007812 C 40.675781 35.527344 39.84375 35.527344 39.332031 35.007812 C 38.820312 34.492188 38.820312 33.65625 39.332031 33.140625 C 39.84375 32.625 40.675781 32.625 41.1875 33.140625 " fill-opacity="1" fill-rule="nonzero"/><path fill="#51304c" d="M 66.5625 33.140625 C 66.050781 33.65625 66.050781 34.492188 66.5625 35.007812 C 67.074219 35.527344 67.90625 35.527344 68.417969 35.007812 C 68.929688 34.492188 68.929688 33.65625 68.417969 33.140625 C 67.90625 32.625 67.074219 32.625 66.5625 33.140625 " fill-opacity="1" fill-rule="nonzero"/><g clip-path="url(#56e4c3adf2)"><path fill="#51304c" d="M 53.867188 13.039062 C 42.367188 13.039062 33.011719 22.480469 33.011719 34.082031 C 33.011719 45.683594 42.367188 55.125 53.867188 55.125 C 65.367188 55.125 74.722656 45.683594 74.722656 34.082031 C 74.722656 22.480469 65.367188 13.039062 53.867188 13.039062 Z M 53.867188 56.710938 C 41.5 56.710938 31.4375 46.558594 31.4375 34.082031 C 31.4375 21.605469 41.5 11.453125 53.867188 11.453125 C 66.234375 11.453125 76.296875 21.605469 76.296875 34.082031 C 76.296875 46.558594 66.234375 56.710938 53.867188 56.710938 " fill-opacity="1" fill-rule="nonzero"/></g><path fill="#51304c" d="M 53.332031 31.800781 L 54.402344 31.800781 L 54.402344 26.371094 C 54.402344 26.074219 54.164062 25.835938 53.867188 25.835938 C 53.574219 25.835938 53.332031 26.074219 53.332031 26.371094 Z M 55.1875 33.386719 L 52.546875 33.386719 C 52.113281 33.386719 51.761719 33.03125 51.761719 32.59375 L 51.761719 26.371094 C 51.761719 25.199219 52.707031 24.246094 53.867188 24.246094 C 55.027344 24.246094 55.972656 25.199219 55.972656 26.371094 L 55.972656 32.59375 C 55.972656 33.03125 55.621094 33.386719 55.1875 33.386719 " fill-opacity="1" fill-rule="nonzero"/><path fill="#51304c" d="M 52.097656 35.113281 L 46.910156 40.34375 C 46.808594 40.449219 46.753906 40.582031 46.753906 40.726562 C 46.753906 40.871094 46.808594 41.007812 46.910156 41.105469 C 47.109375 41.3125 47.464844 41.3125 47.664062 41.105469 L 52.851562 35.875 Z M 47.289062 42.851562 C 46.722656 42.851562 46.195312 42.632812 45.796875 42.230469 C 45.398438 41.828125 45.179688 41.296875 45.179688 40.726562 C 45.179688 40.160156 45.398438 39.625 45.796875 39.222656 L 51.542969 33.429688 C 51.847656 33.121094 52.347656 33.121094 52.652344 33.429688 L 54.519531 35.316406 C 54.667969 35.464844 54.75 35.664062 54.75 35.875 C 54.75 36.085938 54.667969 36.289062 54.519531 36.4375 L 48.777344 42.230469 C 48.378906 42.632812 47.851562 42.851562 47.289062 42.851562 " fill-opacity="1" fill-rule="nonzero"/><path fill="#fbfcf5" d="M 55.867188 34.082031 C 55.867188 35.195312 54.972656 36.097656 53.867188 36.097656 C 52.765625 36.097656 51.867188 35.195312 51.867188 34.082031 C 51.867188 32.96875 52.765625 32.066406 53.867188 32.066406 C 54.972656 32.066406 55.867188 32.96875 55.867188 34.082031 " fill-opacity="1" fill-rule="nonzero"/><path fill="#51304c" d="M 53.867188 32.859375 C 53.199219 32.859375 52.65625 33.40625 52.65625 34.082031 C 52.65625 34.757812 53.199219 35.304688 53.867188 35.304688 C 54.535156 35.304688 55.078125 34.757812 55.078125 34.082031 C 55.078125 33.40625 54.535156 32.859375 53.867188 32.859375 Z M 53.867188 36.890625 C 52.332031 36.890625 51.082031 35.632812 51.082031 34.082031 C 51.082031 32.53125 52.332031 31.273438 53.867188 31.273438 C 55.402344 31.273438 56.652344 32.53125 56.652344 34.082031 C 56.652344 35.632812 55.402344 36.890625 53.867188 36.890625 " fill-opacity="1" fill-rule="nonzero"/><g fill="#1b1f23" fill-opacity="1"><g transform="translate(83.706133, 40.10821)"><g><path d="M 0.21875 -17.609375 L 0.21875 -22.015625 L 15.6875 -22.015625 L 15.6875 -17.609375 L 10.46875 -17.609375 L 10.46875 0 L 5.4375 0 L 5.4375 -17.609375 Z M 0.21875 -17.609375 "/></g></g></g><g fill="#1b1f23" fill-opacity="1"><g transform="translate(99.609505, 40.10821)"><g><path d="M 2.046875 -21.328125 C 2.597656 -21.878906 3.253906 -22.15625 4.015625 -22.15625 C 4.785156 -22.15625 5.445312 -21.878906 6 -21.328125 C 6.550781 -20.773438 6.828125 -20.113281 6.828125 -19.34375 C 6.828125 -18.582031 6.550781 -17.925781 6 -17.375 C 5.445312 -16.820312 4.785156 -16.546875 4.015625 -16.546875 C 3.253906 -16.546875 2.597656 -16.820312 2.046875 -17.375 C 1.503906 -17.925781 1.234375 -18.582031 1.234375 -19.34375 C 1.234375 -20.113281 1.503906 -20.773438 2.046875 -21.328125 Z M 1.59375 -13.6875 L 1.59375 0 L 6.328125 0 L 6.328125 -13.6875 Z M 1.59375 -13.6875 "/></g></g></g><g fill="#1b1f23" fill-opacity="1"><g transform="translate(107.667918, 40.10821)"><g><path d="M 1.59375 0 L 1.59375 -13.6875 L 6.328125 -13.6875 L 6.328125 -12.25 L 6.375 -12.25 C 7.601562 -13.476562 8.910156 -14.09375 10.296875 -14.09375 C 11.296875 -14.09375 12.226562 -13.882812 13.09375 -13.46875 C 13.96875 -13.0625 14.628906 -12.429688 15.078125 -11.578125 C 16.460938 -13.253906 17.972656 -14.09375 19.609375 -14.09375 C 21.066406 -14.09375 22.320312 -13.679688 23.375 -12.859375 C 24.425781 -12.046875 24.953125 -10.765625 24.953125 -9.015625 L 24.953125 0 L 20.234375 0 L 20.234375 -7.734375 C 20.234375 -8.460938 20.03125 -9.070312 19.625 -9.5625 C 19.226562 -10.050781 18.628906 -10.296875 17.828125 -10.296875 C 17.128906 -10.296875 16.597656 -10.085938 16.234375 -9.671875 C 15.867188 -9.253906 15.671875 -8.753906 15.640625 -8.171875 L 15.640625 0 L 10.921875 0 L 10.921875 -7.734375 C 10.921875 -8.460938 10.71875 -9.070312 10.3125 -9.5625 C 9.914062 -10.050781 9.316406 -10.296875 8.515625 -10.296875 C 7.785156 -10.296875 7.238281 -10.066406 6.875 -9.609375 C 6.507812 -9.160156 6.328125 -8.625 6.328125 -8 L 6.328125 0 Z M 1.59375 0 "/></g></g></g><g fill="#1b1f23" fill-opacity="1"><g transform="translate(133.951172, 40.10821)"><g><path d="M 15.453125 -6.1875 L 5.53125 -6.1875 C 5.53125 -5.226562 5.835938 -4.515625 6.453125 -4.046875 C 7.078125 -3.585938 7.753906 -3.359375 8.484375 -3.359375 C 9.253906 -3.359375 9.859375 -3.457031 10.296875 -3.65625 C 10.742188 -3.863281 11.253906 -4.273438 11.828125 -4.890625 L 15.234375 -3.171875 C 13.816406 -0.785156 11.453125 0.40625 8.140625 0.40625 C 6.078125 0.40625 4.304688 -0.300781 2.828125 -1.71875 C 1.347656 -3.132812 0.609375 -4.835938 0.609375 -6.828125 C 0.609375 -8.828125 1.347656 -10.535156 2.828125 -11.953125 C 4.304688 -13.378906 6.078125 -14.09375 8.140625 -14.09375 C 10.304688 -14.09375 12.070312 -13.460938 13.4375 -12.203125 C 14.800781 -10.953125 15.484375 -9.160156 15.484375 -6.828125 C 15.484375 -6.515625 15.472656 -6.300781 15.453125 -6.1875 Z M 5.65625 -8.8125 L 10.859375 -8.8125 C 10.753906 -9.519531 10.472656 -10.0625 10.015625 -10.4375 C 9.566406 -10.820312 8.984375 -11.015625 8.265625 -11.015625 C 7.484375 -11.015625 6.863281 -10.8125 6.40625 -10.40625 C 5.945312 -10 5.695312 -9.46875 5.65625 -8.8125 Z M 5.65625 -8.8125 "/></g></g></g><g fill="#1b1f23" fill-opacity="1"><g transform="translate(150.041323, 40.10821)"><g><path d="M 0.21875 -17.609375 L 0.21875 -22.015625 L 15.6875 -22.015625 L 15.6875 -17.609375 L 10.46875 -17.609375 L 10.46875 0 L 5.4375 0 L 5.4375 -17.609375 Z M 0.21875 -17.609375 "/></g></g></g><g fill="#1b1f23" fill-opacity="1"><g transform="translate(165.944694, 40.10821)"><g><path d="M 2.890625 -1.625 C 1.367188 -2.976562 0.609375 -4.710938 0.609375 -6.828125 C 0.609375 -8.941406 1.398438 -10.679688 2.984375 -12.046875 C 4.566406 -13.410156 6.523438 -14.09375 8.859375 -14.09375 C 11.148438 -14.09375 13.082031 -13.40625 14.65625 -12.03125 C 16.238281 -10.664062 17.03125 -8.929688 17.03125 -6.828125 C 17.03125 -4.734375 16.257812 -3.003906 14.71875 -1.640625 C 13.175781 -0.273438 11.222656 0.40625 8.859375 0.40625 C 6.398438 0.40625 4.410156 -0.269531 2.890625 -1.625 Z M 6.546875 -9.15625 C 5.929688 -8.550781 5.625 -7.773438 5.625 -6.828125 C 5.625 -5.890625 5.914062 -5.117188 6.5 -4.515625 C 7.09375 -3.921875 7.867188 -3.625 8.828125 -3.625 C 9.753906 -3.625 10.515625 -3.925781 11.109375 -4.53125 C 11.710938 -5.132812 12.015625 -5.898438 12.015625 -6.828125 C 12.015625 -7.773438 11.707031 -8.550781 11.09375 -9.15625 C 10.476562 -9.757812 9.722656 -10.0625 8.828125 -10.0625 C 7.921875 -10.0625 7.160156 -9.757812 6.546875 -9.15625 Z M 6.546875 -9.15625 "/></g></g></g><g fill="#6567fd" fill-opacity="1"><g transform="translate(183.573309, 40.10821)"><g><path d="M 1.59375 -22.015625 L 7.984375 -22.015625 C 11.035156 -22.015625 13.644531 -20.96875 15.8125 -18.875 C 17.988281 -16.789062 19.078125 -14.171875 19.078125 -11.015625 C 19.078125 -7.847656 17.992188 -5.21875 15.828125 -3.125 C 13.671875 -1.039062 11.054688 0 7.984375 0 L 1.59375 0 Z M 6.625 -4.484375 L 7.390625 -4.484375 C 9.222656 -4.484375 10.722656 -5.097656 11.890625 -6.328125 C 13.054688 -7.566406 13.644531 -9.125 13.65625 -11 C 13.65625 -12.863281 13.070312 -14.414062 11.90625 -15.65625 C 10.75 -16.90625 9.242188 -17.53125 7.390625 -17.53125 L 6.625 -17.53125 Z M 6.625 -4.484375 "/></g></g></g><g fill="#6567fd" fill-opacity="1"><g transform="translate(203.26574, 40.10821)"><g><path d="M 2.890625 -1.625 C 1.367188 -2.976562 0.609375 -4.710938 0.609375 -6.828125 C 0.609375 -8.941406 1.398438 -10.679688 2.984375 -12.046875 C 4.566406 -13.410156 6.523438 -14.09375 8.859375 -14.09375 C 11.148438 -14.09375 13.082031 -13.40625 14.65625 -12.03125 C 16.238281 -10.664062 17.03125 -8.929688 17.03125 -6.828125 C 17.03125 -4.734375 16.257812 -3.003906 14.71875 -1.640625 C 13.175781 -0.273438 11.222656 0.40625 8.859375 0.40625 C 6.398438 0.40625 4.410156 -0.269531 2.890625 -1.625 Z M 6.546875 -9.15625 C 5.929688 -8.550781 5.625 -7.773438 5.625 -6.828125 C 5.625 -5.890625 5.914062 -5.117188 6.5 -4.515625 C 7.09375 -3.921875 7.867188 -3.625 8.828125 -3.625 C 9.753906 -3.625 10.515625 -3.925781 11.109375 -4.53125 C 11.710938 -5.132812 12.015625 -5.898438 12.015625 -6.828125 C 12.015625 -7.773438 11.707031 -8.550781 11.09375 -9.15625 C 10.476562 -9.757812 9.722656 -10.0625 8.828125 -10.0625 C 7.921875 -10.0625 7.160156 -9.757812 6.546875 -9.15625 Z M 6.546875 -9.15625 "/></g></g></g></svg>